%TF.GenerationSoftware,KiCad,Pcbnew,9.0.7*%
%TF.CreationDate,2026-03-12T17:24:57-06:00*%
%TF.ProjectId,Balloon_Shield,42616c6c-6f6f-46e5-9f53-6869656c642e,rev?*%
%TF.SameCoordinates,Original*%
%TF.FileFunction,Soldermask,Top*%
%TF.FilePolarity,Negative*%
%FSLAX46Y46*%
G04 Gerber Fmt 4.6, Leading zero omitted, Abs format (unit mm)*
G04 Created by KiCad (PCBNEW 9.0.7) date 2026-03-12 17:24:57*
%MOMM*%
%LPD*%
G01*
G04 APERTURE LIST*
G04 Aperture macros list*
%AMRoundRect*
0 Rectangle with rounded corners*
0 $1 Rounding radius*
0 $2 $3 $4 $5 $6 $7 $8 $9 X,Y pos of 4 corners*
0 Add a 4 corners polygon primitive as box body*
4,1,4,$2,$3,$4,$5,$6,$7,$8,$9,$2,$3,0*
0 Add four circle primitives for the rounded corners*
1,1,$1+$1,$2,$3*
1,1,$1+$1,$4,$5*
1,1,$1+$1,$6,$7*
1,1,$1+$1,$8,$9*
0 Add four rect primitives between the rounded corners*
20,1,$1+$1,$2,$3,$4,$5,0*
20,1,$1+$1,$4,$5,$6,$7,0*
20,1,$1+$1,$6,$7,$8,$9,0*
20,1,$1+$1,$8,$9,$2,$3,0*%
G04 Aperture macros list end*
%ADD10R,1.700000X1.700000*%
%ADD11O,1.700000X1.700000*%
%ADD12C,1.400000*%
%ADD13R,1.800000X1.800000*%
%ADD14C,1.800000*%
%ADD15C,1.700000*%
%ADD16RoundRect,0.100000X-0.200000X-0.100000X0.200000X-0.100000X0.200000X0.100000X-0.200000X0.100000X0*%
%ADD17R,1.500000X2.400000*%
%ADD18R,1.500000X1.500000*%
%ADD19C,1.500000*%
%ADD20RoundRect,0.250000X-0.950000X-0.550000X0.950000X-0.550000X0.950000X0.550000X-0.950000X0.550000X0*%
%ADD21O,2.400000X1.600000*%
G04 APERTURE END LIST*
D10*
%TO.C,J1*%
X127940000Y-97460000D03*
D11*
X130480000Y-97460000D03*
X133020000Y-97460000D03*
X135560000Y-97460000D03*
X138100000Y-97460000D03*
X140640000Y-97460000D03*
X143180000Y-97460000D03*
X145720000Y-97460000D03*
%TD*%
D10*
%TO.C,J3*%
X150800000Y-97460000D03*
D11*
X153340000Y-97460000D03*
X155880000Y-97460000D03*
X158420000Y-97460000D03*
X160960000Y-97460000D03*
X163500000Y-97460000D03*
%TD*%
D10*
%TO.C,J2*%
X118796000Y-49200000D03*
D11*
X121336000Y-49200000D03*
X123876000Y-49200000D03*
X126416000Y-49200000D03*
X128956000Y-49200000D03*
X131496000Y-49200000D03*
X134036000Y-49200000D03*
X136576000Y-49200000D03*
X139116000Y-49200000D03*
X141656000Y-49200000D03*
%TD*%
D10*
%TO.C,J4*%
X145720000Y-49200000D03*
D11*
X148260000Y-49200000D03*
X150800000Y-49200000D03*
X153340000Y-49200000D03*
X155880000Y-49200000D03*
X158420000Y-49200000D03*
X160960000Y-49200000D03*
X163500000Y-49200000D03*
%TD*%
D12*
%TO.C,R6*%
X145640000Y-70200000D03*
X145640000Y-62580000D03*
%TD*%
D13*
%TO.C,D4*%
X156620000Y-55650000D03*
D14*
X154080000Y-55650000D03*
%TD*%
D10*
%TO.C,J7*%
X136760000Y-59590000D03*
D15*
X136760000Y-62130000D03*
X136760000Y-64670000D03*
X136760000Y-67210000D03*
X136760000Y-69750000D03*
X136760000Y-72290000D03*
%TD*%
D16*
%TO.C,HDC1080*%
X131650000Y-53190000D03*
X131650000Y-54140000D03*
X131650000Y-55090000D03*
X134450000Y-55090000D03*
X134450000Y-54140000D03*
X134450000Y-53190000D03*
D17*
X133050000Y-54140000D03*
%TD*%
D12*
%TO.C,R1*%
X162500000Y-70220000D03*
X162500000Y-62600000D03*
%TD*%
%TO.C,R2*%
X159120000Y-70220000D03*
X159120000Y-62600000D03*
%TD*%
D13*
%TO.C,D1*%
X158115000Y-90290000D03*
D14*
X155575000Y-90290000D03*
%TD*%
D18*
%TO.C,U2*%
X146670000Y-93410000D03*
D19*
X146670000Y-90870000D03*
X146670000Y-88330000D03*
%TD*%
D12*
%TO.C,R3*%
X155800000Y-70250000D03*
X155800000Y-62630000D03*
%TD*%
D13*
%TO.C,D2*%
X165200000Y-90200000D03*
D14*
X162660000Y-90200000D03*
%TD*%
D13*
%TO.C,D5*%
X143635000Y-55700000D03*
D14*
X141095000Y-55700000D03*
%TD*%
D13*
%TO.C,D6*%
X150150000Y-55650000D03*
D14*
X147610000Y-55650000D03*
%TD*%
D13*
%TO.C,D3*%
X163060000Y-55650000D03*
D14*
X160520000Y-55650000D03*
%TD*%
D12*
%TO.C,R5*%
X149060000Y-70200000D03*
X149060000Y-62580000D03*
%TD*%
D10*
%TO.C,J8*%
X135420000Y-92060000D03*
D15*
X135420000Y-89520000D03*
X135420000Y-86980000D03*
X135420000Y-84440000D03*
X135420000Y-81900000D03*
X135420000Y-79360000D03*
X135420000Y-76820000D03*
%TD*%
D12*
%TO.C,R4*%
X152430000Y-70200000D03*
X152430000Y-62580000D03*
%TD*%
D20*
%TO.C,J5*%
X150185000Y-75030000D03*
D21*
X150185000Y-77570000D03*
X150185000Y-80110000D03*
X150185000Y-82650000D03*
X163265000Y-82670000D03*
X163265000Y-80130000D03*
X163265000Y-77590000D03*
X163265000Y-75050000D03*
%TD*%
M02*
