M48
; DRILL file {KiCad 9.0.7} date 2026-03-12T17:24:52-0600
; FORMAT={-:-/ absolute / metric / decimal}
; #@! TF.CreationDate,2026-03-12T17:24:52-06:00
; #@! TF.GenerationSoftware,Kicad,Pcbnew,9.0.7
; #@! TF.FileFunction,Plated,1,2,PTH
FMAT,2
METRIC
; #@! TA.AperFunction,Plated,PTH,ViaDrill
T1C0.400
; #@! TA.AperFunction,Plated,PTH,ComponentDrill
T2C0.700
; #@! TA.AperFunction,Plated,PTH,ComponentDrill
T3C0.800
; #@! TA.AperFunction,Plated,PTH,ComponentDrill
T4C0.900
; #@! TA.AperFunction,Plated,PTH,ComponentDrill
T5C1.000
%
G90
G05
T1
X130.76Y-54.98
T2
X145.64Y-62.58
X145.64Y-70.2
X149.06Y-62.58
X149.06Y-70.2
X152.43Y-62.58
X152.43Y-70.2
X155.8Y-62.63
X155.8Y-70.25
X159.12Y-62.6
X159.12Y-70.22
X162.5Y-62.6
X162.5Y-70.22
T3
X146.67Y-88.33
X146.67Y-90.87
X146.67Y-93.41
X150.185Y-75.03
X150.185Y-77.57
X150.185Y-80.11
X150.185Y-82.65
X163.265Y-75.05
X163.265Y-77.59
X163.265Y-80.13
X163.265Y-82.67
T4
X141.095Y-55.7
X143.635Y-55.7
X147.61Y-55.65
X150.15Y-55.65
X154.08Y-55.65
X155.575Y-90.29
X156.62Y-55.65
X158.115Y-90.29
X160.52Y-55.65
X162.66Y-90.2
X163.06Y-55.65
X165.2Y-90.2
T5
X118.796Y-49.2
X121.336Y-49.2
X123.876Y-49.2
X126.416Y-49.2
X127.94Y-97.46
X128.956Y-49.2
X130.48Y-97.46
X131.496Y-49.2
X133.02Y-97.46
X134.036Y-49.2
X135.42Y-76.82
X135.42Y-79.36
X135.42Y-81.9
X135.42Y-84.44
X135.42Y-86.98
X135.42Y-89.52
X135.42Y-92.06
X135.56Y-97.46
X136.576Y-49.2
X136.76Y-59.59
X136.76Y-62.13
X136.76Y-64.67
X136.76Y-67.21
X136.76Y-69.75
X136.76Y-72.29
X138.1Y-97.46
X139.116Y-49.2
X140.64Y-97.46
X141.656Y-49.2
X143.18Y-97.46
X145.72Y-49.2
X145.72Y-97.46
X148.26Y-49.2
X150.8Y-49.2
X150.8Y-97.46
X153.34Y-49.2
X153.34Y-97.46
X155.88Y-49.2
X155.88Y-97.46
X158.42Y-49.2
X158.42Y-97.46
X160.96Y-49.2
X160.96Y-97.46
X163.5Y-49.2
X163.5Y-97.46
M30
