%TF.GenerationSoftware,KiCad,Pcbnew,9.0.7*%
%TF.CreationDate,2026-03-12T17:24:57-06:00*%
%TF.ProjectId,Balloon_Shield,42616c6c-6f6f-46e5-9f53-6869656c642e,rev?*%
%TF.SameCoordinates,Original*%
%TF.FileFunction,Legend,Top*%
%TF.FilePolarity,Positive*%
%FSLAX46Y46*%
G04 Gerber Fmt 4.6, Leading zero omitted, Abs format (unit mm)*
G04 Created by KiCad (PCBNEW 9.0.7) date 2026-03-12 17:24:57*
%MOMM*%
%LPD*%
G01*
G04 APERTURE LIST*
%ADD10C,0.080000*%
%ADD11C,0.100000*%
%ADD12C,0.150000*%
%ADD13C,0.187500*%
%ADD14C,0.125000*%
%ADD15C,0.120000*%
G04 APERTURE END LIST*
D10*
X144062154Y-87456030D02*
X143985964Y-87417935D01*
X143985964Y-87417935D02*
X143871678Y-87417935D01*
X143871678Y-87417935D02*
X143757392Y-87456030D01*
X143757392Y-87456030D02*
X143681202Y-87532220D01*
X143681202Y-87532220D02*
X143643107Y-87608411D01*
X143643107Y-87608411D02*
X143605011Y-87760792D01*
X143605011Y-87760792D02*
X143605011Y-87875078D01*
X143605011Y-87875078D02*
X143643107Y-88027459D01*
X143643107Y-88027459D02*
X143681202Y-88103649D01*
X143681202Y-88103649D02*
X143757392Y-88179840D01*
X143757392Y-88179840D02*
X143871678Y-88217935D01*
X143871678Y-88217935D02*
X143947869Y-88217935D01*
X143947869Y-88217935D02*
X144062154Y-88179840D01*
X144062154Y-88179840D02*
X144100250Y-88141744D01*
X144100250Y-88141744D02*
X144100250Y-87875078D01*
X144100250Y-87875078D02*
X143947869Y-87875078D01*
X144443107Y-88217935D02*
X144443107Y-87417935D01*
X144443107Y-87417935D02*
X144900250Y-88217935D01*
X144900250Y-88217935D02*
X144900250Y-87417935D01*
X145281202Y-88217935D02*
X145281202Y-87417935D01*
X145281202Y-87417935D02*
X145471678Y-87417935D01*
X145471678Y-87417935D02*
X145585964Y-87456030D01*
X145585964Y-87456030D02*
X145662154Y-87532220D01*
X145662154Y-87532220D02*
X145700249Y-87608411D01*
X145700249Y-87608411D02*
X145738345Y-87760792D01*
X145738345Y-87760792D02*
X145738345Y-87875078D01*
X145738345Y-87875078D02*
X145700249Y-88027459D01*
X145700249Y-88027459D02*
X145662154Y-88103649D01*
X145662154Y-88103649D02*
X145585964Y-88179840D01*
X145585964Y-88179840D02*
X145471678Y-88217935D01*
X145471678Y-88217935D02*
X145281202Y-88217935D01*
X144594059Y-93367935D02*
X144213107Y-93367935D01*
X144213107Y-93367935D02*
X144175011Y-93748887D01*
X144175011Y-93748887D02*
X144213107Y-93710792D01*
X144213107Y-93710792D02*
X144289297Y-93672697D01*
X144289297Y-93672697D02*
X144479773Y-93672697D01*
X144479773Y-93672697D02*
X144555964Y-93710792D01*
X144555964Y-93710792D02*
X144594059Y-93748887D01*
X144594059Y-93748887D02*
X144632154Y-93825078D01*
X144632154Y-93825078D02*
X144632154Y-94015554D01*
X144632154Y-94015554D02*
X144594059Y-94091744D01*
X144594059Y-94091744D02*
X144555964Y-94129840D01*
X144555964Y-94129840D02*
X144479773Y-94167935D01*
X144479773Y-94167935D02*
X144289297Y-94167935D01*
X144289297Y-94167935D02*
X144213107Y-94129840D01*
X144213107Y-94129840D02*
X144175011Y-94091744D01*
X144860726Y-93367935D02*
X145127393Y-94167935D01*
X145127393Y-94167935D02*
X145394059Y-93367935D01*
D11*
X152637693Y-82180038D02*
X152542455Y-82132419D01*
X152542455Y-82132419D02*
X152399598Y-82132419D01*
X152399598Y-82132419D02*
X152256741Y-82180038D01*
X152256741Y-82180038D02*
X152161503Y-82275276D01*
X152161503Y-82275276D02*
X152113884Y-82370514D01*
X152113884Y-82370514D02*
X152066265Y-82560990D01*
X152066265Y-82560990D02*
X152066265Y-82703847D01*
X152066265Y-82703847D02*
X152113884Y-82894323D01*
X152113884Y-82894323D02*
X152161503Y-82989561D01*
X152161503Y-82989561D02*
X152256741Y-83084800D01*
X152256741Y-83084800D02*
X152399598Y-83132419D01*
X152399598Y-83132419D02*
X152494836Y-83132419D01*
X152494836Y-83132419D02*
X152637693Y-83084800D01*
X152637693Y-83084800D02*
X152685312Y-83037180D01*
X152685312Y-83037180D02*
X152685312Y-82703847D01*
X152685312Y-82703847D02*
X152494836Y-82703847D01*
X153113884Y-83132419D02*
X153113884Y-82132419D01*
X153113884Y-82132419D02*
X153685312Y-83132419D01*
X153685312Y-83132419D02*
X153685312Y-82132419D01*
X154161503Y-83132419D02*
X154161503Y-82132419D01*
X154161503Y-82132419D02*
X154399598Y-82132419D01*
X154399598Y-82132419D02*
X154542455Y-82180038D01*
X154542455Y-82180038D02*
X154637693Y-82275276D01*
X154637693Y-82275276D02*
X154685312Y-82370514D01*
X154685312Y-82370514D02*
X154732931Y-82560990D01*
X154732931Y-82560990D02*
X154732931Y-82703847D01*
X154732931Y-82703847D02*
X154685312Y-82894323D01*
X154685312Y-82894323D02*
X154637693Y-82989561D01*
X154637693Y-82989561D02*
X154542455Y-83084800D01*
X154542455Y-83084800D02*
X154399598Y-83132419D01*
X154399598Y-83132419D02*
X154161503Y-83132419D01*
X152116265Y-80316704D02*
X152592455Y-80316704D01*
X152021027Y-80602419D02*
X152354360Y-79602419D01*
X152354360Y-79602419D02*
X152687693Y-80602419D01*
X152925789Y-79602419D02*
X153544836Y-79602419D01*
X153544836Y-79602419D02*
X153211503Y-79983371D01*
X153211503Y-79983371D02*
X153354360Y-79983371D01*
X153354360Y-79983371D02*
X153449598Y-80030990D01*
X153449598Y-80030990D02*
X153497217Y-80078609D01*
X153497217Y-80078609D02*
X153544836Y-80173847D01*
X153544836Y-80173847D02*
X153544836Y-80411942D01*
X153544836Y-80411942D02*
X153497217Y-80507180D01*
X153497217Y-80507180D02*
X153449598Y-80554800D01*
X153449598Y-80554800D02*
X153354360Y-80602419D01*
X153354360Y-80602419D02*
X153068646Y-80602419D01*
X153068646Y-80602419D02*
X152973408Y-80554800D01*
X152973408Y-80554800D02*
X152925789Y-80507180D01*
X152640074Y-77062419D02*
X152163884Y-77062419D01*
X152163884Y-77062419D02*
X152116265Y-77538609D01*
X152116265Y-77538609D02*
X152163884Y-77490990D01*
X152163884Y-77490990D02*
X152259122Y-77443371D01*
X152259122Y-77443371D02*
X152497217Y-77443371D01*
X152497217Y-77443371D02*
X152592455Y-77490990D01*
X152592455Y-77490990D02*
X152640074Y-77538609D01*
X152640074Y-77538609D02*
X152687693Y-77633847D01*
X152687693Y-77633847D02*
X152687693Y-77871942D01*
X152687693Y-77871942D02*
X152640074Y-77967180D01*
X152640074Y-77967180D02*
X152592455Y-78014800D01*
X152592455Y-78014800D02*
X152497217Y-78062419D01*
X152497217Y-78062419D02*
X152259122Y-78062419D01*
X152259122Y-78062419D02*
X152163884Y-78014800D01*
X152163884Y-78014800D02*
X152116265Y-77967180D01*
X152973408Y-77062419D02*
X153306741Y-78062419D01*
X153306741Y-78062419D02*
X153640074Y-77062419D01*
X132997693Y-61820038D02*
X132902455Y-61772419D01*
X132902455Y-61772419D02*
X132759598Y-61772419D01*
X132759598Y-61772419D02*
X132616741Y-61820038D01*
X132616741Y-61820038D02*
X132521503Y-61915276D01*
X132521503Y-61915276D02*
X132473884Y-62010514D01*
X132473884Y-62010514D02*
X132426265Y-62200990D01*
X132426265Y-62200990D02*
X132426265Y-62343847D01*
X132426265Y-62343847D02*
X132473884Y-62534323D01*
X132473884Y-62534323D02*
X132521503Y-62629561D01*
X132521503Y-62629561D02*
X132616741Y-62724800D01*
X132616741Y-62724800D02*
X132759598Y-62772419D01*
X132759598Y-62772419D02*
X132854836Y-62772419D01*
X132854836Y-62772419D02*
X132997693Y-62724800D01*
X132997693Y-62724800D02*
X133045312Y-62677180D01*
X133045312Y-62677180D02*
X133045312Y-62343847D01*
X133045312Y-62343847D02*
X132854836Y-62343847D01*
X133473884Y-62772419D02*
X133473884Y-61772419D01*
X133473884Y-61772419D02*
X134045312Y-62772419D01*
X134045312Y-62772419D02*
X134045312Y-61772419D01*
X134521503Y-62772419D02*
X134521503Y-61772419D01*
X134521503Y-61772419D02*
X134759598Y-61772419D01*
X134759598Y-61772419D02*
X134902455Y-61820038D01*
X134902455Y-61820038D02*
X134997693Y-61915276D01*
X134997693Y-61915276D02*
X135045312Y-62010514D01*
X135045312Y-62010514D02*
X135092931Y-62200990D01*
X135092931Y-62200990D02*
X135092931Y-62343847D01*
X135092931Y-62343847D02*
X135045312Y-62534323D01*
X135045312Y-62534323D02*
X134997693Y-62629561D01*
X134997693Y-62629561D02*
X134902455Y-62724800D01*
X134902455Y-62724800D02*
X134759598Y-62772419D01*
X134759598Y-62772419D02*
X134521503Y-62772419D01*
X134050074Y-64192419D02*
X133573884Y-64192419D01*
X133573884Y-64192419D02*
X133526265Y-64668609D01*
X133526265Y-64668609D02*
X133573884Y-64620990D01*
X133573884Y-64620990D02*
X133669122Y-64573371D01*
X133669122Y-64573371D02*
X133907217Y-64573371D01*
X133907217Y-64573371D02*
X134002455Y-64620990D01*
X134002455Y-64620990D02*
X134050074Y-64668609D01*
X134050074Y-64668609D02*
X134097693Y-64763847D01*
X134097693Y-64763847D02*
X134097693Y-65001942D01*
X134097693Y-65001942D02*
X134050074Y-65097180D01*
X134050074Y-65097180D02*
X134002455Y-65144800D01*
X134002455Y-65144800D02*
X133907217Y-65192419D01*
X133907217Y-65192419D02*
X133669122Y-65192419D01*
X133669122Y-65192419D02*
X133573884Y-65144800D01*
X133573884Y-65144800D02*
X133526265Y-65097180D01*
X134383408Y-64192419D02*
X134716741Y-65192419D01*
X134716741Y-65192419D02*
X135050074Y-64192419D01*
X134085312Y-70312419D02*
X133751979Y-69836228D01*
X133513884Y-70312419D02*
X133513884Y-69312419D01*
X133513884Y-69312419D02*
X133894836Y-69312419D01*
X133894836Y-69312419D02*
X133990074Y-69360038D01*
X133990074Y-69360038D02*
X134037693Y-69407657D01*
X134037693Y-69407657D02*
X134085312Y-69502895D01*
X134085312Y-69502895D02*
X134085312Y-69645752D01*
X134085312Y-69645752D02*
X134037693Y-69740990D01*
X134037693Y-69740990D02*
X133990074Y-69788609D01*
X133990074Y-69788609D02*
X133894836Y-69836228D01*
X133894836Y-69836228D02*
X133513884Y-69836228D01*
X134418646Y-69312419D02*
X135085312Y-70312419D01*
X135085312Y-69312419D02*
X134418646Y-70312419D01*
X132708646Y-78992419D02*
X133375312Y-79992419D01*
X133375312Y-78992419D02*
X132708646Y-79992419D01*
X133044360Y-82266228D02*
X133044360Y-82742419D01*
X132711027Y-81742419D02*
X133044360Y-82266228D01*
X133044360Y-82266228D02*
X133377693Y-81742419D01*
X132758646Y-84112419D02*
X133425312Y-84112419D01*
X133425312Y-84112419D02*
X132758646Y-85112419D01*
X132758646Y-85112419D02*
X133425312Y-85112419D01*
X131787693Y-86690038D02*
X131692455Y-86642419D01*
X131692455Y-86642419D02*
X131549598Y-86642419D01*
X131549598Y-86642419D02*
X131406741Y-86690038D01*
X131406741Y-86690038D02*
X131311503Y-86785276D01*
X131311503Y-86785276D02*
X131263884Y-86880514D01*
X131263884Y-86880514D02*
X131216265Y-87070990D01*
X131216265Y-87070990D02*
X131216265Y-87213847D01*
X131216265Y-87213847D02*
X131263884Y-87404323D01*
X131263884Y-87404323D02*
X131311503Y-87499561D01*
X131311503Y-87499561D02*
X131406741Y-87594800D01*
X131406741Y-87594800D02*
X131549598Y-87642419D01*
X131549598Y-87642419D02*
X131644836Y-87642419D01*
X131644836Y-87642419D02*
X131787693Y-87594800D01*
X131787693Y-87594800D02*
X131835312Y-87547180D01*
X131835312Y-87547180D02*
X131835312Y-87213847D01*
X131835312Y-87213847D02*
X131644836Y-87213847D01*
X132263884Y-87642419D02*
X132263884Y-86642419D01*
X132263884Y-86642419D02*
X132835312Y-87642419D01*
X132835312Y-87642419D02*
X132835312Y-86642419D01*
X133311503Y-87642419D02*
X133311503Y-86642419D01*
X133311503Y-86642419D02*
X133549598Y-86642419D01*
X133549598Y-86642419D02*
X133692455Y-86690038D01*
X133692455Y-86690038D02*
X133787693Y-86785276D01*
X133787693Y-86785276D02*
X133835312Y-86880514D01*
X133835312Y-86880514D02*
X133882931Y-87070990D01*
X133882931Y-87070990D02*
X133882931Y-87213847D01*
X133882931Y-87213847D02*
X133835312Y-87404323D01*
X133835312Y-87404323D02*
X133787693Y-87499561D01*
X133787693Y-87499561D02*
X133692455Y-87594800D01*
X133692455Y-87594800D02*
X133549598Y-87642419D01*
X133549598Y-87642419D02*
X133311503Y-87642419D01*
X132208646Y-89222419D02*
X132827693Y-89222419D01*
X132827693Y-89222419D02*
X132494360Y-89603371D01*
X132494360Y-89603371D02*
X132637217Y-89603371D01*
X132637217Y-89603371D02*
X132732455Y-89650990D01*
X132732455Y-89650990D02*
X132780074Y-89698609D01*
X132780074Y-89698609D02*
X132827693Y-89793847D01*
X132827693Y-89793847D02*
X132827693Y-90031942D01*
X132827693Y-90031942D02*
X132780074Y-90127180D01*
X132780074Y-90127180D02*
X132732455Y-90174800D01*
X132732455Y-90174800D02*
X132637217Y-90222419D01*
X132637217Y-90222419D02*
X132351503Y-90222419D01*
X132351503Y-90222419D02*
X132256265Y-90174800D01*
X132256265Y-90174800D02*
X132208646Y-90127180D01*
X133113408Y-89222419D02*
X133446741Y-90222419D01*
X133446741Y-90222419D02*
X133780074Y-89222419D01*
D12*
X117650000Y-75060000D02*
X137340000Y-75060000D01*
X137340000Y-93880000D01*
X117650000Y-93880000D01*
X117650000Y-75060000D01*
X116260000Y-57700000D02*
X138610000Y-57700000D01*
X138610000Y-74290000D01*
X116260000Y-74290000D01*
X116260000Y-57700000D01*
D13*
G36*
X139332730Y-85508648D02*
G01*
X137923008Y-85508648D01*
X137923008Y-84637220D01*
X138034119Y-84637220D01*
X138041293Y-84673088D01*
X138061647Y-84703482D01*
X138075866Y-84715126D01*
X138458858Y-84970454D01*
X138075866Y-85225782D01*
X138061647Y-85237426D01*
X138041293Y-85267820D01*
X138034119Y-85303688D01*
X138041217Y-85339573D01*
X138061508Y-85370009D01*
X138091902Y-85390363D01*
X138127770Y-85397537D01*
X138163655Y-85390439D01*
X138179872Y-85381792D01*
X138627869Y-85083127D01*
X139075866Y-85381792D01*
X139092083Y-85390439D01*
X139127967Y-85397537D01*
X139163836Y-85390363D01*
X139194230Y-85370009D01*
X139214521Y-85339573D01*
X139221619Y-85303688D01*
X139214445Y-85267820D01*
X139194091Y-85237426D01*
X139179872Y-85225782D01*
X138796879Y-84970454D01*
X139179872Y-84715126D01*
X139194091Y-84703482D01*
X139214445Y-84673088D01*
X139221619Y-84637220D01*
X139214521Y-84601335D01*
X139194230Y-84570899D01*
X139163836Y-84550545D01*
X139127967Y-84543371D01*
X139092083Y-84550469D01*
X139075866Y-84559116D01*
X138627869Y-84857780D01*
X138179872Y-84559116D01*
X138163655Y-84550469D01*
X138127770Y-84543371D01*
X138091902Y-84550545D01*
X138061508Y-84570899D01*
X138041217Y-84601335D01*
X138034119Y-84637220D01*
X137923008Y-84637220D01*
X137923008Y-83734452D01*
X138034142Y-83734452D01*
X138042077Y-83770159D01*
X138063073Y-83800113D01*
X138077537Y-83811452D01*
X138477057Y-84065692D01*
X138077537Y-84319932D01*
X138063073Y-84331271D01*
X138042077Y-84361225D01*
X138034142Y-84396932D01*
X138040476Y-84432960D01*
X138060115Y-84463821D01*
X138090069Y-84484817D01*
X138125776Y-84492752D01*
X138161804Y-84486418D01*
X138178201Y-84478118D01*
X138678978Y-84159442D01*
X139127869Y-84159442D01*
X139146159Y-84157641D01*
X139179954Y-84143642D01*
X139205819Y-84117777D01*
X139219818Y-84083982D01*
X139219818Y-84047402D01*
X139205819Y-84013607D01*
X139179954Y-83987742D01*
X139146159Y-83973743D01*
X139127869Y-83971942D01*
X138678978Y-83971942D01*
X138178201Y-83653266D01*
X138161804Y-83644966D01*
X138125776Y-83638632D01*
X138090069Y-83646567D01*
X138060115Y-83667563D01*
X138040476Y-83698424D01*
X138034142Y-83734452D01*
X137923008Y-83734452D01*
X137923008Y-82827597D01*
X138034119Y-82827597D01*
X138034119Y-83494263D01*
X138035920Y-83512553D01*
X138049919Y-83546348D01*
X138075784Y-83572213D01*
X138109579Y-83586212D01*
X138146159Y-83586212D01*
X138179954Y-83572213D01*
X138205819Y-83546348D01*
X138219818Y-83512553D01*
X138221619Y-83494263D01*
X138221619Y-83002770D01*
X139075866Y-83572268D01*
X139092083Y-83580915D01*
X139101094Y-83582697D01*
X139109579Y-83586212D01*
X139118862Y-83586212D01*
X139127967Y-83588013D01*
X139136972Y-83586212D01*
X139146159Y-83586212D01*
X139154736Y-83582658D01*
X139163836Y-83580839D01*
X139171467Y-83575728D01*
X139179954Y-83572213D01*
X139186516Y-83565650D01*
X139194230Y-83560485D01*
X139199326Y-83552840D01*
X139205819Y-83546348D01*
X139209370Y-83537775D01*
X139214521Y-83530049D01*
X139216303Y-83521037D01*
X139219818Y-83512553D01*
X139221619Y-83494263D01*
X139221619Y-82827597D01*
X139219818Y-82809307D01*
X139205819Y-82775512D01*
X139179954Y-82749647D01*
X139146159Y-82735648D01*
X139109579Y-82735648D01*
X139075784Y-82749647D01*
X139049919Y-82775512D01*
X139035920Y-82809307D01*
X139034119Y-82827597D01*
X139034119Y-83319089D01*
X138179872Y-82749592D01*
X138163655Y-82740945D01*
X138154643Y-82739162D01*
X138146159Y-82735648D01*
X138136875Y-82735648D01*
X138127770Y-82733847D01*
X138118766Y-82735648D01*
X138109579Y-82735648D01*
X138101001Y-82739200D01*
X138091902Y-82741021D01*
X138084270Y-82746131D01*
X138075784Y-82749647D01*
X138069221Y-82756209D01*
X138061508Y-82761375D01*
X138056411Y-82769019D01*
X138049919Y-82775512D01*
X138046367Y-82784084D01*
X138041217Y-82791811D01*
X138039434Y-82800822D01*
X138035920Y-82809307D01*
X138034119Y-82827597D01*
X137923008Y-82827597D01*
X137923008Y-82622736D01*
X139332730Y-82622736D01*
X139332730Y-85508648D01*
G37*
D14*
G36*
X128711904Y-55009981D02*
G01*
X128694157Y-55032164D01*
X128671900Y-55046075D01*
X128612485Y-55064642D01*
X128517275Y-55064642D01*
X128457858Y-55046074D01*
X128435603Y-55032164D01*
X128417857Y-55009981D01*
X128417857Y-54903928D01*
X128711904Y-54903928D01*
X128711904Y-55009981D01*
G37*
G36*
X129999859Y-53212362D02*
G01*
X129982112Y-53234545D01*
X129959855Y-53248456D01*
X129900440Y-53267023D01*
X129805230Y-53267023D01*
X129745813Y-53248455D01*
X129723558Y-53234545D01*
X129705812Y-53212362D01*
X129705812Y-53106309D01*
X129999859Y-53106309D01*
X129999859Y-53212362D01*
G37*
G36*
X130251843Y-55714251D02*
G01*
X127823015Y-55714251D01*
X127823015Y-55400845D01*
X129204617Y-55400845D01*
X129204617Y-55448681D01*
X129238441Y-55482505D01*
X129262359Y-55487263D01*
X129999859Y-55487263D01*
X129999859Y-55567620D01*
X130004617Y-55591538D01*
X130038441Y-55625362D01*
X130086277Y-55625362D01*
X130120101Y-55591538D01*
X130124859Y-55567620D01*
X130124859Y-55281906D01*
X130120101Y-55257988D01*
X130086277Y-55224164D01*
X130038441Y-55224164D01*
X130004617Y-55257988D01*
X129999859Y-55281906D01*
X129999859Y-55362263D01*
X129262359Y-55362263D01*
X129238441Y-55367021D01*
X129204617Y-55400845D01*
X127823015Y-55400845D01*
X127823015Y-54817510D01*
X127916662Y-54817510D01*
X127916662Y-54865346D01*
X127950486Y-54899170D01*
X127974404Y-54903928D01*
X128292857Y-54903928D01*
X128292857Y-55031904D01*
X128295681Y-55046104D01*
X128295327Y-55049298D01*
X128296933Y-55052396D01*
X128297615Y-55055822D01*
X128299889Y-55058096D01*
X128306553Y-55070947D01*
X128344648Y-55118566D01*
X128352673Y-55125321D01*
X128360326Y-55132523D01*
X128398422Y-55156333D01*
X128405892Y-55159164D01*
X128412905Y-55162988D01*
X128489096Y-55186797D01*
X128498482Y-55187800D01*
X128507738Y-55189642D01*
X128622023Y-55189642D01*
X128631279Y-55187800D01*
X128640665Y-55186797D01*
X128716855Y-55162988D01*
X128723862Y-55159166D01*
X128731340Y-55156333D01*
X128769435Y-55132522D01*
X128777082Y-55125326D01*
X128785113Y-55118566D01*
X128790259Y-55112134D01*
X129199936Y-55112134D01*
X129204617Y-55125240D01*
X129204617Y-55139156D01*
X129212347Y-55146886D01*
X129216025Y-55157183D01*
X129228601Y-55163140D01*
X129238441Y-55172980D01*
X129257287Y-55176729D01*
X129259255Y-55177661D01*
X129260814Y-55177430D01*
X129262359Y-55177738D01*
X130062359Y-55177738D01*
X130086277Y-55172980D01*
X130120101Y-55139156D01*
X130120101Y-55091320D01*
X130086277Y-55057496D01*
X130062359Y-55052738D01*
X129623186Y-55052738D01*
X130083380Y-54888383D01*
X130084732Y-54887573D01*
X130086277Y-54887266D01*
X130087814Y-54885728D01*
X130104305Y-54875857D01*
X130110262Y-54863280D01*
X130120101Y-54853442D01*
X130120101Y-54842510D01*
X130124782Y-54832628D01*
X130120101Y-54819521D01*
X130120101Y-54805606D01*
X130112370Y-54797875D01*
X130108693Y-54787579D01*
X130096116Y-54781621D01*
X130086277Y-54771782D01*
X130067430Y-54768032D01*
X130065463Y-54767101D01*
X130063903Y-54767331D01*
X130062359Y-54767024D01*
X129262359Y-54767024D01*
X129238441Y-54771782D01*
X129204617Y-54805606D01*
X129204617Y-54853442D01*
X129238441Y-54887266D01*
X129262359Y-54892024D01*
X129701532Y-54892024D01*
X129241338Y-55056379D01*
X129239985Y-55057188D01*
X129238441Y-55057496D01*
X129236903Y-55059033D01*
X129220414Y-55068904D01*
X129214456Y-55081480D01*
X129204617Y-55091320D01*
X129204617Y-55102252D01*
X129199936Y-55112134D01*
X128790259Y-55112134D01*
X128823208Y-55070947D01*
X128829871Y-55058096D01*
X128832146Y-55055822D01*
X128832827Y-55052396D01*
X128834434Y-55049298D01*
X128834079Y-55046104D01*
X128836904Y-55031904D01*
X128836904Y-54841428D01*
X128832146Y-54817510D01*
X128798322Y-54783686D01*
X128774404Y-54778928D01*
X127974404Y-54778928D01*
X127950486Y-54783686D01*
X127916662Y-54817510D01*
X127823015Y-54817510D01*
X127823015Y-54246081D01*
X127916662Y-54246081D01*
X127916662Y-54293917D01*
X127950486Y-54327741D01*
X127974404Y-54332499D01*
X128336905Y-54332499D01*
X128185476Y-54376666D01*
X128163847Y-54387931D01*
X128160444Y-54394134D01*
X128154241Y-54397537D01*
X128149312Y-54414436D01*
X128140847Y-54429873D01*
X128142828Y-54436666D01*
X128140847Y-54443460D01*
X128149312Y-54458896D01*
X128154241Y-54475795D01*
X128160444Y-54479197D01*
X128163847Y-54485401D01*
X128185476Y-54496666D01*
X128336903Y-54540832D01*
X127974404Y-54540832D01*
X127950486Y-54545590D01*
X127916662Y-54579414D01*
X127916662Y-54627250D01*
X127950486Y-54661074D01*
X127974404Y-54665832D01*
X128774404Y-54665832D01*
X128777776Y-54665161D01*
X128781197Y-54665461D01*
X128784002Y-54663922D01*
X128798322Y-54661074D01*
X128809401Y-54649994D01*
X128823139Y-54642461D01*
X128825693Y-54633702D01*
X128832146Y-54627250D01*
X128832146Y-54611579D01*
X128836533Y-54596538D01*
X128832146Y-54588538D01*
X128832146Y-54579414D01*
X128821066Y-54568334D01*
X128820615Y-54567511D01*
X129204617Y-54567511D01*
X129204617Y-54615347D01*
X129238441Y-54649171D01*
X129262359Y-54653929D01*
X130062359Y-54653929D01*
X130086277Y-54649171D01*
X130120101Y-54615347D01*
X130120101Y-54567511D01*
X130086277Y-54533687D01*
X130062359Y-54528929D01*
X129262359Y-54528929D01*
X129238441Y-54533687D01*
X129204617Y-54567511D01*
X128820615Y-54567511D01*
X128813533Y-54554597D01*
X128800585Y-54547853D01*
X128798322Y-54545590D01*
X128794952Y-54544919D01*
X128791904Y-54543332D01*
X128426190Y-54436665D01*
X128791904Y-54329999D01*
X128794952Y-54328411D01*
X128798322Y-54327741D01*
X128800585Y-54325477D01*
X128813533Y-54318734D01*
X128821066Y-54304996D01*
X128832146Y-54293917D01*
X128832146Y-54284793D01*
X128836534Y-54276792D01*
X128832146Y-54261747D01*
X128832146Y-54246081D01*
X128825695Y-54239630D01*
X128823140Y-54230870D01*
X128809400Y-54223335D01*
X128798322Y-54212257D01*
X128784003Y-54209408D01*
X128781198Y-54207870D01*
X128777776Y-54208169D01*
X128774404Y-54207499D01*
X127974404Y-54207499D01*
X127950486Y-54212257D01*
X127916662Y-54246081D01*
X127823015Y-54246081D01*
X127823015Y-53817618D01*
X127911904Y-53817618D01*
X127911904Y-54055713D01*
X127916662Y-54079631D01*
X127950486Y-54113455D01*
X127998322Y-54113455D01*
X128032146Y-54079631D01*
X128036904Y-54055713D01*
X128036904Y-53880118D01*
X128330952Y-53880118D01*
X128330952Y-53984285D01*
X128335710Y-54008203D01*
X128369534Y-54042027D01*
X128417370Y-54042027D01*
X128451194Y-54008203D01*
X128455952Y-53984285D01*
X128455952Y-53880118D01*
X128711904Y-53880118D01*
X128711904Y-54055713D01*
X128716662Y-54079631D01*
X128750486Y-54113455D01*
X128798322Y-54113455D01*
X128832146Y-54079631D01*
X128836904Y-54055713D01*
X128836904Y-53996061D01*
X129009383Y-53996061D01*
X129027596Y-54040292D01*
X129047845Y-54053883D01*
X130076416Y-54482454D01*
X130100325Y-54487262D01*
X130144556Y-54469049D01*
X130162954Y-54424892D01*
X130144742Y-54380661D01*
X130124493Y-54367070D01*
X129095921Y-53938499D01*
X129072013Y-53933691D01*
X129027782Y-53951904D01*
X129009383Y-53996061D01*
X128836904Y-53996061D01*
X128836904Y-53817618D01*
X128832146Y-53793700D01*
X128798322Y-53759876D01*
X128774404Y-53755118D01*
X127974404Y-53755118D01*
X127950486Y-53759876D01*
X127916662Y-53793700D01*
X127911904Y-53817618D01*
X127823015Y-53817618D01*
X127823015Y-53484177D01*
X127916662Y-53484177D01*
X127916662Y-53532013D01*
X127950486Y-53565837D01*
X127974404Y-53570595D01*
X128711904Y-53570595D01*
X128711904Y-53650952D01*
X128716662Y-53674870D01*
X128750486Y-53708694D01*
X128798322Y-53708694D01*
X128832146Y-53674870D01*
X128836904Y-53650952D01*
X128836904Y-53519891D01*
X129204617Y-53519891D01*
X129204617Y-53567727D01*
X129238441Y-53601551D01*
X129262359Y-53606309D01*
X129618907Y-53606309D01*
X129618907Y-53767023D01*
X129262359Y-53767023D01*
X129238441Y-53771781D01*
X129204617Y-53805605D01*
X129204617Y-53853441D01*
X129238441Y-53887265D01*
X129262359Y-53892023D01*
X130062359Y-53892023D01*
X130086277Y-53887265D01*
X130120101Y-53853441D01*
X130120101Y-53805605D01*
X130086277Y-53771781D01*
X130062359Y-53767023D01*
X129743907Y-53767023D01*
X129743907Y-53606309D01*
X130062359Y-53606309D01*
X130086277Y-53601551D01*
X130120101Y-53567727D01*
X130120101Y-53519891D01*
X130086277Y-53486067D01*
X130062359Y-53481309D01*
X129262359Y-53481309D01*
X129238441Y-53486067D01*
X129204617Y-53519891D01*
X128836904Y-53519891D01*
X128836904Y-53365238D01*
X128832146Y-53341320D01*
X128821580Y-53330754D01*
X129199871Y-53330754D01*
X129219045Y-53374580D01*
X129263590Y-53392011D01*
X129287410Y-53386783D01*
X129585228Y-53256487D01*
X129585570Y-53258203D01*
X129587844Y-53260477D01*
X129594508Y-53273328D01*
X129632603Y-53320947D01*
X129640628Y-53327702D01*
X129648281Y-53334904D01*
X129686377Y-53358714D01*
X129693847Y-53361545D01*
X129700860Y-53365369D01*
X129777051Y-53389178D01*
X129786437Y-53390181D01*
X129795693Y-53392023D01*
X129909978Y-53392023D01*
X129919234Y-53390181D01*
X129928620Y-53389178D01*
X130004810Y-53365369D01*
X130011817Y-53361547D01*
X130019295Y-53358714D01*
X130057390Y-53334903D01*
X130065037Y-53327707D01*
X130073068Y-53320947D01*
X130111163Y-53273328D01*
X130117826Y-53260477D01*
X130120101Y-53258203D01*
X130120782Y-53254777D01*
X130122389Y-53251679D01*
X130122034Y-53248485D01*
X130124859Y-53234285D01*
X130124859Y-53043809D01*
X130120101Y-53019891D01*
X130086277Y-52986067D01*
X130062359Y-52981309D01*
X129262359Y-52981309D01*
X129238441Y-52986067D01*
X129204617Y-53019891D01*
X129204617Y-53067727D01*
X129238441Y-53101551D01*
X129262359Y-53106309D01*
X129580812Y-53106309D01*
X129580812Y-53121980D01*
X129237308Y-53272263D01*
X129217302Y-53286209D01*
X129199871Y-53330754D01*
X128821580Y-53330754D01*
X128798322Y-53307496D01*
X128750486Y-53307496D01*
X128716662Y-53341320D01*
X128711904Y-53365238D01*
X128711904Y-53445595D01*
X127974404Y-53445595D01*
X127950486Y-53450353D01*
X127916662Y-53484177D01*
X127823015Y-53484177D01*
X127823015Y-52892420D01*
X130251843Y-52892420D01*
X130251843Y-55714251D01*
G37*
G36*
X149602669Y-86990559D02*
G01*
X149635942Y-87023832D01*
X149672428Y-87096804D01*
X149672428Y-87400501D01*
X149273619Y-87400501D01*
X149273619Y-87096804D01*
X149310105Y-87023832D01*
X149343378Y-86990559D01*
X149416350Y-86954073D01*
X149529697Y-86954073D01*
X149602669Y-86990559D01*
G37*
G36*
X150384730Y-94303279D02*
G01*
X149037508Y-94303279D01*
X149037508Y-93653478D01*
X149148619Y-93653478D01*
X149148619Y-94129668D01*
X149153377Y-94153586D01*
X149187201Y-94187410D01*
X149211119Y-94192168D01*
X150211119Y-94192168D01*
X150235037Y-94187410D01*
X150268861Y-94153586D01*
X150273619Y-94129668D01*
X150273619Y-93653478D01*
X150268861Y-93629560D01*
X150235037Y-93595736D01*
X150187201Y-93595736D01*
X150153377Y-93629560D01*
X150148619Y-93653478D01*
X150148619Y-94067168D01*
X149749809Y-94067168D01*
X149749809Y-93796335D01*
X149745051Y-93772417D01*
X149711227Y-93738593D01*
X149663391Y-93738593D01*
X149629567Y-93772417D01*
X149624809Y-93796335D01*
X149624809Y-94067168D01*
X149273619Y-94067168D01*
X149273619Y-93653478D01*
X149268861Y-93629560D01*
X149235037Y-93595736D01*
X149187201Y-93595736D01*
X149153377Y-93629560D01*
X149148619Y-93653478D01*
X149037508Y-93653478D01*
X149037508Y-92641350D01*
X149149807Y-92641350D01*
X149159189Y-92688255D01*
X149176450Y-92705481D01*
X149598445Y-92986811D01*
X149176450Y-93268141D01*
X149159189Y-93285367D01*
X149149807Y-93332272D01*
X149176342Y-93372074D01*
X149223247Y-93381456D01*
X149245788Y-93372147D01*
X149711119Y-93061926D01*
X150176450Y-93372147D01*
X150198990Y-93381456D01*
X150245896Y-93372074D01*
X150272431Y-93332272D01*
X150263049Y-93285367D01*
X150245788Y-93268141D01*
X149823792Y-92986811D01*
X150245788Y-92705481D01*
X150263049Y-92688255D01*
X150272431Y-92641350D01*
X150245896Y-92601548D01*
X150198990Y-92592166D01*
X150176450Y-92601475D01*
X149711119Y-92911695D01*
X149245788Y-92601475D01*
X149223247Y-92592166D01*
X149176342Y-92601548D01*
X149149807Y-92641350D01*
X149037508Y-92641350D01*
X149037508Y-91843954D01*
X149148619Y-91843954D01*
X149148619Y-92415382D01*
X149153377Y-92439300D01*
X149187201Y-92473124D01*
X149235037Y-92473124D01*
X149268861Y-92439300D01*
X149273619Y-92415382D01*
X149273619Y-92192168D01*
X150211119Y-92192168D01*
X150235037Y-92187410D01*
X150268861Y-92153586D01*
X150268861Y-92105750D01*
X150235037Y-92071926D01*
X150211119Y-92067168D01*
X149273619Y-92067168D01*
X149273619Y-91843954D01*
X149268861Y-91820036D01*
X149235037Y-91786212D01*
X149187201Y-91786212D01*
X149153377Y-91820036D01*
X149148619Y-91843954D01*
X149037508Y-91843954D01*
X149037508Y-91486703D01*
X150058137Y-91486703D01*
X150058137Y-91510620D01*
X150058137Y-91534537D01*
X150058138Y-91534538D01*
X150071686Y-91554815D01*
X150119306Y-91602434D01*
X150139583Y-91615981D01*
X150187418Y-91615981D01*
X150187420Y-91615978D01*
X150207694Y-91602433D01*
X150255313Y-91554814D01*
X150268858Y-91534540D01*
X150268861Y-91534538D01*
X150268861Y-91486702D01*
X150268858Y-91486699D01*
X150255313Y-91466426D01*
X150207694Y-91418807D01*
X150187420Y-91405261D01*
X150187418Y-91405259D01*
X150139583Y-91405259D01*
X150119306Y-91418806D01*
X150071686Y-91466425D01*
X150058138Y-91486702D01*
X150058137Y-91486703D01*
X149037508Y-91486703D01*
X149037508Y-89843954D01*
X149148619Y-89843954D01*
X149148619Y-90415382D01*
X149153377Y-90439300D01*
X149187201Y-90473124D01*
X149235037Y-90473124D01*
X149268861Y-90439300D01*
X149273619Y-90415382D01*
X149273619Y-90192168D01*
X150211119Y-90192168D01*
X150235037Y-90187410D01*
X150268861Y-90153586D01*
X150268861Y-90105750D01*
X150235037Y-90071926D01*
X150211119Y-90067168D01*
X149273619Y-90067168D01*
X149273619Y-89843954D01*
X149268861Y-89820036D01*
X149235037Y-89786212D01*
X149187201Y-89786212D01*
X149153377Y-89820036D01*
X149148619Y-89843954D01*
X149037508Y-89843954D01*
X149037508Y-89034430D01*
X149148619Y-89034430D01*
X149148619Y-89510620D01*
X149153377Y-89534538D01*
X149187201Y-89568362D01*
X149211119Y-89573120D01*
X150211119Y-89573120D01*
X150235037Y-89568362D01*
X150268861Y-89534538D01*
X150273619Y-89510620D01*
X150273619Y-89034430D01*
X150268861Y-89010512D01*
X150235037Y-88976688D01*
X150187201Y-88976688D01*
X150153377Y-89010512D01*
X150148619Y-89034430D01*
X150148619Y-89448120D01*
X149749809Y-89448120D01*
X149749809Y-89177287D01*
X149745051Y-89153369D01*
X149711227Y-89119545D01*
X149663391Y-89119545D01*
X149629567Y-89153369D01*
X149624809Y-89177287D01*
X149624809Y-89448120D01*
X149273619Y-89448120D01*
X149273619Y-89034430D01*
X149268861Y-89010512D01*
X149235037Y-88976688D01*
X149187201Y-88976688D01*
X149153377Y-89010512D01*
X149148619Y-89034430D01*
X149037508Y-89034430D01*
X149037508Y-87936448D01*
X149148680Y-87936448D01*
X149153377Y-87949364D01*
X149153377Y-87963110D01*
X149161231Y-87970964D01*
X149165027Y-87981402D01*
X149184689Y-87995828D01*
X149777609Y-88272525D01*
X149184689Y-88549222D01*
X149165027Y-88563648D01*
X149161231Y-88574085D01*
X149153377Y-88581940D01*
X149153377Y-88595685D01*
X149148680Y-88608602D01*
X149153377Y-88618667D01*
X149153377Y-88629776D01*
X149163097Y-88639496D01*
X149168909Y-88651950D01*
X149179346Y-88655745D01*
X149187201Y-88663600D01*
X149211119Y-88668358D01*
X150211119Y-88668358D01*
X150235037Y-88663600D01*
X150268861Y-88629776D01*
X150268861Y-88581940D01*
X150235037Y-88548116D01*
X150211119Y-88543358D01*
X149492841Y-88543358D01*
X149951835Y-88329161D01*
X149964821Y-88319632D01*
X149967615Y-88318617D01*
X149968348Y-88317044D01*
X149971497Y-88314735D01*
X149978804Y-88294639D01*
X149987844Y-88275269D01*
X149986846Y-88272525D01*
X149987844Y-88269781D01*
X149978804Y-88250410D01*
X149971497Y-88230315D01*
X149968348Y-88228005D01*
X149967615Y-88226433D01*
X149964821Y-88225417D01*
X149951835Y-88215889D01*
X149492841Y-88001692D01*
X150211119Y-88001692D01*
X150235037Y-87996934D01*
X150268861Y-87963110D01*
X150268861Y-87915274D01*
X150235037Y-87881450D01*
X150211119Y-87876692D01*
X149211119Y-87876692D01*
X149187201Y-87881450D01*
X149179346Y-87889304D01*
X149168909Y-87893100D01*
X149163097Y-87905553D01*
X149153377Y-87915274D01*
X149153377Y-87926382D01*
X149148680Y-87936448D01*
X149037508Y-87936448D01*
X149037508Y-87082049D01*
X149148619Y-87082049D01*
X149148619Y-87463001D01*
X149153377Y-87486919D01*
X149187201Y-87520743D01*
X149211119Y-87525501D01*
X150211119Y-87525501D01*
X150235037Y-87520743D01*
X150268861Y-87486919D01*
X150268861Y-87439083D01*
X150235037Y-87405259D01*
X150211119Y-87400501D01*
X149797428Y-87400501D01*
X149797428Y-87082049D01*
X149796817Y-87078977D01*
X149797270Y-87077619D01*
X149794624Y-87067958D01*
X149792670Y-87058131D01*
X149791656Y-87057117D01*
X149790830Y-87054098D01*
X149743211Y-86958860D01*
X149737063Y-86950938D01*
X149731503Y-86942617D01*
X149683884Y-86894998D01*
X149675562Y-86889437D01*
X149667641Y-86883290D01*
X149572403Y-86835671D01*
X149569383Y-86834844D01*
X149568370Y-86833831D01*
X149558542Y-86831876D01*
X149548882Y-86829231D01*
X149547523Y-86829683D01*
X149544452Y-86829073D01*
X149401595Y-86829073D01*
X149398523Y-86829683D01*
X149397165Y-86829231D01*
X149387504Y-86831876D01*
X149377677Y-86833831D01*
X149376663Y-86834844D01*
X149373644Y-86835671D01*
X149278406Y-86883290D01*
X149270484Y-86889437D01*
X149262163Y-86894998D01*
X149214544Y-86942617D01*
X149208983Y-86950938D01*
X149202836Y-86958860D01*
X149155217Y-87054098D01*
X149154390Y-87057117D01*
X149153377Y-87058131D01*
X149151422Y-87067958D01*
X149148777Y-87077619D01*
X149149229Y-87078977D01*
X149148619Y-87082049D01*
X149037508Y-87082049D01*
X149037508Y-86717962D01*
X150384730Y-86717962D01*
X150384730Y-94303279D01*
G37*
D12*
G36*
X140198617Y-69594514D02*
G01*
X140270561Y-69666457D01*
X140304819Y-69734973D01*
X140304819Y-69890039D01*
X140270561Y-69958554D01*
X140198617Y-70030497D01*
X140037251Y-70070839D01*
X139722386Y-70070839D01*
X139561019Y-70030497D01*
X139489077Y-69958555D01*
X139454819Y-69890039D01*
X139454819Y-69734973D01*
X139489077Y-69666457D01*
X139561019Y-69594514D01*
X139722386Y-69554173D01*
X140037251Y-69554173D01*
X140198617Y-69594514D01*
G37*
G36*
X139763963Y-68588431D02*
G01*
X139794370Y-68618838D01*
X139828628Y-68687354D01*
X139828628Y-68975601D01*
X139454819Y-68975601D01*
X139454819Y-68687354D01*
X139489077Y-68618838D01*
X139519484Y-68588431D01*
X139588000Y-68554173D01*
X139695447Y-68554173D01*
X139763963Y-68588431D01*
G37*
G36*
X140198617Y-64784990D02*
G01*
X140270561Y-64856933D01*
X140304819Y-64925449D01*
X140304819Y-65080515D01*
X140270561Y-65149030D01*
X140198617Y-65220973D01*
X140037251Y-65261315D01*
X139722386Y-65261315D01*
X139561019Y-65220973D01*
X139489077Y-65149031D01*
X139454819Y-65080515D01*
X139454819Y-64925449D01*
X139489077Y-64856933D01*
X139561019Y-64784990D01*
X139722386Y-64744649D01*
X140037251Y-64744649D01*
X140198617Y-64784990D01*
G37*
G36*
X140565930Y-70331950D02*
G01*
X139193708Y-70331950D01*
X139193708Y-69717268D01*
X139304819Y-69717268D01*
X139304819Y-69907744D01*
X139306260Y-69922376D01*
X139307291Y-69924865D01*
X139307482Y-69927553D01*
X139312737Y-69941285D01*
X139360356Y-70036523D01*
X139364320Y-70042822D01*
X139365078Y-70044650D01*
X139366766Y-70046706D01*
X139368188Y-70048966D01*
X139369686Y-70050265D01*
X139374405Y-70056015D01*
X139469643Y-70151253D01*
X139481008Y-70160581D01*
X139486161Y-70162715D01*
X139490640Y-70166034D01*
X139504486Y-70170981D01*
X139694962Y-70218600D01*
X139697498Y-70218975D01*
X139698520Y-70219398D01*
X139704032Y-70219940D01*
X139709506Y-70220750D01*
X139710598Y-70220587D01*
X139713152Y-70220839D01*
X140046485Y-70220839D01*
X140049038Y-70220587D01*
X140050131Y-70220750D01*
X140055604Y-70219940D01*
X140061117Y-70219398D01*
X140062138Y-70218975D01*
X140064675Y-70218600D01*
X140255151Y-70170981D01*
X140268997Y-70166034D01*
X140273476Y-70162714D01*
X140278628Y-70160581D01*
X140289994Y-70151253D01*
X140385233Y-70056015D01*
X140389953Y-70050264D01*
X140391450Y-70048966D01*
X140392869Y-70046711D01*
X140394561Y-70044650D01*
X140395319Y-70042817D01*
X140399282Y-70036523D01*
X140446901Y-69941285D01*
X140452156Y-69927554D01*
X140452347Y-69924864D01*
X140453378Y-69922376D01*
X140454819Y-69907744D01*
X140454819Y-69717268D01*
X140453378Y-69702636D01*
X140452347Y-69700147D01*
X140452156Y-69697458D01*
X140446901Y-69683727D01*
X140399282Y-69588489D01*
X140395319Y-69582194D01*
X140394561Y-69580362D01*
X140392869Y-69578300D01*
X140391450Y-69576046D01*
X140389953Y-69574747D01*
X140385233Y-69568997D01*
X140289994Y-69473759D01*
X140278628Y-69464431D01*
X140273476Y-69462297D01*
X140268997Y-69458978D01*
X140255151Y-69454031D01*
X140064675Y-69406412D01*
X140062138Y-69406036D01*
X140061117Y-69405614D01*
X140055604Y-69405071D01*
X140050131Y-69404262D01*
X140049038Y-69404424D01*
X140046485Y-69404173D01*
X139713152Y-69404173D01*
X139710598Y-69404424D01*
X139709506Y-69404262D01*
X139704032Y-69405071D01*
X139698520Y-69405614D01*
X139697498Y-69406036D01*
X139694962Y-69406412D01*
X139504486Y-69454031D01*
X139490640Y-69458978D01*
X139486161Y-69462296D01*
X139481008Y-69464431D01*
X139469643Y-69473759D01*
X139374405Y-69568997D01*
X139369686Y-69574746D01*
X139368188Y-69576046D01*
X139366766Y-69578305D01*
X139365078Y-69580362D01*
X139364320Y-69582189D01*
X139360356Y-69588489D01*
X139312737Y-69683727D01*
X139307482Y-69697459D01*
X139307291Y-69700146D01*
X139306260Y-69702636D01*
X139304819Y-69717268D01*
X139193708Y-69717268D01*
X139193708Y-68669649D01*
X139304819Y-68669649D01*
X139304819Y-69050601D01*
X139306260Y-69065233D01*
X139317459Y-69092269D01*
X139338151Y-69112961D01*
X139365187Y-69124160D01*
X139379819Y-69125601D01*
X140379819Y-69125601D01*
X140394451Y-69124160D01*
X140421487Y-69112961D01*
X140442179Y-69092269D01*
X140453378Y-69065233D01*
X140453378Y-69035969D01*
X140442179Y-69008933D01*
X140421487Y-68988241D01*
X140394451Y-68977042D01*
X140379819Y-68975601D01*
X139978628Y-68975601D01*
X139978628Y-68669649D01*
X139977187Y-68655017D01*
X139976156Y-68652528D01*
X139975965Y-68649839D01*
X139970710Y-68636108D01*
X139923091Y-68540870D01*
X139919126Y-68534570D01*
X139918369Y-68532743D01*
X139916680Y-68530686D01*
X139915259Y-68528427D01*
X139913760Y-68527127D01*
X139909042Y-68521378D01*
X139861423Y-68473759D01*
X139855673Y-68469040D01*
X139854374Y-68467542D01*
X139852114Y-68466120D01*
X139850058Y-68464432D01*
X139848230Y-68463674D01*
X139841931Y-68459710D01*
X139746693Y-68412091D01*
X139732961Y-68406836D01*
X139730273Y-68406645D01*
X139727784Y-68405614D01*
X139713152Y-68404173D01*
X139570295Y-68404173D01*
X139555663Y-68405614D01*
X139553174Y-68406644D01*
X139550485Y-68406836D01*
X139536754Y-68412091D01*
X139441516Y-68459710D01*
X139435216Y-68463674D01*
X139433389Y-68464432D01*
X139431332Y-68466120D01*
X139429073Y-68467542D01*
X139427773Y-68469040D01*
X139422024Y-68473759D01*
X139374405Y-68521378D01*
X139369686Y-68527127D01*
X139368188Y-68528427D01*
X139366766Y-68530686D01*
X139365078Y-68532743D01*
X139364320Y-68534570D01*
X139360356Y-68540870D01*
X139312737Y-68636108D01*
X139307482Y-68649840D01*
X139307291Y-68652527D01*
X139306260Y-68655017D01*
X139304819Y-68669649D01*
X139193708Y-68669649D01*
X139193708Y-67574411D01*
X139304819Y-67574411D01*
X139304819Y-68050601D01*
X139306260Y-68065233D01*
X139317459Y-68092269D01*
X139338151Y-68112961D01*
X139365187Y-68124160D01*
X139379819Y-68125601D01*
X140379819Y-68125601D01*
X140394451Y-68124160D01*
X140421487Y-68112961D01*
X140442179Y-68092269D01*
X140453378Y-68065233D01*
X140454819Y-68050601D01*
X140454819Y-67574411D01*
X140453378Y-67559779D01*
X140442179Y-67532743D01*
X140421487Y-67512051D01*
X140394451Y-67500852D01*
X140365187Y-67500852D01*
X140338151Y-67512051D01*
X140317459Y-67532743D01*
X140306260Y-67559779D01*
X140304819Y-67574411D01*
X140304819Y-67975601D01*
X139931009Y-67975601D01*
X139931009Y-67717268D01*
X139929568Y-67702636D01*
X139918369Y-67675600D01*
X139897677Y-67654908D01*
X139870641Y-67643709D01*
X139841377Y-67643709D01*
X139814341Y-67654908D01*
X139793649Y-67675600D01*
X139782450Y-67702636D01*
X139781009Y-67717268D01*
X139781009Y-67975601D01*
X139454819Y-67975601D01*
X139454819Y-67574411D01*
X139453378Y-67559779D01*
X139442179Y-67532743D01*
X139421487Y-67512051D01*
X139394451Y-67500852D01*
X139365187Y-67500852D01*
X139338151Y-67512051D01*
X139317459Y-67532743D01*
X139306260Y-67559779D01*
X139304819Y-67574411D01*
X139193708Y-67574411D01*
X139193708Y-67140600D01*
X139305002Y-67140600D01*
X139306260Y-67150496D01*
X139306260Y-67160471D01*
X139308089Y-67164886D01*
X139308692Y-67169630D01*
X139313642Y-67178294D01*
X139317459Y-67187507D01*
X139320837Y-67190885D01*
X139323211Y-67195039D01*
X139331100Y-67201148D01*
X139338151Y-67208199D01*
X139342567Y-67210028D01*
X139346348Y-67212956D01*
X139355971Y-67215580D01*
X139365187Y-67219398D01*
X139372669Y-67220134D01*
X139374580Y-67220656D01*
X139376055Y-67220468D01*
X139379819Y-67220839D01*
X140379819Y-67220839D01*
X140394451Y-67219398D01*
X140421487Y-67208199D01*
X140442179Y-67187507D01*
X140453378Y-67160471D01*
X140453378Y-67131207D01*
X140442179Y-67104171D01*
X140421487Y-67083479D01*
X140394451Y-67072280D01*
X140379819Y-67070839D01*
X139662236Y-67070839D01*
X140417030Y-66639529D01*
X140420114Y-66637339D01*
X140421487Y-66636771D01*
X140422884Y-66635373D01*
X140429019Y-66631019D01*
X140435127Y-66623130D01*
X140442179Y-66616079D01*
X140444009Y-66611660D01*
X140446936Y-66607881D01*
X140449560Y-66598259D01*
X140453378Y-66589043D01*
X140453378Y-66584262D01*
X140454636Y-66579650D01*
X140453378Y-66569753D01*
X140453378Y-66559779D01*
X140451548Y-66555363D01*
X140450946Y-66550620D01*
X140445995Y-66541955D01*
X140442179Y-66532743D01*
X140438800Y-66529364D01*
X140436427Y-66525211D01*
X140428537Y-66519101D01*
X140421487Y-66512051D01*
X140417070Y-66510221D01*
X140413290Y-66507294D01*
X140403666Y-66504669D01*
X140394451Y-66500852D01*
X140386968Y-66500115D01*
X140385058Y-66499594D01*
X140383582Y-66499781D01*
X140379819Y-66499411D01*
X139379819Y-66499411D01*
X139365187Y-66500852D01*
X139338151Y-66512051D01*
X139317459Y-66532743D01*
X139306260Y-66559779D01*
X139306260Y-66589043D01*
X139317459Y-66616079D01*
X139338151Y-66636771D01*
X139365187Y-66647970D01*
X139379819Y-66649411D01*
X140097402Y-66649411D01*
X139342609Y-67080721D01*
X139339525Y-67082909D01*
X139338151Y-67083479D01*
X139336751Y-67084878D01*
X139330619Y-67089231D01*
X139324509Y-67097120D01*
X139317459Y-67104171D01*
X139315629Y-67108587D01*
X139312702Y-67112368D01*
X139310077Y-67121991D01*
X139306260Y-67131207D01*
X139306260Y-67135987D01*
X139305002Y-67140600D01*
X139193708Y-67140600D01*
X139193708Y-66083588D01*
X139306260Y-66083588D01*
X139306260Y-66112852D01*
X139317459Y-66139888D01*
X139338151Y-66160580D01*
X139365187Y-66171779D01*
X139379819Y-66173220D01*
X140379819Y-66173220D01*
X140394451Y-66171779D01*
X140421487Y-66160580D01*
X140442179Y-66139888D01*
X140453378Y-66112852D01*
X140454819Y-66098220D01*
X140454819Y-65622030D01*
X140453378Y-65607398D01*
X140442179Y-65580362D01*
X140421487Y-65559670D01*
X140394451Y-65548471D01*
X140365187Y-65548471D01*
X140338151Y-65559670D01*
X140317459Y-65580362D01*
X140306260Y-65607398D01*
X140304819Y-65622030D01*
X140304819Y-66023220D01*
X139379819Y-66023220D01*
X139365187Y-66024661D01*
X139338151Y-66035860D01*
X139317459Y-66056552D01*
X139306260Y-66083588D01*
X139193708Y-66083588D01*
X139193708Y-64907744D01*
X139304819Y-64907744D01*
X139304819Y-65098220D01*
X139306260Y-65112852D01*
X139307291Y-65115341D01*
X139307482Y-65118029D01*
X139312737Y-65131761D01*
X139360356Y-65226999D01*
X139364320Y-65233298D01*
X139365078Y-65235126D01*
X139366766Y-65237182D01*
X139368188Y-65239442D01*
X139369686Y-65240741D01*
X139374405Y-65246491D01*
X139469643Y-65341729D01*
X139481008Y-65351057D01*
X139486161Y-65353191D01*
X139490640Y-65356510D01*
X139504486Y-65361457D01*
X139694962Y-65409076D01*
X139697498Y-65409451D01*
X139698520Y-65409874D01*
X139704032Y-65410416D01*
X139709506Y-65411226D01*
X139710598Y-65411063D01*
X139713152Y-65411315D01*
X140046485Y-65411315D01*
X140049038Y-65411063D01*
X140050131Y-65411226D01*
X140055604Y-65410416D01*
X140061117Y-65409874D01*
X140062138Y-65409451D01*
X140064675Y-65409076D01*
X140255151Y-65361457D01*
X140268997Y-65356510D01*
X140273476Y-65353190D01*
X140278628Y-65351057D01*
X140289994Y-65341729D01*
X140385233Y-65246491D01*
X140389953Y-65240740D01*
X140391450Y-65239442D01*
X140392869Y-65237187D01*
X140394561Y-65235126D01*
X140395319Y-65233293D01*
X140399282Y-65226999D01*
X140446901Y-65131761D01*
X140452156Y-65118030D01*
X140452347Y-65115340D01*
X140453378Y-65112852D01*
X140454819Y-65098220D01*
X140454819Y-64907744D01*
X140453378Y-64893112D01*
X140452347Y-64890623D01*
X140452156Y-64887934D01*
X140446901Y-64874203D01*
X140399282Y-64778965D01*
X140395319Y-64772670D01*
X140394561Y-64770838D01*
X140392869Y-64768776D01*
X140391450Y-64766522D01*
X140389953Y-64765223D01*
X140385233Y-64759473D01*
X140289994Y-64664235D01*
X140278628Y-64654907D01*
X140273476Y-64652773D01*
X140268997Y-64649454D01*
X140255151Y-64644507D01*
X140064675Y-64596888D01*
X140062138Y-64596512D01*
X140061117Y-64596090D01*
X140055604Y-64595547D01*
X140050131Y-64594738D01*
X140049038Y-64594900D01*
X140046485Y-64594649D01*
X139713152Y-64594649D01*
X139710598Y-64594900D01*
X139709506Y-64594738D01*
X139704032Y-64595547D01*
X139698520Y-64596090D01*
X139697498Y-64596512D01*
X139694962Y-64596888D01*
X139504486Y-64644507D01*
X139490640Y-64649454D01*
X139486161Y-64652772D01*
X139481008Y-64654907D01*
X139469643Y-64664235D01*
X139374405Y-64759473D01*
X139369686Y-64765222D01*
X139368188Y-64766522D01*
X139366766Y-64768781D01*
X139365078Y-64770838D01*
X139364320Y-64772665D01*
X139360356Y-64778965D01*
X139312737Y-64874203D01*
X139307482Y-64887935D01*
X139307291Y-64890622D01*
X139306260Y-64893112D01*
X139304819Y-64907744D01*
X139193708Y-64907744D01*
X139193708Y-63812506D01*
X139304819Y-63812506D01*
X139304819Y-63955363D01*
X139305548Y-63962768D01*
X139305408Y-63964743D01*
X139305998Y-63967340D01*
X139306260Y-63969995D01*
X139307018Y-63971826D01*
X139308668Y-63979080D01*
X139356287Y-64121937D01*
X139362281Y-64135362D01*
X139364046Y-64137397D01*
X139365078Y-64139888D01*
X139374405Y-64151253D01*
X139469643Y-64246491D01*
X139475393Y-64251211D01*
X139476692Y-64252708D01*
X139478946Y-64254127D01*
X139481008Y-64255819D01*
X139482840Y-64256577D01*
X139489135Y-64260540D01*
X139584373Y-64308159D01*
X139585442Y-64308568D01*
X139585878Y-64308891D01*
X139592014Y-64311083D01*
X139598104Y-64313414D01*
X139598644Y-64313452D01*
X139599724Y-64313838D01*
X139790200Y-64361457D01*
X139792736Y-64361832D01*
X139793758Y-64362255D01*
X139799270Y-64362797D01*
X139804744Y-64363607D01*
X139805836Y-64363444D01*
X139808390Y-64363696D01*
X139951247Y-64363696D01*
X139953800Y-64363444D01*
X139954893Y-64363607D01*
X139960366Y-64362797D01*
X139965879Y-64362255D01*
X139966900Y-64361832D01*
X139969437Y-64361457D01*
X140159913Y-64313838D01*
X140160992Y-64313452D01*
X140161532Y-64313414D01*
X140167613Y-64311086D01*
X140173759Y-64308891D01*
X140174194Y-64308568D01*
X140175264Y-64308159D01*
X140270502Y-64260540D01*
X140276798Y-64256576D01*
X140278628Y-64255819D01*
X140280686Y-64254129D01*
X140282945Y-64252708D01*
X140284244Y-64251209D01*
X140289994Y-64246491D01*
X140385233Y-64151253D01*
X140394561Y-64139888D01*
X140395592Y-64137397D01*
X140397357Y-64135363D01*
X140403351Y-64121937D01*
X140450970Y-63979081D01*
X140452619Y-63971825D01*
X140453378Y-63969995D01*
X140453639Y-63967341D01*
X140454230Y-63964744D01*
X140454089Y-63962769D01*
X140454819Y-63955363D01*
X140454819Y-63860125D01*
X140454089Y-63852718D01*
X140454230Y-63850744D01*
X140453639Y-63848146D01*
X140453378Y-63845493D01*
X140452619Y-63843662D01*
X140450970Y-63836407D01*
X140403351Y-63693551D01*
X140397357Y-63680125D01*
X140395590Y-63678088D01*
X140394560Y-63675600D01*
X140385232Y-63664234D01*
X140337612Y-63616615D01*
X140326247Y-63607288D01*
X140310410Y-63600728D01*
X140299212Y-63596090D01*
X140284580Y-63594649D01*
X139951247Y-63594649D01*
X139936615Y-63596090D01*
X139909579Y-63607289D01*
X139888887Y-63627981D01*
X139877688Y-63655017D01*
X139876247Y-63669649D01*
X139876247Y-63860125D01*
X139877688Y-63874757D01*
X139888887Y-63901793D01*
X139909579Y-63922485D01*
X139936615Y-63933684D01*
X139965879Y-63933684D01*
X139992915Y-63922485D01*
X140013607Y-63901793D01*
X140024806Y-63874757D01*
X140026247Y-63860125D01*
X140026247Y-63744649D01*
X140253514Y-63744649D01*
X140266648Y-63757782D01*
X140304819Y-63872295D01*
X140304819Y-63943193D01*
X140266648Y-64057705D01*
X140192534Y-64131818D01*
X140115547Y-64170312D01*
X139942013Y-64213696D01*
X139817624Y-64213696D01*
X139644090Y-64170312D01*
X139567103Y-64131819D01*
X139492990Y-64057706D01*
X139454819Y-63943192D01*
X139454819Y-63830211D01*
X139494520Y-63750809D01*
X139499775Y-63737078D01*
X139501849Y-63707888D01*
X139492595Y-63680126D01*
X139473422Y-63658019D01*
X139447247Y-63644931D01*
X139418057Y-63642857D01*
X139390296Y-63652111D01*
X139368188Y-63671284D01*
X139360356Y-63683727D01*
X139312737Y-63778965D01*
X139307482Y-63792697D01*
X139307291Y-63795384D01*
X139306260Y-63797874D01*
X139304819Y-63812506D01*
X139193708Y-63812506D01*
X139193708Y-63483538D01*
X140565930Y-63483538D01*
X140565930Y-70331950D01*
G37*
D13*
G36*
X156232106Y-84662536D02*
G01*
X156258209Y-84688640D01*
X156289128Y-84750477D01*
X156289128Y-84849070D01*
X156258209Y-84910906D01*
X156232106Y-84937010D01*
X156170270Y-84967928D01*
X155905200Y-84967928D01*
X155905200Y-84631619D01*
X156170270Y-84631619D01*
X156232106Y-84662536D01*
G37*
G36*
X155232106Y-84662536D02*
G01*
X155258209Y-84688640D01*
X155289128Y-84750477D01*
X155289128Y-84849070D01*
X155258209Y-84910906D01*
X155232106Y-84937010D01*
X155170270Y-84967928D01*
X154905200Y-84967928D01*
X154905200Y-84631619D01*
X155170270Y-84631619D01*
X155232106Y-84662536D01*
G37*
G36*
X159397263Y-85742730D02*
G01*
X154606589Y-85742730D01*
X154606589Y-84537869D01*
X154717700Y-84537869D01*
X154717700Y-85537869D01*
X154719501Y-85556159D01*
X154733500Y-85589954D01*
X154759365Y-85615819D01*
X154793160Y-85629818D01*
X154829740Y-85629818D01*
X154863535Y-85615819D01*
X154889400Y-85589954D01*
X154903399Y-85556159D01*
X154905200Y-85537869D01*
X154905200Y-85155428D01*
X155192402Y-85155428D01*
X155210692Y-85153627D01*
X155213804Y-85152337D01*
X155217164Y-85152099D01*
X155234328Y-85145531D01*
X155329566Y-85097912D01*
X155337435Y-85092958D01*
X155339725Y-85092010D01*
X155342301Y-85089895D01*
X155345120Y-85088121D01*
X155346742Y-85086250D01*
X155353931Y-85080350D01*
X155401550Y-85032732D01*
X155407449Y-85025542D01*
X155409321Y-85023920D01*
X155411097Y-85021098D01*
X155413209Y-85018525D01*
X155414155Y-85016239D01*
X155419112Y-85008366D01*
X155466730Y-84913129D01*
X155473299Y-84895964D01*
X155473537Y-84892604D01*
X155474827Y-84889492D01*
X155476628Y-84871202D01*
X155476628Y-84728345D01*
X155474827Y-84710055D01*
X155473537Y-84706942D01*
X155473299Y-84703583D01*
X155466730Y-84686418D01*
X155419112Y-84591181D01*
X155414155Y-84583307D01*
X155413209Y-84581022D01*
X155411097Y-84578448D01*
X155409321Y-84575627D01*
X155407449Y-84574004D01*
X155401550Y-84566815D01*
X155372603Y-84537869D01*
X155717700Y-84537869D01*
X155717700Y-85537869D01*
X155719501Y-85556159D01*
X155733500Y-85589954D01*
X155759365Y-85615819D01*
X155793160Y-85629818D01*
X155829740Y-85629818D01*
X155863535Y-85615819D01*
X155889400Y-85589954D01*
X155903399Y-85556159D01*
X155905200Y-85537869D01*
X155905200Y-85155428D01*
X156000734Y-85155428D01*
X156306075Y-85591631D01*
X156318039Y-85605582D01*
X156348888Y-85625240D01*
X156384910Y-85631597D01*
X156420624Y-85623685D01*
X156450591Y-85602708D01*
X156470249Y-85571860D01*
X156476606Y-85535838D01*
X156468694Y-85500124D01*
X156459681Y-85484107D01*
X156225139Y-85149047D01*
X156234328Y-85145531D01*
X156329566Y-85097912D01*
X156337435Y-85092958D01*
X156339725Y-85092010D01*
X156342301Y-85089895D01*
X156345120Y-85088121D01*
X156346742Y-85086250D01*
X156353931Y-85080350D01*
X156401550Y-85032732D01*
X156407449Y-85025542D01*
X156409321Y-85023920D01*
X156411097Y-85021098D01*
X156413209Y-85018525D01*
X156414155Y-85016239D01*
X156419112Y-85008366D01*
X156466730Y-84913129D01*
X156473299Y-84895964D01*
X156473537Y-84892604D01*
X156474827Y-84889492D01*
X156476628Y-84871202D01*
X156476628Y-84728345D01*
X156474827Y-84710055D01*
X156473537Y-84706942D01*
X156473299Y-84703583D01*
X156466730Y-84686418D01*
X156419112Y-84591181D01*
X156414155Y-84583307D01*
X156413209Y-84581022D01*
X156411097Y-84578448D01*
X156409321Y-84575627D01*
X156407449Y-84574004D01*
X156401550Y-84566815D01*
X156372603Y-84537869D01*
X156717700Y-84537869D01*
X156717700Y-85537869D01*
X156719501Y-85556159D01*
X156733500Y-85589954D01*
X156759365Y-85615819D01*
X156793160Y-85629818D01*
X156811450Y-85631619D01*
X157287640Y-85631619D01*
X157305930Y-85629818D01*
X157339725Y-85615819D01*
X157365590Y-85589954D01*
X157379589Y-85556159D01*
X157379589Y-85519579D01*
X157365590Y-85485784D01*
X157339725Y-85459919D01*
X157305930Y-85445920D01*
X157287640Y-85444119D01*
X156905200Y-85444119D01*
X156905200Y-85107809D01*
X157144783Y-85107809D01*
X157163073Y-85106008D01*
X157196868Y-85092009D01*
X157222733Y-85066144D01*
X157236732Y-85032349D01*
X157236732Y-84995769D01*
X157222733Y-84961974D01*
X157196868Y-84936109D01*
X157163073Y-84922110D01*
X157144783Y-84920309D01*
X156905200Y-84920309D01*
X156905200Y-84728345D01*
X157574843Y-84728345D01*
X157574843Y-84823583D01*
X157576644Y-84841873D01*
X157577933Y-84844985D01*
X157578172Y-84848345D01*
X157584740Y-84865509D01*
X157632359Y-84960747D01*
X157637312Y-84968616D01*
X157638261Y-84970906D01*
X157640375Y-84973482D01*
X157642150Y-84976301D01*
X157644020Y-84977923D01*
X157649921Y-84985112D01*
X157697539Y-85032731D01*
X157704728Y-85038630D01*
X157706351Y-85040502D01*
X157709172Y-85042278D01*
X157711746Y-85044390D01*
X157714031Y-85045336D01*
X157721905Y-85050293D01*
X157817142Y-85097911D01*
X157818477Y-85098422D01*
X157819024Y-85098827D01*
X157826718Y-85101575D01*
X157834307Y-85104480D01*
X157834981Y-85104527D01*
X157836331Y-85105010D01*
X158016823Y-85150133D01*
X158089249Y-85186345D01*
X158115352Y-85212449D01*
X158146271Y-85274286D01*
X158146271Y-85325260D01*
X158115352Y-85387098D01*
X158089248Y-85413201D01*
X158027413Y-85444119D01*
X157826663Y-85444119D01*
X157698239Y-85401311D01*
X157680318Y-85397236D01*
X157643831Y-85399829D01*
X157611114Y-85416188D01*
X157587146Y-85443822D01*
X157575579Y-85478525D01*
X157578172Y-85515012D01*
X157594531Y-85547729D01*
X157622165Y-85571697D01*
X157638947Y-85579189D01*
X157781803Y-85626808D01*
X157790871Y-85628870D01*
X157793160Y-85629818D01*
X157796476Y-85630144D01*
X157799724Y-85630883D01*
X157802193Y-85630707D01*
X157811450Y-85631619D01*
X158049545Y-85631619D01*
X158067835Y-85629818D01*
X158070947Y-85628528D01*
X158074307Y-85628290D01*
X158091471Y-85621722D01*
X158186709Y-85574103D01*
X158194581Y-85569147D01*
X158196869Y-85568200D01*
X158199444Y-85566086D01*
X158202263Y-85564312D01*
X158203884Y-85562442D01*
X158211075Y-85556541D01*
X158258694Y-85508921D01*
X158264593Y-85501732D01*
X158266464Y-85500110D01*
X158268239Y-85497289D01*
X158270353Y-85494714D01*
X158271300Y-85492427D01*
X158276255Y-85484556D01*
X158323873Y-85389319D01*
X158330442Y-85372154D01*
X158330680Y-85368794D01*
X158331970Y-85365682D01*
X158333771Y-85347392D01*
X158333771Y-85252154D01*
X158331970Y-85233864D01*
X158330680Y-85230751D01*
X158330442Y-85227392D01*
X158323873Y-85210227D01*
X158276255Y-85114990D01*
X158271298Y-85107116D01*
X158270352Y-85104831D01*
X158268240Y-85102257D01*
X158266464Y-85099436D01*
X158264592Y-85097813D01*
X158258693Y-85090624D01*
X158211074Y-85043006D01*
X158203885Y-85037105D01*
X158202263Y-85035235D01*
X158199444Y-85033460D01*
X158196868Y-85031346D01*
X158194578Y-85030397D01*
X158186709Y-85025444D01*
X158091471Y-84977825D01*
X158090134Y-84977313D01*
X158089590Y-84976910D01*
X158081906Y-84974165D01*
X158074307Y-84971257D01*
X158073632Y-84971209D01*
X158072283Y-84970727D01*
X157891791Y-84925604D01*
X157819364Y-84889390D01*
X157793260Y-84863287D01*
X157762343Y-84801451D01*
X157762343Y-84750476D01*
X157773408Y-84728345D01*
X158527224Y-84728345D01*
X158527224Y-84823583D01*
X158529025Y-84841873D01*
X158530314Y-84844985D01*
X158530553Y-84848345D01*
X158537121Y-84865509D01*
X158584740Y-84960747D01*
X158589693Y-84968616D01*
X158590642Y-84970906D01*
X158592756Y-84973482D01*
X158594531Y-84976301D01*
X158596401Y-84977923D01*
X158602302Y-84985112D01*
X158649920Y-85032731D01*
X158657109Y-85038630D01*
X158658732Y-85040502D01*
X158661553Y-85042278D01*
X158664127Y-85044390D01*
X158666412Y-85045336D01*
X158674286Y-85050293D01*
X158769523Y-85097911D01*
X158770858Y-85098422D01*
X158771405Y-85098827D01*
X158779099Y-85101575D01*
X158786688Y-85104480D01*
X158787362Y-85104527D01*
X158788712Y-85105010D01*
X158969204Y-85150133D01*
X159041630Y-85186345D01*
X159067733Y-85212449D01*
X159098652Y-85274286D01*
X159098652Y-85325260D01*
X159067733Y-85387098D01*
X159041629Y-85413201D01*
X158979794Y-85444119D01*
X158779044Y-85444119D01*
X158650620Y-85401311D01*
X158632699Y-85397236D01*
X158596212Y-85399829D01*
X158563495Y-85416188D01*
X158539527Y-85443822D01*
X158527960Y-85478525D01*
X158530553Y-85515012D01*
X158546912Y-85547729D01*
X158574546Y-85571697D01*
X158591328Y-85579189D01*
X158734184Y-85626808D01*
X158743252Y-85628870D01*
X158745541Y-85629818D01*
X158748857Y-85630144D01*
X158752105Y-85630883D01*
X158754574Y-85630707D01*
X158763831Y-85631619D01*
X159001926Y-85631619D01*
X159020216Y-85629818D01*
X159023328Y-85628528D01*
X159026688Y-85628290D01*
X159043852Y-85621722D01*
X159139090Y-85574103D01*
X159146962Y-85569147D01*
X159149250Y-85568200D01*
X159151825Y-85566086D01*
X159154644Y-85564312D01*
X159156265Y-85562442D01*
X159163456Y-85556541D01*
X159211075Y-85508921D01*
X159216974Y-85501732D01*
X159218845Y-85500110D01*
X159220620Y-85497289D01*
X159222734Y-85494714D01*
X159223681Y-85492427D01*
X159228636Y-85484556D01*
X159276254Y-85389319D01*
X159282823Y-85372154D01*
X159283061Y-85368794D01*
X159284351Y-85365682D01*
X159286152Y-85347392D01*
X159286152Y-85252154D01*
X159284351Y-85233864D01*
X159283061Y-85230751D01*
X159282823Y-85227392D01*
X159276254Y-85210227D01*
X159228636Y-85114990D01*
X159223679Y-85107116D01*
X159222733Y-85104831D01*
X159220621Y-85102257D01*
X159218845Y-85099436D01*
X159216973Y-85097813D01*
X159211074Y-85090624D01*
X159163455Y-85043006D01*
X159156266Y-85037105D01*
X159154644Y-85035235D01*
X159151825Y-85033460D01*
X159149249Y-85031346D01*
X159146959Y-85030397D01*
X159139090Y-85025444D01*
X159043852Y-84977825D01*
X159042515Y-84977313D01*
X159041971Y-84976910D01*
X159034287Y-84974165D01*
X159026688Y-84971257D01*
X159026013Y-84971209D01*
X159024664Y-84970727D01*
X158844172Y-84925604D01*
X158771745Y-84889390D01*
X158745641Y-84863287D01*
X158714724Y-84801451D01*
X158714724Y-84750476D01*
X158745641Y-84688640D01*
X158771745Y-84662537D01*
X158833582Y-84631619D01*
X159034332Y-84631619D01*
X159162755Y-84674427D01*
X159180676Y-84678502D01*
X159217164Y-84675908D01*
X159249881Y-84659550D01*
X159273848Y-84631916D01*
X159285416Y-84597213D01*
X159282822Y-84560726D01*
X159266464Y-84528009D01*
X159238830Y-84504041D01*
X159222048Y-84496549D01*
X159079191Y-84448930D01*
X159070124Y-84446868D01*
X159067835Y-84445920D01*
X159064516Y-84445593D01*
X159061270Y-84444855D01*
X159058801Y-84445030D01*
X159049545Y-84444119D01*
X158811450Y-84444119D01*
X158793160Y-84445920D01*
X158790047Y-84447209D01*
X158786688Y-84447448D01*
X158769523Y-84454017D01*
X158674286Y-84501635D01*
X158666412Y-84506591D01*
X158664127Y-84507538D01*
X158661553Y-84509649D01*
X158658732Y-84511426D01*
X158657109Y-84513297D01*
X158649920Y-84519197D01*
X158602302Y-84566816D01*
X158596401Y-84574004D01*
X158594531Y-84575627D01*
X158592756Y-84578445D01*
X158590642Y-84581022D01*
X158589693Y-84583311D01*
X158584740Y-84591181D01*
X158537121Y-84686419D01*
X158530553Y-84703583D01*
X158530314Y-84706942D01*
X158529025Y-84710055D01*
X158527224Y-84728345D01*
X157773408Y-84728345D01*
X157793260Y-84688640D01*
X157819364Y-84662537D01*
X157881201Y-84631619D01*
X158081951Y-84631619D01*
X158210374Y-84674427D01*
X158228295Y-84678502D01*
X158264783Y-84675908D01*
X158297500Y-84659550D01*
X158321467Y-84631916D01*
X158333035Y-84597213D01*
X158330441Y-84560726D01*
X158314083Y-84528009D01*
X158286449Y-84504041D01*
X158269667Y-84496549D01*
X158126810Y-84448930D01*
X158117743Y-84446868D01*
X158115454Y-84445920D01*
X158112135Y-84445593D01*
X158108889Y-84444855D01*
X158106420Y-84445030D01*
X158097164Y-84444119D01*
X157859069Y-84444119D01*
X157840779Y-84445920D01*
X157837666Y-84447209D01*
X157834307Y-84447448D01*
X157817142Y-84454017D01*
X157721905Y-84501635D01*
X157714031Y-84506591D01*
X157711746Y-84507538D01*
X157709172Y-84509649D01*
X157706351Y-84511426D01*
X157704728Y-84513297D01*
X157697539Y-84519197D01*
X157649921Y-84566816D01*
X157644020Y-84574004D01*
X157642150Y-84575627D01*
X157640375Y-84578445D01*
X157638261Y-84581022D01*
X157637312Y-84583311D01*
X157632359Y-84591181D01*
X157584740Y-84686419D01*
X157578172Y-84703583D01*
X157577933Y-84706942D01*
X157576644Y-84710055D01*
X157574843Y-84728345D01*
X156905200Y-84728345D01*
X156905200Y-84631619D01*
X157287640Y-84631619D01*
X157305930Y-84629818D01*
X157339725Y-84615819D01*
X157365590Y-84589954D01*
X157379589Y-84556159D01*
X157379589Y-84519579D01*
X157365590Y-84485784D01*
X157339725Y-84459919D01*
X157305930Y-84445920D01*
X157287640Y-84444119D01*
X156811450Y-84444119D01*
X156793160Y-84445920D01*
X156759365Y-84459919D01*
X156733500Y-84485784D01*
X156719501Y-84519579D01*
X156717700Y-84537869D01*
X156372603Y-84537869D01*
X156353931Y-84519197D01*
X156346742Y-84513296D01*
X156345120Y-84511426D01*
X156342301Y-84509651D01*
X156339725Y-84507537D01*
X156337435Y-84506588D01*
X156329566Y-84501635D01*
X156234328Y-84454016D01*
X156217164Y-84447448D01*
X156213804Y-84447209D01*
X156210692Y-84445920D01*
X156192402Y-84444119D01*
X155811450Y-84444119D01*
X155793160Y-84445920D01*
X155759365Y-84459919D01*
X155733500Y-84485784D01*
X155719501Y-84519579D01*
X155717700Y-84537869D01*
X155372603Y-84537869D01*
X155353931Y-84519197D01*
X155346742Y-84513296D01*
X155345120Y-84511426D01*
X155342301Y-84509651D01*
X155339725Y-84507537D01*
X155337435Y-84506588D01*
X155329566Y-84501635D01*
X155234328Y-84454016D01*
X155217164Y-84447448D01*
X155213804Y-84447209D01*
X155210692Y-84445920D01*
X155192402Y-84444119D01*
X154811450Y-84444119D01*
X154793160Y-84445920D01*
X154759365Y-84459919D01*
X154733500Y-84485784D01*
X154719501Y-84519579D01*
X154717700Y-84537869D01*
X154606589Y-84537869D01*
X154606589Y-84333008D01*
X159397263Y-84333008D01*
X159397263Y-85742730D01*
G37*
D12*
X146044819Y-66526666D02*
X145568628Y-66859999D01*
X146044819Y-67098094D02*
X145044819Y-67098094D01*
X145044819Y-67098094D02*
X145044819Y-66717142D01*
X145044819Y-66717142D02*
X145092438Y-66621904D01*
X145092438Y-66621904D02*
X145140057Y-66574285D01*
X145140057Y-66574285D02*
X145235295Y-66526666D01*
X145235295Y-66526666D02*
X145378152Y-66526666D01*
X145378152Y-66526666D02*
X145473390Y-66574285D01*
X145473390Y-66574285D02*
X145521009Y-66621904D01*
X145521009Y-66621904D02*
X145568628Y-66717142D01*
X145568628Y-66717142D02*
X145568628Y-67098094D01*
X145044819Y-65669523D02*
X145044819Y-65859999D01*
X145044819Y-65859999D02*
X145092438Y-65955237D01*
X145092438Y-65955237D02*
X145140057Y-66002856D01*
X145140057Y-66002856D02*
X145282914Y-66098094D01*
X145282914Y-66098094D02*
X145473390Y-66145713D01*
X145473390Y-66145713D02*
X145854342Y-66145713D01*
X145854342Y-66145713D02*
X145949580Y-66098094D01*
X145949580Y-66098094D02*
X145997200Y-66050475D01*
X145997200Y-66050475D02*
X146044819Y-65955237D01*
X146044819Y-65955237D02*
X146044819Y-65764761D01*
X146044819Y-65764761D02*
X145997200Y-65669523D01*
X145997200Y-65669523D02*
X145949580Y-65621904D01*
X145949580Y-65621904D02*
X145854342Y-65574285D01*
X145854342Y-65574285D02*
X145616247Y-65574285D01*
X145616247Y-65574285D02*
X145521009Y-65621904D01*
X145521009Y-65621904D02*
X145473390Y-65669523D01*
X145473390Y-65669523D02*
X145425771Y-65764761D01*
X145425771Y-65764761D02*
X145425771Y-65955237D01*
X145425771Y-65955237D02*
X145473390Y-66050475D01*
X145473390Y-66050475D02*
X145521009Y-66098094D01*
X145521009Y-66098094D02*
X145616247Y-66145713D01*
X154611905Y-60064819D02*
X154611905Y-59064819D01*
X154611905Y-59064819D02*
X154850000Y-59064819D01*
X154850000Y-59064819D02*
X154992857Y-59112438D01*
X154992857Y-59112438D02*
X155088095Y-59207676D01*
X155088095Y-59207676D02*
X155135714Y-59302914D01*
X155135714Y-59302914D02*
X155183333Y-59493390D01*
X155183333Y-59493390D02*
X155183333Y-59636247D01*
X155183333Y-59636247D02*
X155135714Y-59826723D01*
X155135714Y-59826723D02*
X155088095Y-59921961D01*
X155088095Y-59921961D02*
X154992857Y-60017200D01*
X154992857Y-60017200D02*
X154850000Y-60064819D01*
X154850000Y-60064819D02*
X154611905Y-60064819D01*
X156040476Y-59398152D02*
X156040476Y-60064819D01*
X155802381Y-59017200D02*
X155564286Y-59731485D01*
X155564286Y-59731485D02*
X156183333Y-59731485D01*
X139476666Y-59319819D02*
X139476666Y-60034104D01*
X139476666Y-60034104D02*
X139429047Y-60176961D01*
X139429047Y-60176961D02*
X139333809Y-60272200D01*
X139333809Y-60272200D02*
X139190952Y-60319819D01*
X139190952Y-60319819D02*
X139095714Y-60319819D01*
X139857619Y-59319819D02*
X140524285Y-59319819D01*
X140524285Y-59319819D02*
X140095714Y-60319819D01*
X162924819Y-66496666D02*
X162448628Y-66829999D01*
X162924819Y-67068094D02*
X161924819Y-67068094D01*
X161924819Y-67068094D02*
X161924819Y-66687142D01*
X161924819Y-66687142D02*
X161972438Y-66591904D01*
X161972438Y-66591904D02*
X162020057Y-66544285D01*
X162020057Y-66544285D02*
X162115295Y-66496666D01*
X162115295Y-66496666D02*
X162258152Y-66496666D01*
X162258152Y-66496666D02*
X162353390Y-66544285D01*
X162353390Y-66544285D02*
X162401009Y-66591904D01*
X162401009Y-66591904D02*
X162448628Y-66687142D01*
X162448628Y-66687142D02*
X162448628Y-67068094D01*
X162924819Y-65544285D02*
X162924819Y-66115713D01*
X162924819Y-65829999D02*
X161924819Y-65829999D01*
X161924819Y-65829999D02*
X162067676Y-65925237D01*
X162067676Y-65925237D02*
X162162914Y-66020475D01*
X162162914Y-66020475D02*
X162210533Y-66115713D01*
X159534819Y-66526666D02*
X159058628Y-66859999D01*
X159534819Y-67098094D02*
X158534819Y-67098094D01*
X158534819Y-67098094D02*
X158534819Y-66717142D01*
X158534819Y-66717142D02*
X158582438Y-66621904D01*
X158582438Y-66621904D02*
X158630057Y-66574285D01*
X158630057Y-66574285D02*
X158725295Y-66526666D01*
X158725295Y-66526666D02*
X158868152Y-66526666D01*
X158868152Y-66526666D02*
X158963390Y-66574285D01*
X158963390Y-66574285D02*
X159011009Y-66621904D01*
X159011009Y-66621904D02*
X159058628Y-66717142D01*
X159058628Y-66717142D02*
X159058628Y-67098094D01*
X158630057Y-66145713D02*
X158582438Y-66098094D01*
X158582438Y-66098094D02*
X158534819Y-66002856D01*
X158534819Y-66002856D02*
X158534819Y-65764761D01*
X158534819Y-65764761D02*
X158582438Y-65669523D01*
X158582438Y-65669523D02*
X158630057Y-65621904D01*
X158630057Y-65621904D02*
X158725295Y-65574285D01*
X158725295Y-65574285D02*
X158820533Y-65574285D01*
X158820533Y-65574285D02*
X158963390Y-65621904D01*
X158963390Y-65621904D02*
X159534819Y-66193332D01*
X159534819Y-66193332D02*
X159534819Y-65574285D01*
X156106905Y-94704819D02*
X156106905Y-93704819D01*
X156106905Y-93704819D02*
X156345000Y-93704819D01*
X156345000Y-93704819D02*
X156487857Y-93752438D01*
X156487857Y-93752438D02*
X156583095Y-93847676D01*
X156583095Y-93847676D02*
X156630714Y-93942914D01*
X156630714Y-93942914D02*
X156678333Y-94133390D01*
X156678333Y-94133390D02*
X156678333Y-94276247D01*
X156678333Y-94276247D02*
X156630714Y-94466723D01*
X156630714Y-94466723D02*
X156583095Y-94561961D01*
X156583095Y-94561961D02*
X156487857Y-94657200D01*
X156487857Y-94657200D02*
X156345000Y-94704819D01*
X156345000Y-94704819D02*
X156106905Y-94704819D01*
X157630714Y-94704819D02*
X157059286Y-94704819D01*
X157345000Y-94704819D02*
X157345000Y-93704819D01*
X157345000Y-93704819D02*
X157249762Y-93847676D01*
X157249762Y-93847676D02*
X157154524Y-93942914D01*
X157154524Y-93942914D02*
X157059286Y-93990533D01*
X142564819Y-91631904D02*
X143374342Y-91631904D01*
X143374342Y-91631904D02*
X143469580Y-91584285D01*
X143469580Y-91584285D02*
X143517200Y-91536666D01*
X143517200Y-91536666D02*
X143564819Y-91441428D01*
X143564819Y-91441428D02*
X143564819Y-91250952D01*
X143564819Y-91250952D02*
X143517200Y-91155714D01*
X143517200Y-91155714D02*
X143469580Y-91108095D01*
X143469580Y-91108095D02*
X143374342Y-91060476D01*
X143374342Y-91060476D02*
X142564819Y-91060476D01*
X142660057Y-90631904D02*
X142612438Y-90584285D01*
X142612438Y-90584285D02*
X142564819Y-90489047D01*
X142564819Y-90489047D02*
X142564819Y-90250952D01*
X142564819Y-90250952D02*
X142612438Y-90155714D01*
X142612438Y-90155714D02*
X142660057Y-90108095D01*
X142660057Y-90108095D02*
X142755295Y-90060476D01*
X142755295Y-90060476D02*
X142850533Y-90060476D01*
X142850533Y-90060476D02*
X142993390Y-90108095D01*
X142993390Y-90108095D02*
X143564819Y-90679523D01*
X143564819Y-90679523D02*
X143564819Y-90060476D01*
X156254819Y-66466666D02*
X155778628Y-66799999D01*
X156254819Y-67038094D02*
X155254819Y-67038094D01*
X155254819Y-67038094D02*
X155254819Y-66657142D01*
X155254819Y-66657142D02*
X155302438Y-66561904D01*
X155302438Y-66561904D02*
X155350057Y-66514285D01*
X155350057Y-66514285D02*
X155445295Y-66466666D01*
X155445295Y-66466666D02*
X155588152Y-66466666D01*
X155588152Y-66466666D02*
X155683390Y-66514285D01*
X155683390Y-66514285D02*
X155731009Y-66561904D01*
X155731009Y-66561904D02*
X155778628Y-66657142D01*
X155778628Y-66657142D02*
X155778628Y-67038094D01*
X155254819Y-66133332D02*
X155254819Y-65514285D01*
X155254819Y-65514285D02*
X155635771Y-65847618D01*
X155635771Y-65847618D02*
X155635771Y-65704761D01*
X155635771Y-65704761D02*
X155683390Y-65609523D01*
X155683390Y-65609523D02*
X155731009Y-65561904D01*
X155731009Y-65561904D02*
X155826247Y-65514285D01*
X155826247Y-65514285D02*
X156064342Y-65514285D01*
X156064342Y-65514285D02*
X156159580Y-65561904D01*
X156159580Y-65561904D02*
X156207200Y-65609523D01*
X156207200Y-65609523D02*
X156254819Y-65704761D01*
X156254819Y-65704761D02*
X156254819Y-65990475D01*
X156254819Y-65990475D02*
X156207200Y-66085713D01*
X156207200Y-66085713D02*
X156159580Y-66133332D01*
X163191905Y-94614819D02*
X163191905Y-93614819D01*
X163191905Y-93614819D02*
X163430000Y-93614819D01*
X163430000Y-93614819D02*
X163572857Y-93662438D01*
X163572857Y-93662438D02*
X163668095Y-93757676D01*
X163668095Y-93757676D02*
X163715714Y-93852914D01*
X163715714Y-93852914D02*
X163763333Y-94043390D01*
X163763333Y-94043390D02*
X163763333Y-94186247D01*
X163763333Y-94186247D02*
X163715714Y-94376723D01*
X163715714Y-94376723D02*
X163668095Y-94471961D01*
X163668095Y-94471961D02*
X163572857Y-94567200D01*
X163572857Y-94567200D02*
X163430000Y-94614819D01*
X163430000Y-94614819D02*
X163191905Y-94614819D01*
X164144286Y-93710057D02*
X164191905Y-93662438D01*
X164191905Y-93662438D02*
X164287143Y-93614819D01*
X164287143Y-93614819D02*
X164525238Y-93614819D01*
X164525238Y-93614819D02*
X164620476Y-93662438D01*
X164620476Y-93662438D02*
X164668095Y-93710057D01*
X164668095Y-93710057D02*
X164715714Y-93805295D01*
X164715714Y-93805295D02*
X164715714Y-93900533D01*
X164715714Y-93900533D02*
X164668095Y-94043390D01*
X164668095Y-94043390D02*
X164096667Y-94614819D01*
X164096667Y-94614819D02*
X164715714Y-94614819D01*
X141801905Y-60144819D02*
X141801905Y-59144819D01*
X141801905Y-59144819D02*
X142040000Y-59144819D01*
X142040000Y-59144819D02*
X142182857Y-59192438D01*
X142182857Y-59192438D02*
X142278095Y-59287676D01*
X142278095Y-59287676D02*
X142325714Y-59382914D01*
X142325714Y-59382914D02*
X142373333Y-59573390D01*
X142373333Y-59573390D02*
X142373333Y-59716247D01*
X142373333Y-59716247D02*
X142325714Y-59906723D01*
X142325714Y-59906723D02*
X142278095Y-60001961D01*
X142278095Y-60001961D02*
X142182857Y-60097200D01*
X142182857Y-60097200D02*
X142040000Y-60144819D01*
X142040000Y-60144819D02*
X141801905Y-60144819D01*
X143278095Y-59144819D02*
X142801905Y-59144819D01*
X142801905Y-59144819D02*
X142754286Y-59621009D01*
X142754286Y-59621009D02*
X142801905Y-59573390D01*
X142801905Y-59573390D02*
X142897143Y-59525771D01*
X142897143Y-59525771D02*
X143135238Y-59525771D01*
X143135238Y-59525771D02*
X143230476Y-59573390D01*
X143230476Y-59573390D02*
X143278095Y-59621009D01*
X143278095Y-59621009D02*
X143325714Y-59716247D01*
X143325714Y-59716247D02*
X143325714Y-59954342D01*
X143325714Y-59954342D02*
X143278095Y-60049580D01*
X143278095Y-60049580D02*
X143230476Y-60097200D01*
X143230476Y-60097200D02*
X143135238Y-60144819D01*
X143135238Y-60144819D02*
X142897143Y-60144819D01*
X142897143Y-60144819D02*
X142801905Y-60097200D01*
X142801905Y-60097200D02*
X142754286Y-60049580D01*
X148141905Y-60064819D02*
X148141905Y-59064819D01*
X148141905Y-59064819D02*
X148380000Y-59064819D01*
X148380000Y-59064819D02*
X148522857Y-59112438D01*
X148522857Y-59112438D02*
X148618095Y-59207676D01*
X148618095Y-59207676D02*
X148665714Y-59302914D01*
X148665714Y-59302914D02*
X148713333Y-59493390D01*
X148713333Y-59493390D02*
X148713333Y-59636247D01*
X148713333Y-59636247D02*
X148665714Y-59826723D01*
X148665714Y-59826723D02*
X148618095Y-59921961D01*
X148618095Y-59921961D02*
X148522857Y-60017200D01*
X148522857Y-60017200D02*
X148380000Y-60064819D01*
X148380000Y-60064819D02*
X148141905Y-60064819D01*
X149570476Y-59064819D02*
X149380000Y-59064819D01*
X149380000Y-59064819D02*
X149284762Y-59112438D01*
X149284762Y-59112438D02*
X149237143Y-59160057D01*
X149237143Y-59160057D02*
X149141905Y-59302914D01*
X149141905Y-59302914D02*
X149094286Y-59493390D01*
X149094286Y-59493390D02*
X149094286Y-59874342D01*
X149094286Y-59874342D02*
X149141905Y-59969580D01*
X149141905Y-59969580D02*
X149189524Y-60017200D01*
X149189524Y-60017200D02*
X149284762Y-60064819D01*
X149284762Y-60064819D02*
X149475238Y-60064819D01*
X149475238Y-60064819D02*
X149570476Y-60017200D01*
X149570476Y-60017200D02*
X149618095Y-59969580D01*
X149618095Y-59969580D02*
X149665714Y-59874342D01*
X149665714Y-59874342D02*
X149665714Y-59636247D01*
X149665714Y-59636247D02*
X149618095Y-59541009D01*
X149618095Y-59541009D02*
X149570476Y-59493390D01*
X149570476Y-59493390D02*
X149475238Y-59445771D01*
X149475238Y-59445771D02*
X149284762Y-59445771D01*
X149284762Y-59445771D02*
X149189524Y-59493390D01*
X149189524Y-59493390D02*
X149141905Y-59541009D01*
X149141905Y-59541009D02*
X149094286Y-59636247D01*
X161051905Y-60064819D02*
X161051905Y-59064819D01*
X161051905Y-59064819D02*
X161290000Y-59064819D01*
X161290000Y-59064819D02*
X161432857Y-59112438D01*
X161432857Y-59112438D02*
X161528095Y-59207676D01*
X161528095Y-59207676D02*
X161575714Y-59302914D01*
X161575714Y-59302914D02*
X161623333Y-59493390D01*
X161623333Y-59493390D02*
X161623333Y-59636247D01*
X161623333Y-59636247D02*
X161575714Y-59826723D01*
X161575714Y-59826723D02*
X161528095Y-59921961D01*
X161528095Y-59921961D02*
X161432857Y-60017200D01*
X161432857Y-60017200D02*
X161290000Y-60064819D01*
X161290000Y-60064819D02*
X161051905Y-60064819D01*
X161956667Y-59064819D02*
X162575714Y-59064819D01*
X162575714Y-59064819D02*
X162242381Y-59445771D01*
X162242381Y-59445771D02*
X162385238Y-59445771D01*
X162385238Y-59445771D02*
X162480476Y-59493390D01*
X162480476Y-59493390D02*
X162528095Y-59541009D01*
X162528095Y-59541009D02*
X162575714Y-59636247D01*
X162575714Y-59636247D02*
X162575714Y-59874342D01*
X162575714Y-59874342D02*
X162528095Y-59969580D01*
X162528095Y-59969580D02*
X162480476Y-60017200D01*
X162480476Y-60017200D02*
X162385238Y-60064819D01*
X162385238Y-60064819D02*
X162099524Y-60064819D01*
X162099524Y-60064819D02*
X162004286Y-60017200D01*
X162004286Y-60017200D02*
X161956667Y-59969580D01*
X149524819Y-66466666D02*
X149048628Y-66799999D01*
X149524819Y-67038094D02*
X148524819Y-67038094D01*
X148524819Y-67038094D02*
X148524819Y-66657142D01*
X148524819Y-66657142D02*
X148572438Y-66561904D01*
X148572438Y-66561904D02*
X148620057Y-66514285D01*
X148620057Y-66514285D02*
X148715295Y-66466666D01*
X148715295Y-66466666D02*
X148858152Y-66466666D01*
X148858152Y-66466666D02*
X148953390Y-66514285D01*
X148953390Y-66514285D02*
X149001009Y-66561904D01*
X149001009Y-66561904D02*
X149048628Y-66657142D01*
X149048628Y-66657142D02*
X149048628Y-67038094D01*
X148524819Y-65561904D02*
X148524819Y-66038094D01*
X148524819Y-66038094D02*
X149001009Y-66085713D01*
X149001009Y-66085713D02*
X148953390Y-66038094D01*
X148953390Y-66038094D02*
X148905771Y-65942856D01*
X148905771Y-65942856D02*
X148905771Y-65704761D01*
X148905771Y-65704761D02*
X148953390Y-65609523D01*
X148953390Y-65609523D02*
X149001009Y-65561904D01*
X149001009Y-65561904D02*
X149096247Y-65514285D01*
X149096247Y-65514285D02*
X149334342Y-65514285D01*
X149334342Y-65514285D02*
X149429580Y-65561904D01*
X149429580Y-65561904D02*
X149477200Y-65609523D01*
X149477200Y-65609523D02*
X149524819Y-65704761D01*
X149524819Y-65704761D02*
X149524819Y-65942856D01*
X149524819Y-65942856D02*
X149477200Y-66038094D01*
X149477200Y-66038094D02*
X149429580Y-66085713D01*
X138306666Y-91454819D02*
X138306666Y-92169104D01*
X138306666Y-92169104D02*
X138259047Y-92311961D01*
X138259047Y-92311961D02*
X138163809Y-92407200D01*
X138163809Y-92407200D02*
X138020952Y-92454819D01*
X138020952Y-92454819D02*
X137925714Y-92454819D01*
X138925714Y-91883390D02*
X138830476Y-91835771D01*
X138830476Y-91835771D02*
X138782857Y-91788152D01*
X138782857Y-91788152D02*
X138735238Y-91692914D01*
X138735238Y-91692914D02*
X138735238Y-91645295D01*
X138735238Y-91645295D02*
X138782857Y-91550057D01*
X138782857Y-91550057D02*
X138830476Y-91502438D01*
X138830476Y-91502438D02*
X138925714Y-91454819D01*
X138925714Y-91454819D02*
X139116190Y-91454819D01*
X139116190Y-91454819D02*
X139211428Y-91502438D01*
X139211428Y-91502438D02*
X139259047Y-91550057D01*
X139259047Y-91550057D02*
X139306666Y-91645295D01*
X139306666Y-91645295D02*
X139306666Y-91692914D01*
X139306666Y-91692914D02*
X139259047Y-91788152D01*
X139259047Y-91788152D02*
X139211428Y-91835771D01*
X139211428Y-91835771D02*
X139116190Y-91883390D01*
X139116190Y-91883390D02*
X138925714Y-91883390D01*
X138925714Y-91883390D02*
X138830476Y-91931009D01*
X138830476Y-91931009D02*
X138782857Y-91978628D01*
X138782857Y-91978628D02*
X138735238Y-92073866D01*
X138735238Y-92073866D02*
X138735238Y-92264342D01*
X138735238Y-92264342D02*
X138782857Y-92359580D01*
X138782857Y-92359580D02*
X138830476Y-92407200D01*
X138830476Y-92407200D02*
X138925714Y-92454819D01*
X138925714Y-92454819D02*
X139116190Y-92454819D01*
X139116190Y-92454819D02*
X139211428Y-92407200D01*
X139211428Y-92407200D02*
X139259047Y-92359580D01*
X139259047Y-92359580D02*
X139306666Y-92264342D01*
X139306666Y-92264342D02*
X139306666Y-92073866D01*
X139306666Y-92073866D02*
X139259047Y-91978628D01*
X139259047Y-91978628D02*
X139211428Y-91931009D01*
X139211428Y-91931009D02*
X139116190Y-91883390D01*
X152924819Y-66496666D02*
X152448628Y-66829999D01*
X152924819Y-67068094D02*
X151924819Y-67068094D01*
X151924819Y-67068094D02*
X151924819Y-66687142D01*
X151924819Y-66687142D02*
X151972438Y-66591904D01*
X151972438Y-66591904D02*
X152020057Y-66544285D01*
X152020057Y-66544285D02*
X152115295Y-66496666D01*
X152115295Y-66496666D02*
X152258152Y-66496666D01*
X152258152Y-66496666D02*
X152353390Y-66544285D01*
X152353390Y-66544285D02*
X152401009Y-66591904D01*
X152401009Y-66591904D02*
X152448628Y-66687142D01*
X152448628Y-66687142D02*
X152448628Y-67068094D01*
X152258152Y-65639523D02*
X152924819Y-65639523D01*
X151877200Y-65877618D02*
X152591485Y-66115713D01*
X152591485Y-66115713D02*
X152591485Y-65496666D01*
X156626666Y-72154819D02*
X156626666Y-72869104D01*
X156626666Y-72869104D02*
X156579047Y-73011961D01*
X156579047Y-73011961D02*
X156483809Y-73107200D01*
X156483809Y-73107200D02*
X156340952Y-73154819D01*
X156340952Y-73154819D02*
X156245714Y-73154819D01*
X157579047Y-72154819D02*
X157102857Y-72154819D01*
X157102857Y-72154819D02*
X157055238Y-72631009D01*
X157055238Y-72631009D02*
X157102857Y-72583390D01*
X157102857Y-72583390D02*
X157198095Y-72535771D01*
X157198095Y-72535771D02*
X157436190Y-72535771D01*
X157436190Y-72535771D02*
X157531428Y-72583390D01*
X157531428Y-72583390D02*
X157579047Y-72631009D01*
X157579047Y-72631009D02*
X157626666Y-72726247D01*
X157626666Y-72726247D02*
X157626666Y-72964342D01*
X157626666Y-72964342D02*
X157579047Y-73059580D01*
X157579047Y-73059580D02*
X157531428Y-73107200D01*
X157531428Y-73107200D02*
X157436190Y-73154819D01*
X157436190Y-73154819D02*
X157198095Y-73154819D01*
X157198095Y-73154819D02*
X157102857Y-73107200D01*
X157102857Y-73107200D02*
X157055238Y-73059580D01*
D15*
%TO.C,J1*%
X126610000Y-96130000D02*
X127940000Y-96130000D01*
X126610000Y-97460000D02*
X126610000Y-96130000D01*
X129210000Y-96130000D02*
X147050000Y-96130000D01*
X129210000Y-98790000D02*
X129210000Y-96130000D01*
X129210000Y-98790000D02*
X147050000Y-98790000D01*
X147050000Y-98790000D02*
X147050000Y-96130000D01*
%TO.C,J3*%
X149470000Y-96130000D02*
X150800000Y-96130000D01*
X149470000Y-97460000D02*
X149470000Y-96130000D01*
X152070000Y-96130000D02*
X164830000Y-96130000D01*
X152070000Y-98790000D02*
X152070000Y-96130000D01*
X152070000Y-98790000D02*
X164830000Y-98790000D01*
X164830000Y-98790000D02*
X164830000Y-96130000D01*
%TO.C,J2*%
X117466000Y-47870000D02*
X118796000Y-47870000D01*
X117466000Y-49200000D02*
X117466000Y-47870000D01*
X120066000Y-47870000D02*
X142986000Y-47870000D01*
X120066000Y-50530000D02*
X120066000Y-47870000D01*
X120066000Y-50530000D02*
X142986000Y-50530000D01*
X142986000Y-50530000D02*
X142986000Y-47870000D01*
%TO.C,J4*%
X144390000Y-47870000D02*
X145720000Y-47870000D01*
X144390000Y-49200000D02*
X144390000Y-47870000D01*
X146990000Y-47870000D02*
X164830000Y-47870000D01*
X146990000Y-50530000D02*
X146990000Y-47870000D01*
X146990000Y-50530000D02*
X164830000Y-50530000D01*
X164830000Y-50530000D02*
X164830000Y-47870000D01*
%TO.C,R6*%
X145640000Y-63520000D02*
X145640000Y-64470000D01*
X145640000Y-69260000D02*
X145640000Y-68310000D01*
X144720000Y-68310000D02*
X146560000Y-68310000D01*
X146560000Y-64470000D01*
X144720000Y-64470000D01*
X144720000Y-68310000D01*
%TO.C,D4*%
X157910000Y-57195000D02*
X157910000Y-54105000D01*
X152360000Y-55650000D02*
G75*
G02*
X157910000Y-54105170I2990000J0D01*
G01*
X157910000Y-57194830D02*
G75*
G02*
X152360000Y-55650000I-2560000J1544830D01*
G01*
X157850000Y-55650000D02*
G75*
G02*
X152850000Y-55650000I-2500000J0D01*
G01*
X152850000Y-55650000D02*
G75*
G02*
X157850000Y-55650000I2500000J0D01*
G01*
%TO.C,J7*%
X135430000Y-60860000D02*
X135430000Y-73620000D01*
X135430000Y-60860000D02*
X138090000Y-60860000D01*
X135430000Y-73620000D02*
X138090000Y-73620000D01*
X136760000Y-58260000D02*
X138090000Y-58260000D01*
X138090000Y-58260000D02*
X138090000Y-59590000D01*
X138090000Y-60860000D02*
X138090000Y-73620000D01*
D12*
%TO.C,HDC1080*%
X134525000Y-52440000D02*
X131750000Y-52440000D01*
X134525000Y-55840000D02*
X131575000Y-55840000D01*
D15*
X131430000Y-52730000D02*
X131150000Y-52730000D01*
X131430000Y-52450000D01*
X131430000Y-52730000D01*
G36*
X131430000Y-52730000D02*
G01*
X131150000Y-52730000D01*
X131430000Y-52450000D01*
X131430000Y-52730000D01*
G37*
%TO.C,R1*%
X162500000Y-63540000D02*
X162500000Y-64490000D01*
X162500000Y-69280000D02*
X162500000Y-68330000D01*
X161580000Y-68330000D02*
X163420000Y-68330000D01*
X163420000Y-64490000D01*
X161580000Y-64490000D01*
X161580000Y-68330000D01*
%TO.C,R2*%
X159120000Y-63540000D02*
X159120000Y-64490000D01*
X159120000Y-69280000D02*
X159120000Y-68330000D01*
X158200000Y-68330000D02*
X160040000Y-68330000D01*
X160040000Y-64490000D01*
X158200000Y-64490000D01*
X158200000Y-68330000D01*
%TO.C,D1*%
X159405000Y-91835000D02*
X159405000Y-88745000D01*
X153855000Y-90290000D02*
G75*
G02*
X159405000Y-88745170I2990000J0D01*
G01*
X159405000Y-91834830D02*
G75*
G02*
X153855000Y-90290000I-2560000J1544830D01*
G01*
X159345000Y-90290000D02*
G75*
G02*
X154345000Y-90290000I-2500000J0D01*
G01*
X154345000Y-90290000D02*
G75*
G02*
X159345000Y-90290000I2500000J0D01*
G01*
%TO.C,U2*%
X148520000Y-92670000D02*
X148520000Y-89070000D01*
X144070000Y-90870000D02*
G75*
G02*
X145571193Y-88513600I2600000J0D01*
G01*
X145571193Y-93226400D02*
G75*
G02*
X144070000Y-90870000I1098807J2356400D01*
G01*
X147792795Y-88545816D02*
G75*
G02*
X148520000Y-89070000I-1122795J-2324184D01*
G01*
X148520000Y-92670000D02*
G75*
G02*
X147792795Y-93194184I-1850000J1800000D01*
G01*
%TO.C,R3*%
X155800000Y-63570000D02*
X155800000Y-64520000D01*
X155800000Y-69310000D02*
X155800000Y-68360000D01*
X154880000Y-68360000D02*
X156720000Y-68360000D01*
X156720000Y-64520000D01*
X154880000Y-64520000D01*
X154880000Y-68360000D01*
%TO.C,D2*%
X166490000Y-91745000D02*
X166490000Y-88655000D01*
X160940000Y-90200000D02*
G75*
G02*
X166490000Y-88655170I2990000J0D01*
G01*
X166490000Y-91744830D02*
G75*
G02*
X160940000Y-90200000I-2560000J1544830D01*
G01*
X166430000Y-90200000D02*
G75*
G02*
X161430000Y-90200000I-2500000J0D01*
G01*
X161430000Y-90200000D02*
G75*
G02*
X166430000Y-90200000I2500000J0D01*
G01*
%TO.C,D5*%
X144925000Y-57245000D02*
X144925000Y-54155000D01*
X139375000Y-55700000D02*
G75*
G02*
X144925000Y-54155170I2990000J0D01*
G01*
X144925000Y-57244830D02*
G75*
G02*
X139375000Y-55700000I-2560000J1544830D01*
G01*
X144865000Y-55700000D02*
G75*
G02*
X139865000Y-55700000I-2500000J0D01*
G01*
X139865000Y-55700000D02*
G75*
G02*
X144865000Y-55700000I2500000J0D01*
G01*
%TO.C,D6*%
X151440000Y-57195000D02*
X151440000Y-54105000D01*
X145890000Y-55650000D02*
G75*
G02*
X151440000Y-54105170I2990000J0D01*
G01*
X151440000Y-57194830D02*
G75*
G02*
X145890000Y-55650000I-2560000J1544830D01*
G01*
X151380000Y-55650000D02*
G75*
G02*
X146380000Y-55650000I-2500000J0D01*
G01*
X146380000Y-55650000D02*
G75*
G02*
X151380000Y-55650000I2500000J0D01*
G01*
%TO.C,D3*%
X164350000Y-57195000D02*
X164350000Y-54105000D01*
X158800000Y-55650000D02*
G75*
G02*
X164350000Y-54105170I2990000J0D01*
G01*
X164350000Y-57194830D02*
G75*
G02*
X158800000Y-55650000I-2560000J1544830D01*
G01*
X164290000Y-55650000D02*
G75*
G02*
X159290000Y-55650000I-2500000J0D01*
G01*
X159290000Y-55650000D02*
G75*
G02*
X164290000Y-55650000I2500000J0D01*
G01*
%TO.C,R5*%
X149060000Y-63520000D02*
X149060000Y-64470000D01*
X149060000Y-69260000D02*
X149060000Y-68310000D01*
X148140000Y-68310000D02*
X149980000Y-68310000D01*
X149980000Y-64470000D01*
X148140000Y-64470000D01*
X148140000Y-68310000D01*
%TO.C,J8*%
X134090000Y-90790000D02*
X134090000Y-75490000D01*
X134090000Y-93390000D02*
X134090000Y-92060000D01*
X135420000Y-93390000D02*
X134090000Y-93390000D01*
X136750000Y-75490000D02*
X134090000Y-75490000D01*
X136750000Y-90790000D02*
X134090000Y-90790000D01*
X136750000Y-90790000D02*
X136750000Y-75490000D01*
%TO.C,R4*%
X152430000Y-63520000D02*
X152430000Y-64470000D01*
X152430000Y-69260000D02*
X152430000Y-68310000D01*
X151510000Y-68310000D02*
X153350000Y-68310000D01*
X153350000Y-64470000D01*
X151510000Y-64470000D01*
X151510000Y-68310000D01*
%TO.C,J5*%
X151745000Y-73700000D02*
X151745000Y-83980000D01*
X161715000Y-83980000D02*
X161715000Y-73700000D01*
X148745000Y-73640000D02*
X164745000Y-73640000D01*
X164745000Y-84040000D01*
X148745000Y-84040000D01*
X148745000Y-73640000D01*
X158025000Y-73620000D02*
G75*
G02*
X156025000Y-73620000I-1000000J0D01*
G01*
%TD*%
M02*
