%TF.GenerationSoftware,KiCad,Pcbnew,9.0.7*%
%TF.CreationDate,2026-03-12T17:24:57-06:00*%
%TF.ProjectId,Balloon_Shield,42616c6c-6f6f-46e5-9f53-6869656c642e,rev?*%
%TF.SameCoordinates,Original*%
%TF.FileFunction,Copper,L1,Top*%
%TF.FilePolarity,Positive*%
%FSLAX46Y46*%
G04 Gerber Fmt 4.6, Leading zero omitted, Abs format (unit mm)*
G04 Created by KiCad (PCBNEW 9.0.7) date 2026-03-12 17:24:57*
%MOMM*%
%LPD*%
G01*
G04 APERTURE LIST*
G04 Aperture macros list*
%AMRoundRect*
0 Rectangle with rounded corners*
0 $1 Rounding radius*
0 $2 $3 $4 $5 $6 $7 $8 $9 X,Y pos of 4 corners*
0 Add a 4 corners polygon primitive as box body*
4,1,4,$2,$3,$4,$5,$6,$7,$8,$9,$2,$3,0*
0 Add four circle primitives for the rounded corners*
1,1,$1+$1,$2,$3*
1,1,$1+$1,$4,$5*
1,1,$1+$1,$6,$7*
1,1,$1+$1,$8,$9*
0 Add four rect primitives between the rounded corners*
20,1,$1+$1,$2,$3,$4,$5,0*
20,1,$1+$1,$4,$5,$6,$7,0*
20,1,$1+$1,$6,$7,$8,$9,0*
20,1,$1+$1,$8,$9,$2,$3,0*%
G04 Aperture macros list end*
%TA.AperFunction,ComponentPad*%
%ADD10R,1.700000X1.700000*%
%TD*%
%TA.AperFunction,ComponentPad*%
%ADD11O,1.700000X1.700000*%
%TD*%
%TA.AperFunction,ComponentPad*%
%ADD12C,1.400000*%
%TD*%
%TA.AperFunction,ComponentPad*%
%ADD13R,1.800000X1.800000*%
%TD*%
%TA.AperFunction,ComponentPad*%
%ADD14C,1.800000*%
%TD*%
%TA.AperFunction,ComponentPad*%
%ADD15C,1.700000*%
%TD*%
%TA.AperFunction,SMDPad,CuDef*%
%ADD16RoundRect,0.100000X-0.200000X-0.100000X0.200000X-0.100000X0.200000X0.100000X-0.200000X0.100000X0*%
%TD*%
%TA.AperFunction,SMDPad,CuDef*%
%ADD17R,1.500000X2.400000*%
%TD*%
%TA.AperFunction,ComponentPad*%
%ADD18R,1.500000X1.500000*%
%TD*%
%TA.AperFunction,ComponentPad*%
%ADD19C,1.500000*%
%TD*%
%TA.AperFunction,ComponentPad*%
%ADD20RoundRect,0.250000X-0.950000X-0.550000X0.950000X-0.550000X0.950000X0.550000X-0.950000X0.550000X0*%
%TD*%
%TA.AperFunction,ComponentPad*%
%ADD21O,2.400000X1.600000*%
%TD*%
%TA.AperFunction,ViaPad*%
%ADD22C,0.600000*%
%TD*%
%TA.AperFunction,Conductor*%
%ADD23C,0.400000*%
%TD*%
%TA.AperFunction,Conductor*%
%ADD24C,0.305000*%
%TD*%
%TA.AperFunction,Conductor*%
%ADD25C,0.250000*%
%TD*%
G04 APERTURE END LIST*
D10*
%TO.P,J1,1,Pin_1*%
%TO.N,unconnected-(J1-Pin_1-Pad1)*%
X127940000Y-97460000D03*
D11*
%TO.P,J1,2,Pin_2*%
%TO.N,/IOREF*%
X130480000Y-97460000D03*
%TO.P,J1,3,Pin_3*%
%TO.N,/~{RESET}*%
X133020000Y-97460000D03*
%TO.P,J1,4,Pin_4*%
%TO.N,+3V3*%
X135560000Y-97460000D03*
%TO.P,J1,5,Pin_5*%
%TO.N,+5V*%
X138100000Y-97460000D03*
%TO.P,J1,6,Pin_6*%
%TO.N,GND*%
X140640000Y-97460000D03*
%TO.P,J1,7,Pin_7*%
X143180000Y-97460000D03*
%TO.P,J1,8,Pin_8*%
%TO.N,VCC*%
X145720000Y-97460000D03*
%TD*%
D10*
%TO.P,J3,1,Pin_1*%
%TO.N,/A0*%
X150800000Y-97460000D03*
D11*
%TO.P,J3,2,Pin_2*%
%TO.N,/A1*%
X153340000Y-97460000D03*
%TO.P,J3,3,Pin_3*%
%TO.N,/A2*%
X155880000Y-97460000D03*
%TO.P,J3,4,Pin_4*%
%TO.N,/A3*%
X158420000Y-97460000D03*
%TO.P,J3,5,Pin_5*%
%TO.N,/A4*%
X160960000Y-97460000D03*
%TO.P,J3,6,Pin_6*%
%TO.N,/A5*%
X163500000Y-97460000D03*
%TD*%
D10*
%TO.P,J2,1,Pin_1*%
%TO.N,/SCL*%
X118796000Y-49200000D03*
D11*
%TO.P,J2,2,Pin_2*%
%TO.N,/SDA*%
X121336000Y-49200000D03*
%TO.P,J2,3,Pin_3*%
%TO.N,/AREF*%
X123876000Y-49200000D03*
%TO.P,J2,4,Pin_4*%
%TO.N,GND*%
X126416000Y-49200000D03*
%TO.P,J2,5,Pin_5*%
%TO.N,/13*%
X128956000Y-49200000D03*
%TO.P,J2,6,Pin_6*%
%TO.N,/12*%
X131496000Y-49200000D03*
%TO.P,J2,7,Pin_7*%
%TO.N,/11*%
X134036000Y-49200000D03*
%TO.P,J2,8,Pin_8*%
%TO.N,/10*%
X136576000Y-49200000D03*
%TO.P,J2,9,Pin_9*%
%TO.N,/9*%
X139116000Y-49200000D03*
%TO.P,J2,10,Pin_10*%
%TO.N,/8*%
X141656000Y-49200000D03*
%TD*%
D10*
%TO.P,J4,1,Pin_1*%
%TO.N,/7*%
X145720000Y-49200000D03*
D11*
%TO.P,J4,2,Pin_2*%
%TO.N,/6*%
X148260000Y-49200000D03*
%TO.P,J4,3,Pin_3*%
%TO.N,/5*%
X150800000Y-49200000D03*
%TO.P,J4,4,Pin_4*%
%TO.N,/4*%
X153340000Y-49200000D03*
%TO.P,J4,5,Pin_5*%
%TO.N,/3*%
X155880000Y-49200000D03*
%TO.P,J4,6,Pin_6*%
%TO.N,/2*%
X158420000Y-49200000D03*
%TO.P,J4,7,Pin_7*%
%TO.N,/TX*%
X160960000Y-49200000D03*
%TO.P,J4,8,Pin_8*%
%TO.N,/RX*%
X163500000Y-49200000D03*
%TD*%
D12*
%TO.P,R6,1*%
%TO.N,Net-(D5-A)*%
X145640000Y-70200000D03*
%TO.P,R6,2*%
%TO.N,/9*%
X145640000Y-62580000D03*
%TD*%
D13*
%TO.P,D4,1,K*%
%TO.N,GND*%
X156620000Y-55650000D03*
D14*
%TO.P,D4,2,A*%
%TO.N,Net-(D4-A)*%
X154080000Y-55650000D03*
%TD*%
D10*
%TO.P,J7,1,Pin_1*%
%TO.N,unconnected-(J7-Pin_1-Pad1)*%
X136760000Y-59590000D03*
D15*
%TO.P,J7,2,Pin_2*%
%TO.N,GND*%
X136760000Y-62130000D03*
%TO.P,J7,3,Pin_3*%
%TO.N,+5V*%
X136760000Y-64670000D03*
%TO.P,J7,4,Pin_4*%
%TO.N,unconnected-(J7-Pin_4-Pad4)*%
X136760000Y-67210000D03*
%TO.P,J7,5,Pin_5*%
%TO.N,/TX*%
X136760000Y-69750000D03*
%TO.P,J7,6,Pin_6*%
%TO.N,unconnected-(J7-Pin_6-Pad6)*%
X136760000Y-72290000D03*
%TD*%
D16*
%TO.P,HDC1080,1,SDA*%
%TO.N,/SDA*%
X131650000Y-53190000D03*
%TO.P,HDC1080,2,GND*%
%TO.N,GND*%
X131650000Y-54140000D03*
%TO.P,HDC1080,3,NC*%
%TO.N,unconnected-(HDC1080-NC-Pad3)*%
X131650000Y-55090000D03*
%TO.P,HDC1080,4,NC*%
%TO.N,unconnected-(HDC1080-NC-Pad4)*%
X134450000Y-55090000D03*
%TO.P,HDC1080,5,VCC*%
%TO.N,+5V*%
X134450000Y-54140000D03*
%TO.P,HDC1080,6,SCL*%
%TO.N,/SCL*%
X134450000Y-53190000D03*
D17*
%TO.P,HDC1080,7,DAP*%
%TO.N,unconnected-(HDC1080-DAP-Pad7)*%
X133050000Y-54140000D03*
%TD*%
D12*
%TO.P,R1,1*%
%TO.N,Net-(D1-A)*%
X162500000Y-70220000D03*
%TO.P,R1,2*%
%TO.N,/3*%
X162500000Y-62600000D03*
%TD*%
%TO.P,R2,1*%
%TO.N,Net-(D2-A)*%
X159120000Y-70220000D03*
%TO.P,R2,2*%
%TO.N,/4*%
X159120000Y-62600000D03*
%TD*%
D13*
%TO.P,D1,1,K*%
%TO.N,GND*%
X158115000Y-90290000D03*
D14*
%TO.P,D1,2,A*%
%TO.N,Net-(D1-A)*%
X155575000Y-90290000D03*
%TD*%
D18*
%TO.P,U2,1,V+*%
%TO.N,+5V*%
X146670000Y-93410000D03*
D19*
%TO.P,U2,2,Signal*%
%TO.N,/A1*%
X146670000Y-90870000D03*
%TO.P,U2,3,GND*%
%TO.N,GND*%
X146670000Y-88330000D03*
%TD*%
D12*
%TO.P,R3,1*%
%TO.N,Net-(D3-A)*%
X155800000Y-70250000D03*
%TO.P,R3,2*%
%TO.N,/5*%
X155800000Y-62630000D03*
%TD*%
D13*
%TO.P,D2,1,K*%
%TO.N,GND*%
X165200000Y-90200000D03*
D14*
%TO.P,D2,2,A*%
%TO.N,Net-(D2-A)*%
X162660000Y-90200000D03*
%TD*%
D13*
%TO.P,D5,1,K*%
%TO.N,GND*%
X143635000Y-55700000D03*
D14*
%TO.P,D5,2,A*%
%TO.N,Net-(D5-A)*%
X141095000Y-55700000D03*
%TD*%
D13*
%TO.P,D6,1,K*%
%TO.N,GND*%
X150150000Y-55650000D03*
D14*
%TO.P,D6,2,A*%
%TO.N,Net-(D6-A)*%
X147610000Y-55650000D03*
%TD*%
D13*
%TO.P,D3,1,K*%
%TO.N,GND*%
X163060000Y-55650000D03*
D14*
%TO.P,D3,2,A*%
%TO.N,Net-(D3-A)*%
X160520000Y-55650000D03*
%TD*%
D12*
%TO.P,R5,1*%
%TO.N,Net-(D6-A)*%
X149060000Y-70200000D03*
%TO.P,R5,2*%
%TO.N,/7*%
X149060000Y-62580000D03*
%TD*%
D10*
%TO.P,J8,1,Pin_1*%
%TO.N,unconnected-(J8-Pin_1-Pad1)*%
X135420000Y-92060000D03*
D15*
%TO.P,J8,2,Pin_2*%
%TO.N,+3V3*%
X135420000Y-89520000D03*
%TO.P,J8,3,Pin_3*%
%TO.N,GND*%
X135420000Y-86980000D03*
%TO.P,J8,4,Pin_4*%
%TO.N,/A5*%
X135420000Y-84440000D03*
%TO.P,J8,5,Pin_5*%
%TO.N,/A2*%
X135420000Y-81900000D03*
%TO.P,J8,6,Pin_6*%
%TO.N,/A4*%
X135420000Y-79360000D03*
%TO.P,J8,7,Pin_7*%
%TO.N,unconnected-(J8-Pin_7-Pad7)*%
X135420000Y-76820000D03*
%TD*%
D12*
%TO.P,R4,1*%
%TO.N,Net-(D4-A)*%
X152430000Y-70200000D03*
%TO.P,R4,2*%
%TO.N,/6*%
X152430000Y-62580000D03*
%TD*%
D20*
%TO.P,J5,1,Pin_1*%
%TO.N,unconnected-(J5-Pin_1-Pad1)*%
X150185000Y-75030000D03*
D21*
%TO.P,J5,2,Pin_2*%
%TO.N,+5V*%
X150185000Y-77570000D03*
%TO.P,J5,3,Pin_3*%
%TO.N,/A3*%
X150185000Y-80110000D03*
%TO.P,J5,4,Pin_4*%
%TO.N,GND*%
X150185000Y-82650000D03*
%TO.P,J5,5*%
%TO.N,N/C*%
X163265000Y-82670000D03*
%TO.P,J5,6*%
X163265000Y-80130000D03*
%TO.P,J5,7*%
X163265000Y-77590000D03*
%TO.P,J5,8*%
X163265000Y-75050000D03*
%TD*%
D22*
%TO.N,GND*%
X130760000Y-54980000D03*
%TD*%
D23*
%TO.N,/3*%
X155880000Y-49200000D02*
X160210000Y-53530000D01*
X160210000Y-53530000D02*
X163542000Y-53530000D01*
X163542000Y-53530000D02*
X164361000Y-54349000D01*
X164361000Y-54349000D02*
X164361000Y-60739000D01*
X164361000Y-60739000D02*
X162500000Y-62600000D01*
D24*
%TO.N,GND*%
X131600000Y-54140000D02*
X130760000Y-54980000D01*
X131650000Y-54140000D02*
X131600000Y-54140000D01*
%TO.N,/A4*%
X135420000Y-79360000D02*
X135823500Y-78956500D01*
X154300000Y-90800000D02*
X160960000Y-97460000D01*
X135823500Y-78956500D02*
X151062795Y-78956500D01*
X151062795Y-78956500D02*
X154300000Y-82193705D01*
X154300000Y-82193705D02*
X154300000Y-90800000D01*
%TO.N,Net-(D2-A)*%
X162660000Y-90200000D02*
X164818500Y-88041500D01*
X164818500Y-71048626D02*
X162936374Y-69166500D01*
X164818500Y-88041500D02*
X164818500Y-71048626D01*
X162936374Y-69166500D02*
X160173500Y-69166500D01*
X160173500Y-69166500D02*
X159120000Y-70220000D01*
%TO.N,Net-(D1-A)*%
X155575000Y-90290000D02*
X155575000Y-77145000D01*
X155575000Y-77145000D02*
X162500000Y-70220000D01*
%TO.N,/A5*%
X135420000Y-84440000D02*
X134216500Y-83236500D01*
X140818507Y-80696500D02*
X157100000Y-96977993D01*
X134216500Y-83236500D02*
X134216500Y-81401493D01*
X134216500Y-81401493D02*
X134921493Y-80696500D01*
X157100000Y-96977993D02*
X157100000Y-97842007D01*
X134921493Y-80696500D02*
X140818507Y-80696500D01*
X162296500Y-98663500D02*
X163500000Y-97460000D01*
X157100000Y-97842007D02*
X157921493Y-98663500D01*
X157921493Y-98663500D02*
X162296500Y-98663500D01*
%TO.N,+5V*%
X133030000Y-68400000D02*
X133030000Y-70810000D01*
X139790000Y-77570000D02*
X133030000Y-70810000D01*
X150185000Y-77570000D02*
X139790000Y-77570000D01*
X136760000Y-64670000D02*
X135151000Y-66279000D01*
D23*
X134511292Y-54140000D02*
X135151000Y-54779708D01*
X134450000Y-54140000D02*
X134511292Y-54140000D01*
X135151000Y-54779708D02*
X135151000Y-66279000D01*
D24*
X133030000Y-70810000D02*
X133030000Y-74490000D01*
X135151000Y-66279000D02*
X133030000Y-68400000D01*
X133030000Y-74490000D02*
X133030000Y-86425007D01*
X133030000Y-86425007D02*
X134921493Y-88316500D01*
X134921493Y-88316500D02*
X135918507Y-88316500D01*
X135918507Y-88316500D02*
X138100000Y-90497993D01*
X138100000Y-90497993D02*
X138100000Y-97460000D01*
%TO.N,/A2*%
X135420000Y-81900000D02*
X142953500Y-89433500D01*
X147853500Y-89433500D02*
X155880000Y-97460000D01*
X142953500Y-89433500D02*
X147853500Y-89433500D01*
%TO.N,/A3*%
X150185000Y-80110000D02*
X148631500Y-81663500D01*
X148631500Y-81663500D02*
X148631500Y-87671500D01*
X148631500Y-87671500D02*
X158420000Y-97460000D01*
D25*
%TO.N,+5V*%
X146670000Y-93410000D02*
X142150000Y-93410000D01*
D23*
X134450000Y-54140000D02*
X134749999Y-54140000D01*
D25*
X142150000Y-93410000D02*
X138100000Y-97460000D01*
%TO.N,/A1*%
X153260000Y-97460000D02*
X153340000Y-97460000D01*
X146670000Y-90870000D02*
X153260000Y-97460000D01*
%TO.N,/7*%
X149060000Y-62580000D02*
X148924000Y-62444000D01*
D23*
X145720000Y-49940000D02*
X145720000Y-49200000D01*
D25*
X148924000Y-52404000D02*
X145720000Y-49200000D01*
X148924000Y-62444000D02*
X148924000Y-52404000D01*
%TO.N,/4*%
X158540000Y-54400000D02*
X158540000Y-60720000D01*
X153340000Y-49200000D02*
X153707810Y-49200000D01*
X159120000Y-61300000D02*
X159120000Y-62600000D01*
X158540000Y-60720000D02*
X159120000Y-61300000D01*
X153340000Y-49200000D02*
X158540000Y-54400000D01*
%TO.N,+3V3*%
X134244000Y-90696000D02*
X134244000Y-96144000D01*
X135420000Y-89520000D02*
X134244000Y-90696000D01*
X134244000Y-96144000D02*
X135560000Y-97460000D01*
%TO.N,Net-(D3-A)*%
X160520000Y-55650000D02*
X160520000Y-65530000D01*
X160520000Y-65530000D02*
X155800000Y-70250000D01*
%TO.N,Net-(D4-A)*%
X154080000Y-55650000D02*
X151404000Y-58326000D01*
X151404000Y-58326000D02*
X151404000Y-69174000D01*
X151404000Y-69174000D02*
X152430000Y-70200000D01*
%TO.N,Net-(D5-A)*%
X141095000Y-55700000D02*
X141095000Y-65655000D01*
X141095000Y-65655000D02*
X145640000Y-70200000D01*
%TO.N,Net-(D6-A)*%
X147610000Y-68750000D02*
X149060000Y-70200000D01*
X147610000Y-55650000D02*
X147610000Y-68750000D01*
%TO.N,/SDA*%
X125326000Y-53190000D02*
X131650000Y-53190000D01*
X121336000Y-49200000D02*
X125326000Y-53190000D01*
%TO.N,/SCL*%
X119972000Y-48024000D02*
X121823116Y-48024000D01*
X125438884Y-52614000D02*
X134126000Y-52614000D01*
X121823116Y-48024000D02*
X122512000Y-48712884D01*
X122512000Y-48712884D02*
X122512000Y-49687116D01*
X118796000Y-49200000D02*
X119972000Y-48024000D01*
X134126000Y-52614000D02*
X134450000Y-52938000D01*
X134450000Y-52938000D02*
X134450000Y-53190000D01*
X122512000Y-49687116D02*
X125438884Y-52614000D01*
D23*
%TO.N,/3*%
X156250000Y-49200000D02*
X155880000Y-49200000D01*
D25*
%TO.N,/5*%
X157960000Y-54500000D02*
X157960000Y-60470000D01*
X150800000Y-49200000D02*
X151976000Y-50376000D01*
X151976000Y-50376000D02*
X153836000Y-50376000D01*
X153836000Y-50376000D02*
X157960000Y-54500000D01*
X157960000Y-60470000D02*
X155800000Y-62630000D01*
%TO.N,/6*%
X149436000Y-50376000D02*
X148260000Y-49200000D01*
X152430000Y-62580000D02*
X155306000Y-59704000D01*
X155306000Y-55142174D02*
X150539826Y-50376000D01*
X150539826Y-50376000D02*
X149436000Y-50376000D01*
X155306000Y-59704000D02*
X155306000Y-55142174D01*
%TO.N,/9*%
X145640000Y-62580000D02*
X145640000Y-55253000D01*
X139587000Y-49200000D02*
X139116000Y-49200000D01*
X145640000Y-55253000D02*
X139587000Y-49200000D01*
%TO.N,/TX*%
X156224984Y-71276000D02*
X138286000Y-71276000D01*
X160960000Y-49200000D02*
X165286000Y-53526000D01*
X165286000Y-53526000D02*
X165286000Y-62214984D01*
X165286000Y-62214984D02*
X156224984Y-71276000D01*
X138286000Y-71276000D02*
X136760000Y-69750000D01*
%TD*%
M02*
