%TF.GenerationSoftware,KiCad,Pcbnew,9.0.7*%
%TF.CreationDate,2026-03-12T17:24:57-06:00*%
%TF.ProjectId,Balloon_Shield,42616c6c-6f6f-46e5-9f53-6869656c642e,rev?*%
%TF.SameCoordinates,Original*%
%TF.FileFunction,Copper,L2,Bot*%
%TF.FilePolarity,Positive*%
%FSLAX46Y46*%
G04 Gerber Fmt 4.6, Leading zero omitted, Abs format (unit mm)*
G04 Created by KiCad (PCBNEW 9.0.7) date 2026-03-12 17:24:57*
%MOMM*%
%LPD*%
G01*
G04 APERTURE LIST*
G04 Aperture macros list*
%AMRoundRect*
0 Rectangle with rounded corners*
0 $1 Rounding radius*
0 $2 $3 $4 $5 $6 $7 $8 $9 X,Y pos of 4 corners*
0 Add a 4 corners polygon primitive as box body*
4,1,4,$2,$3,$4,$5,$6,$7,$8,$9,$2,$3,0*
0 Add four circle primitives for the rounded corners*
1,1,$1+$1,$2,$3*
1,1,$1+$1,$4,$5*
1,1,$1+$1,$6,$7*
1,1,$1+$1,$8,$9*
0 Add four rect primitives between the rounded corners*
20,1,$1+$1,$2,$3,$4,$5,0*
20,1,$1+$1,$4,$5,$6,$7,0*
20,1,$1+$1,$6,$7,$8,$9,0*
20,1,$1+$1,$8,$9,$2,$3,0*%
G04 Aperture macros list end*
%TA.AperFunction,ComponentPad*%
%ADD10R,1.700000X1.700000*%
%TD*%
%TA.AperFunction,ComponentPad*%
%ADD11O,1.700000X1.700000*%
%TD*%
%TA.AperFunction,ComponentPad*%
%ADD12C,1.400000*%
%TD*%
%TA.AperFunction,ComponentPad*%
%ADD13R,1.800000X1.800000*%
%TD*%
%TA.AperFunction,ComponentPad*%
%ADD14C,1.800000*%
%TD*%
%TA.AperFunction,ComponentPad*%
%ADD15C,1.700000*%
%TD*%
%TA.AperFunction,ComponentPad*%
%ADD16R,1.500000X1.500000*%
%TD*%
%TA.AperFunction,ComponentPad*%
%ADD17C,1.500000*%
%TD*%
%TA.AperFunction,ComponentPad*%
%ADD18RoundRect,0.250000X-0.950000X-0.550000X0.950000X-0.550000X0.950000X0.550000X-0.950000X0.550000X0*%
%TD*%
%TA.AperFunction,ComponentPad*%
%ADD19O,2.400000X1.600000*%
%TD*%
%TA.AperFunction,ViaPad*%
%ADD20C,0.600000*%
%TD*%
G04 APERTURE END LIST*
D10*
%TO.P,J1,1,Pin_1*%
%TO.N,unconnected-(J1-Pin_1-Pad1)*%
X127940000Y-97460000D03*
D11*
%TO.P,J1,2,Pin_2*%
%TO.N,/IOREF*%
X130480000Y-97460000D03*
%TO.P,J1,3,Pin_3*%
%TO.N,/~{RESET}*%
X133020000Y-97460000D03*
%TO.P,J1,4,Pin_4*%
%TO.N,+3V3*%
X135560000Y-97460000D03*
%TO.P,J1,5,Pin_5*%
%TO.N,+5V*%
X138100000Y-97460000D03*
%TO.P,J1,6,Pin_6*%
%TO.N,GND*%
X140640000Y-97460000D03*
%TO.P,J1,7,Pin_7*%
X143180000Y-97460000D03*
%TO.P,J1,8,Pin_8*%
%TO.N,VCC*%
X145720000Y-97460000D03*
%TD*%
D10*
%TO.P,J3,1,Pin_1*%
%TO.N,/A0*%
X150800000Y-97460000D03*
D11*
%TO.P,J3,2,Pin_2*%
%TO.N,/A1*%
X153340000Y-97460000D03*
%TO.P,J3,3,Pin_3*%
%TO.N,/A2*%
X155880000Y-97460000D03*
%TO.P,J3,4,Pin_4*%
%TO.N,/A3*%
X158420000Y-97460000D03*
%TO.P,J3,5,Pin_5*%
%TO.N,/A4*%
X160960000Y-97460000D03*
%TO.P,J3,6,Pin_6*%
%TO.N,/A5*%
X163500000Y-97460000D03*
%TD*%
D10*
%TO.P,J2,1,Pin_1*%
%TO.N,/SCL*%
X118796000Y-49200000D03*
D11*
%TO.P,J2,2,Pin_2*%
%TO.N,/SDA*%
X121336000Y-49200000D03*
%TO.P,J2,3,Pin_3*%
%TO.N,/AREF*%
X123876000Y-49200000D03*
%TO.P,J2,4,Pin_4*%
%TO.N,GND*%
X126416000Y-49200000D03*
%TO.P,J2,5,Pin_5*%
%TO.N,/13*%
X128956000Y-49200000D03*
%TO.P,J2,6,Pin_6*%
%TO.N,/12*%
X131496000Y-49200000D03*
%TO.P,J2,7,Pin_7*%
%TO.N,/11*%
X134036000Y-49200000D03*
%TO.P,J2,8,Pin_8*%
%TO.N,/10*%
X136576000Y-49200000D03*
%TO.P,J2,9,Pin_9*%
%TO.N,/9*%
X139116000Y-49200000D03*
%TO.P,J2,10,Pin_10*%
%TO.N,/8*%
X141656000Y-49200000D03*
%TD*%
D10*
%TO.P,J4,1,Pin_1*%
%TO.N,/7*%
X145720000Y-49200000D03*
D11*
%TO.P,J4,2,Pin_2*%
%TO.N,/6*%
X148260000Y-49200000D03*
%TO.P,J4,3,Pin_3*%
%TO.N,/5*%
X150800000Y-49200000D03*
%TO.P,J4,4,Pin_4*%
%TO.N,/4*%
X153340000Y-49200000D03*
%TO.P,J4,5,Pin_5*%
%TO.N,/3*%
X155880000Y-49200000D03*
%TO.P,J4,6,Pin_6*%
%TO.N,/2*%
X158420000Y-49200000D03*
%TO.P,J4,7,Pin_7*%
%TO.N,/TX*%
X160960000Y-49200000D03*
%TO.P,J4,8,Pin_8*%
%TO.N,/RX*%
X163500000Y-49200000D03*
%TD*%
D12*
%TO.P,R6,1*%
%TO.N,Net-(D5-A)*%
X145640000Y-70200000D03*
%TO.P,R6,2*%
%TO.N,/9*%
X145640000Y-62580000D03*
%TD*%
D13*
%TO.P,D4,1,K*%
%TO.N,GND*%
X156620000Y-55650000D03*
D14*
%TO.P,D4,2,A*%
%TO.N,Net-(D4-A)*%
X154080000Y-55650000D03*
%TD*%
D10*
%TO.P,J7,1,Pin_1*%
%TO.N,unconnected-(J7-Pin_1-Pad1)*%
X136760000Y-59590000D03*
D15*
%TO.P,J7,2,Pin_2*%
%TO.N,GND*%
X136760000Y-62130000D03*
%TO.P,J7,3,Pin_3*%
%TO.N,+5V*%
X136760000Y-64670000D03*
%TO.P,J7,4,Pin_4*%
%TO.N,unconnected-(J7-Pin_4-Pad4)*%
X136760000Y-67210000D03*
%TO.P,J7,5,Pin_5*%
%TO.N,/TX*%
X136760000Y-69750000D03*
%TO.P,J7,6,Pin_6*%
%TO.N,unconnected-(J7-Pin_6-Pad6)*%
X136760000Y-72290000D03*
%TD*%
D12*
%TO.P,R1,1*%
%TO.N,Net-(D1-A)*%
X162500000Y-70220000D03*
%TO.P,R1,2*%
%TO.N,/3*%
X162500000Y-62600000D03*
%TD*%
%TO.P,R2,1*%
%TO.N,Net-(D2-A)*%
X159120000Y-70220000D03*
%TO.P,R2,2*%
%TO.N,/4*%
X159120000Y-62600000D03*
%TD*%
D13*
%TO.P,D1,1,K*%
%TO.N,GND*%
X158115000Y-90290000D03*
D14*
%TO.P,D1,2,A*%
%TO.N,Net-(D1-A)*%
X155575000Y-90290000D03*
%TD*%
D16*
%TO.P,U2,1,V+*%
%TO.N,+5V*%
X146670000Y-93410000D03*
D17*
%TO.P,U2,2,Signal*%
%TO.N,/A1*%
X146670000Y-90870000D03*
%TO.P,U2,3,GND*%
%TO.N,GND*%
X146670000Y-88330000D03*
%TD*%
D12*
%TO.P,R3,1*%
%TO.N,Net-(D3-A)*%
X155800000Y-70250000D03*
%TO.P,R3,2*%
%TO.N,/5*%
X155800000Y-62630000D03*
%TD*%
D13*
%TO.P,D2,1,K*%
%TO.N,GND*%
X165200000Y-90200000D03*
D14*
%TO.P,D2,2,A*%
%TO.N,Net-(D2-A)*%
X162660000Y-90200000D03*
%TD*%
D13*
%TO.P,D5,1,K*%
%TO.N,GND*%
X143635000Y-55700000D03*
D14*
%TO.P,D5,2,A*%
%TO.N,Net-(D5-A)*%
X141095000Y-55700000D03*
%TD*%
D13*
%TO.P,D6,1,K*%
%TO.N,GND*%
X150150000Y-55650000D03*
D14*
%TO.P,D6,2,A*%
%TO.N,Net-(D6-A)*%
X147610000Y-55650000D03*
%TD*%
D13*
%TO.P,D3,1,K*%
%TO.N,GND*%
X163060000Y-55650000D03*
D14*
%TO.P,D3,2,A*%
%TO.N,Net-(D3-A)*%
X160520000Y-55650000D03*
%TD*%
D12*
%TO.P,R5,1*%
%TO.N,Net-(D6-A)*%
X149060000Y-70200000D03*
%TO.P,R5,2*%
%TO.N,/7*%
X149060000Y-62580000D03*
%TD*%
D10*
%TO.P,J8,1,Pin_1*%
%TO.N,unconnected-(J8-Pin_1-Pad1)*%
X135420000Y-92060000D03*
D15*
%TO.P,J8,2,Pin_2*%
%TO.N,+3V3*%
X135420000Y-89520000D03*
%TO.P,J8,3,Pin_3*%
%TO.N,GND*%
X135420000Y-86980000D03*
%TO.P,J8,4,Pin_4*%
%TO.N,/A5*%
X135420000Y-84440000D03*
%TO.P,J8,5,Pin_5*%
%TO.N,/A2*%
X135420000Y-81900000D03*
%TO.P,J8,6,Pin_6*%
%TO.N,/A4*%
X135420000Y-79360000D03*
%TO.P,J8,7,Pin_7*%
%TO.N,unconnected-(J8-Pin_7-Pad7)*%
X135420000Y-76820000D03*
%TD*%
D12*
%TO.P,R4,1*%
%TO.N,Net-(D4-A)*%
X152430000Y-70200000D03*
%TO.P,R4,2*%
%TO.N,/6*%
X152430000Y-62580000D03*
%TD*%
D18*
%TO.P,J5,1,Pin_1*%
%TO.N,unconnected-(J5-Pin_1-Pad1)*%
X150185000Y-75030000D03*
D19*
%TO.P,J5,2,Pin_2*%
%TO.N,+5V*%
X150185000Y-77570000D03*
%TO.P,J5,3,Pin_3*%
%TO.N,/A3*%
X150185000Y-80110000D03*
%TO.P,J5,4,Pin_4*%
%TO.N,GND*%
X150185000Y-82650000D03*
%TO.P,J5,5*%
%TO.N,N/C*%
X163265000Y-82670000D03*
%TO.P,J5,6*%
X163265000Y-80130000D03*
%TO.P,J5,7*%
X163265000Y-77590000D03*
%TO.P,J5,8*%
X163265000Y-75050000D03*
%TD*%
D20*
%TO.N,GND*%
X130760000Y-54980000D03*
%TD*%
%TA.AperFunction,Conductor*%
%TO.N,GND*%
G36*
X142714075Y-97267007D02*
G01*
X142680000Y-97394174D01*
X142680000Y-97525826D01*
X142714075Y-97652993D01*
X142746988Y-97710000D01*
X141073012Y-97710000D01*
X141105925Y-97652993D01*
X141140000Y-97525826D01*
X141140000Y-97394174D01*
X141105925Y-97267007D01*
X141073012Y-97210000D01*
X142746988Y-97210000D01*
X142714075Y-97267007D01*
G37*
%TD.AperFunction*%
%TA.AperFunction,Conductor*%
G36*
X165539405Y-46297806D02*
G01*
X165542072Y-46298234D01*
X165543473Y-46297873D01*
X165578222Y-46304040D01*
X165652093Y-46328394D01*
X165677673Y-46340198D01*
X165753336Y-46386188D01*
X165775586Y-46403456D01*
X165838917Y-46465341D01*
X165856699Y-46487192D01*
X165904421Y-46561770D01*
X165916811Y-46587069D01*
X165946470Y-46670502D01*
X165952830Y-46697949D01*
X165963696Y-46792977D01*
X165964499Y-46807064D01*
X165964500Y-59344982D01*
X165964500Y-59375018D01*
X165975994Y-59402767D01*
X165975995Y-59402768D01*
X168468181Y-61894954D01*
X168501666Y-61956277D01*
X168504500Y-61982635D01*
X168504500Y-96107364D01*
X168484815Y-96174403D01*
X168468181Y-96195045D01*
X165997233Y-98665994D01*
X165975995Y-98687231D01*
X165964500Y-98714982D01*
X165964500Y-99231907D01*
X165963903Y-99244062D01*
X165952505Y-99359778D01*
X165947763Y-99383618D01*
X165917832Y-99482290D01*
X165915789Y-99489024D01*
X165906486Y-99511482D01*
X165854561Y-99608627D01*
X165841056Y-99628839D01*
X165771176Y-99713988D01*
X165753988Y-99731176D01*
X165668839Y-99801056D01*
X165648627Y-99814561D01*
X165551482Y-99866486D01*
X165529028Y-99875787D01*
X165487028Y-99888528D01*
X165423618Y-99907763D01*
X165399777Y-99912505D01*
X165284071Y-99923901D01*
X165271900Y-99924498D01*
X116083467Y-99917690D01*
X116083467Y-99917689D01*
X116063347Y-99917686D01*
X116063345Y-99917685D01*
X116044888Y-99917685D01*
X116044884Y-99917684D01*
X116032752Y-99917088D01*
X116025296Y-99916353D01*
X115917037Y-99905692D01*
X115893197Y-99900950D01*
X115787788Y-99868977D01*
X115765329Y-99859675D01*
X115680925Y-99814561D01*
X115668178Y-99807747D01*
X115647973Y-99794246D01*
X115562822Y-99724365D01*
X115545634Y-99707177D01*
X115544885Y-99706264D01*
X115475751Y-99622024D01*
X115462253Y-99601823D01*
X115410321Y-99504665D01*
X115401022Y-99482211D01*
X115369049Y-99376802D01*
X115364307Y-99352962D01*
X115353795Y-99246214D01*
X115352911Y-99237244D01*
X115352315Y-99225091D01*
X115352343Y-98776757D01*
X115352464Y-96782512D01*
X115352478Y-96561345D01*
X126581500Y-96561345D01*
X126581500Y-98358654D01*
X126588011Y-98419202D01*
X126588011Y-98419204D01*
X126639111Y-98556204D01*
X126726739Y-98673261D01*
X126843796Y-98760889D01*
X126980799Y-98811989D01*
X127008050Y-98814918D01*
X127041345Y-98818499D01*
X127041362Y-98818500D01*
X128838638Y-98818500D01*
X128838654Y-98818499D01*
X128865692Y-98815591D01*
X128899201Y-98811989D01*
X129036204Y-98760889D01*
X129153261Y-98673261D01*
X129240889Y-98556204D01*
X129285957Y-98435371D01*
X129327827Y-98379442D01*
X129393291Y-98355025D01*
X129461564Y-98369877D01*
X129489818Y-98391028D01*
X129594996Y-98496206D01*
X129767991Y-98621894D01*
X129854542Y-98665994D01*
X129958516Y-98718972D01*
X129958519Y-98718973D01*
X130060200Y-98752010D01*
X130161884Y-98785049D01*
X130373084Y-98818500D01*
X130373085Y-98818500D01*
X130586915Y-98818500D01*
X130586916Y-98818500D01*
X130798116Y-98785049D01*
X131001483Y-98718972D01*
X131192009Y-98621894D01*
X131365004Y-98496206D01*
X131516206Y-98345004D01*
X131641894Y-98172009D01*
X131641896Y-98172004D01*
X131644270Y-98168132D01*
X131696080Y-98121254D01*
X131765009Y-98109829D01*
X131829173Y-98137483D01*
X131855730Y-98168132D01*
X131858103Y-98172005D01*
X131858105Y-98172008D01*
X131858106Y-98172009D01*
X131983794Y-98345004D01*
X132134996Y-98496206D01*
X132307991Y-98621894D01*
X132394542Y-98665994D01*
X132498516Y-98718972D01*
X132498519Y-98718973D01*
X132600200Y-98752010D01*
X132701884Y-98785049D01*
X132913084Y-98818500D01*
X132913085Y-98818500D01*
X133126915Y-98818500D01*
X133126916Y-98818500D01*
X133338116Y-98785049D01*
X133541483Y-98718972D01*
X133732009Y-98621894D01*
X133905004Y-98496206D01*
X134056206Y-98345004D01*
X134181894Y-98172009D01*
X134181896Y-98172004D01*
X134184270Y-98168132D01*
X134236080Y-98121254D01*
X134305009Y-98109829D01*
X134369173Y-98137483D01*
X134395730Y-98168132D01*
X134398103Y-98172005D01*
X134398105Y-98172008D01*
X134398106Y-98172009D01*
X134523794Y-98345004D01*
X134674996Y-98496206D01*
X134847991Y-98621894D01*
X134934542Y-98665994D01*
X135038516Y-98718972D01*
X135038519Y-98718973D01*
X135140200Y-98752010D01*
X135241884Y-98785049D01*
X135453084Y-98818500D01*
X135453085Y-98818500D01*
X135666915Y-98818500D01*
X135666916Y-98818500D01*
X135878116Y-98785049D01*
X136081483Y-98718972D01*
X136272009Y-98621894D01*
X136445004Y-98496206D01*
X136596206Y-98345004D01*
X136721894Y-98172009D01*
X136721896Y-98172004D01*
X136724270Y-98168132D01*
X136776080Y-98121254D01*
X136845009Y-98109829D01*
X136909173Y-98137483D01*
X136935730Y-98168132D01*
X136938103Y-98172005D01*
X136938105Y-98172008D01*
X136938106Y-98172009D01*
X137063794Y-98345004D01*
X137214996Y-98496206D01*
X137387991Y-98621894D01*
X137474542Y-98665994D01*
X137578516Y-98718972D01*
X137578519Y-98718973D01*
X137680200Y-98752010D01*
X137781884Y-98785049D01*
X137993084Y-98818500D01*
X137993085Y-98818500D01*
X138206915Y-98818500D01*
X138206916Y-98818500D01*
X138418116Y-98785049D01*
X138621483Y-98718972D01*
X138812009Y-98621894D01*
X138985004Y-98496206D01*
X139136206Y-98345004D01*
X139261894Y-98172009D01*
X139264283Y-98167319D01*
X139312254Y-98116522D01*
X139380074Y-98099724D01*
X139446210Y-98122258D01*
X139482201Y-98163788D01*
X139482832Y-98163402D01*
X139485164Y-98167207D01*
X139485251Y-98167308D01*
X139485376Y-98167554D01*
X139610272Y-98339459D01*
X139610276Y-98339464D01*
X139760535Y-98489723D01*
X139760540Y-98489727D01*
X139932442Y-98614620D01*
X140121782Y-98711095D01*
X140323871Y-98776757D01*
X140390000Y-98787231D01*
X140390000Y-97893012D01*
X140447007Y-97925925D01*
X140574174Y-97960000D01*
X140705826Y-97960000D01*
X140832993Y-97925925D01*
X140890000Y-97893012D01*
X140890000Y-98787230D01*
X140956126Y-98776757D01*
X140956129Y-98776757D01*
X141158217Y-98711095D01*
X141347557Y-98614620D01*
X141519459Y-98489727D01*
X141519464Y-98489723D01*
X141669723Y-98339464D01*
X141669727Y-98339459D01*
X141794620Y-98167558D01*
X141799514Y-98157954D01*
X141847488Y-98107157D01*
X141915308Y-98090361D01*
X141981444Y-98112897D01*
X142020486Y-98157954D01*
X142025379Y-98167558D01*
X142150272Y-98339459D01*
X142150276Y-98339464D01*
X142300535Y-98489723D01*
X142300540Y-98489727D01*
X142472442Y-98614620D01*
X142661782Y-98711095D01*
X142863871Y-98776757D01*
X142930000Y-98787231D01*
X142930000Y-97893012D01*
X142987007Y-97925925D01*
X143114174Y-97960000D01*
X143245826Y-97960000D01*
X143372993Y-97925925D01*
X143430000Y-97893012D01*
X143430000Y-98787230D01*
X143496126Y-98776757D01*
X143496129Y-98776757D01*
X143698217Y-98711095D01*
X143887557Y-98614620D01*
X144059459Y-98489727D01*
X144059464Y-98489723D01*
X144209723Y-98339464D01*
X144209727Y-98339459D01*
X144334619Y-98167560D01*
X144334738Y-98167327D01*
X144334808Y-98167252D01*
X144337168Y-98163402D01*
X144337976Y-98163897D01*
X144382707Y-98116526D01*
X144450526Y-98099723D01*
X144516663Y-98122254D01*
X144555712Y-98167311D01*
X144558105Y-98172008D01*
X144600002Y-98229674D01*
X144683794Y-98345004D01*
X144834996Y-98496206D01*
X145007991Y-98621894D01*
X145094542Y-98665994D01*
X145198516Y-98718972D01*
X145198519Y-98718973D01*
X145300200Y-98752010D01*
X145401884Y-98785049D01*
X145613084Y-98818500D01*
X145613085Y-98818500D01*
X145826915Y-98818500D01*
X145826916Y-98818500D01*
X146038116Y-98785049D01*
X146241483Y-98718972D01*
X146432009Y-98621894D01*
X146605004Y-98496206D01*
X146756206Y-98345004D01*
X146881894Y-98172009D01*
X146978972Y-97981483D01*
X147045049Y-97778116D01*
X147078500Y-97566916D01*
X147078500Y-97353084D01*
X147045049Y-97141884D01*
X146978972Y-96938517D01*
X146978972Y-96938516D01*
X146923495Y-96829638D01*
X146881894Y-96747991D01*
X146756206Y-96574996D01*
X146742555Y-96561345D01*
X149441500Y-96561345D01*
X149441500Y-98358654D01*
X149448011Y-98419202D01*
X149448011Y-98419204D01*
X149499111Y-98556204D01*
X149586739Y-98673261D01*
X149703796Y-98760889D01*
X149840799Y-98811989D01*
X149868050Y-98814918D01*
X149901345Y-98818499D01*
X149901362Y-98818500D01*
X151698638Y-98818500D01*
X151698654Y-98818499D01*
X151725692Y-98815591D01*
X151759201Y-98811989D01*
X151896204Y-98760889D01*
X152013261Y-98673261D01*
X152100889Y-98556204D01*
X152145957Y-98435371D01*
X152187827Y-98379442D01*
X152253291Y-98355025D01*
X152321564Y-98369877D01*
X152349818Y-98391028D01*
X152454996Y-98496206D01*
X152627991Y-98621894D01*
X152714542Y-98665994D01*
X152818516Y-98718972D01*
X152818519Y-98718973D01*
X152920200Y-98752010D01*
X153021884Y-98785049D01*
X153233084Y-98818500D01*
X153233085Y-98818500D01*
X153446915Y-98818500D01*
X153446916Y-98818500D01*
X153658116Y-98785049D01*
X153861483Y-98718972D01*
X154052009Y-98621894D01*
X154225004Y-98496206D01*
X154376206Y-98345004D01*
X154501894Y-98172009D01*
X154501896Y-98172004D01*
X154504270Y-98168132D01*
X154556080Y-98121254D01*
X154625009Y-98109829D01*
X154689173Y-98137483D01*
X154715730Y-98168132D01*
X154718103Y-98172005D01*
X154718105Y-98172008D01*
X154718106Y-98172009D01*
X154843794Y-98345004D01*
X154994996Y-98496206D01*
X155167991Y-98621894D01*
X155254542Y-98665994D01*
X155358516Y-98718972D01*
X155358519Y-98718973D01*
X155460200Y-98752010D01*
X155561884Y-98785049D01*
X155773084Y-98818500D01*
X155773085Y-98818500D01*
X155986915Y-98818500D01*
X155986916Y-98818500D01*
X156198116Y-98785049D01*
X156401483Y-98718972D01*
X156592009Y-98621894D01*
X156765004Y-98496206D01*
X156916206Y-98345004D01*
X157041894Y-98172009D01*
X157041896Y-98172004D01*
X157044270Y-98168132D01*
X157096080Y-98121254D01*
X157165009Y-98109829D01*
X157229173Y-98137483D01*
X157255730Y-98168132D01*
X157258103Y-98172005D01*
X157258105Y-98172008D01*
X157258106Y-98172009D01*
X157383794Y-98345004D01*
X157534996Y-98496206D01*
X157707991Y-98621894D01*
X157794542Y-98665994D01*
X157898516Y-98718972D01*
X157898519Y-98718973D01*
X158000200Y-98752010D01*
X158101884Y-98785049D01*
X158313084Y-98818500D01*
X158313085Y-98818500D01*
X158526915Y-98818500D01*
X158526916Y-98818500D01*
X158738116Y-98785049D01*
X158941483Y-98718972D01*
X159132009Y-98621894D01*
X159305004Y-98496206D01*
X159456206Y-98345004D01*
X159581894Y-98172009D01*
X159581896Y-98172004D01*
X159584270Y-98168132D01*
X159636080Y-98121254D01*
X159705009Y-98109829D01*
X159769173Y-98137483D01*
X159795730Y-98168132D01*
X159798103Y-98172005D01*
X159798105Y-98172008D01*
X159798106Y-98172009D01*
X159923794Y-98345004D01*
X160074996Y-98496206D01*
X160247991Y-98621894D01*
X160334542Y-98665994D01*
X160438516Y-98718972D01*
X160438519Y-98718973D01*
X160540200Y-98752010D01*
X160641884Y-98785049D01*
X160853084Y-98818500D01*
X160853085Y-98818500D01*
X161066915Y-98818500D01*
X161066916Y-98818500D01*
X161278116Y-98785049D01*
X161481483Y-98718972D01*
X161672009Y-98621894D01*
X161845004Y-98496206D01*
X161996206Y-98345004D01*
X162121894Y-98172009D01*
X162121896Y-98172004D01*
X162124270Y-98168132D01*
X162176080Y-98121254D01*
X162245009Y-98109829D01*
X162309173Y-98137483D01*
X162335730Y-98168132D01*
X162338103Y-98172005D01*
X162338105Y-98172008D01*
X162338106Y-98172009D01*
X162463794Y-98345004D01*
X162614996Y-98496206D01*
X162787991Y-98621894D01*
X162874542Y-98665994D01*
X162978516Y-98718972D01*
X162978519Y-98718973D01*
X163080200Y-98752010D01*
X163181884Y-98785049D01*
X163393084Y-98818500D01*
X163393085Y-98818500D01*
X163606915Y-98818500D01*
X163606916Y-98818500D01*
X163818116Y-98785049D01*
X164021483Y-98718972D01*
X164212009Y-98621894D01*
X164385004Y-98496206D01*
X164536206Y-98345004D01*
X164661894Y-98172009D01*
X164758972Y-97981483D01*
X164825049Y-97778116D01*
X164858500Y-97566916D01*
X164858500Y-97353084D01*
X164825049Y-97141884D01*
X164758972Y-96938517D01*
X164758972Y-96938516D01*
X164703495Y-96829638D01*
X164661894Y-96747991D01*
X164536206Y-96574996D01*
X164385004Y-96423794D01*
X164212009Y-96298106D01*
X164021483Y-96201027D01*
X164021480Y-96201026D01*
X163818117Y-96134951D01*
X163712516Y-96118225D01*
X163606916Y-96101500D01*
X163393084Y-96101500D01*
X163322684Y-96112650D01*
X163181882Y-96134951D01*
X162978519Y-96201026D01*
X162978516Y-96201027D01*
X162787990Y-96298106D01*
X162614993Y-96423796D01*
X162463796Y-96574993D01*
X162338105Y-96747991D01*
X162335727Y-96751873D01*
X162283914Y-96798748D01*
X162214984Y-96810169D01*
X162150822Y-96782512D01*
X162124273Y-96751873D01*
X162121894Y-96747991D01*
X162121891Y-96747987D01*
X161996206Y-96574996D01*
X161845004Y-96423794D01*
X161672009Y-96298106D01*
X161481483Y-96201027D01*
X161481480Y-96201026D01*
X161278117Y-96134951D01*
X161172516Y-96118225D01*
X161066916Y-96101500D01*
X160853084Y-96101500D01*
X160782684Y-96112650D01*
X160641882Y-96134951D01*
X160438519Y-96201026D01*
X160438516Y-96201027D01*
X160247990Y-96298106D01*
X160074993Y-96423796D01*
X159923796Y-96574993D01*
X159798105Y-96747991D01*
X159795727Y-96751873D01*
X159743914Y-96798748D01*
X159674984Y-96810169D01*
X159610822Y-96782512D01*
X159584273Y-96751873D01*
X159581894Y-96747991D01*
X159581891Y-96747987D01*
X159456206Y-96574996D01*
X159305004Y-96423794D01*
X159132009Y-96298106D01*
X158941483Y-96201027D01*
X158941480Y-96201026D01*
X158738117Y-96134951D01*
X158632516Y-96118225D01*
X158526916Y-96101500D01*
X158313084Y-96101500D01*
X158242684Y-96112650D01*
X158101882Y-96134951D01*
X157898519Y-96201026D01*
X157898516Y-96201027D01*
X157707990Y-96298106D01*
X157534993Y-96423796D01*
X157383796Y-96574993D01*
X157258105Y-96747991D01*
X157255727Y-96751873D01*
X157203914Y-96798748D01*
X157134984Y-96810169D01*
X157070822Y-96782512D01*
X157044273Y-96751873D01*
X157041894Y-96747991D01*
X157041891Y-96747987D01*
X156916206Y-96574996D01*
X156765004Y-96423794D01*
X156592009Y-96298106D01*
X156401483Y-96201027D01*
X156401480Y-96201026D01*
X156198117Y-96134951D01*
X156092516Y-96118225D01*
X155986916Y-96101500D01*
X155773084Y-96101500D01*
X155702684Y-96112650D01*
X155561882Y-96134951D01*
X155358519Y-96201026D01*
X155358516Y-96201027D01*
X155167990Y-96298106D01*
X154994993Y-96423796D01*
X154843796Y-96574993D01*
X154718105Y-96747991D01*
X154715727Y-96751873D01*
X154663914Y-96798748D01*
X154594984Y-96810169D01*
X154530822Y-96782512D01*
X154504273Y-96751873D01*
X154501894Y-96747991D01*
X154501891Y-96747987D01*
X154376206Y-96574996D01*
X154225004Y-96423794D01*
X154052009Y-96298106D01*
X153861483Y-96201027D01*
X153861480Y-96201026D01*
X153658117Y-96134951D01*
X153552516Y-96118225D01*
X153446916Y-96101500D01*
X153233084Y-96101500D01*
X153162684Y-96112650D01*
X153021882Y-96134951D01*
X152818519Y-96201026D01*
X152818516Y-96201027D01*
X152627990Y-96298106D01*
X152454997Y-96423793D01*
X152349818Y-96528972D01*
X152288495Y-96562456D01*
X152218803Y-96557472D01*
X152162870Y-96515600D01*
X152145958Y-96484629D01*
X152100889Y-96363796D01*
X152013261Y-96246739D01*
X151896204Y-96159111D01*
X151895172Y-96158726D01*
X151759203Y-96108011D01*
X151698654Y-96101500D01*
X151698638Y-96101500D01*
X149901362Y-96101500D01*
X149901345Y-96101500D01*
X149840797Y-96108011D01*
X149840795Y-96108011D01*
X149703795Y-96159111D01*
X149586739Y-96246739D01*
X149499111Y-96363795D01*
X149448011Y-96500795D01*
X149448011Y-96500797D01*
X149441500Y-96561345D01*
X146742555Y-96561345D01*
X146605004Y-96423794D01*
X146432009Y-96298106D01*
X146241483Y-96201027D01*
X146241480Y-96201026D01*
X146038117Y-96134951D01*
X145932516Y-96118225D01*
X145826916Y-96101500D01*
X145613084Y-96101500D01*
X145542684Y-96112650D01*
X145401882Y-96134951D01*
X145198519Y-96201026D01*
X145198516Y-96201027D01*
X145007990Y-96298106D01*
X144834993Y-96423796D01*
X144683796Y-96574993D01*
X144558103Y-96747994D01*
X144555709Y-96752693D01*
X144507731Y-96803485D01*
X144439908Y-96820275D01*
X144373775Y-96797732D01*
X144337800Y-96756210D01*
X144337168Y-96756598D01*
X144334829Y-96752781D01*
X144334743Y-96752682D01*
X144334620Y-96752441D01*
X144209727Y-96580540D01*
X144209723Y-96580535D01*
X144059464Y-96430276D01*
X144059459Y-96430272D01*
X143887557Y-96305379D01*
X143698215Y-96208903D01*
X143496124Y-96143241D01*
X143430000Y-96132768D01*
X143430000Y-97026988D01*
X143372993Y-96994075D01*
X143245826Y-96960000D01*
X143114174Y-96960000D01*
X142987007Y-96994075D01*
X142930000Y-97026988D01*
X142930000Y-96132768D01*
X142929999Y-96132768D01*
X142863875Y-96143241D01*
X142661784Y-96208903D01*
X142472442Y-96305379D01*
X142300540Y-96430272D01*
X142300535Y-96430276D01*
X142150276Y-96580535D01*
X142150272Y-96580540D01*
X142025377Y-96752444D01*
X142020484Y-96762048D01*
X141972509Y-96812844D01*
X141904688Y-96829638D01*
X141838553Y-96807100D01*
X141799516Y-96762048D01*
X141794622Y-96752444D01*
X141669727Y-96580540D01*
X141669723Y-96580535D01*
X141519464Y-96430276D01*
X141519459Y-96430272D01*
X141347557Y-96305379D01*
X141158215Y-96208903D01*
X140956124Y-96143241D01*
X140890000Y-96132768D01*
X140890000Y-97026988D01*
X140832993Y-96994075D01*
X140705826Y-96960000D01*
X140574174Y-96960000D01*
X140447007Y-96994075D01*
X140390000Y-97026988D01*
X140390000Y-96132768D01*
X140389999Y-96132768D01*
X140323875Y-96143241D01*
X140121784Y-96208903D01*
X139932442Y-96305379D01*
X139760540Y-96430272D01*
X139760535Y-96430276D01*
X139610276Y-96580535D01*
X139610272Y-96580540D01*
X139485376Y-96752446D01*
X139485374Y-96752448D01*
X139485246Y-96752701D01*
X139485172Y-96752779D01*
X139482832Y-96756598D01*
X139482029Y-96756106D01*
X139437264Y-96803489D01*
X139369441Y-96820274D01*
X139303309Y-96797727D01*
X139264285Y-96752683D01*
X139261895Y-96747992D01*
X139230472Y-96704742D01*
X139136206Y-96574996D01*
X138985004Y-96423794D01*
X138812009Y-96298106D01*
X138621483Y-96201027D01*
X138621480Y-96201026D01*
X138418117Y-96134951D01*
X138312516Y-96118225D01*
X138206916Y-96101500D01*
X137993084Y-96101500D01*
X137922684Y-96112650D01*
X137781882Y-96134951D01*
X137578519Y-96201026D01*
X137578516Y-96201027D01*
X137387990Y-96298106D01*
X137214993Y-96423796D01*
X137063796Y-96574993D01*
X136938105Y-96747991D01*
X136935727Y-96751873D01*
X136883914Y-96798748D01*
X136814984Y-96810169D01*
X136750822Y-96782512D01*
X136724273Y-96751873D01*
X136721894Y-96747991D01*
X136721891Y-96747987D01*
X136596206Y-96574996D01*
X136445004Y-96423794D01*
X136272009Y-96298106D01*
X136081483Y-96201027D01*
X136081480Y-96201026D01*
X135878117Y-96134951D01*
X135772516Y-96118225D01*
X135666916Y-96101500D01*
X135453084Y-96101500D01*
X135382684Y-96112650D01*
X135241882Y-96134951D01*
X135038519Y-96201026D01*
X135038516Y-96201027D01*
X134847990Y-96298106D01*
X134674993Y-96423796D01*
X134523796Y-96574993D01*
X134398105Y-96747991D01*
X134395727Y-96751873D01*
X134343914Y-96798748D01*
X134274984Y-96810169D01*
X134210822Y-96782512D01*
X134184273Y-96751873D01*
X134181894Y-96747991D01*
X134181891Y-96747987D01*
X134056206Y-96574996D01*
X133905004Y-96423794D01*
X133732009Y-96298106D01*
X133541483Y-96201027D01*
X133541480Y-96201026D01*
X133338117Y-96134951D01*
X133232516Y-96118225D01*
X133126916Y-96101500D01*
X132913084Y-96101500D01*
X132842684Y-96112650D01*
X132701882Y-96134951D01*
X132498519Y-96201026D01*
X132498516Y-96201027D01*
X132307990Y-96298106D01*
X132134993Y-96423796D01*
X131983796Y-96574993D01*
X131858105Y-96747991D01*
X131855727Y-96751873D01*
X131803914Y-96798748D01*
X131734984Y-96810169D01*
X131670822Y-96782512D01*
X131644273Y-96751873D01*
X131641894Y-96747991D01*
X131641891Y-96747987D01*
X131516206Y-96574996D01*
X131365004Y-96423794D01*
X131192009Y-96298106D01*
X131001483Y-96201027D01*
X131001480Y-96201026D01*
X130798117Y-96134951D01*
X130692516Y-96118225D01*
X130586916Y-96101500D01*
X130373084Y-96101500D01*
X130302684Y-96112650D01*
X130161882Y-96134951D01*
X129958519Y-96201026D01*
X129958516Y-96201027D01*
X129767990Y-96298106D01*
X129594997Y-96423793D01*
X129489818Y-96528972D01*
X129428495Y-96562456D01*
X129358803Y-96557472D01*
X129302870Y-96515600D01*
X129285958Y-96484629D01*
X129240889Y-96363796D01*
X129153261Y-96246739D01*
X129036204Y-96159111D01*
X129035172Y-96158726D01*
X128899203Y-96108011D01*
X128838654Y-96101500D01*
X128838638Y-96101500D01*
X127041362Y-96101500D01*
X127041345Y-96101500D01*
X126980797Y-96108011D01*
X126980795Y-96108011D01*
X126843795Y-96159111D01*
X126726739Y-96246739D01*
X126639111Y-96363795D01*
X126588011Y-96500795D01*
X126588011Y-96500797D01*
X126581500Y-96561345D01*
X115352478Y-96561345D01*
X115352478Y-96558033D01*
X115352914Y-89408204D01*
X115353069Y-86868873D01*
X115353688Y-76713084D01*
X134061500Y-76713084D01*
X134061500Y-76926915D01*
X134094951Y-77138117D01*
X134161026Y-77341480D01*
X134161027Y-77341483D01*
X134224992Y-77467019D01*
X134258106Y-77532009D01*
X134383794Y-77705004D01*
X134534996Y-77856206D01*
X134707991Y-77981894D01*
X134711873Y-77984273D01*
X134758748Y-78036086D01*
X134770169Y-78105016D01*
X134742512Y-78169178D01*
X134711873Y-78195727D01*
X134707991Y-78198105D01*
X134534993Y-78323796D01*
X134383796Y-78474993D01*
X134258106Y-78647990D01*
X134161027Y-78838516D01*
X134161026Y-78838519D01*
X134094951Y-79041882D01*
X134061500Y-79253084D01*
X134061500Y-79466915D01*
X134094951Y-79678117D01*
X134161026Y-79881480D01*
X134161027Y-79881483D01*
X134224992Y-80007019D01*
X134258106Y-80072009D01*
X134383794Y-80245004D01*
X134534996Y-80396206D01*
X134707991Y-80521894D01*
X134711873Y-80524273D01*
X134758748Y-80576086D01*
X134770169Y-80645016D01*
X134742512Y-80709178D01*
X134711873Y-80735727D01*
X134707991Y-80738105D01*
X134534993Y-80863796D01*
X134383796Y-81014993D01*
X134258106Y-81187990D01*
X134161027Y-81378516D01*
X134161026Y-81378519D01*
X134094951Y-81581882D01*
X134061500Y-81793084D01*
X134061500Y-82006915D01*
X134094951Y-82218117D01*
X134161026Y-82421480D01*
X134161027Y-82421483D01*
X134235182Y-82567019D01*
X134258106Y-82612009D01*
X134383794Y-82785004D01*
X134534996Y-82936206D01*
X134691620Y-83050000D01*
X134707991Y-83061894D01*
X134711873Y-83064273D01*
X134758748Y-83116086D01*
X134770169Y-83185016D01*
X134742512Y-83249178D01*
X134711873Y-83275727D01*
X134707991Y-83278105D01*
X134534993Y-83403796D01*
X134383796Y-83554993D01*
X134258106Y-83727990D01*
X134161027Y-83918516D01*
X134161026Y-83918519D01*
X134094951Y-84121882D01*
X134061500Y-84333084D01*
X134061500Y-84546915D01*
X134094951Y-84758117D01*
X134161026Y-84961480D01*
X134161027Y-84961483D01*
X134258106Y-85152009D01*
X134383794Y-85325004D01*
X134534996Y-85476206D01*
X134707991Y-85601894D01*
X134712680Y-85604283D01*
X134763478Y-85652254D01*
X134780276Y-85720074D01*
X134757742Y-85786210D01*
X134716205Y-85822209D01*
X134716590Y-85822838D01*
X134712804Y-85825157D01*
X134712702Y-85825246D01*
X134712449Y-85825374D01*
X134712440Y-85825380D01*
X134658282Y-85864727D01*
X134658282Y-85864728D01*
X135290591Y-86497037D01*
X135227007Y-86514075D01*
X135112993Y-86579901D01*
X135019901Y-86672993D01*
X134954075Y-86787007D01*
X134937037Y-86850591D01*
X134304728Y-86218282D01*
X134304727Y-86218282D01*
X134265380Y-86272439D01*
X134168904Y-86461782D01*
X134103242Y-86663869D01*
X134103242Y-86663872D01*
X134070000Y-86873753D01*
X134070000Y-87086246D01*
X134103242Y-87296127D01*
X134103242Y-87296130D01*
X134168904Y-87498217D01*
X134265375Y-87687550D01*
X134304728Y-87741716D01*
X134937037Y-87109408D01*
X134954075Y-87172993D01*
X135019901Y-87287007D01*
X135112993Y-87380099D01*
X135227007Y-87445925D01*
X135290590Y-87462962D01*
X134658282Y-88095269D01*
X134658282Y-88095270D01*
X134712449Y-88134624D01*
X134712682Y-88134743D01*
X134712755Y-88134812D01*
X134716604Y-88137171D01*
X134716108Y-88137979D01*
X134763479Y-88182716D01*
X134780275Y-88250537D01*
X134757739Y-88316672D01*
X134712693Y-88355709D01*
X134707994Y-88358103D01*
X134534993Y-88483796D01*
X134383796Y-88634993D01*
X134258106Y-88807990D01*
X134161027Y-88998516D01*
X134161026Y-88998519D01*
X134094951Y-89201882D01*
X134079398Y-89300080D01*
X134061500Y-89413084D01*
X134061500Y-89626916D01*
X134066382Y-89657739D01*
X134094951Y-89838117D01*
X134161026Y-90041480D01*
X134161027Y-90041483D01*
X134199152Y-90116306D01*
X134258106Y-90232009D01*
X134383794Y-90405004D01*
X134383796Y-90405006D01*
X134488971Y-90510181D01*
X134522456Y-90571504D01*
X134517472Y-90641196D01*
X134475600Y-90697129D01*
X134444625Y-90714043D01*
X134323795Y-90759111D01*
X134206739Y-90846739D01*
X134119111Y-90963795D01*
X134068011Y-91100795D01*
X134068011Y-91100797D01*
X134061500Y-91161345D01*
X134061500Y-92958654D01*
X134068011Y-93019202D01*
X134068011Y-93019204D01*
X134119111Y-93156204D01*
X134206739Y-93273261D01*
X134323796Y-93360889D01*
X134460799Y-93411989D01*
X134488050Y-93414918D01*
X134521345Y-93418499D01*
X134521362Y-93418500D01*
X136318638Y-93418500D01*
X136318654Y-93418499D01*
X136345692Y-93415591D01*
X136379201Y-93411989D01*
X136516204Y-93360889D01*
X136633261Y-93273261D01*
X136720889Y-93156204D01*
X136771989Y-93019201D01*
X136775591Y-92985692D01*
X136778499Y-92958654D01*
X136778500Y-92958637D01*
X136778500Y-91161362D01*
X136778499Y-91161345D01*
X136773793Y-91117578D01*
X136771989Y-91100799D01*
X136720889Y-90963796D01*
X136633261Y-90846739D01*
X136532016Y-90770948D01*
X145411500Y-90770948D01*
X145411500Y-90969051D01*
X145442487Y-91164700D01*
X145503703Y-91353101D01*
X145593634Y-91529598D01*
X145710070Y-91689858D01*
X145850142Y-91829930D01*
X145983998Y-91927182D01*
X146026663Y-91982512D01*
X146032642Y-92052126D01*
X146000036Y-92113921D01*
X145939197Y-92148278D01*
X145911112Y-92151500D01*
X145871345Y-92151500D01*
X145810797Y-92158011D01*
X145810795Y-92158011D01*
X145673795Y-92209111D01*
X145556739Y-92296739D01*
X145469111Y-92413795D01*
X145418011Y-92550795D01*
X145418011Y-92550797D01*
X145411500Y-92611345D01*
X145411500Y-94208654D01*
X145418011Y-94269202D01*
X145418011Y-94269204D01*
X145469111Y-94406204D01*
X145556739Y-94523261D01*
X145673796Y-94610889D01*
X145810799Y-94661989D01*
X145838050Y-94664918D01*
X145871345Y-94668499D01*
X145871362Y-94668500D01*
X147468638Y-94668500D01*
X147468654Y-94668499D01*
X147495692Y-94665591D01*
X147529201Y-94661989D01*
X147666204Y-94610889D01*
X147783261Y-94523261D01*
X147870889Y-94406204D01*
X147921989Y-94269201D01*
X147925591Y-94235692D01*
X147928499Y-94208654D01*
X147928500Y-94208637D01*
X147928500Y-92611362D01*
X147928499Y-92611345D01*
X147925157Y-92580270D01*
X147921989Y-92550799D01*
X147870889Y-92413796D01*
X147783261Y-92296739D01*
X147666204Y-92209111D01*
X147529203Y-92158011D01*
X147468654Y-92151500D01*
X147468638Y-92151500D01*
X147428888Y-92151500D01*
X147361849Y-92131815D01*
X147316094Y-92079011D01*
X147306150Y-92009853D01*
X147335175Y-91946297D01*
X147356002Y-91927182D01*
X147489858Y-91829930D01*
X147629930Y-91689858D01*
X147746366Y-91529598D01*
X147836298Y-91353097D01*
X147897512Y-91164700D01*
X147904975Y-91117578D01*
X147928500Y-90969051D01*
X147928500Y-90770948D01*
X147897512Y-90575299D01*
X147842179Y-90405004D01*
X147836298Y-90386903D01*
X147836296Y-90386900D01*
X147836296Y-90386898D01*
X147756643Y-90230572D01*
X147746365Y-90210401D01*
X147723659Y-90179149D01*
X154166500Y-90179149D01*
X154166500Y-90400851D01*
X154176453Y-90463694D01*
X154201182Y-90619824D01*
X154269693Y-90830680D01*
X154337519Y-90963795D01*
X154370343Y-91028215D01*
X154500657Y-91207576D01*
X154657424Y-91364343D01*
X154836785Y-91494657D01*
X154905361Y-91529598D01*
X155034319Y-91595306D01*
X155034321Y-91595306D01*
X155034324Y-91595308D01*
X155245176Y-91663818D01*
X155464149Y-91698500D01*
X155464150Y-91698500D01*
X155685850Y-91698500D01*
X155685851Y-91698500D01*
X155904824Y-91663818D01*
X156115676Y-91595308D01*
X156313215Y-91494657D01*
X156492576Y-91364343D01*
X156540997Y-91315921D01*
X156602318Y-91282437D01*
X156672009Y-91287421D01*
X156727943Y-91329292D01*
X156744859Y-91360269D01*
X156771646Y-91432087D01*
X156771649Y-91432093D01*
X156857809Y-91547187D01*
X156857812Y-91547190D01*
X156972906Y-91633350D01*
X156972913Y-91633354D01*
X157107620Y-91683596D01*
X157107627Y-91683598D01*
X157167155Y-91689999D01*
X157167172Y-91690000D01*
X157865000Y-91690000D01*
X157865000Y-90665277D01*
X157941306Y-90709333D01*
X158055756Y-90740000D01*
X158174244Y-90740000D01*
X158288694Y-90709333D01*
X158365000Y-90665277D01*
X158365000Y-91690000D01*
X159062828Y-91690000D01*
X159062844Y-91689999D01*
X159122372Y-91683598D01*
X159122379Y-91683596D01*
X159257086Y-91633354D01*
X159257093Y-91633350D01*
X159372187Y-91547190D01*
X159372190Y-91547187D01*
X159458350Y-91432093D01*
X159458354Y-91432086D01*
X159508596Y-91297379D01*
X159508598Y-91297372D01*
X159514999Y-91237844D01*
X159515000Y-91237827D01*
X159515000Y-90540000D01*
X158490278Y-90540000D01*
X158534333Y-90463694D01*
X158565000Y-90349244D01*
X158565000Y-90230756D01*
X158534333Y-90116306D01*
X158518654Y-90089149D01*
X161251500Y-90089149D01*
X161251500Y-90310851D01*
X161265755Y-90400851D01*
X161286182Y-90529824D01*
X161354693Y-90740680D01*
X161455343Y-90938215D01*
X161585657Y-91117576D01*
X161742424Y-91274343D01*
X161921785Y-91404657D01*
X162015114Y-91452210D01*
X162119319Y-91505306D01*
X162119321Y-91505306D01*
X162119324Y-91505308D01*
X162330176Y-91573818D01*
X162549149Y-91608500D01*
X162549150Y-91608500D01*
X162770850Y-91608500D01*
X162770851Y-91608500D01*
X162989824Y-91573818D01*
X163200676Y-91505308D01*
X163398215Y-91404657D01*
X163577576Y-91274343D01*
X163625997Y-91225921D01*
X163687318Y-91192437D01*
X163757009Y-91197421D01*
X163812943Y-91239292D01*
X163829859Y-91270269D01*
X163856646Y-91342087D01*
X163856649Y-91342093D01*
X163942809Y-91457187D01*
X163942812Y-91457190D01*
X164057906Y-91543350D01*
X164057913Y-91543354D01*
X164192620Y-91593596D01*
X164192627Y-91593598D01*
X164252155Y-91599999D01*
X164252172Y-91600000D01*
X164950000Y-91600000D01*
X164950000Y-90575277D01*
X165026306Y-90619333D01*
X165140756Y-90650000D01*
X165259244Y-90650000D01*
X165373694Y-90619333D01*
X165450000Y-90575277D01*
X165450000Y-91600000D01*
X166147828Y-91600000D01*
X166147844Y-91599999D01*
X166207372Y-91593598D01*
X166207379Y-91593596D01*
X166342086Y-91543354D01*
X166342093Y-91543350D01*
X166457187Y-91457190D01*
X166457190Y-91457187D01*
X166543350Y-91342093D01*
X166543354Y-91342086D01*
X166593596Y-91207379D01*
X166593598Y-91207372D01*
X166599999Y-91147844D01*
X166600000Y-91147827D01*
X166600000Y-90450000D01*
X165575278Y-90450000D01*
X165619333Y-90373694D01*
X165650000Y-90259244D01*
X165650000Y-90140756D01*
X165619333Y-90026306D01*
X165575278Y-89950000D01*
X166600000Y-89950000D01*
X166600000Y-89252172D01*
X166599999Y-89252155D01*
X166593598Y-89192627D01*
X166593596Y-89192620D01*
X166543354Y-89057913D01*
X166543350Y-89057906D01*
X166457190Y-88942812D01*
X166457187Y-88942809D01*
X166342093Y-88856649D01*
X166342086Y-88856645D01*
X166207379Y-88806403D01*
X166207372Y-88806401D01*
X166147844Y-88800000D01*
X165450000Y-88800000D01*
X165450000Y-89824722D01*
X165373694Y-89780667D01*
X165259244Y-89750000D01*
X165140756Y-89750000D01*
X165026306Y-89780667D01*
X164950000Y-89824722D01*
X164950000Y-88800000D01*
X164252155Y-88800000D01*
X164192627Y-88806401D01*
X164192620Y-88806403D01*
X164057913Y-88856645D01*
X164057906Y-88856649D01*
X163942812Y-88942809D01*
X163942809Y-88942812D01*
X163856649Y-89057906D01*
X163856644Y-89057915D01*
X163829858Y-89129731D01*
X163787987Y-89185664D01*
X163722522Y-89210080D01*
X163654249Y-89195228D01*
X163625996Y-89174077D01*
X163577578Y-89125659D01*
X163577576Y-89125657D01*
X163398215Y-88995343D01*
X163378200Y-88985145D01*
X163200680Y-88894693D01*
X162989824Y-88826182D01*
X162886613Y-88809835D01*
X162770851Y-88791500D01*
X162549149Y-88791500D01*
X162445029Y-88807991D01*
X162330175Y-88826182D01*
X162119319Y-88894693D01*
X161921784Y-88995343D01*
X161835675Y-89057906D01*
X161742424Y-89125657D01*
X161742422Y-89125659D01*
X161742421Y-89125659D01*
X161585659Y-89282421D01*
X161585659Y-89282422D01*
X161585657Y-89282424D01*
X161542260Y-89342155D01*
X161455343Y-89461784D01*
X161354693Y-89659319D01*
X161286182Y-89870175D01*
X161271927Y-89960176D01*
X161251500Y-90089149D01*
X158518654Y-90089149D01*
X158490278Y-90040000D01*
X159515000Y-90040000D01*
X159515000Y-89342172D01*
X159514999Y-89342155D01*
X159508598Y-89282627D01*
X159508596Y-89282620D01*
X159458354Y-89147913D01*
X159458350Y-89147906D01*
X159372190Y-89032812D01*
X159372187Y-89032809D01*
X159257093Y-88946649D01*
X159257086Y-88946645D01*
X159122379Y-88896403D01*
X159122372Y-88896401D01*
X159062844Y-88890000D01*
X158365000Y-88890000D01*
X158365000Y-89914722D01*
X158288694Y-89870667D01*
X158174244Y-89840000D01*
X158055756Y-89840000D01*
X157941306Y-89870667D01*
X157865000Y-89914722D01*
X157865000Y-88890000D01*
X157167155Y-88890000D01*
X157107627Y-88896401D01*
X157107620Y-88896403D01*
X156972913Y-88946645D01*
X156972906Y-88946649D01*
X156857812Y-89032809D01*
X156857809Y-89032812D01*
X156771649Y-89147906D01*
X156771644Y-89147915D01*
X156744858Y-89219731D01*
X156702987Y-89275664D01*
X156637522Y-89300080D01*
X156569249Y-89285228D01*
X156540996Y-89264077D01*
X156492578Y-89215659D01*
X156492576Y-89215657D01*
X156313215Y-89085343D01*
X156115680Y-88984693D01*
X155904824Y-88916182D01*
X155685851Y-88881500D01*
X155464149Y-88881500D01*
X155354662Y-88898841D01*
X155245175Y-88916182D01*
X155034319Y-88984693D01*
X154836784Y-89085343D01*
X154781295Y-89125659D01*
X154657424Y-89215657D01*
X154657422Y-89215659D01*
X154657421Y-89215659D01*
X154500659Y-89372421D01*
X154500659Y-89372422D01*
X154500657Y-89372424D01*
X154499747Y-89373677D01*
X154370343Y-89551784D01*
X154269693Y-89749319D01*
X154201182Y-89960175D01*
X154190708Y-90026306D01*
X154166500Y-90179149D01*
X147723659Y-90179149D01*
X147629930Y-90050142D01*
X147489858Y-89910070D01*
X147329598Y-89793634D01*
X147157046Y-89705714D01*
X147106250Y-89657739D01*
X147089455Y-89589918D01*
X147111993Y-89523783D01*
X147157047Y-89484744D01*
X147325141Y-89399097D01*
X147360125Y-89373678D01*
X147360126Y-89373678D01*
X146716448Y-88730000D01*
X146722661Y-88730000D01*
X146824394Y-88702741D01*
X146915606Y-88650080D01*
X146990080Y-88575606D01*
X147042741Y-88484394D01*
X147070000Y-88382661D01*
X147070000Y-88376448D01*
X147713678Y-89020126D01*
X147713678Y-89020125D01*
X147739095Y-88985143D01*
X147828418Y-88809835D01*
X147889221Y-88622705D01*
X147920000Y-88428382D01*
X147920000Y-88231617D01*
X147889221Y-88037294D01*
X147828418Y-87850164D01*
X147739096Y-87674858D01*
X147713678Y-87639873D01*
X147713677Y-87639873D01*
X147070000Y-88283551D01*
X147070000Y-88277339D01*
X147042741Y-88175606D01*
X146990080Y-88084394D01*
X146915606Y-88009920D01*
X146824394Y-87957259D01*
X146722661Y-87930000D01*
X146716447Y-87930000D01*
X147360125Y-87286320D01*
X147360125Y-87286319D01*
X147325145Y-87260905D01*
X147149835Y-87171581D01*
X146962705Y-87110778D01*
X146768382Y-87080000D01*
X146571618Y-87080000D01*
X146377294Y-87110778D01*
X146190161Y-87171582D01*
X146014863Y-87260899D01*
X146014859Y-87260902D01*
X145979873Y-87286320D01*
X145979872Y-87286320D01*
X146623554Y-87930000D01*
X146617339Y-87930000D01*
X146515606Y-87957259D01*
X146424394Y-88009920D01*
X146349920Y-88084394D01*
X146297259Y-88175606D01*
X146270000Y-88277339D01*
X146270000Y-88283552D01*
X145626320Y-87639872D01*
X145626320Y-87639873D01*
X145600902Y-87674859D01*
X145600899Y-87674863D01*
X145511582Y-87850161D01*
X145450778Y-88037294D01*
X145420000Y-88231617D01*
X145420000Y-88428382D01*
X145450778Y-88622705D01*
X145511581Y-88809835D01*
X145600905Y-88985145D01*
X145626319Y-89020125D01*
X145626320Y-89020125D01*
X146270000Y-88376445D01*
X146270000Y-88382661D01*
X146297259Y-88484394D01*
X146349920Y-88575606D01*
X146424394Y-88650080D01*
X146515606Y-88702741D01*
X146617339Y-88730000D01*
X146623553Y-88730000D01*
X145979873Y-89373677D01*
X145979873Y-89373678D01*
X146014858Y-89399096D01*
X146182953Y-89484744D01*
X146233749Y-89532718D01*
X146250544Y-89600539D01*
X146228007Y-89666674D01*
X146182953Y-89705714D01*
X146010401Y-89793634D01*
X145946585Y-89840000D01*
X145850142Y-89910070D01*
X145850140Y-89910072D01*
X145850139Y-89910072D01*
X145710072Y-90050139D01*
X145710072Y-90050140D01*
X145710070Y-90050142D01*
X145681730Y-90089149D01*
X145593634Y-90210401D01*
X145503703Y-90386898D01*
X145442487Y-90575299D01*
X145411500Y-90770948D01*
X136532016Y-90770948D01*
X136516204Y-90759111D01*
X136516202Y-90759110D01*
X136516204Y-90759110D01*
X136395375Y-90714043D01*
X136339441Y-90672172D01*
X136315025Y-90606707D01*
X136329877Y-90538434D01*
X136351022Y-90510187D01*
X136456206Y-90405004D01*
X136581894Y-90232009D01*
X136678972Y-90041483D01*
X136745049Y-89838116D01*
X136778500Y-89626916D01*
X136778500Y-89413084D01*
X136745049Y-89201884D01*
X136698271Y-89057913D01*
X136678973Y-88998519D01*
X136678972Y-88998516D01*
X136619349Y-88881500D01*
X136581894Y-88807991D01*
X136456206Y-88634996D01*
X136305004Y-88483794D01*
X136132009Y-88358106D01*
X136132010Y-88358106D01*
X136132008Y-88358105D01*
X136127311Y-88355712D01*
X136123160Y-88351791D01*
X136117665Y-88350240D01*
X136098039Y-88328063D01*
X136076517Y-88307735D01*
X136075144Y-88302193D01*
X136071360Y-88297917D01*
X136066839Y-88268650D01*
X136059724Y-88239914D01*
X136061565Y-88234510D01*
X136060694Y-88228866D01*
X136072713Y-88201801D01*
X136082264Y-88173780D01*
X136087340Y-88168865D01*
X136089053Y-88165010D01*
X136101457Y-88155198D01*
X136115484Y-88141620D01*
X136141160Y-88124736D01*
X136181716Y-88095270D01*
X136181717Y-88095270D01*
X135549408Y-87462962D01*
X135612993Y-87445925D01*
X135727007Y-87380099D01*
X135820099Y-87287007D01*
X135885925Y-87172993D01*
X135902962Y-87109408D01*
X136535270Y-87741717D01*
X136535270Y-87741716D01*
X136574622Y-87687554D01*
X136671095Y-87498217D01*
X136736756Y-87296133D01*
X136736757Y-87296127D01*
X136770000Y-87086246D01*
X136770000Y-86873753D01*
X136736757Y-86663872D01*
X136736757Y-86663869D01*
X136671095Y-86461782D01*
X136574624Y-86272449D01*
X136535270Y-86218282D01*
X136535269Y-86218282D01*
X135902962Y-86850590D01*
X135885925Y-86787007D01*
X135820099Y-86672993D01*
X135727007Y-86579901D01*
X135612993Y-86514075D01*
X135549409Y-86497037D01*
X136181716Y-85864728D01*
X136127547Y-85825373D01*
X136127545Y-85825371D01*
X136127308Y-85825251D01*
X136127234Y-85825181D01*
X136123396Y-85822829D01*
X136123890Y-85822022D01*
X136076515Y-85777274D01*
X136059724Y-85709451D01*
X136082266Y-85643318D01*
X136127319Y-85604283D01*
X136132009Y-85601894D01*
X136305004Y-85476206D01*
X136456206Y-85325004D01*
X136581894Y-85152009D01*
X136678972Y-84961483D01*
X136745049Y-84758116D01*
X136778500Y-84546916D01*
X136778500Y-84333084D01*
X136745049Y-84121884D01*
X136712010Y-84020200D01*
X136678973Y-83918519D01*
X136678972Y-83918516D01*
X136613044Y-83789126D01*
X136581894Y-83727991D01*
X136456206Y-83554996D01*
X136305004Y-83403794D01*
X136132009Y-83278106D01*
X136132005Y-83278103D01*
X136128132Y-83275730D01*
X136081254Y-83223920D01*
X136069829Y-83154991D01*
X136097483Y-83090827D01*
X136128132Y-83064270D01*
X136132005Y-83061896D01*
X136132004Y-83061896D01*
X136132009Y-83061894D01*
X136305004Y-82936206D01*
X136456206Y-82785004D01*
X136581894Y-82612009D01*
X136678972Y-82421483D01*
X136745049Y-82218116D01*
X136778500Y-82006916D01*
X136778500Y-81793084D01*
X136745049Y-81581884D01*
X136682729Y-81390080D01*
X136678973Y-81378519D01*
X136678972Y-81378516D01*
X136581893Y-81187990D01*
X136523827Y-81108069D01*
X136456206Y-81014996D01*
X136305004Y-80863794D01*
X136132009Y-80738106D01*
X136132005Y-80738103D01*
X136128132Y-80735730D01*
X136081254Y-80683920D01*
X136069829Y-80614991D01*
X136097483Y-80550827D01*
X136128132Y-80524270D01*
X136132005Y-80521896D01*
X136132004Y-80521896D01*
X136132009Y-80521894D01*
X136305004Y-80396206D01*
X136456206Y-80245004D01*
X136581894Y-80072009D01*
X136678972Y-79881483D01*
X136745049Y-79678116D01*
X136778500Y-79466916D01*
X136778500Y-79253084D01*
X136745049Y-79041884D01*
X136684227Y-78854689D01*
X136678973Y-78838519D01*
X136678972Y-78838516D01*
X136581893Y-78647990D01*
X136523827Y-78568069D01*
X136456206Y-78474996D01*
X136305004Y-78323794D01*
X136132009Y-78198106D01*
X136132005Y-78198103D01*
X136128132Y-78195730D01*
X136081254Y-78143920D01*
X136069829Y-78074991D01*
X136097483Y-78010827D01*
X136128132Y-77984270D01*
X136132005Y-77981896D01*
X136132004Y-77981896D01*
X136132009Y-77981894D01*
X136305004Y-77856206D01*
X136456206Y-77705004D01*
X136581894Y-77532009D01*
X136678972Y-77341483D01*
X136745049Y-77138116D01*
X136778500Y-76926916D01*
X136778500Y-76713084D01*
X136745049Y-76501884D01*
X136691963Y-76338499D01*
X136678973Y-76298519D01*
X136678972Y-76298516D01*
X136581893Y-76107990D01*
X136538357Y-76048068D01*
X136456206Y-75934996D01*
X136305004Y-75783794D01*
X136132009Y-75658106D01*
X135941483Y-75561027D01*
X135941480Y-75561026D01*
X135738117Y-75494951D01*
X135632516Y-75478225D01*
X135526916Y-75461500D01*
X135313084Y-75461500D01*
X135242684Y-75472650D01*
X135101882Y-75494951D01*
X134898519Y-75561026D01*
X134898516Y-75561027D01*
X134707990Y-75658106D01*
X134534993Y-75783796D01*
X134383796Y-75934993D01*
X134258106Y-76107990D01*
X134161027Y-76298516D01*
X134161026Y-76298519D01*
X134094951Y-76501882D01*
X134061500Y-76713084D01*
X115353688Y-76713084D01*
X115353688Y-76708204D01*
X115353701Y-76501882D01*
X115353827Y-74429447D01*
X148476500Y-74429447D01*
X148476500Y-75630537D01*
X148476501Y-75630553D01*
X148487113Y-75734427D01*
X148503472Y-75783796D01*
X148542885Y-75902738D01*
X148635970Y-76053652D01*
X148761348Y-76179030D01*
X148912262Y-76272115D01*
X148980255Y-76294645D01*
X149037700Y-76334417D01*
X149064524Y-76398933D01*
X149052209Y-76467709D01*
X149014137Y-76512669D01*
X148932576Y-76571926D01*
X148932571Y-76571930D01*
X148786930Y-76717571D01*
X148786926Y-76717576D01*
X148665873Y-76884193D01*
X148572367Y-77067705D01*
X148508719Y-77263591D01*
X148476500Y-77467019D01*
X148476500Y-77672980D01*
X148508719Y-77876408D01*
X148572367Y-78072294D01*
X148665873Y-78255806D01*
X148786926Y-78422423D01*
X148786930Y-78422428D01*
X148932571Y-78568069D01*
X148932576Y-78568073D01*
X149099195Y-78689128D01*
X149178459Y-78729516D01*
X149229254Y-78777490D01*
X149246049Y-78845311D01*
X149223511Y-78911446D01*
X149178459Y-78950484D01*
X149099195Y-78990871D01*
X148932576Y-79111926D01*
X148932571Y-79111930D01*
X148786930Y-79257571D01*
X148786926Y-79257576D01*
X148665873Y-79424193D01*
X148572367Y-79607705D01*
X148508719Y-79803591D01*
X148476500Y-80007019D01*
X148476500Y-80212980D01*
X148508719Y-80416408D01*
X148572367Y-80612294D01*
X148665873Y-80795806D01*
X148786926Y-80962423D01*
X148786930Y-80962428D01*
X148932571Y-81108069D01*
X148932576Y-81108073D01*
X149042574Y-81187990D01*
X149099197Y-81229129D01*
X149187819Y-81274284D01*
X149238615Y-81322259D01*
X149255410Y-81390080D01*
X149232873Y-81456214D01*
X149187819Y-81495254D01*
X149103650Y-81538140D01*
X148938105Y-81658417D01*
X148938104Y-81658417D01*
X148793417Y-81803104D01*
X148793417Y-81803105D01*
X148673140Y-81968650D01*
X148580244Y-82150970D01*
X148517009Y-82345586D01*
X148508391Y-82400000D01*
X149869314Y-82400000D01*
X149864920Y-82404394D01*
X149812259Y-82495606D01*
X149785000Y-82597339D01*
X149785000Y-82702661D01*
X149812259Y-82804394D01*
X149864920Y-82895606D01*
X149869314Y-82900000D01*
X148508391Y-82900000D01*
X148517009Y-82954413D01*
X148580244Y-83149029D01*
X148673140Y-83331349D01*
X148793417Y-83496894D01*
X148793417Y-83496895D01*
X148938104Y-83641582D01*
X149103650Y-83761859D01*
X149285968Y-83854755D01*
X149480582Y-83917990D01*
X149682683Y-83950000D01*
X149935000Y-83950000D01*
X149935000Y-82965686D01*
X149939394Y-82970080D01*
X150030606Y-83022741D01*
X150132339Y-83050000D01*
X150237661Y-83050000D01*
X150339394Y-83022741D01*
X150430606Y-82970080D01*
X150435000Y-82965686D01*
X150435000Y-83950000D01*
X150687317Y-83950000D01*
X150889417Y-83917990D01*
X151084031Y-83854755D01*
X151266349Y-83761859D01*
X151431894Y-83641582D01*
X151431895Y-83641582D01*
X151576582Y-83496895D01*
X151576582Y-83496894D01*
X151696859Y-83331349D01*
X151789755Y-83149029D01*
X151852990Y-82954413D01*
X151861609Y-82900000D01*
X150500686Y-82900000D01*
X150505080Y-82895606D01*
X150557741Y-82804394D01*
X150585000Y-82702661D01*
X150585000Y-82597339D01*
X150557741Y-82495606D01*
X150505080Y-82404394D01*
X150500686Y-82400000D01*
X151861609Y-82400000D01*
X151852990Y-82345586D01*
X151789755Y-82150970D01*
X151696859Y-81968650D01*
X151576582Y-81803105D01*
X151576582Y-81803104D01*
X151431895Y-81658417D01*
X151266349Y-81538140D01*
X151182180Y-81495254D01*
X151131384Y-81447280D01*
X151114589Y-81379459D01*
X151137126Y-81313324D01*
X151182179Y-81274284D01*
X151270803Y-81229129D01*
X151437430Y-81108068D01*
X151583068Y-80962430D01*
X151704129Y-80795803D01*
X151797634Y-80612290D01*
X151861280Y-80416408D01*
X151893500Y-80212981D01*
X151893500Y-80007019D01*
X151861280Y-79803592D01*
X151797634Y-79607710D01*
X151797632Y-79607707D01*
X151797632Y-79607705D01*
X151763709Y-79541128D01*
X151704129Y-79424197D01*
X151688661Y-79402908D01*
X151583073Y-79257576D01*
X151583069Y-79257571D01*
X151437428Y-79111930D01*
X151437423Y-79111926D01*
X151270806Y-78990873D01*
X151270805Y-78990872D01*
X151270803Y-78990871D01*
X151191540Y-78950484D01*
X151140745Y-78902510D01*
X151123950Y-78834689D01*
X151146487Y-78768554D01*
X151191541Y-78729515D01*
X151270803Y-78689129D01*
X151437430Y-78568068D01*
X151583068Y-78422430D01*
X151704129Y-78255803D01*
X151797634Y-78072290D01*
X151861280Y-77876408D01*
X151893500Y-77672981D01*
X151893500Y-77467019D01*
X151861280Y-77263592D01*
X151797634Y-77067710D01*
X151797632Y-77067707D01*
X151797632Y-77067705D01*
X151763709Y-77001128D01*
X151704129Y-76884197D01*
X151688661Y-76862908D01*
X151583073Y-76717576D01*
X151583069Y-76717571D01*
X151437424Y-76571926D01*
X151355862Y-76512669D01*
X151313196Y-76457340D01*
X151307217Y-76387726D01*
X151339822Y-76325931D01*
X151389742Y-76294646D01*
X151457738Y-76272115D01*
X151608652Y-76179030D01*
X151734030Y-76053652D01*
X151827115Y-75902738D01*
X151882887Y-75734426D01*
X151893500Y-75630545D01*
X151893499Y-74947019D01*
X161556500Y-74947019D01*
X161556500Y-75152980D01*
X161588719Y-75356408D01*
X161652367Y-75552294D01*
X161692243Y-75630553D01*
X161745169Y-75734426D01*
X161745873Y-75735806D01*
X161866926Y-75902423D01*
X161866930Y-75902428D01*
X162012571Y-76048069D01*
X162012576Y-76048073D01*
X162179195Y-76169128D01*
X162258459Y-76209516D01*
X162309254Y-76257490D01*
X162326049Y-76325311D01*
X162303511Y-76391446D01*
X162258459Y-76430484D01*
X162179195Y-76470871D01*
X162012576Y-76591926D01*
X162012571Y-76591930D01*
X161866930Y-76737571D01*
X161866926Y-76737576D01*
X161745873Y-76904193D01*
X161652367Y-77087705D01*
X161588719Y-77283591D01*
X161556500Y-77487019D01*
X161556500Y-77692980D01*
X161588719Y-77896408D01*
X161652367Y-78092294D01*
X161706281Y-78198103D01*
X161735680Y-78255803D01*
X161745873Y-78275806D01*
X161866926Y-78442423D01*
X161866930Y-78442428D01*
X162012571Y-78588069D01*
X162012576Y-78588073D01*
X162179195Y-78709128D01*
X162258459Y-78749516D01*
X162309254Y-78797490D01*
X162326049Y-78865311D01*
X162303511Y-78931446D01*
X162258459Y-78970484D01*
X162179195Y-79010871D01*
X162012576Y-79131926D01*
X162012571Y-79131930D01*
X161866930Y-79277571D01*
X161866926Y-79277576D01*
X161745873Y-79444193D01*
X161652367Y-79627705D01*
X161588719Y-79823591D01*
X161556500Y-80027019D01*
X161556500Y-80232980D01*
X161588719Y-80436408D01*
X161652367Y-80632294D01*
X161706281Y-80738103D01*
X161735680Y-80795803D01*
X161745873Y-80815806D01*
X161866926Y-80982423D01*
X161866930Y-80982428D01*
X162012571Y-81128069D01*
X162012576Y-81128073D01*
X162179195Y-81249128D01*
X162258459Y-81289516D01*
X162309254Y-81337490D01*
X162326049Y-81405311D01*
X162303511Y-81471446D01*
X162258459Y-81510484D01*
X162179195Y-81550871D01*
X162012576Y-81671926D01*
X162012571Y-81671930D01*
X161866930Y-81817571D01*
X161866926Y-81817576D01*
X161745873Y-81984193D01*
X161652367Y-82167705D01*
X161588719Y-82363591D01*
X161556500Y-82567019D01*
X161556500Y-82772980D01*
X161588719Y-82976408D01*
X161652367Y-83172294D01*
X161745873Y-83355806D01*
X161866926Y-83522423D01*
X161866930Y-83522428D01*
X162012571Y-83668069D01*
X162012576Y-83668073D01*
X162095046Y-83727990D01*
X162179197Y-83789129D01*
X162296128Y-83848709D01*
X162362705Y-83882632D01*
X162362707Y-83882632D01*
X162362710Y-83882634D01*
X162467707Y-83916749D01*
X162558591Y-83946280D01*
X162660305Y-83962390D01*
X162762019Y-83978500D01*
X162762020Y-83978500D01*
X163767980Y-83978500D01*
X163767981Y-83978500D01*
X163971408Y-83946280D01*
X164167290Y-83882634D01*
X164350803Y-83789129D01*
X164517430Y-83668068D01*
X164663068Y-83522430D01*
X164784129Y-83355803D01*
X164877634Y-83172290D01*
X164941280Y-82976408D01*
X164973500Y-82772981D01*
X164973500Y-82567019D01*
X164950449Y-82421480D01*
X164941280Y-82363591D01*
X164877632Y-82167705D01*
X164843709Y-82101128D01*
X164784129Y-81984197D01*
X164768661Y-81962908D01*
X164663073Y-81817576D01*
X164663069Y-81817571D01*
X164517428Y-81671930D01*
X164517423Y-81671926D01*
X164350806Y-81550873D01*
X164350805Y-81550872D01*
X164350803Y-81550871D01*
X164271540Y-81510484D01*
X164220745Y-81462510D01*
X164203950Y-81394689D01*
X164226487Y-81328554D01*
X164271541Y-81289515D01*
X164350803Y-81249129D01*
X164517430Y-81128068D01*
X164663068Y-80982430D01*
X164784129Y-80815803D01*
X164877634Y-80632290D01*
X164941280Y-80436408D01*
X164973500Y-80232981D01*
X164973500Y-80027019D01*
X164941280Y-79823592D01*
X164934781Y-79803591D01*
X164877632Y-79627705D01*
X164843709Y-79561128D01*
X164784129Y-79444197D01*
X164768661Y-79422908D01*
X164663073Y-79277576D01*
X164663069Y-79277571D01*
X164517428Y-79131930D01*
X164517423Y-79131926D01*
X164350806Y-79010873D01*
X164350805Y-79010872D01*
X164350803Y-79010871D01*
X164271540Y-78970484D01*
X164220745Y-78922510D01*
X164203950Y-78854689D01*
X164226487Y-78788554D01*
X164271541Y-78749515D01*
X164350803Y-78709129D01*
X164517430Y-78588068D01*
X164663068Y-78442430D01*
X164784129Y-78275803D01*
X164877634Y-78092290D01*
X164941280Y-77896408D01*
X164973500Y-77692981D01*
X164973500Y-77487019D01*
X164941280Y-77283592D01*
X164934781Y-77263591D01*
X164877632Y-77087705D01*
X164843709Y-77021128D01*
X164784129Y-76904197D01*
X164768661Y-76882908D01*
X164663073Y-76737576D01*
X164663069Y-76737571D01*
X164517428Y-76591930D01*
X164517423Y-76591926D01*
X164350806Y-76470873D01*
X164350805Y-76470872D01*
X164350803Y-76470871D01*
X164271540Y-76430484D01*
X164220745Y-76382510D01*
X164203950Y-76314689D01*
X164226487Y-76248554D01*
X164271541Y-76209515D01*
X164350803Y-76169129D01*
X164517430Y-76048068D01*
X164663068Y-75902430D01*
X164784129Y-75735803D01*
X164877634Y-75552290D01*
X164941280Y-75356408D01*
X164973500Y-75152981D01*
X164973500Y-74947019D01*
X164941280Y-74743592D01*
X164877634Y-74547710D01*
X164877632Y-74547707D01*
X164877632Y-74547705D01*
X164817380Y-74429456D01*
X164784129Y-74364197D01*
X164756068Y-74325574D01*
X164663073Y-74197576D01*
X164663069Y-74197571D01*
X164517428Y-74051930D01*
X164517423Y-74051926D01*
X164350806Y-73930873D01*
X164350805Y-73930872D01*
X164350803Y-73930871D01*
X164293496Y-73901671D01*
X164167294Y-73837367D01*
X163971408Y-73773719D01*
X163795794Y-73745905D01*
X163767981Y-73741500D01*
X162762019Y-73741500D01*
X162737550Y-73745375D01*
X162558591Y-73773719D01*
X162362705Y-73837367D01*
X162179193Y-73930873D01*
X162012576Y-74051926D01*
X162012571Y-74051930D01*
X161866930Y-74197571D01*
X161866926Y-74197576D01*
X161745873Y-74364193D01*
X161652367Y-74547705D01*
X161588719Y-74743591D01*
X161556500Y-74947019D01*
X151893499Y-74947019D01*
X151893499Y-74429456D01*
X151882887Y-74325574D01*
X151827115Y-74157262D01*
X151734030Y-74006348D01*
X151608652Y-73880970D01*
X151457738Y-73787885D01*
X151317755Y-73741500D01*
X151289427Y-73732113D01*
X151185545Y-73721500D01*
X149184462Y-73721500D01*
X149184446Y-73721501D01*
X149080572Y-73732113D01*
X148912264Y-73787884D01*
X148912259Y-73787886D01*
X148761346Y-73880971D01*
X148635971Y-74006346D01*
X148542886Y-74157259D01*
X148542884Y-74157264D01*
X148487113Y-74325572D01*
X148476500Y-74429447D01*
X115353827Y-74429447D01*
X115354787Y-58691345D01*
X135401500Y-58691345D01*
X135401500Y-60488654D01*
X135408011Y-60549202D01*
X135408011Y-60549204D01*
X135459111Y-60686204D01*
X135546739Y-60803261D01*
X135663796Y-60890889D01*
X135800799Y-60941989D01*
X135828050Y-60944918D01*
X135861345Y-60948499D01*
X135861362Y-60948500D01*
X135880692Y-60948500D01*
X135947731Y-60968185D01*
X135968373Y-60984819D01*
X136630591Y-61647037D01*
X136567007Y-61664075D01*
X136452993Y-61729901D01*
X136359901Y-61822993D01*
X136294075Y-61937007D01*
X136277037Y-62000591D01*
X135644728Y-61368282D01*
X135644727Y-61368282D01*
X135605380Y-61422439D01*
X135508904Y-61611782D01*
X135443242Y-61813869D01*
X135443242Y-61813872D01*
X135410000Y-62023753D01*
X135410000Y-62236246D01*
X135443242Y-62446127D01*
X135443242Y-62446130D01*
X135508904Y-62648217D01*
X135605375Y-62837550D01*
X135644728Y-62891716D01*
X136277037Y-62259408D01*
X136294075Y-62322993D01*
X136359901Y-62437007D01*
X136452993Y-62530099D01*
X136567007Y-62595925D01*
X136630590Y-62612962D01*
X135998282Y-63245269D01*
X135998282Y-63245270D01*
X136052449Y-63284624D01*
X136052682Y-63284743D01*
X136052755Y-63284812D01*
X136056604Y-63287171D01*
X136056108Y-63287979D01*
X136103479Y-63332716D01*
X136120275Y-63400537D01*
X136097739Y-63466672D01*
X136052693Y-63505709D01*
X136047994Y-63508103D01*
X135874993Y-63633796D01*
X135723796Y-63784993D01*
X135598106Y-63957990D01*
X135501027Y-64148516D01*
X135501026Y-64148519D01*
X135434951Y-64351882D01*
X135401500Y-64563084D01*
X135401500Y-64776915D01*
X135434951Y-64988117D01*
X135501026Y-65191480D01*
X135501027Y-65191483D01*
X135598106Y-65382009D01*
X135723794Y-65555004D01*
X135874996Y-65706206D01*
X136047991Y-65831894D01*
X136051873Y-65834273D01*
X136098748Y-65886086D01*
X136110169Y-65955016D01*
X136082512Y-66019178D01*
X136051873Y-66045727D01*
X136047991Y-66048105D01*
X135874993Y-66173796D01*
X135723796Y-66324993D01*
X135598106Y-66497990D01*
X135501027Y-66688516D01*
X135501026Y-66688519D01*
X135434951Y-66891882D01*
X135401500Y-67103084D01*
X135401500Y-67316915D01*
X135434951Y-67528117D01*
X135501026Y-67731480D01*
X135501027Y-67731483D01*
X135598106Y-67922009D01*
X135723794Y-68095004D01*
X135874996Y-68246206D01*
X136047991Y-68371894D01*
X136051873Y-68374273D01*
X136098748Y-68426086D01*
X136110169Y-68495016D01*
X136082512Y-68559178D01*
X136051873Y-68585727D01*
X136047991Y-68588105D01*
X135874993Y-68713796D01*
X135723796Y-68864993D01*
X135598106Y-69037990D01*
X135501027Y-69228516D01*
X135501026Y-69228519D01*
X135434951Y-69431882D01*
X135401500Y-69643084D01*
X135401500Y-69856915D01*
X135434951Y-70068117D01*
X135501026Y-70271480D01*
X135501027Y-70271483D01*
X135598106Y-70462009D01*
X135723794Y-70635004D01*
X135874996Y-70786206D01*
X136047991Y-70911894D01*
X136051873Y-70914273D01*
X136098748Y-70966086D01*
X136110169Y-71035016D01*
X136082512Y-71099178D01*
X136051873Y-71125727D01*
X136047991Y-71128105D01*
X135874993Y-71253796D01*
X135723796Y-71404993D01*
X135598106Y-71577990D01*
X135501027Y-71768516D01*
X135501026Y-71768519D01*
X135434951Y-71971882D01*
X135401500Y-72183084D01*
X135401500Y-72396915D01*
X135434951Y-72608117D01*
X135501026Y-72811480D01*
X135501027Y-72811483D01*
X135598106Y-73002009D01*
X135723794Y-73175004D01*
X135874996Y-73326206D01*
X136047991Y-73451894D01*
X136141438Y-73499507D01*
X136238516Y-73548972D01*
X136238519Y-73548973D01*
X136340200Y-73582010D01*
X136441884Y-73615049D01*
X136653084Y-73648500D01*
X136653085Y-73648500D01*
X136866915Y-73648500D01*
X136866916Y-73648500D01*
X137078116Y-73615049D01*
X137281483Y-73548972D01*
X137472009Y-73451894D01*
X137645004Y-73326206D01*
X137796206Y-73175004D01*
X137921894Y-73002009D01*
X138018972Y-72811483D01*
X138085049Y-72608116D01*
X138118500Y-72396916D01*
X138118500Y-72183084D01*
X138085049Y-71971884D01*
X138018972Y-71768517D01*
X138018972Y-71768516D01*
X137921893Y-71577990D01*
X137796206Y-71404996D01*
X137645004Y-71253794D01*
X137472009Y-71128106D01*
X137472005Y-71128103D01*
X137468132Y-71125730D01*
X137421254Y-71073920D01*
X137409829Y-71004991D01*
X137437483Y-70940827D01*
X137468132Y-70914270D01*
X137472005Y-70911896D01*
X137472004Y-70911896D01*
X137472009Y-70911894D01*
X137645004Y-70786206D01*
X137796206Y-70635004D01*
X137921894Y-70462009D01*
X138018972Y-70271483D01*
X138073103Y-70104883D01*
X144431500Y-70104883D01*
X144431500Y-70295116D01*
X144461256Y-70482991D01*
X144520040Y-70663907D01*
X144606398Y-70833392D01*
X144718208Y-70987285D01*
X144852715Y-71121792D01*
X145006608Y-71233602D01*
X145046237Y-71253794D01*
X145176092Y-71319959D01*
X145176094Y-71319959D01*
X145176097Y-71319961D01*
X145237651Y-71339961D01*
X145357008Y-71378743D01*
X145544884Y-71408500D01*
X145544889Y-71408500D01*
X145735116Y-71408500D01*
X145922991Y-71378743D01*
X145950025Y-71369959D01*
X146103903Y-71319961D01*
X146273392Y-71233602D01*
X146427285Y-71121792D01*
X146561792Y-70987285D01*
X146673602Y-70833392D01*
X146759961Y-70663903D01*
X146818743Y-70482991D01*
X146822066Y-70462009D01*
X146848500Y-70295116D01*
X146848500Y-70104883D01*
X147851500Y-70104883D01*
X147851500Y-70295116D01*
X147881256Y-70482991D01*
X147940040Y-70663907D01*
X148026398Y-70833392D01*
X148138208Y-70987285D01*
X148272715Y-71121792D01*
X148426608Y-71233602D01*
X148466237Y-71253794D01*
X148596092Y-71319959D01*
X148596094Y-71319959D01*
X148596097Y-71319961D01*
X148657651Y-71339961D01*
X148777008Y-71378743D01*
X148964884Y-71408500D01*
X148964889Y-71408500D01*
X149155116Y-71408500D01*
X149342991Y-71378743D01*
X149370025Y-71369959D01*
X149523903Y-71319961D01*
X149693392Y-71233602D01*
X149847285Y-71121792D01*
X149981792Y-70987285D01*
X150093602Y-70833392D01*
X150179961Y-70663903D01*
X150238743Y-70482991D01*
X150242066Y-70462009D01*
X150268500Y-70295116D01*
X150268500Y-70104883D01*
X151221500Y-70104883D01*
X151221500Y-70295116D01*
X151251256Y-70482991D01*
X151310040Y-70663907D01*
X151396398Y-70833392D01*
X151508208Y-70987285D01*
X151642715Y-71121792D01*
X151796608Y-71233602D01*
X151836237Y-71253794D01*
X151966092Y-71319959D01*
X151966094Y-71319959D01*
X151966097Y-71319961D01*
X152027651Y-71339961D01*
X152147008Y-71378743D01*
X152334884Y-71408500D01*
X152334889Y-71408500D01*
X152525116Y-71408500D01*
X152712991Y-71378743D01*
X152740025Y-71369959D01*
X152893903Y-71319961D01*
X153063392Y-71233602D01*
X153217285Y-71121792D01*
X153351792Y-70987285D01*
X153463602Y-70833392D01*
X153549961Y-70663903D01*
X153608743Y-70482991D01*
X153612066Y-70462009D01*
X153638500Y-70295116D01*
X153638500Y-70154883D01*
X154591500Y-70154883D01*
X154591500Y-70345116D01*
X154621256Y-70532991D01*
X154680040Y-70713907D01*
X154751112Y-70853392D01*
X154766398Y-70883392D01*
X154878208Y-71037285D01*
X155012715Y-71171792D01*
X155166608Y-71283602D01*
X155237963Y-71319959D01*
X155336092Y-71369959D01*
X155336094Y-71369959D01*
X155336097Y-71369961D01*
X155424679Y-71398743D01*
X155517008Y-71428743D01*
X155704884Y-71458500D01*
X155704889Y-71458500D01*
X155895116Y-71458500D01*
X156082991Y-71428743D01*
X156145292Y-71408500D01*
X156263903Y-71369961D01*
X156433392Y-71283602D01*
X156587285Y-71171792D01*
X156721792Y-71037285D01*
X156833602Y-70883392D01*
X156919961Y-70713903D01*
X156978743Y-70532991D01*
X157008500Y-70345116D01*
X157008500Y-70154883D01*
X157006050Y-70139415D01*
X157003748Y-70124883D01*
X157911500Y-70124883D01*
X157911500Y-70315116D01*
X157941256Y-70502991D01*
X158000040Y-70683907D01*
X158052163Y-70786203D01*
X158086398Y-70853392D01*
X158198208Y-71007285D01*
X158332715Y-71141792D01*
X158486608Y-71253602D01*
X158566683Y-71294402D01*
X158656092Y-71339959D01*
X158656094Y-71339959D01*
X158656097Y-71339961D01*
X158748421Y-71369959D01*
X158837008Y-71398743D01*
X159024884Y-71428500D01*
X159024889Y-71428500D01*
X159215116Y-71428500D01*
X159402991Y-71398743D01*
X159583903Y-71339961D01*
X159753392Y-71253602D01*
X159907285Y-71141792D01*
X160041792Y-71007285D01*
X160153602Y-70853392D01*
X160239961Y-70683903D01*
X160298743Y-70502991D01*
X160323749Y-70345111D01*
X160328500Y-70315116D01*
X160328500Y-70124883D01*
X161291500Y-70124883D01*
X161291500Y-70315116D01*
X161321256Y-70502991D01*
X161380040Y-70683907D01*
X161432163Y-70786203D01*
X161466398Y-70853392D01*
X161578208Y-71007285D01*
X161712715Y-71141792D01*
X161866608Y-71253602D01*
X161946683Y-71294402D01*
X162036092Y-71339959D01*
X162036094Y-71339959D01*
X162036097Y-71339961D01*
X162128421Y-71369959D01*
X162217008Y-71398743D01*
X162404884Y-71428500D01*
X162404889Y-71428500D01*
X162595116Y-71428500D01*
X162782991Y-71398743D01*
X162963903Y-71339961D01*
X163133392Y-71253602D01*
X163287285Y-71141792D01*
X163421792Y-71007285D01*
X163533602Y-70853392D01*
X163619961Y-70683903D01*
X163678743Y-70502991D01*
X163703749Y-70345111D01*
X163708500Y-70315116D01*
X163708500Y-70124883D01*
X163678743Y-69937008D01*
X163651469Y-69853070D01*
X163619961Y-69756097D01*
X163619959Y-69756094D01*
X163619959Y-69756092D01*
X163562378Y-69643084D01*
X163533602Y-69586608D01*
X163421792Y-69432715D01*
X163287285Y-69298208D01*
X163133392Y-69186398D01*
X163094140Y-69166398D01*
X162963907Y-69100040D01*
X162782991Y-69041256D01*
X162595116Y-69011500D01*
X162595111Y-69011500D01*
X162404889Y-69011500D01*
X162404884Y-69011500D01*
X162217008Y-69041256D01*
X162036092Y-69100040D01*
X161866607Y-69186398D01*
X161778806Y-69250189D01*
X161712715Y-69298208D01*
X161712713Y-69298210D01*
X161712712Y-69298210D01*
X161578210Y-69432712D01*
X161578210Y-69432713D01*
X161578208Y-69432715D01*
X161556414Y-69462712D01*
X161466398Y-69586607D01*
X161380040Y-69756092D01*
X161321256Y-69937008D01*
X161291500Y-70124883D01*
X160328500Y-70124883D01*
X160298743Y-69937008D01*
X160271469Y-69853070D01*
X160239961Y-69756097D01*
X160239959Y-69756094D01*
X160239959Y-69756092D01*
X160182378Y-69643084D01*
X160153602Y-69586608D01*
X160041792Y-69432715D01*
X159907285Y-69298208D01*
X159753392Y-69186398D01*
X159714140Y-69166398D01*
X159583907Y-69100040D01*
X159402991Y-69041256D01*
X159215116Y-69011500D01*
X159215111Y-69011500D01*
X159024889Y-69011500D01*
X159024884Y-69011500D01*
X158837008Y-69041256D01*
X158656092Y-69100040D01*
X158486607Y-69186398D01*
X158398806Y-69250189D01*
X158332715Y-69298208D01*
X158332713Y-69298210D01*
X158332712Y-69298210D01*
X158198210Y-69432712D01*
X158198210Y-69432713D01*
X158198208Y-69432715D01*
X158176414Y-69462712D01*
X158086398Y-69586607D01*
X158000040Y-69756092D01*
X157941256Y-69937008D01*
X157911500Y-70124883D01*
X157003748Y-70124883D01*
X156978743Y-69967008D01*
X156951469Y-69883070D01*
X156919961Y-69786097D01*
X156919959Y-69786094D01*
X156919959Y-69786092D01*
X156833601Y-69616607D01*
X156721792Y-69462715D01*
X156587285Y-69328208D01*
X156433392Y-69216398D01*
X156374514Y-69186398D01*
X156263907Y-69130040D01*
X156082991Y-69071256D01*
X155895116Y-69041500D01*
X155895111Y-69041500D01*
X155704889Y-69041500D01*
X155704884Y-69041500D01*
X155517008Y-69071256D01*
X155336092Y-69130040D01*
X155166607Y-69216398D01*
X155081534Y-69278208D01*
X155012715Y-69328208D01*
X155012713Y-69328210D01*
X155012712Y-69328210D01*
X154878210Y-69462712D01*
X154878210Y-69462713D01*
X154878208Y-69462715D01*
X154830189Y-69528806D01*
X154766398Y-69616607D01*
X154680040Y-69786092D01*
X154621256Y-69967008D01*
X154591500Y-70154883D01*
X153638500Y-70154883D01*
X153638500Y-70104883D01*
X153608743Y-69917008D01*
X153556459Y-69756097D01*
X153549961Y-69736097D01*
X153549959Y-69736094D01*
X153549959Y-69736092D01*
X153489078Y-69616607D01*
X153463602Y-69566608D01*
X153351792Y-69412715D01*
X153217285Y-69278208D01*
X153063392Y-69166398D01*
X152893907Y-69080040D01*
X152712991Y-69021256D01*
X152525116Y-68991500D01*
X152525111Y-68991500D01*
X152334889Y-68991500D01*
X152334884Y-68991500D01*
X152147008Y-69021256D01*
X151966092Y-69080040D01*
X151796607Y-69166398D01*
X151769080Y-69186398D01*
X151642715Y-69278208D01*
X151642713Y-69278210D01*
X151642712Y-69278210D01*
X151508210Y-69412712D01*
X151508210Y-69412713D01*
X151508208Y-69412715D01*
X151471883Y-69462712D01*
X151396398Y-69566607D01*
X151310040Y-69736092D01*
X151251256Y-69917008D01*
X151221500Y-70104883D01*
X150268500Y-70104883D01*
X150238743Y-69917008D01*
X150186459Y-69756097D01*
X150179961Y-69736097D01*
X150179959Y-69736094D01*
X150179959Y-69736092D01*
X150119078Y-69616607D01*
X150093602Y-69566608D01*
X149981792Y-69412715D01*
X149847285Y-69278208D01*
X149693392Y-69166398D01*
X149523907Y-69080040D01*
X149342991Y-69021256D01*
X149155116Y-68991500D01*
X149155111Y-68991500D01*
X148964889Y-68991500D01*
X148964884Y-68991500D01*
X148777008Y-69021256D01*
X148596092Y-69080040D01*
X148426607Y-69166398D01*
X148399080Y-69186398D01*
X148272715Y-69278208D01*
X148272713Y-69278210D01*
X148272712Y-69278210D01*
X148138210Y-69412712D01*
X148138210Y-69412713D01*
X148138208Y-69412715D01*
X148101883Y-69462712D01*
X148026398Y-69566607D01*
X147940040Y-69736092D01*
X147881256Y-69917008D01*
X147851500Y-70104883D01*
X146848500Y-70104883D01*
X146818743Y-69917008D01*
X146766459Y-69756097D01*
X146759961Y-69736097D01*
X146759959Y-69736094D01*
X146759959Y-69736092D01*
X146699078Y-69616607D01*
X146673602Y-69566608D01*
X146561792Y-69412715D01*
X146427285Y-69278208D01*
X146273392Y-69166398D01*
X146103907Y-69080040D01*
X145922991Y-69021256D01*
X145735116Y-68991500D01*
X145735111Y-68991500D01*
X145544889Y-68991500D01*
X145544884Y-68991500D01*
X145357008Y-69021256D01*
X145176092Y-69080040D01*
X145006607Y-69166398D01*
X144979080Y-69186398D01*
X144852715Y-69278208D01*
X144852713Y-69278210D01*
X144852712Y-69278210D01*
X144718210Y-69412712D01*
X144718210Y-69412713D01*
X144718208Y-69412715D01*
X144681883Y-69462712D01*
X144606398Y-69566607D01*
X144520040Y-69736092D01*
X144461256Y-69917008D01*
X144431500Y-70104883D01*
X138073103Y-70104883D01*
X138085049Y-70068116D01*
X138118500Y-69856916D01*
X138118500Y-69643084D01*
X138085049Y-69431884D01*
X138035118Y-69278210D01*
X138018973Y-69228519D01*
X138018972Y-69228516D01*
X137968795Y-69130039D01*
X137921894Y-69037991D01*
X137796206Y-68864996D01*
X137645004Y-68713794D01*
X137472009Y-68588106D01*
X137472005Y-68588103D01*
X137468132Y-68585730D01*
X137421254Y-68533920D01*
X137409829Y-68464991D01*
X137437483Y-68400827D01*
X137468132Y-68374270D01*
X137472005Y-68371896D01*
X137472004Y-68371896D01*
X137472009Y-68371894D01*
X137645004Y-68246206D01*
X137796206Y-68095004D01*
X137921894Y-67922009D01*
X138018972Y-67731483D01*
X138085049Y-67528116D01*
X138118500Y-67316916D01*
X138118500Y-67103084D01*
X138085049Y-66891884D01*
X138018972Y-66688517D01*
X138018972Y-66688516D01*
X137921893Y-66497990D01*
X137796206Y-66324996D01*
X137645004Y-66173794D01*
X137472009Y-66048106D01*
X137472005Y-66048103D01*
X137468132Y-66045730D01*
X137421254Y-65993920D01*
X137409829Y-65924991D01*
X137437483Y-65860827D01*
X137468132Y-65834270D01*
X137472005Y-65831896D01*
X137472004Y-65831896D01*
X137472009Y-65831894D01*
X137645004Y-65706206D01*
X137796206Y-65555004D01*
X137921894Y-65382009D01*
X138018972Y-65191483D01*
X138085049Y-64988116D01*
X138118500Y-64776916D01*
X138118500Y-64563084D01*
X138085049Y-64351884D01*
X138018972Y-64148517D01*
X138018972Y-64148516D01*
X137921893Y-63957990D01*
X137796206Y-63784996D01*
X137645004Y-63633794D01*
X137472009Y-63508106D01*
X137472010Y-63508106D01*
X137472008Y-63508105D01*
X137467311Y-63505712D01*
X137416517Y-63457735D01*
X137399724Y-63389914D01*
X137422264Y-63323780D01*
X137463790Y-63287801D01*
X137463402Y-63287168D01*
X137467229Y-63284822D01*
X137467327Y-63284738D01*
X137467556Y-63284621D01*
X137521716Y-63245270D01*
X137521717Y-63245270D01*
X136889408Y-62612962D01*
X136952993Y-62595925D01*
X137067007Y-62530099D01*
X137160099Y-62437007D01*
X137225925Y-62322993D01*
X137242962Y-62259408D01*
X137875270Y-62891717D01*
X137875270Y-62891716D01*
X137914622Y-62837554D01*
X138011095Y-62648217D01*
X138064165Y-62484883D01*
X144431500Y-62484883D01*
X144431500Y-62675116D01*
X144461256Y-62862991D01*
X144520040Y-63043907D01*
X144545515Y-63093903D01*
X144606398Y-63213392D01*
X144718208Y-63367285D01*
X144852715Y-63501792D01*
X145006608Y-63613602D01*
X145046237Y-63633794D01*
X145176092Y-63699959D01*
X145176094Y-63699959D01*
X145176097Y-63699961D01*
X145237651Y-63719961D01*
X145357008Y-63758743D01*
X145544884Y-63788500D01*
X145544889Y-63788500D01*
X145735116Y-63788500D01*
X145922991Y-63758743D01*
X145950025Y-63749959D01*
X146103903Y-63699961D01*
X146273392Y-63613602D01*
X146427285Y-63501792D01*
X146561792Y-63367285D01*
X146673602Y-63213392D01*
X146759961Y-63043903D01*
X146818743Y-62862991D01*
X146822772Y-62837554D01*
X146848500Y-62675116D01*
X146848500Y-62484883D01*
X147851500Y-62484883D01*
X147851500Y-62675116D01*
X147881256Y-62862991D01*
X147940040Y-63043907D01*
X147965515Y-63093903D01*
X148026398Y-63213392D01*
X148138208Y-63367285D01*
X148272715Y-63501792D01*
X148426608Y-63613602D01*
X148466237Y-63633794D01*
X148596092Y-63699959D01*
X148596094Y-63699959D01*
X148596097Y-63699961D01*
X148657651Y-63719961D01*
X148777008Y-63758743D01*
X148964884Y-63788500D01*
X148964889Y-63788500D01*
X149155116Y-63788500D01*
X149342991Y-63758743D01*
X149370025Y-63749959D01*
X149523903Y-63699961D01*
X149693392Y-63613602D01*
X149847285Y-63501792D01*
X149981792Y-63367285D01*
X150093602Y-63213392D01*
X150179961Y-63043903D01*
X150238743Y-62862991D01*
X150242772Y-62837554D01*
X150268500Y-62675116D01*
X150268500Y-62484883D01*
X151221500Y-62484883D01*
X151221500Y-62675116D01*
X151251256Y-62862991D01*
X151310040Y-63043907D01*
X151335515Y-63093903D01*
X151396398Y-63213392D01*
X151508208Y-63367285D01*
X151642715Y-63501792D01*
X151796608Y-63613602D01*
X151836237Y-63633794D01*
X151966092Y-63699959D01*
X151966094Y-63699959D01*
X151966097Y-63699961D01*
X152027651Y-63719961D01*
X152147008Y-63758743D01*
X152334884Y-63788500D01*
X152334889Y-63788500D01*
X152525116Y-63788500D01*
X152712991Y-63758743D01*
X152740025Y-63749959D01*
X152893903Y-63699961D01*
X153063392Y-63613602D01*
X153217285Y-63501792D01*
X153351792Y-63367285D01*
X153463602Y-63213392D01*
X153549961Y-63043903D01*
X153608743Y-62862991D01*
X153612772Y-62837554D01*
X153638500Y-62675116D01*
X153638500Y-62534883D01*
X154591500Y-62534883D01*
X154591500Y-62725116D01*
X154621256Y-62912991D01*
X154680040Y-63093907D01*
X154751112Y-63233392D01*
X154766398Y-63263392D01*
X154878208Y-63417285D01*
X155012715Y-63551792D01*
X155166608Y-63663602D01*
X155237963Y-63699959D01*
X155336092Y-63749959D01*
X155336094Y-63749959D01*
X155336097Y-63749961D01*
X155424679Y-63778743D01*
X155517008Y-63808743D01*
X155704884Y-63838500D01*
X155704889Y-63838500D01*
X155895116Y-63838500D01*
X156082991Y-63808743D01*
X156145292Y-63788500D01*
X156263903Y-63749961D01*
X156433392Y-63663602D01*
X156587285Y-63551792D01*
X156721792Y-63417285D01*
X156833602Y-63263392D01*
X156919961Y-63093903D01*
X156978743Y-62912991D01*
X157008500Y-62725116D01*
X157008500Y-62534883D01*
X157006050Y-62519415D01*
X157003748Y-62504883D01*
X157911500Y-62504883D01*
X157911500Y-62695116D01*
X157941256Y-62882991D01*
X158000040Y-63063907D01*
X158076207Y-63213392D01*
X158086398Y-63233392D01*
X158198208Y-63387285D01*
X158332715Y-63521792D01*
X158486608Y-63633602D01*
X158566683Y-63674402D01*
X158656092Y-63719959D01*
X158656094Y-63719959D01*
X158656097Y-63719961D01*
X158748421Y-63749959D01*
X158837008Y-63778743D01*
X159024884Y-63808500D01*
X159024889Y-63808500D01*
X159215116Y-63808500D01*
X159402991Y-63778743D01*
X159583903Y-63719961D01*
X159753392Y-63633602D01*
X159907285Y-63521792D01*
X160041792Y-63387285D01*
X160153602Y-63233392D01*
X160239961Y-63063903D01*
X160298743Y-62882991D01*
X160301911Y-62862991D01*
X160328500Y-62695116D01*
X160328500Y-62504883D01*
X161291500Y-62504883D01*
X161291500Y-62695116D01*
X161321256Y-62882991D01*
X161380040Y-63063907D01*
X161456207Y-63213392D01*
X161466398Y-63233392D01*
X161578208Y-63387285D01*
X161712715Y-63521792D01*
X161866608Y-63633602D01*
X161946683Y-63674402D01*
X162036092Y-63719959D01*
X162036094Y-63719959D01*
X162036097Y-63719961D01*
X162128421Y-63749959D01*
X162217008Y-63778743D01*
X162404884Y-63808500D01*
X162404889Y-63808500D01*
X162595116Y-63808500D01*
X162782991Y-63778743D01*
X162963903Y-63719961D01*
X163133392Y-63633602D01*
X163287285Y-63521792D01*
X163421792Y-63387285D01*
X163533602Y-63233392D01*
X163619961Y-63063903D01*
X163678743Y-62882991D01*
X163681911Y-62862991D01*
X163708500Y-62695116D01*
X163708500Y-62504883D01*
X163678743Y-62317008D01*
X163639368Y-62195826D01*
X163619961Y-62136097D01*
X163619959Y-62136094D01*
X163619959Y-62136092D01*
X163560232Y-62018873D01*
X163533602Y-61966608D01*
X163421792Y-61812715D01*
X163287285Y-61678208D01*
X163133392Y-61566398D01*
X163094140Y-61546398D01*
X162963907Y-61480040D01*
X162782991Y-61421256D01*
X162595116Y-61391500D01*
X162595111Y-61391500D01*
X162404889Y-61391500D01*
X162404884Y-61391500D01*
X162217008Y-61421256D01*
X162036092Y-61480040D01*
X161866607Y-61566398D01*
X161804142Y-61611782D01*
X161712715Y-61678208D01*
X161712713Y-61678210D01*
X161712712Y-61678210D01*
X161578210Y-61812712D01*
X161578210Y-61812713D01*
X161578208Y-61812715D01*
X161545864Y-61857233D01*
X161466398Y-61966607D01*
X161380040Y-62136092D01*
X161321256Y-62317008D01*
X161291500Y-62504883D01*
X160328500Y-62504883D01*
X160298743Y-62317008D01*
X160259368Y-62195826D01*
X160239961Y-62136097D01*
X160239959Y-62136094D01*
X160239959Y-62136092D01*
X160180232Y-62018873D01*
X160153602Y-61966608D01*
X160041792Y-61812715D01*
X159907285Y-61678208D01*
X159753392Y-61566398D01*
X159714140Y-61546398D01*
X159583907Y-61480040D01*
X159402991Y-61421256D01*
X159215116Y-61391500D01*
X159215111Y-61391500D01*
X159024889Y-61391500D01*
X159024884Y-61391500D01*
X158837008Y-61421256D01*
X158656092Y-61480040D01*
X158486607Y-61566398D01*
X158424142Y-61611782D01*
X158332715Y-61678208D01*
X158332713Y-61678210D01*
X158332712Y-61678210D01*
X158198210Y-61812712D01*
X158198210Y-61812713D01*
X158198208Y-61812715D01*
X158165864Y-61857233D01*
X158086398Y-61966607D01*
X158000040Y-62136092D01*
X157941256Y-62317008D01*
X157911500Y-62504883D01*
X157003748Y-62504883D01*
X156978743Y-62347008D01*
X156942754Y-62236246D01*
X156919961Y-62166097D01*
X156919959Y-62166094D01*
X156919959Y-62166092D01*
X156847433Y-62023753D01*
X156833602Y-61996608D01*
X156721792Y-61842715D01*
X156587285Y-61708208D01*
X156433392Y-61596398D01*
X156374514Y-61566398D01*
X156263907Y-61510040D01*
X156082991Y-61451256D01*
X155895116Y-61421500D01*
X155895111Y-61421500D01*
X155704889Y-61421500D01*
X155704884Y-61421500D01*
X155517008Y-61451256D01*
X155336092Y-61510040D01*
X155166607Y-61596398D01*
X155081534Y-61658208D01*
X155012715Y-61708208D01*
X155012713Y-61708210D01*
X155012712Y-61708210D01*
X154878210Y-61842712D01*
X154878210Y-61842713D01*
X154878208Y-61842715D01*
X154867661Y-61857232D01*
X154766398Y-61996607D01*
X154680040Y-62166092D01*
X154621256Y-62347008D01*
X154591500Y-62534883D01*
X153638500Y-62534883D01*
X153638500Y-62484883D01*
X153608743Y-62297008D01*
X153556459Y-62136097D01*
X153549961Y-62116097D01*
X153549959Y-62116094D01*
X153549959Y-62116092D01*
X153489078Y-61996607D01*
X153463602Y-61946608D01*
X153351792Y-61792715D01*
X153217285Y-61658208D01*
X153063392Y-61546398D01*
X152893907Y-61460040D01*
X152712991Y-61401256D01*
X152525116Y-61371500D01*
X152525111Y-61371500D01*
X152334889Y-61371500D01*
X152334884Y-61371500D01*
X152147008Y-61401256D01*
X151966092Y-61460040D01*
X151796607Y-61546398D01*
X151769080Y-61566398D01*
X151642715Y-61658208D01*
X151642713Y-61658210D01*
X151642712Y-61658210D01*
X151508210Y-61792712D01*
X151508210Y-61792713D01*
X151508208Y-61792715D01*
X151492839Y-61813869D01*
X151396398Y-61946607D01*
X151310040Y-62116092D01*
X151251256Y-62297008D01*
X151221500Y-62484883D01*
X150268500Y-62484883D01*
X150238743Y-62297008D01*
X150186459Y-62136097D01*
X150179961Y-62116097D01*
X150179959Y-62116094D01*
X150179959Y-62116092D01*
X150119078Y-61996607D01*
X150093602Y-61946608D01*
X149981792Y-61792715D01*
X149847285Y-61658208D01*
X149693392Y-61546398D01*
X149523907Y-61460040D01*
X149342991Y-61401256D01*
X149155116Y-61371500D01*
X149155111Y-61371500D01*
X148964889Y-61371500D01*
X148964884Y-61371500D01*
X148777008Y-61401256D01*
X148596092Y-61460040D01*
X148426607Y-61546398D01*
X148399080Y-61566398D01*
X148272715Y-61658208D01*
X148272713Y-61658210D01*
X148272712Y-61658210D01*
X148138210Y-61792712D01*
X148138210Y-61792713D01*
X148138208Y-61792715D01*
X148122839Y-61813869D01*
X148026398Y-61946607D01*
X147940040Y-62116092D01*
X147881256Y-62297008D01*
X147851500Y-62484883D01*
X146848500Y-62484883D01*
X146818743Y-62297008D01*
X146766459Y-62136097D01*
X146759961Y-62116097D01*
X146759959Y-62116094D01*
X146759959Y-62116092D01*
X146699078Y-61996607D01*
X146673602Y-61946608D01*
X146561792Y-61792715D01*
X146427285Y-61658208D01*
X146273392Y-61546398D01*
X146103907Y-61460040D01*
X145922991Y-61401256D01*
X145735116Y-61371500D01*
X145735111Y-61371500D01*
X145544889Y-61371500D01*
X145544884Y-61371500D01*
X145357008Y-61401256D01*
X145176092Y-61460040D01*
X145006607Y-61546398D01*
X144979080Y-61566398D01*
X144852715Y-61658208D01*
X144852713Y-61658210D01*
X144852712Y-61658210D01*
X144718210Y-61792712D01*
X144718210Y-61792713D01*
X144718208Y-61792715D01*
X144702839Y-61813869D01*
X144606398Y-61946607D01*
X144520040Y-62116092D01*
X144461256Y-62297008D01*
X144431500Y-62484883D01*
X138064165Y-62484883D01*
X138076757Y-62446129D01*
X138076757Y-62446127D01*
X138110000Y-62236246D01*
X138110000Y-62023753D01*
X138076757Y-61813872D01*
X138076757Y-61813869D01*
X138011095Y-61611782D01*
X137914624Y-61422449D01*
X137875270Y-61368282D01*
X137875269Y-61368282D01*
X137242962Y-62000590D01*
X137225925Y-61937007D01*
X137160099Y-61822993D01*
X137067007Y-61729901D01*
X136952993Y-61664075D01*
X136889409Y-61647037D01*
X137551626Y-60984819D01*
X137612949Y-60951334D01*
X137639307Y-60948500D01*
X137658638Y-60948500D01*
X137658654Y-60948499D01*
X137685692Y-60945591D01*
X137719201Y-60941989D01*
X137856204Y-60890889D01*
X137973261Y-60803261D01*
X138060889Y-60686204D01*
X138111989Y-60549201D01*
X138115591Y-60515692D01*
X138118499Y-60488654D01*
X138118500Y-60488637D01*
X138118500Y-58691362D01*
X138118499Y-58691345D01*
X138115157Y-58660270D01*
X138111989Y-58630799D01*
X138060889Y-58493796D01*
X137973261Y-58376739D01*
X137856204Y-58289111D01*
X137719203Y-58238011D01*
X137658654Y-58231500D01*
X137658638Y-58231500D01*
X135861362Y-58231500D01*
X135861345Y-58231500D01*
X135800797Y-58238011D01*
X135800795Y-58238011D01*
X135663795Y-58289111D01*
X135546739Y-58376739D01*
X135459111Y-58493795D01*
X135408011Y-58630795D01*
X135408011Y-58630797D01*
X135401500Y-58691345D01*
X115354787Y-58691345D01*
X115354976Y-55589149D01*
X139686500Y-55589149D01*
X139686500Y-55810850D01*
X139721182Y-56029824D01*
X139789693Y-56240680D01*
X139864867Y-56388215D01*
X139890343Y-56438215D01*
X140020657Y-56617576D01*
X140177424Y-56774343D01*
X140356785Y-56904657D01*
X140450114Y-56952210D01*
X140554319Y-57005306D01*
X140554321Y-57005306D01*
X140554324Y-57005308D01*
X140765176Y-57073818D01*
X140984149Y-57108500D01*
X140984150Y-57108500D01*
X141205850Y-57108500D01*
X141205851Y-57108500D01*
X141424824Y-57073818D01*
X141635676Y-57005308D01*
X141833215Y-56904657D01*
X142012576Y-56774343D01*
X142060997Y-56725921D01*
X142122318Y-56692437D01*
X142192009Y-56697421D01*
X142247943Y-56739292D01*
X142264859Y-56770269D01*
X142291646Y-56842087D01*
X142291649Y-56842093D01*
X142377809Y-56957187D01*
X142377812Y-56957190D01*
X142492906Y-57043350D01*
X142492913Y-57043354D01*
X142627620Y-57093596D01*
X142627627Y-57093598D01*
X142687155Y-57099999D01*
X142687172Y-57100000D01*
X143385000Y-57100000D01*
X143385000Y-56075277D01*
X143461306Y-56119333D01*
X143575756Y-56150000D01*
X143694244Y-56150000D01*
X143808694Y-56119333D01*
X143885000Y-56075277D01*
X143885000Y-57100000D01*
X144582828Y-57100000D01*
X144582844Y-57099999D01*
X144642372Y-57093598D01*
X144642379Y-57093596D01*
X144777086Y-57043354D01*
X144777093Y-57043350D01*
X144892187Y-56957190D01*
X144892190Y-56957187D01*
X144978350Y-56842093D01*
X144978354Y-56842086D01*
X145028596Y-56707379D01*
X145028598Y-56707372D01*
X145034999Y-56647844D01*
X145035000Y-56647827D01*
X145035000Y-55950000D01*
X144010278Y-55950000D01*
X144054333Y-55873694D01*
X144085000Y-55759244D01*
X144085000Y-55640756D01*
X144057774Y-55539149D01*
X146201500Y-55539149D01*
X146201500Y-55760850D01*
X146236182Y-55979824D01*
X146304693Y-56190680D01*
X146405343Y-56388215D01*
X146535657Y-56567576D01*
X146692424Y-56724343D01*
X146871785Y-56854657D01*
X146965114Y-56902210D01*
X147069319Y-56955306D01*
X147069321Y-56955306D01*
X147069324Y-56955308D01*
X147280176Y-57023818D01*
X147499149Y-57058500D01*
X147499150Y-57058500D01*
X147720850Y-57058500D01*
X147720851Y-57058500D01*
X147939824Y-57023818D01*
X148150676Y-56955308D01*
X148348215Y-56854657D01*
X148527576Y-56724343D01*
X148575997Y-56675921D01*
X148637318Y-56642437D01*
X148707009Y-56647421D01*
X148762943Y-56689292D01*
X148779859Y-56720269D01*
X148806646Y-56792087D01*
X148806649Y-56792093D01*
X148892809Y-56907187D01*
X148892812Y-56907190D01*
X149007906Y-56993350D01*
X149007913Y-56993354D01*
X149142620Y-57043596D01*
X149142627Y-57043598D01*
X149202155Y-57049999D01*
X149202172Y-57050000D01*
X149900000Y-57050000D01*
X149900000Y-56025277D01*
X149976306Y-56069333D01*
X150090756Y-56100000D01*
X150209244Y-56100000D01*
X150323694Y-56069333D01*
X150400000Y-56025277D01*
X150400000Y-57050000D01*
X151097828Y-57050000D01*
X151097844Y-57049999D01*
X151157372Y-57043598D01*
X151157379Y-57043596D01*
X151292086Y-56993354D01*
X151292093Y-56993350D01*
X151407187Y-56907190D01*
X151407190Y-56907187D01*
X151493350Y-56792093D01*
X151493354Y-56792086D01*
X151543596Y-56657379D01*
X151543598Y-56657372D01*
X151549999Y-56597844D01*
X151550000Y-56597827D01*
X151550000Y-55900000D01*
X150525278Y-55900000D01*
X150569333Y-55823694D01*
X150600000Y-55709244D01*
X150600000Y-55590756D01*
X150586172Y-55539149D01*
X152671500Y-55539149D01*
X152671500Y-55760850D01*
X152706182Y-55979824D01*
X152774693Y-56190680D01*
X152875343Y-56388215D01*
X153005657Y-56567576D01*
X153162424Y-56724343D01*
X153341785Y-56854657D01*
X153435114Y-56902210D01*
X153539319Y-56955306D01*
X153539321Y-56955306D01*
X153539324Y-56955308D01*
X153750176Y-57023818D01*
X153969149Y-57058500D01*
X153969150Y-57058500D01*
X154190850Y-57058500D01*
X154190851Y-57058500D01*
X154409824Y-57023818D01*
X154620676Y-56955308D01*
X154818215Y-56854657D01*
X154997576Y-56724343D01*
X155045997Y-56675921D01*
X155107318Y-56642437D01*
X155177009Y-56647421D01*
X155232943Y-56689292D01*
X155249859Y-56720269D01*
X155276646Y-56792087D01*
X155276649Y-56792093D01*
X155362809Y-56907187D01*
X155362812Y-56907190D01*
X155477906Y-56993350D01*
X155477913Y-56993354D01*
X155612620Y-57043596D01*
X155612627Y-57043598D01*
X155672155Y-57049999D01*
X155672172Y-57050000D01*
X156370000Y-57050000D01*
X156370000Y-56025277D01*
X156446306Y-56069333D01*
X156560756Y-56100000D01*
X156679244Y-56100000D01*
X156793694Y-56069333D01*
X156870000Y-56025277D01*
X156870000Y-57050000D01*
X157567828Y-57050000D01*
X157567844Y-57049999D01*
X157627372Y-57043598D01*
X157627379Y-57043596D01*
X157762086Y-56993354D01*
X157762093Y-56993350D01*
X157877187Y-56907190D01*
X157877190Y-56907187D01*
X157963350Y-56792093D01*
X157963354Y-56792086D01*
X158013596Y-56657379D01*
X158013598Y-56657372D01*
X158019999Y-56597844D01*
X158020000Y-56597827D01*
X158020000Y-55900000D01*
X156995278Y-55900000D01*
X157039333Y-55823694D01*
X157070000Y-55709244D01*
X157070000Y-55590756D01*
X157056172Y-55539149D01*
X159111500Y-55539149D01*
X159111500Y-55760850D01*
X159146182Y-55979824D01*
X159214693Y-56190680D01*
X159315343Y-56388215D01*
X159445657Y-56567576D01*
X159602424Y-56724343D01*
X159781785Y-56854657D01*
X159875114Y-56902210D01*
X159979319Y-56955306D01*
X159979321Y-56955306D01*
X159979324Y-56955308D01*
X160190176Y-57023818D01*
X160409149Y-57058500D01*
X160409150Y-57058500D01*
X160630850Y-57058500D01*
X160630851Y-57058500D01*
X160849824Y-57023818D01*
X161060676Y-56955308D01*
X161258215Y-56854657D01*
X161437576Y-56724343D01*
X161485997Y-56675921D01*
X161547318Y-56642437D01*
X161617009Y-56647421D01*
X161672943Y-56689292D01*
X161689859Y-56720269D01*
X161716646Y-56792087D01*
X161716649Y-56792093D01*
X161802809Y-56907187D01*
X161802812Y-56907190D01*
X161917906Y-56993350D01*
X161917913Y-56993354D01*
X162052620Y-57043596D01*
X162052627Y-57043598D01*
X162112155Y-57049999D01*
X162112172Y-57050000D01*
X162810000Y-57050000D01*
X162810000Y-56025277D01*
X162886306Y-56069333D01*
X163000756Y-56100000D01*
X163119244Y-56100000D01*
X163233694Y-56069333D01*
X163310000Y-56025277D01*
X163310000Y-57050000D01*
X164007828Y-57050000D01*
X164007844Y-57049999D01*
X164067372Y-57043598D01*
X164067379Y-57043596D01*
X164202086Y-56993354D01*
X164202093Y-56993350D01*
X164317187Y-56907190D01*
X164317190Y-56907187D01*
X164403350Y-56792093D01*
X164403354Y-56792086D01*
X164453596Y-56657379D01*
X164453598Y-56657372D01*
X164459999Y-56597844D01*
X164460000Y-56597827D01*
X164460000Y-55900000D01*
X163435278Y-55900000D01*
X163479333Y-55823694D01*
X163510000Y-55709244D01*
X163510000Y-55590756D01*
X163479333Y-55476306D01*
X163435278Y-55400000D01*
X164460000Y-55400000D01*
X164460000Y-54702172D01*
X164459999Y-54702155D01*
X164453598Y-54642627D01*
X164453596Y-54642620D01*
X164403354Y-54507913D01*
X164403350Y-54507906D01*
X164317190Y-54392812D01*
X164317187Y-54392809D01*
X164202093Y-54306649D01*
X164202086Y-54306645D01*
X164067379Y-54256403D01*
X164067372Y-54256401D01*
X164007844Y-54250000D01*
X163310000Y-54250000D01*
X163310000Y-55274722D01*
X163233694Y-55230667D01*
X163119244Y-55200000D01*
X163000756Y-55200000D01*
X162886306Y-55230667D01*
X162810000Y-55274722D01*
X162810000Y-54250000D01*
X162112155Y-54250000D01*
X162052627Y-54256401D01*
X162052620Y-54256403D01*
X161917913Y-54306645D01*
X161917906Y-54306649D01*
X161802812Y-54392809D01*
X161802809Y-54392812D01*
X161716649Y-54507906D01*
X161716644Y-54507915D01*
X161689858Y-54579731D01*
X161647987Y-54635664D01*
X161582522Y-54660080D01*
X161514249Y-54645228D01*
X161485996Y-54624077D01*
X161437578Y-54575659D01*
X161437576Y-54575657D01*
X161258215Y-54445343D01*
X161253242Y-54442809D01*
X161060680Y-54344693D01*
X160849824Y-54276182D01*
X160630851Y-54241500D01*
X160409149Y-54241500D01*
X160299662Y-54258841D01*
X160190175Y-54276182D01*
X159979319Y-54344693D01*
X159781784Y-54445343D01*
X159712966Y-54495343D01*
X159602424Y-54575657D01*
X159602422Y-54575659D01*
X159602421Y-54575659D01*
X159445659Y-54732421D01*
X159445659Y-54732422D01*
X159445657Y-54732424D01*
X159409332Y-54782421D01*
X159315343Y-54911784D01*
X159214693Y-55109319D01*
X159146182Y-55320175D01*
X159111500Y-55539149D01*
X157056172Y-55539149D01*
X157039333Y-55476306D01*
X156995278Y-55400000D01*
X158020000Y-55400000D01*
X158020000Y-54702172D01*
X158019999Y-54702155D01*
X158013598Y-54642627D01*
X158013596Y-54642620D01*
X157963354Y-54507913D01*
X157963350Y-54507906D01*
X157877190Y-54392812D01*
X157877187Y-54392809D01*
X157762093Y-54306649D01*
X157762086Y-54306645D01*
X157627379Y-54256403D01*
X157627372Y-54256401D01*
X157567844Y-54250000D01*
X156870000Y-54250000D01*
X156870000Y-55274722D01*
X156793694Y-55230667D01*
X156679244Y-55200000D01*
X156560756Y-55200000D01*
X156446306Y-55230667D01*
X156370000Y-55274722D01*
X156370000Y-54250000D01*
X155672155Y-54250000D01*
X155612627Y-54256401D01*
X155612620Y-54256403D01*
X155477913Y-54306645D01*
X155477906Y-54306649D01*
X155362812Y-54392809D01*
X155362809Y-54392812D01*
X155276649Y-54507906D01*
X155276644Y-54507915D01*
X155249858Y-54579731D01*
X155207987Y-54635664D01*
X155142522Y-54660080D01*
X155074249Y-54645228D01*
X155045996Y-54624077D01*
X154997578Y-54575659D01*
X154997576Y-54575657D01*
X154818215Y-54445343D01*
X154813242Y-54442809D01*
X154620680Y-54344693D01*
X154409824Y-54276182D01*
X154190851Y-54241500D01*
X153969149Y-54241500D01*
X153859662Y-54258841D01*
X153750175Y-54276182D01*
X153539319Y-54344693D01*
X153341784Y-54445343D01*
X153272966Y-54495343D01*
X153162424Y-54575657D01*
X153162422Y-54575659D01*
X153162421Y-54575659D01*
X153005659Y-54732421D01*
X153005659Y-54732422D01*
X153005657Y-54732424D01*
X152969332Y-54782421D01*
X152875343Y-54911784D01*
X152774693Y-55109319D01*
X152706182Y-55320175D01*
X152671500Y-55539149D01*
X150586172Y-55539149D01*
X150569333Y-55476306D01*
X150525278Y-55400000D01*
X151550000Y-55400000D01*
X151550000Y-54702172D01*
X151549999Y-54702155D01*
X151543598Y-54642627D01*
X151543596Y-54642620D01*
X151493354Y-54507913D01*
X151493350Y-54507906D01*
X151407190Y-54392812D01*
X151407187Y-54392809D01*
X151292093Y-54306649D01*
X151292086Y-54306645D01*
X151157379Y-54256403D01*
X151157372Y-54256401D01*
X151097844Y-54250000D01*
X150400000Y-54250000D01*
X150400000Y-55274722D01*
X150323694Y-55230667D01*
X150209244Y-55200000D01*
X150090756Y-55200000D01*
X149976306Y-55230667D01*
X149900000Y-55274722D01*
X149900000Y-54250000D01*
X149202155Y-54250000D01*
X149142627Y-54256401D01*
X149142620Y-54256403D01*
X149007913Y-54306645D01*
X149007906Y-54306649D01*
X148892812Y-54392809D01*
X148892809Y-54392812D01*
X148806649Y-54507906D01*
X148806644Y-54507915D01*
X148779858Y-54579731D01*
X148737987Y-54635664D01*
X148672522Y-54660080D01*
X148604249Y-54645228D01*
X148575996Y-54624077D01*
X148527578Y-54575659D01*
X148527576Y-54575657D01*
X148348215Y-54445343D01*
X148343242Y-54442809D01*
X148150680Y-54344693D01*
X147939824Y-54276182D01*
X147720851Y-54241500D01*
X147499149Y-54241500D01*
X147389662Y-54258841D01*
X147280175Y-54276182D01*
X147069319Y-54344693D01*
X146871784Y-54445343D01*
X146802966Y-54495343D01*
X146692424Y-54575657D01*
X146692422Y-54575659D01*
X146692421Y-54575659D01*
X146535659Y-54732421D01*
X146535659Y-54732422D01*
X146535657Y-54732424D01*
X146499332Y-54782421D01*
X146405343Y-54911784D01*
X146304693Y-55109319D01*
X146236182Y-55320175D01*
X146201500Y-55539149D01*
X144057774Y-55539149D01*
X144054333Y-55526306D01*
X144010278Y-55450000D01*
X145035000Y-55450000D01*
X145035000Y-54752172D01*
X145034999Y-54752155D01*
X145028598Y-54692627D01*
X145028596Y-54692620D01*
X144978354Y-54557913D01*
X144978350Y-54557906D01*
X144892190Y-54442812D01*
X144892187Y-54442809D01*
X144777093Y-54356649D01*
X144777086Y-54356645D01*
X144642379Y-54306403D01*
X144642372Y-54306401D01*
X144582844Y-54300000D01*
X143885000Y-54300000D01*
X143885000Y-55324722D01*
X143808694Y-55280667D01*
X143694244Y-55250000D01*
X143575756Y-55250000D01*
X143461306Y-55280667D01*
X143385000Y-55324722D01*
X143385000Y-54300000D01*
X142687155Y-54300000D01*
X142627627Y-54306401D01*
X142627620Y-54306403D01*
X142492913Y-54356645D01*
X142492906Y-54356649D01*
X142377812Y-54442809D01*
X142377809Y-54442812D01*
X142291649Y-54557906D01*
X142291644Y-54557915D01*
X142264858Y-54629731D01*
X142222987Y-54685664D01*
X142157522Y-54710080D01*
X142089249Y-54695228D01*
X142060996Y-54674077D01*
X142012578Y-54625659D01*
X142012576Y-54625657D01*
X141833215Y-54495343D01*
X141635680Y-54394693D01*
X141424824Y-54326182D01*
X141205851Y-54291500D01*
X140984149Y-54291500D01*
X140888502Y-54306649D01*
X140765175Y-54326182D01*
X140554319Y-54394693D01*
X140356784Y-54495343D01*
X140270675Y-54557906D01*
X140177424Y-54625657D01*
X140177422Y-54625659D01*
X140177421Y-54625659D01*
X140020659Y-54782421D01*
X140020659Y-54782422D01*
X140020657Y-54782424D01*
X139964692Y-54859452D01*
X139890343Y-54961784D01*
X139789693Y-55159319D01*
X139721182Y-55370175D01*
X139686500Y-55589149D01*
X115354976Y-55589149D01*
X115355420Y-48301345D01*
X117437500Y-48301345D01*
X117437500Y-50098654D01*
X117444011Y-50159202D01*
X117444011Y-50159204D01*
X117495111Y-50296204D01*
X117582739Y-50413261D01*
X117699796Y-50500889D01*
X117836799Y-50551989D01*
X117864050Y-50554918D01*
X117897345Y-50558499D01*
X117897362Y-50558500D01*
X119694638Y-50558500D01*
X119694654Y-50558499D01*
X119721692Y-50555591D01*
X119755201Y-50551989D01*
X119892204Y-50500889D01*
X120009261Y-50413261D01*
X120096889Y-50296204D01*
X120141957Y-50175371D01*
X120183827Y-50119442D01*
X120249291Y-50095025D01*
X120317564Y-50109877D01*
X120345818Y-50131028D01*
X120450996Y-50236206D01*
X120623991Y-50361894D01*
X120717438Y-50409507D01*
X120814516Y-50458972D01*
X120814519Y-50458973D01*
X120916200Y-50492010D01*
X121017884Y-50525049D01*
X121229084Y-50558500D01*
X121229085Y-50558500D01*
X121442915Y-50558500D01*
X121442916Y-50558500D01*
X121654116Y-50525049D01*
X121857483Y-50458972D01*
X122048009Y-50361894D01*
X122221004Y-50236206D01*
X122372206Y-50085004D01*
X122497894Y-49912009D01*
X122497896Y-49912004D01*
X122500270Y-49908132D01*
X122552080Y-49861254D01*
X122621009Y-49849829D01*
X122685173Y-49877483D01*
X122711730Y-49908132D01*
X122714103Y-49912005D01*
X122714105Y-49912008D01*
X122714106Y-49912009D01*
X122839794Y-50085004D01*
X122990996Y-50236206D01*
X123163991Y-50361894D01*
X123257438Y-50409507D01*
X123354516Y-50458972D01*
X123354519Y-50458973D01*
X123456200Y-50492010D01*
X123557884Y-50525049D01*
X123769084Y-50558500D01*
X123769085Y-50558500D01*
X123982915Y-50558500D01*
X123982916Y-50558500D01*
X124194116Y-50525049D01*
X124397483Y-50458972D01*
X124588009Y-50361894D01*
X124761004Y-50236206D01*
X124912206Y-50085004D01*
X125037894Y-49912009D01*
X125040283Y-49907319D01*
X125088254Y-49856522D01*
X125156074Y-49839724D01*
X125222210Y-49862258D01*
X125258201Y-49903788D01*
X125258832Y-49903402D01*
X125261164Y-49907207D01*
X125261251Y-49907308D01*
X125261376Y-49907554D01*
X125386272Y-50079459D01*
X125386276Y-50079464D01*
X125536535Y-50229723D01*
X125536540Y-50229727D01*
X125708442Y-50354620D01*
X125897782Y-50451095D01*
X126099871Y-50516757D01*
X126166000Y-50527231D01*
X126166000Y-49633012D01*
X126223007Y-49665925D01*
X126350174Y-49700000D01*
X126481826Y-49700000D01*
X126608993Y-49665925D01*
X126666000Y-49633012D01*
X126666000Y-50527230D01*
X126732126Y-50516757D01*
X126732129Y-50516757D01*
X126934217Y-50451095D01*
X127123557Y-50354620D01*
X127295459Y-50229727D01*
X127295464Y-50229723D01*
X127445723Y-50079464D01*
X127445727Y-50079459D01*
X127570619Y-49907560D01*
X127570738Y-49907327D01*
X127570808Y-49907252D01*
X127573168Y-49903402D01*
X127573976Y-49903897D01*
X127618707Y-49856526D01*
X127686526Y-49839723D01*
X127752663Y-49862254D01*
X127791712Y-49907311D01*
X127794105Y-49912008D01*
X127836002Y-49969674D01*
X127919794Y-50085004D01*
X128070996Y-50236206D01*
X128243991Y-50361894D01*
X128337438Y-50409507D01*
X128434516Y-50458972D01*
X128434519Y-50458973D01*
X128536200Y-50492010D01*
X128637884Y-50525049D01*
X128849084Y-50558500D01*
X128849085Y-50558500D01*
X129062915Y-50558500D01*
X129062916Y-50558500D01*
X129274116Y-50525049D01*
X129477483Y-50458972D01*
X129668009Y-50361894D01*
X129841004Y-50236206D01*
X129992206Y-50085004D01*
X130117894Y-49912009D01*
X130117896Y-49912004D01*
X130120270Y-49908132D01*
X130172080Y-49861254D01*
X130241009Y-49849829D01*
X130305173Y-49877483D01*
X130331730Y-49908132D01*
X130334103Y-49912005D01*
X130334105Y-49912008D01*
X130334106Y-49912009D01*
X130459794Y-50085004D01*
X130610996Y-50236206D01*
X130783991Y-50361894D01*
X130877438Y-50409507D01*
X130974516Y-50458972D01*
X130974519Y-50458973D01*
X131076200Y-50492010D01*
X131177884Y-50525049D01*
X131389084Y-50558500D01*
X131389085Y-50558500D01*
X131602915Y-50558500D01*
X131602916Y-50558500D01*
X131814116Y-50525049D01*
X132017483Y-50458972D01*
X132208009Y-50361894D01*
X132381004Y-50236206D01*
X132532206Y-50085004D01*
X132657894Y-49912009D01*
X132657896Y-49912004D01*
X132660270Y-49908132D01*
X132712080Y-49861254D01*
X132781009Y-49849829D01*
X132845173Y-49877483D01*
X132871730Y-49908132D01*
X132874103Y-49912005D01*
X132874105Y-49912008D01*
X132874106Y-49912009D01*
X132999794Y-50085004D01*
X133150996Y-50236206D01*
X133323991Y-50361894D01*
X133417438Y-50409507D01*
X133514516Y-50458972D01*
X133514519Y-50458973D01*
X133616200Y-50492010D01*
X133717884Y-50525049D01*
X133929084Y-50558500D01*
X133929085Y-50558500D01*
X134142915Y-50558500D01*
X134142916Y-50558500D01*
X134354116Y-50525049D01*
X134557483Y-50458972D01*
X134748009Y-50361894D01*
X134921004Y-50236206D01*
X135072206Y-50085004D01*
X135197894Y-49912009D01*
X135197896Y-49912004D01*
X135200270Y-49908132D01*
X135252080Y-49861254D01*
X135321009Y-49849829D01*
X135385173Y-49877483D01*
X135411730Y-49908132D01*
X135414103Y-49912005D01*
X135414105Y-49912008D01*
X135414106Y-49912009D01*
X135539794Y-50085004D01*
X135690996Y-50236206D01*
X135863991Y-50361894D01*
X135957438Y-50409507D01*
X136054516Y-50458972D01*
X136054519Y-50458973D01*
X136156200Y-50492010D01*
X136257884Y-50525049D01*
X136469084Y-50558500D01*
X136469085Y-50558500D01*
X136682915Y-50558500D01*
X136682916Y-50558500D01*
X136894116Y-50525049D01*
X137097483Y-50458972D01*
X137288009Y-50361894D01*
X137461004Y-50236206D01*
X137612206Y-50085004D01*
X137737894Y-49912009D01*
X137737896Y-49912004D01*
X137740270Y-49908132D01*
X137792080Y-49861254D01*
X137861009Y-49849829D01*
X137925173Y-49877483D01*
X137951730Y-49908132D01*
X137954103Y-49912005D01*
X137954105Y-49912008D01*
X137954106Y-49912009D01*
X138079794Y-50085004D01*
X138230996Y-50236206D01*
X138403991Y-50361894D01*
X138497438Y-50409507D01*
X138594516Y-50458972D01*
X138594519Y-50458973D01*
X138696200Y-50492010D01*
X138797884Y-50525049D01*
X139009084Y-50558500D01*
X139009085Y-50558500D01*
X139222915Y-50558500D01*
X139222916Y-50558500D01*
X139434116Y-50525049D01*
X139637483Y-50458972D01*
X139828009Y-50361894D01*
X140001004Y-50236206D01*
X140152206Y-50085004D01*
X140277894Y-49912009D01*
X140277896Y-49912004D01*
X140280270Y-49908132D01*
X140332080Y-49861254D01*
X140401009Y-49849829D01*
X140465173Y-49877483D01*
X140491730Y-49908132D01*
X140494103Y-49912005D01*
X140494105Y-49912008D01*
X140494106Y-49912009D01*
X140619794Y-50085004D01*
X140770996Y-50236206D01*
X140943991Y-50361894D01*
X141037438Y-50409507D01*
X141134516Y-50458972D01*
X141134519Y-50458973D01*
X141236200Y-50492010D01*
X141337884Y-50525049D01*
X141549084Y-50558500D01*
X141549085Y-50558500D01*
X141762915Y-50558500D01*
X141762916Y-50558500D01*
X141974116Y-50525049D01*
X142177483Y-50458972D01*
X142368009Y-50361894D01*
X142541004Y-50236206D01*
X142692206Y-50085004D01*
X142817894Y-49912009D01*
X142914972Y-49721483D01*
X142981049Y-49518116D01*
X143014500Y-49306916D01*
X143014500Y-49093084D01*
X142981049Y-48881884D01*
X142914972Y-48678517D01*
X142914972Y-48678516D01*
X142881354Y-48612539D01*
X142817894Y-48487991D01*
X142692206Y-48314996D01*
X142678555Y-48301345D01*
X144361500Y-48301345D01*
X144361500Y-50098654D01*
X144368011Y-50159202D01*
X144368011Y-50159204D01*
X144419111Y-50296204D01*
X144506739Y-50413261D01*
X144623796Y-50500889D01*
X144760799Y-50551989D01*
X144788050Y-50554918D01*
X144821345Y-50558499D01*
X144821362Y-50558500D01*
X146618638Y-50558500D01*
X146618654Y-50558499D01*
X146645692Y-50555591D01*
X146679201Y-50551989D01*
X146816204Y-50500889D01*
X146933261Y-50413261D01*
X147020889Y-50296204D01*
X147065957Y-50175371D01*
X147107827Y-50119442D01*
X147173291Y-50095025D01*
X147241564Y-50109877D01*
X147269818Y-50131028D01*
X147374996Y-50236206D01*
X147547991Y-50361894D01*
X147641438Y-50409507D01*
X147738516Y-50458972D01*
X147738519Y-50458973D01*
X147840200Y-50492010D01*
X147941884Y-50525049D01*
X148153084Y-50558500D01*
X148153085Y-50558500D01*
X148366915Y-50558500D01*
X148366916Y-50558500D01*
X148578116Y-50525049D01*
X148781483Y-50458972D01*
X148972009Y-50361894D01*
X149145004Y-50236206D01*
X149296206Y-50085004D01*
X149421894Y-49912009D01*
X149421896Y-49912004D01*
X149424270Y-49908132D01*
X149476080Y-49861254D01*
X149545009Y-49849829D01*
X149609173Y-49877483D01*
X149635730Y-49908132D01*
X149638103Y-49912005D01*
X149638105Y-49912008D01*
X149638106Y-49912009D01*
X149763794Y-50085004D01*
X149914996Y-50236206D01*
X150087991Y-50361894D01*
X150181438Y-50409507D01*
X150278516Y-50458972D01*
X150278519Y-50458973D01*
X150380200Y-50492010D01*
X150481884Y-50525049D01*
X150693084Y-50558500D01*
X150693085Y-50558500D01*
X150906915Y-50558500D01*
X150906916Y-50558500D01*
X151118116Y-50525049D01*
X151321483Y-50458972D01*
X151512009Y-50361894D01*
X151685004Y-50236206D01*
X151836206Y-50085004D01*
X151961894Y-49912009D01*
X151961896Y-49912004D01*
X151964270Y-49908132D01*
X152016080Y-49861254D01*
X152085009Y-49849829D01*
X152149173Y-49877483D01*
X152175730Y-49908132D01*
X152178103Y-49912005D01*
X152178105Y-49912008D01*
X152178106Y-49912009D01*
X152303794Y-50085004D01*
X152454996Y-50236206D01*
X152627991Y-50361894D01*
X152721438Y-50409507D01*
X152818516Y-50458972D01*
X152818519Y-50458973D01*
X152920200Y-50492010D01*
X153021884Y-50525049D01*
X153233084Y-50558500D01*
X153233085Y-50558500D01*
X153446915Y-50558500D01*
X153446916Y-50558500D01*
X153658116Y-50525049D01*
X153861483Y-50458972D01*
X154052009Y-50361894D01*
X154225004Y-50236206D01*
X154376206Y-50085004D01*
X154501894Y-49912009D01*
X154501896Y-49912004D01*
X154504270Y-49908132D01*
X154556080Y-49861254D01*
X154625009Y-49849829D01*
X154689173Y-49877483D01*
X154715730Y-49908132D01*
X154718103Y-49912005D01*
X154718105Y-49912008D01*
X154718106Y-49912009D01*
X154843794Y-50085004D01*
X154994996Y-50236206D01*
X155167991Y-50361894D01*
X155261438Y-50409507D01*
X155358516Y-50458972D01*
X155358519Y-50458973D01*
X155460200Y-50492010D01*
X155561884Y-50525049D01*
X155773084Y-50558500D01*
X155773085Y-50558500D01*
X155986915Y-50558500D01*
X155986916Y-50558500D01*
X156198116Y-50525049D01*
X156401483Y-50458972D01*
X156592009Y-50361894D01*
X156765004Y-50236206D01*
X156916206Y-50085004D01*
X157041894Y-49912009D01*
X157041896Y-49912004D01*
X157044270Y-49908132D01*
X157096080Y-49861254D01*
X157165009Y-49849829D01*
X157229173Y-49877483D01*
X157255730Y-49908132D01*
X157258103Y-49912005D01*
X157258105Y-49912008D01*
X157258106Y-49912009D01*
X157383794Y-50085004D01*
X157534996Y-50236206D01*
X157707991Y-50361894D01*
X157801438Y-50409507D01*
X157898516Y-50458972D01*
X157898519Y-50458973D01*
X158000200Y-50492010D01*
X158101884Y-50525049D01*
X158313084Y-50558500D01*
X158313085Y-50558500D01*
X158526915Y-50558500D01*
X158526916Y-50558500D01*
X158738116Y-50525049D01*
X158941483Y-50458972D01*
X159132009Y-50361894D01*
X159305004Y-50236206D01*
X159456206Y-50085004D01*
X159581894Y-49912009D01*
X159581896Y-49912004D01*
X159584270Y-49908132D01*
X159636080Y-49861254D01*
X159705009Y-49849829D01*
X159769173Y-49877483D01*
X159795730Y-49908132D01*
X159798103Y-49912005D01*
X159798105Y-49912008D01*
X159798106Y-49912009D01*
X159923794Y-50085004D01*
X160074996Y-50236206D01*
X160247991Y-50361894D01*
X160341438Y-50409507D01*
X160438516Y-50458972D01*
X160438519Y-50458973D01*
X160540200Y-50492010D01*
X160641884Y-50525049D01*
X160853084Y-50558500D01*
X160853085Y-50558500D01*
X161066915Y-50558500D01*
X161066916Y-50558500D01*
X161278116Y-50525049D01*
X161481483Y-50458972D01*
X161672009Y-50361894D01*
X161845004Y-50236206D01*
X161996206Y-50085004D01*
X162121894Y-49912009D01*
X162121896Y-49912004D01*
X162124270Y-49908132D01*
X162176080Y-49861254D01*
X162245009Y-49849829D01*
X162309173Y-49877483D01*
X162335730Y-49908132D01*
X162338103Y-49912005D01*
X162338105Y-49912008D01*
X162338106Y-49912009D01*
X162463794Y-50085004D01*
X162614996Y-50236206D01*
X162787991Y-50361894D01*
X162881438Y-50409507D01*
X162978516Y-50458972D01*
X162978519Y-50458973D01*
X163080200Y-50492010D01*
X163181884Y-50525049D01*
X163393084Y-50558500D01*
X163393085Y-50558500D01*
X163606915Y-50558500D01*
X163606916Y-50558500D01*
X163818116Y-50525049D01*
X164021483Y-50458972D01*
X164212009Y-50361894D01*
X164385004Y-50236206D01*
X164536206Y-50085004D01*
X164661894Y-49912009D01*
X164758972Y-49721483D01*
X164825049Y-49518116D01*
X164858500Y-49306916D01*
X164858500Y-49093084D01*
X164825049Y-48881884D01*
X164758972Y-48678517D01*
X164758972Y-48678516D01*
X164709507Y-48581438D01*
X164661894Y-48487991D01*
X164536206Y-48314996D01*
X164385004Y-48163794D01*
X164212009Y-48038106D01*
X164021483Y-47941027D01*
X164021480Y-47941026D01*
X163818117Y-47874951D01*
X163712516Y-47858225D01*
X163606916Y-47841500D01*
X163393084Y-47841500D01*
X163322684Y-47852650D01*
X163181882Y-47874951D01*
X162978519Y-47941026D01*
X162978516Y-47941027D01*
X162787990Y-48038106D01*
X162614993Y-48163796D01*
X162463796Y-48314993D01*
X162338105Y-48487991D01*
X162335727Y-48491873D01*
X162283914Y-48538748D01*
X162214984Y-48550169D01*
X162150822Y-48522512D01*
X162124273Y-48491873D01*
X162121894Y-48487991D01*
X162121891Y-48487987D01*
X161996206Y-48314996D01*
X161845004Y-48163794D01*
X161672009Y-48038106D01*
X161481483Y-47941027D01*
X161481480Y-47941026D01*
X161278117Y-47874951D01*
X161172516Y-47858225D01*
X161066916Y-47841500D01*
X160853084Y-47841500D01*
X160782684Y-47852650D01*
X160641882Y-47874951D01*
X160438519Y-47941026D01*
X160438516Y-47941027D01*
X160247990Y-48038106D01*
X160074993Y-48163796D01*
X159923796Y-48314993D01*
X159798105Y-48487991D01*
X159795727Y-48491873D01*
X159743914Y-48538748D01*
X159674984Y-48550169D01*
X159610822Y-48522512D01*
X159584273Y-48491873D01*
X159581894Y-48487991D01*
X159581891Y-48487987D01*
X159456206Y-48314996D01*
X159305004Y-48163794D01*
X159132009Y-48038106D01*
X158941483Y-47941027D01*
X158941480Y-47941026D01*
X158738117Y-47874951D01*
X158632516Y-47858225D01*
X158526916Y-47841500D01*
X158313084Y-47841500D01*
X158242684Y-47852650D01*
X158101882Y-47874951D01*
X157898519Y-47941026D01*
X157898516Y-47941027D01*
X157707990Y-48038106D01*
X157534993Y-48163796D01*
X157383796Y-48314993D01*
X157258105Y-48487991D01*
X157255727Y-48491873D01*
X157203914Y-48538748D01*
X157134984Y-48550169D01*
X157070822Y-48522512D01*
X157044273Y-48491873D01*
X157041894Y-48487991D01*
X157041891Y-48487987D01*
X156916206Y-48314996D01*
X156765004Y-48163794D01*
X156592009Y-48038106D01*
X156401483Y-47941027D01*
X156401480Y-47941026D01*
X156198117Y-47874951D01*
X156092516Y-47858225D01*
X155986916Y-47841500D01*
X155773084Y-47841500D01*
X155702684Y-47852650D01*
X155561882Y-47874951D01*
X155358519Y-47941026D01*
X155358516Y-47941027D01*
X155167990Y-48038106D01*
X154994993Y-48163796D01*
X154843796Y-48314993D01*
X154718105Y-48487991D01*
X154715727Y-48491873D01*
X154663914Y-48538748D01*
X154594984Y-48550169D01*
X154530822Y-48522512D01*
X154504273Y-48491873D01*
X154501894Y-48487991D01*
X154501891Y-48487987D01*
X154376206Y-48314996D01*
X154225004Y-48163794D01*
X154052009Y-48038106D01*
X153861483Y-47941027D01*
X153861480Y-47941026D01*
X153658117Y-47874951D01*
X153552516Y-47858225D01*
X153446916Y-47841500D01*
X153233084Y-47841500D01*
X153162684Y-47852650D01*
X153021882Y-47874951D01*
X152818519Y-47941026D01*
X152818516Y-47941027D01*
X152627990Y-48038106D01*
X152454993Y-48163796D01*
X152303796Y-48314993D01*
X152178105Y-48487991D01*
X152175727Y-48491873D01*
X152123914Y-48538748D01*
X152054984Y-48550169D01*
X151990822Y-48522512D01*
X151964273Y-48491873D01*
X151961894Y-48487991D01*
X151961891Y-48487987D01*
X151836206Y-48314996D01*
X151685004Y-48163794D01*
X151512009Y-48038106D01*
X151321483Y-47941027D01*
X151321480Y-47941026D01*
X151118117Y-47874951D01*
X151012516Y-47858225D01*
X150906916Y-47841500D01*
X150693084Y-47841500D01*
X150622684Y-47852650D01*
X150481882Y-47874951D01*
X150278519Y-47941026D01*
X150278516Y-47941027D01*
X150087990Y-48038106D01*
X149914993Y-48163796D01*
X149763796Y-48314993D01*
X149638105Y-48487991D01*
X149635727Y-48491873D01*
X149583914Y-48538748D01*
X149514984Y-48550169D01*
X149450822Y-48522512D01*
X149424273Y-48491873D01*
X149421894Y-48487991D01*
X149421891Y-48487987D01*
X149296206Y-48314996D01*
X149145004Y-48163794D01*
X148972009Y-48038106D01*
X148781483Y-47941027D01*
X148781480Y-47941026D01*
X148578117Y-47874951D01*
X148472516Y-47858225D01*
X148366916Y-47841500D01*
X148153084Y-47841500D01*
X148082684Y-47852650D01*
X147941882Y-47874951D01*
X147738519Y-47941026D01*
X147738516Y-47941027D01*
X147547990Y-48038106D01*
X147374997Y-48163793D01*
X147269818Y-48268972D01*
X147208495Y-48302456D01*
X147138803Y-48297472D01*
X147082870Y-48255600D01*
X147065958Y-48224629D01*
X147020889Y-48103796D01*
X146933261Y-47986739D01*
X146816204Y-47899111D01*
X146679203Y-47848011D01*
X146618654Y-47841500D01*
X146618638Y-47841500D01*
X144821362Y-47841500D01*
X144821345Y-47841500D01*
X144760797Y-47848011D01*
X144760795Y-47848011D01*
X144623795Y-47899111D01*
X144506739Y-47986739D01*
X144419111Y-48103795D01*
X144368011Y-48240795D01*
X144368011Y-48240797D01*
X144361500Y-48301345D01*
X142678555Y-48301345D01*
X142541004Y-48163794D01*
X142368009Y-48038106D01*
X142177483Y-47941027D01*
X142177480Y-47941026D01*
X141974117Y-47874951D01*
X141868516Y-47858225D01*
X141762916Y-47841500D01*
X141549084Y-47841500D01*
X141478684Y-47852650D01*
X141337882Y-47874951D01*
X141134519Y-47941026D01*
X141134516Y-47941027D01*
X140943990Y-48038106D01*
X140770993Y-48163796D01*
X140619796Y-48314993D01*
X140494105Y-48487991D01*
X140491727Y-48491873D01*
X140439914Y-48538748D01*
X140370984Y-48550169D01*
X140306822Y-48522512D01*
X140280273Y-48491873D01*
X140277894Y-48487991D01*
X140277891Y-48487987D01*
X140152206Y-48314996D01*
X140001004Y-48163794D01*
X139828009Y-48038106D01*
X139637483Y-47941027D01*
X139637480Y-47941026D01*
X139434117Y-47874951D01*
X139328516Y-47858225D01*
X139222916Y-47841500D01*
X139009084Y-47841500D01*
X138938684Y-47852650D01*
X138797882Y-47874951D01*
X138594519Y-47941026D01*
X138594516Y-47941027D01*
X138403990Y-48038106D01*
X138230993Y-48163796D01*
X138079796Y-48314993D01*
X137954105Y-48487991D01*
X137951727Y-48491873D01*
X137899914Y-48538748D01*
X137830984Y-48550169D01*
X137766822Y-48522512D01*
X137740273Y-48491873D01*
X137737894Y-48487991D01*
X137737891Y-48487987D01*
X137612206Y-48314996D01*
X137461004Y-48163794D01*
X137288009Y-48038106D01*
X137097483Y-47941027D01*
X137097480Y-47941026D01*
X136894117Y-47874951D01*
X136788516Y-47858225D01*
X136682916Y-47841500D01*
X136469084Y-47841500D01*
X136398684Y-47852650D01*
X136257882Y-47874951D01*
X136054519Y-47941026D01*
X136054516Y-47941027D01*
X135863990Y-48038106D01*
X135690993Y-48163796D01*
X135539796Y-48314993D01*
X135414105Y-48487991D01*
X135411727Y-48491873D01*
X135359914Y-48538748D01*
X135290984Y-48550169D01*
X135226822Y-48522512D01*
X135200273Y-48491873D01*
X135197894Y-48487991D01*
X135197891Y-48487987D01*
X135072206Y-48314996D01*
X134921004Y-48163794D01*
X134748009Y-48038106D01*
X134557483Y-47941027D01*
X134557480Y-47941026D01*
X134354117Y-47874951D01*
X134248516Y-47858225D01*
X134142916Y-47841500D01*
X133929084Y-47841500D01*
X133858684Y-47852650D01*
X133717882Y-47874951D01*
X133514519Y-47941026D01*
X133514516Y-47941027D01*
X133323990Y-48038106D01*
X133150993Y-48163796D01*
X132999796Y-48314993D01*
X132874105Y-48487991D01*
X132871727Y-48491873D01*
X132819914Y-48538748D01*
X132750984Y-48550169D01*
X132686822Y-48522512D01*
X132660273Y-48491873D01*
X132657894Y-48487991D01*
X132657891Y-48487987D01*
X132532206Y-48314996D01*
X132381004Y-48163794D01*
X132208009Y-48038106D01*
X132017483Y-47941027D01*
X132017480Y-47941026D01*
X131814117Y-47874951D01*
X131708516Y-47858225D01*
X131602916Y-47841500D01*
X131389084Y-47841500D01*
X131318684Y-47852650D01*
X131177882Y-47874951D01*
X130974519Y-47941026D01*
X130974516Y-47941027D01*
X130783990Y-48038106D01*
X130610993Y-48163796D01*
X130459796Y-48314993D01*
X130334105Y-48487991D01*
X130331727Y-48491873D01*
X130279914Y-48538748D01*
X130210984Y-48550169D01*
X130146822Y-48522512D01*
X130120273Y-48491873D01*
X130117894Y-48487991D01*
X130117891Y-48487987D01*
X129992206Y-48314996D01*
X129841004Y-48163794D01*
X129668009Y-48038106D01*
X129477483Y-47941027D01*
X129477480Y-47941026D01*
X129274117Y-47874951D01*
X129168516Y-47858225D01*
X129062916Y-47841500D01*
X128849084Y-47841500D01*
X128778684Y-47852650D01*
X128637882Y-47874951D01*
X128434519Y-47941026D01*
X128434516Y-47941027D01*
X128243990Y-48038106D01*
X128070993Y-48163796D01*
X127919796Y-48314993D01*
X127794103Y-48487994D01*
X127791709Y-48492693D01*
X127743731Y-48543485D01*
X127675908Y-48560275D01*
X127609775Y-48537732D01*
X127573800Y-48496210D01*
X127573168Y-48496598D01*
X127570829Y-48492781D01*
X127570743Y-48492682D01*
X127570620Y-48492441D01*
X127445727Y-48320540D01*
X127445723Y-48320535D01*
X127295464Y-48170276D01*
X127295459Y-48170272D01*
X127123557Y-48045379D01*
X126934215Y-47948903D01*
X126732124Y-47883241D01*
X126666000Y-47872768D01*
X126666000Y-48766988D01*
X126608993Y-48734075D01*
X126481826Y-48700000D01*
X126350174Y-48700000D01*
X126223007Y-48734075D01*
X126166000Y-48766988D01*
X126166000Y-47872768D01*
X126165999Y-47872768D01*
X126099875Y-47883241D01*
X125897784Y-47948903D01*
X125708442Y-48045379D01*
X125536540Y-48170272D01*
X125536535Y-48170276D01*
X125386276Y-48320535D01*
X125386272Y-48320540D01*
X125261376Y-48492446D01*
X125261374Y-48492448D01*
X125261246Y-48492701D01*
X125261172Y-48492779D01*
X125258832Y-48496598D01*
X125258029Y-48496106D01*
X125213264Y-48543489D01*
X125145441Y-48560274D01*
X125079309Y-48537727D01*
X125040285Y-48492683D01*
X125037895Y-48487992D01*
X125006472Y-48444742D01*
X124912206Y-48314996D01*
X124761004Y-48163794D01*
X124588009Y-48038106D01*
X124397483Y-47941027D01*
X124397480Y-47941026D01*
X124194117Y-47874951D01*
X124088516Y-47858225D01*
X123982916Y-47841500D01*
X123769084Y-47841500D01*
X123698684Y-47852650D01*
X123557882Y-47874951D01*
X123354519Y-47941026D01*
X123354516Y-47941027D01*
X123163990Y-48038106D01*
X122990993Y-48163796D01*
X122839796Y-48314993D01*
X122714105Y-48487991D01*
X122711727Y-48491873D01*
X122659914Y-48538748D01*
X122590984Y-48550169D01*
X122526822Y-48522512D01*
X122500273Y-48491873D01*
X122497894Y-48487991D01*
X122497891Y-48487987D01*
X122372206Y-48314996D01*
X122221004Y-48163794D01*
X122048009Y-48038106D01*
X121857483Y-47941027D01*
X121857480Y-47941026D01*
X121654117Y-47874951D01*
X121548516Y-47858225D01*
X121442916Y-47841500D01*
X121229084Y-47841500D01*
X121158684Y-47852650D01*
X121017882Y-47874951D01*
X120814519Y-47941026D01*
X120814516Y-47941027D01*
X120623990Y-48038106D01*
X120450997Y-48163793D01*
X120345818Y-48268972D01*
X120284495Y-48302456D01*
X120214803Y-48297472D01*
X120158870Y-48255600D01*
X120141958Y-48224629D01*
X120096889Y-48103796D01*
X120009261Y-47986739D01*
X119892204Y-47899111D01*
X119755203Y-47848011D01*
X119694654Y-47841500D01*
X119694638Y-47841500D01*
X117897362Y-47841500D01*
X117897345Y-47841500D01*
X117836797Y-47848011D01*
X117836795Y-47848011D01*
X117699795Y-47899111D01*
X117582739Y-47986739D01*
X117495111Y-48103795D01*
X117444011Y-48240795D01*
X117444011Y-48240797D01*
X117437500Y-48301345D01*
X115355420Y-48301345D01*
X115355499Y-47004532D01*
X115355501Y-47004531D01*
X115355501Y-46986946D01*
X115356281Y-46973078D01*
X115357815Y-46959459D01*
X115371069Y-46841828D01*
X115377245Y-46814768D01*
X115418559Y-46696702D01*
X115430598Y-46671703D01*
X115497150Y-46565788D01*
X115514454Y-46544090D01*
X115602898Y-46455648D01*
X115624603Y-46438340D01*
X115730508Y-46371797D01*
X115755523Y-46359750D01*
X115873574Y-46318445D01*
X115900641Y-46312266D01*
X116031899Y-46297479D01*
X116045775Y-46296701D01*
X165539405Y-46297806D01*
G37*
%TD.AperFunction*%
%TD*%
M02*
