%TF.GenerationSoftware,KiCad,Pcbnew,9.0.7*%
%TF.CreationDate,2026-02-04T16:38:47-07:00*%
%TF.ProjectId,Uno_Shield_DSP,556e6f5f-5368-4696-956c-645f4453502e,rev?*%
%TF.SameCoordinates,Original*%
%TF.FileFunction,Soldermask,Top*%
%TF.FilePolarity,Negative*%
%FSLAX46Y46*%
G04 Gerber Fmt 4.6, Leading zero omitted, Abs format (unit mm)*
G04 Created by KiCad (PCBNEW 9.0.7) date 2026-02-04 16:38:47*
%MOMM*%
%LPD*%
G01*
G04 APERTURE LIST*
G04 Aperture macros list*
%AMRoundRect*
0 Rectangle with rounded corners*
0 $1 Rounding radius*
0 $2 $3 $4 $5 $6 $7 $8 $9 X,Y pos of 4 corners*
0 Add a 4 corners polygon primitive as box body*
4,1,4,$2,$3,$4,$5,$6,$7,$8,$9,$2,$3,0*
0 Add four circle primitives for the rounded corners*
1,1,$1+$1,$2,$3*
1,1,$1+$1,$4,$5*
1,1,$1+$1,$6,$7*
1,1,$1+$1,$8,$9*
0 Add four rect primitives between the rounded corners*
20,1,$1+$1,$2,$3,$4,$5,0*
20,1,$1+$1,$4,$5,$6,$7,0*
20,1,$1+$1,$6,$7,$8,$9,0*
20,1,$1+$1,$8,$9,$2,$3,0*%
G04 Aperture macros list end*
%ADD10C,1.400000*%
%ADD11R,1.700000X1.700000*%
%ADD12O,1.700000X1.700000*%
%ADD13C,1.600000*%
%ADD14C,2.000000*%
%ADD15RoundRect,0.250000X-0.950000X-0.550000X0.950000X-0.550000X0.950000X0.550000X-0.950000X0.550000X0*%
%ADD16O,2.400000X1.600000*%
%ADD17C,1.200000*%
%ADD18O,2.200000X1.200000*%
%ADD19O,2.300000X1.600000*%
%ADD20O,1.200000X2.200000*%
%ADD21O,2.500000X1.600000*%
%ADD22RoundRect,0.250000X-0.550000X-0.550000X0.550000X-0.550000X0.550000X0.550000X-0.550000X0.550000X0*%
%ADD23C,1.440000*%
%ADD24C,1.700000*%
G04 APERTURE END LIST*
D10*
%TO.C,R23*%
X123300000Y-68100000D03*
X115680000Y-68100000D03*
%TD*%
D11*
%TO.C,J1*%
X127940000Y-97460000D03*
D12*
X130480000Y-97460000D03*
X133020000Y-97460000D03*
X135560000Y-97460000D03*
X138100000Y-97460000D03*
X140640000Y-97460000D03*
X143180000Y-97460000D03*
X145720000Y-97460000D03*
%TD*%
D11*
%TO.C,J3*%
X150800000Y-97460000D03*
D12*
X153340000Y-97460000D03*
X155880000Y-97460000D03*
X158420000Y-97460000D03*
X160960000Y-97460000D03*
X163500000Y-97460000D03*
%TD*%
D11*
%TO.C,J2*%
X118796000Y-49200000D03*
D12*
X121336000Y-49200000D03*
X123876000Y-49200000D03*
X126416000Y-49200000D03*
X128956000Y-49200000D03*
X131496000Y-49200000D03*
X134036000Y-49200000D03*
X136576000Y-49200000D03*
X139116000Y-49200000D03*
X141656000Y-49200000D03*
%TD*%
D11*
%TO.C,J4*%
X145720000Y-49200000D03*
D12*
X148260000Y-49200000D03*
X150800000Y-49200000D03*
X153340000Y-49200000D03*
X155880000Y-49200000D03*
X158420000Y-49200000D03*
X160960000Y-49200000D03*
X163500000Y-49200000D03*
%TD*%
D13*
%TO.C,R9*%
X131150000Y-55210000D03*
X131150000Y-57750000D03*
%TD*%
D14*
%TO.C,SW1*%
X163975000Y-67075000D03*
X157475000Y-67075000D03*
X163975000Y-62575000D03*
X157475000Y-62575000D03*
%TD*%
D13*
%TO.C,R17*%
X134850000Y-60710000D03*
X134850000Y-63250000D03*
%TD*%
%TO.C,C2*%
X115890000Y-79210000D03*
X115890000Y-74210000D03*
%TD*%
D15*
%TO.C,U1*%
X119280000Y-73000000D03*
D16*
X119280000Y-75540000D03*
X119280000Y-78080000D03*
X119280000Y-80620000D03*
X126900000Y-80620000D03*
X126900000Y-78080000D03*
X126900000Y-75540000D03*
X126900000Y-73000000D03*
%TD*%
D17*
%TO.C,J13*%
X164100000Y-81375000D03*
X166600000Y-81375000D03*
X159100000Y-76375000D03*
X164100000Y-71375000D03*
X166600000Y-71375000D03*
D18*
X159100000Y-81375000D03*
D19*
X159100000Y-78875000D03*
D20*
X164100000Y-76375000D03*
D18*
X159100000Y-71375000D03*
D21*
X159100000Y-73875000D03*
%TD*%
D22*
%TO.C,C1*%
X132230000Y-76980000D03*
D13*
X134730000Y-76980000D03*
%TD*%
D23*
%TO.C,RV3*%
X150360000Y-82040000D03*
X152900000Y-79500000D03*
X150360000Y-76960000D03*
%TD*%
D13*
%TO.C,R10*%
X127450000Y-55210000D03*
X127450000Y-57750000D03*
%TD*%
%TO.C,R7*%
X138550000Y-55210000D03*
X138550000Y-57750000D03*
%TD*%
D10*
%TO.C,R26*%
X140230000Y-69200000D03*
X147850000Y-69200000D03*
%TD*%
D11*
%TO.C,J5*%
X113580000Y-92700000D03*
D24*
X111040000Y-92700000D03*
X108500000Y-92700000D03*
X105960000Y-92700000D03*
X103420000Y-92700000D03*
X100880000Y-92700000D03*
X98340000Y-92700000D03*
X95800000Y-92700000D03*
%TD*%
D23*
%TO.C,RV1*%
X131915000Y-92140000D03*
X134455000Y-89600000D03*
X131915000Y-87060000D03*
%TD*%
D13*
%TO.C,R1*%
X153500000Y-60700000D03*
X153500000Y-63240000D03*
%TD*%
D11*
%TO.C,J6*%
X98330000Y-50300000D03*
D24*
X100870000Y-50300000D03*
X103410000Y-50300000D03*
X105950000Y-50300000D03*
%TD*%
D13*
%TO.C,R2*%
X153450000Y-55150000D03*
X153450000Y-57690000D03*
%TD*%
%TO.C,R14*%
X145950000Y-60700000D03*
X145950000Y-63240000D03*
%TD*%
%TO.C,R5*%
X145950000Y-55200000D03*
X145950000Y-57740000D03*
%TD*%
%TO.C,R13*%
X116350000Y-55210000D03*
X116350000Y-57750000D03*
%TD*%
%TO.C,R20*%
X123750000Y-60710000D03*
X123750000Y-63250000D03*
%TD*%
D17*
%TO.C,J12*%
X164100000Y-94250000D03*
X166600000Y-94250000D03*
X159100000Y-89250000D03*
X164100000Y-84250000D03*
X166600000Y-84250000D03*
D18*
X159100000Y-94250000D03*
D19*
X159100000Y-91750000D03*
D20*
X164100000Y-89250000D03*
D18*
X159100000Y-84250000D03*
D21*
X159100000Y-86750000D03*
%TD*%
D13*
%TO.C,R12*%
X120050000Y-55210000D03*
X120050000Y-57750000D03*
%TD*%
%TO.C,R16*%
X138550000Y-60710000D03*
X138550000Y-63250000D03*
%TD*%
D10*
%TO.C,R27*%
X147820000Y-71900000D03*
X140200000Y-71900000D03*
%TD*%
D14*
%TO.C,SW2*%
X164000000Y-58000000D03*
X157500000Y-58000000D03*
X164000000Y-53500000D03*
X157500000Y-53500000D03*
%TD*%
D13*
%TO.C,R8*%
X134850000Y-55210000D03*
X134850000Y-57750000D03*
%TD*%
%TO.C,R21*%
X120050000Y-60710000D03*
X120050000Y-63250000D03*
%TD*%
D10*
%TO.C,R25*%
X137260000Y-69200000D03*
X129640000Y-69200000D03*
%TD*%
D11*
%TO.C,J9*%
X141000000Y-80080000D03*
D24*
X141000000Y-77540000D03*
X141000000Y-75000000D03*
%TD*%
D23*
%TO.C,RV2*%
X143800000Y-92080000D03*
X146340000Y-89540000D03*
X143800000Y-87000000D03*
%TD*%
D13*
%TO.C,R6*%
X142250000Y-55210000D03*
X142250000Y-57750000D03*
%TD*%
%TO.C,R22*%
X116350000Y-60710000D03*
X116350000Y-63250000D03*
%TD*%
%TO.C,R4*%
X149650000Y-55200000D03*
X149650000Y-57740000D03*
%TD*%
%TO.C,R11*%
X123750000Y-55210000D03*
X123750000Y-57750000D03*
%TD*%
%TO.C,R3*%
X149650000Y-60700000D03*
X149650000Y-63240000D03*
%TD*%
%TO.C,R18*%
X131150000Y-60710000D03*
X131150000Y-63250000D03*
%TD*%
%TO.C,R19*%
X127450000Y-60710000D03*
X127450000Y-63250000D03*
%TD*%
D11*
%TO.C,J11*%
X151450000Y-72590000D03*
D24*
X151450000Y-70050000D03*
X151450000Y-67510000D03*
%TD*%
D13*
%TO.C,R15*%
X142250000Y-60700000D03*
X142250000Y-63240000D03*
%TD*%
D11*
%TO.C,J10*%
X152400000Y-91980000D03*
D24*
X152400000Y-89440000D03*
X152400000Y-86900000D03*
%TD*%
D10*
%TO.C,R24*%
X112790000Y-72610000D03*
X112790000Y-80230000D03*
%TD*%
M02*
