%TF.GenerationSoftware,KiCad,Pcbnew,9.0.7*%
%TF.CreationDate,2026-02-03T14:42:13-07:00*%
%TF.ProjectId,Uno_Shield_DSP,556e6f5f-5368-4696-956c-645f4453502e,rev?*%
%TF.SameCoordinates,Original*%
%TF.FileFunction,Copper,L1,Top*%
%TF.FilePolarity,Positive*%
%FSLAX46Y46*%
G04 Gerber Fmt 4.6, Leading zero omitted, Abs format (unit mm)*
G04 Created by KiCad (PCBNEW 9.0.7) date 2026-02-03 14:42:13*
%MOMM*%
%LPD*%
G01*
G04 APERTURE LIST*
G04 Aperture macros list*
%AMRoundRect*
0 Rectangle with rounded corners*
0 $1 Rounding radius*
0 $2 $3 $4 $5 $6 $7 $8 $9 X,Y pos of 4 corners*
0 Add a 4 corners polygon primitive as box body*
4,1,4,$2,$3,$4,$5,$6,$7,$8,$9,$2,$3,0*
0 Add four circle primitives for the rounded corners*
1,1,$1+$1,$2,$3*
1,1,$1+$1,$4,$5*
1,1,$1+$1,$6,$7*
1,1,$1+$1,$8,$9*
0 Add four rect primitives between the rounded corners*
20,1,$1+$1,$2,$3,$4,$5,0*
20,1,$1+$1,$4,$5,$6,$7,0*
20,1,$1+$1,$6,$7,$8,$9,0*
20,1,$1+$1,$8,$9,$2,$3,0*%
G04 Aperture macros list end*
%TA.AperFunction,ComponentPad*%
%ADD10R,1.700000X1.700000*%
%TD*%
%TA.AperFunction,ComponentPad*%
%ADD11O,1.700000X1.700000*%
%TD*%
%TA.AperFunction,ComponentPad*%
%ADD12C,1.600000*%
%TD*%
%TA.AperFunction,ComponentPad*%
%ADD13C,2.000000*%
%TD*%
%TA.AperFunction,ComponentPad*%
%ADD14RoundRect,0.250000X-0.950000X-0.550000X0.950000X-0.550000X0.950000X0.550000X-0.950000X0.550000X0*%
%TD*%
%TA.AperFunction,ComponentPad*%
%ADD15O,2.400000X1.600000*%
%TD*%
%TA.AperFunction,ComponentPad*%
%ADD16O,2.200000X1.200000*%
%TD*%
%TA.AperFunction,ComponentPad*%
%ADD17O,2.300000X1.600000*%
%TD*%
%TA.AperFunction,ComponentPad*%
%ADD18O,1.200000X2.200000*%
%TD*%
%TA.AperFunction,ComponentPad*%
%ADD19O,2.500000X1.600000*%
%TD*%
%TA.AperFunction,ComponentPad*%
%ADD20RoundRect,0.250000X-0.550000X-0.550000X0.550000X-0.550000X0.550000X0.550000X-0.550000X0.550000X0*%
%TD*%
%TA.AperFunction,ComponentPad*%
%ADD21C,1.440000*%
%TD*%
%TA.AperFunction,ComponentPad*%
%ADD22C,1.400000*%
%TD*%
%TA.AperFunction,ComponentPad*%
%ADD23C,1.700000*%
%TD*%
%TA.AperFunction,Conductor*%
%ADD24C,0.508000*%
%TD*%
G04 APERTURE END LIST*
D10*
%TO.P,J1,1,Pin_1*%
%TO.N,unconnected-(J1-Pin_1-Pad1)*%
X127940000Y-97460000D03*
D11*
%TO.P,J1,2,Pin_2*%
%TO.N,/IOREF*%
X130480000Y-97460000D03*
%TO.P,J1,3,Pin_3*%
%TO.N,/~{RESET}*%
X133020000Y-97460000D03*
%TO.P,J1,4,Pin_4*%
%TO.N,+3V3*%
X135560000Y-97460000D03*
%TO.P,J1,5,Pin_5*%
%TO.N,+5V*%
X138100000Y-97460000D03*
%TO.P,J1,6,Pin_6*%
%TO.N,GND*%
X140640000Y-97460000D03*
%TO.P,J1,7,Pin_7*%
X143180000Y-97460000D03*
%TO.P,J1,8,Pin_8*%
%TO.N,VCC*%
X145720000Y-97460000D03*
%TD*%
D10*
%TO.P,J3,1,Pin_1*%
%TO.N,/A0*%
X150800000Y-97460000D03*
D11*
%TO.P,J3,2,Pin_2*%
%TO.N,/A1*%
X153340000Y-97460000D03*
%TO.P,J3,3,Pin_3*%
%TO.N,/IN_RIGHT*%
X155880000Y-97460000D03*
%TO.P,J3,4,Pin_4*%
%TO.N,/IN_LEFT*%
X158420000Y-97460000D03*
%TO.P,J3,5,Pin_5*%
%TO.N,/SDA{slash}A4*%
X160960000Y-97460000D03*
%TO.P,J3,6,Pin_6*%
%TO.N,/SCL{slash}A5*%
X163500000Y-97460000D03*
%TD*%
D10*
%TO.P,J2,1,Pin_1*%
%TO.N,/SCL*%
X118796000Y-49200000D03*
D11*
%TO.P,J2,2,Pin_2*%
%TO.N,/SDA*%
X121336000Y-49200000D03*
%TO.P,J2,3,Pin_3*%
%TO.N,/AREF*%
X123876000Y-49200000D03*
%TO.P,J2,4,Pin_4*%
%TO.N,GND*%
X126416000Y-49200000D03*
%TO.P,J2,5,Pin_5*%
%TO.N,/D9*%
X128956000Y-49200000D03*
%TO.P,J2,6,Pin_6*%
%TO.N,/D8*%
X131496000Y-49200000D03*
%TO.P,J2,7,Pin_7*%
%TO.N,/D7*%
X134036000Y-49200000D03*
%TO.P,J2,8,Pin_8*%
%TO.N,/D6*%
X136576000Y-49200000D03*
%TO.P,J2,9,Pin_9*%
%TO.N,/D5*%
X139116000Y-49200000D03*
%TO.P,J2,10,Pin_10*%
%TO.N,/D4*%
X141656000Y-49200000D03*
%TD*%
D10*
%TO.P,J4,1,Pin_1*%
%TO.N,/D3*%
X145720000Y-49200000D03*
D11*
%TO.P,J4,2,Pin_2*%
%TO.N,/D2*%
X148260000Y-49200000D03*
%TO.P,J4,3,Pin_3*%
%TO.N,/D1*%
X150800000Y-49200000D03*
%TO.P,J4,4,Pin_4*%
%TO.N,/D0*%
X153340000Y-49200000D03*
%TO.P,J4,5,Pin_5*%
%TO.N,/BT2*%
X155880000Y-49200000D03*
%TO.P,J4,6,Pin_6*%
%TO.N,/BT1*%
X158420000Y-49200000D03*
%TO.P,J4,7,Pin_7*%
%TO.N,/TX{slash}1*%
X160960000Y-49200000D03*
%TO.P,J4,8,Pin_8*%
%TO.N,/RX{slash}0*%
X163500000Y-49200000D03*
%TD*%
D12*
%TO.P,R9,1*%
%TO.N,/D5*%
X131150000Y-55210000D03*
%TO.P,R9,2*%
%TO.N,Net-(R18-Pad1)*%
X131150000Y-57750000D03*
%TD*%
D13*
%TO.P,SW1,1,1*%
%TO.N,+5V*%
X163975000Y-67075000D03*
X157475000Y-67075000D03*
%TO.P,SW1,2,2*%
%TO.N,/BT2*%
X163975000Y-62575000D03*
X157475000Y-62575000D03*
%TD*%
D12*
%TO.P,R17,1*%
%TO.N,Net-(R17-Pad1)*%
X134850000Y-60710000D03*
%TO.P,R17,2*%
%TO.N,Net-(R16-Pad1)*%
X134850000Y-63250000D03*
%TD*%
%TO.P,C2,1*%
%TO.N,Net-(U1A--)*%
X126200000Y-78500000D03*
%TO.P,C2,2*%
%TO.N,Net-(C2-Pad2)*%
X126200000Y-73500000D03*
%TD*%
D14*
%TO.P,U1,1*%
%TO.N,Net-(C2-Pad2)*%
X129590000Y-72290000D03*
D15*
%TO.P,U1,2,-*%
%TO.N,Net-(U1A--)*%
X129590000Y-74830000D03*
%TO.P,U1,3,+*%
%TO.N,Net-(J9-Pin_2)*%
X129590000Y-77370000D03*
%TO.P,U1,4,V-*%
%TO.N,GND*%
X129590000Y-79910000D03*
%TO.P,U1,5,+*%
X137210000Y-79910000D03*
%TO.P,U1,6,-*%
%TO.N,Net-(U1B--)*%
X137210000Y-77370000D03*
%TO.P,U1,7*%
X137210000Y-74830000D03*
%TO.P,U1,8,V+*%
%TO.N,+5V*%
X137210000Y-72290000D03*
%TD*%
D16*
%TO.P,J13,R*%
%TO.N,/AUDIO_OUT*%
X159100000Y-81375000D03*
D17*
%TO.P,J13,RN*%
X159100000Y-78875000D03*
D18*
%TO.P,J13,S*%
%TO.N,GND*%
X164100000Y-76375000D03*
D16*
%TO.P,J13,T*%
%TO.N,/AUDIO_OUT*%
X159100000Y-71375000D03*
D19*
%TO.P,J13,TN*%
X159100000Y-73875000D03*
%TD*%
D20*
%TO.P,C1,1*%
%TO.N,+5V*%
X120100000Y-89300000D03*
D12*
%TO.P,C1,2*%
%TO.N,GND*%
X122600000Y-89300000D03*
%TD*%
D21*
%TO.P,RV3,1,1*%
%TO.N,Net-(R26-Pad2)*%
X150360000Y-82040000D03*
%TO.P,RV3,2,2*%
%TO.N,Net-(J9-Pin_3)*%
X152900000Y-79500000D03*
%TO.P,RV3,3,3*%
%TO.N,Net-(R27-Pad1)*%
X150360000Y-76960000D03*
%TD*%
D12*
%TO.P,R10,1*%
%TO.N,/D6*%
X127450000Y-55210000D03*
%TO.P,R10,2*%
%TO.N,Net-(R10-Pad2)*%
X127450000Y-57750000D03*
%TD*%
%TO.P,R7,1*%
%TO.N,/D3*%
X138550000Y-55210000D03*
%TO.P,R7,2*%
%TO.N,Net-(R16-Pad1)*%
X138550000Y-57750000D03*
%TD*%
D22*
%TO.P,R26,1*%
%TO.N,+5V*%
X140230000Y-69200000D03*
%TO.P,R26,2*%
%TO.N,Net-(R26-Pad2)*%
X147850000Y-69200000D03*
%TD*%
D10*
%TO.P,J5,1,Pin_1*%
%TO.N,unconnected-(J5-Pin_1-Pad1)*%
X113580000Y-92700000D03*
D23*
%TO.P,J5,2,Pin_2*%
%TO.N,unconnected-(J5-Pin_2-Pad2)*%
X111040000Y-92700000D03*
%TO.P,J5,3,Pin_3*%
%TO.N,unconnected-(J5-Pin_3-Pad3)*%
X108500000Y-92700000D03*
%TO.P,J5,4,Pin_4*%
%TO.N,unconnected-(J5-Pin_4-Pad4)*%
X105960000Y-92700000D03*
%TO.P,J5,5,Pin_5*%
%TO.N,/SDA*%
X103420000Y-92700000D03*
%TO.P,J5,6,Pin_6*%
%TO.N,/SCL*%
X100880000Y-92700000D03*
%TO.P,J5,7,Pin_7*%
%TO.N,GND*%
X98340000Y-92700000D03*
%TO.P,J5,8,Pin_8*%
%TO.N,+5V*%
X95800000Y-92700000D03*
%TD*%
D21*
%TO.P,RV1,1,1*%
%TO.N,+5V*%
X131915000Y-92140000D03*
%TO.P,RV1,2,2*%
%TO.N,/A0*%
X134455000Y-89600000D03*
%TO.P,RV1,3,3*%
%TO.N,GND*%
X131915000Y-87060000D03*
%TD*%
D12*
%TO.P,R1,1*%
%TO.N,/BT2*%
X153500000Y-60700000D03*
%TO.P,R1,2*%
%TO.N,GND*%
X153500000Y-63240000D03*
%TD*%
D10*
%TO.P,J6,1,Pin_1*%
%TO.N,GND*%
X98330000Y-50300000D03*
D23*
%TO.P,J6,2,Pin_2*%
%TO.N,+5V*%
X100870000Y-50300000D03*
%TO.P,J6,3,Pin_3*%
%TO.N,/SCL*%
X103410000Y-50300000D03*
%TO.P,J6,4,Pin_4*%
%TO.N,/SDA*%
X105950000Y-50300000D03*
%TD*%
D12*
%TO.P,R2,1*%
%TO.N,/BT1*%
X153450000Y-55150000D03*
%TO.P,R2,2*%
%TO.N,GND*%
X153450000Y-57690000D03*
%TD*%
%TO.P,R14,1*%
%TO.N,Net-(R14-Pad1)*%
X145950000Y-60700000D03*
%TO.P,R14,2*%
%TO.N,Net-(R14-Pad2)*%
X145950000Y-63240000D03*
%TD*%
%TO.P,R5,1*%
%TO.N,/D1*%
X145950000Y-55200000D03*
%TO.P,R5,2*%
%TO.N,Net-(R14-Pad1)*%
X145950000Y-57740000D03*
%TD*%
%TO.P,R13,1*%
%TO.N,/D9*%
X116350000Y-55210000D03*
%TO.P,R13,2*%
%TO.N,Net-(R13-Pad2)*%
X116350000Y-57750000D03*
%TD*%
%TO.P,R20,1*%
%TO.N,Net-(R11-Pad2)*%
X123750000Y-60710000D03*
%TO.P,R20,2*%
%TO.N,Net-(R10-Pad2)*%
X123750000Y-63250000D03*
%TD*%
D16*
%TO.P,J12,R*%
%TO.N,/IN_RIGHT*%
X159100000Y-94250000D03*
D17*
%TO.P,J12,RN*%
X159100000Y-91750000D03*
D18*
%TO.P,J12,S*%
%TO.N,GND*%
X164100000Y-89250000D03*
D16*
%TO.P,J12,T*%
%TO.N,/IN_LEFT*%
X159100000Y-84250000D03*
D19*
%TO.P,J12,TN*%
X159100000Y-86750000D03*
%TD*%
D12*
%TO.P,R12,1*%
%TO.N,/D8*%
X120050000Y-55210000D03*
%TO.P,R12,2*%
%TO.N,Net-(R12-Pad2)*%
X120050000Y-57750000D03*
%TD*%
%TO.P,R16,1*%
%TO.N,Net-(R16-Pad1)*%
X138550000Y-60710000D03*
%TO.P,R16,2*%
%TO.N,Net-(R15-Pad1)*%
X138550000Y-63250000D03*
%TD*%
D22*
%TO.P,R27,1*%
%TO.N,Net-(R27-Pad1)*%
X147820000Y-71900000D03*
%TO.P,R27,2*%
%TO.N,GND*%
X140200000Y-71900000D03*
%TD*%
D13*
%TO.P,SW2,1,1*%
%TO.N,+5V*%
X164000000Y-58000000D03*
X157500000Y-58000000D03*
%TO.P,SW2,2,2*%
%TO.N,/BT1*%
X164000000Y-53500000D03*
X157500000Y-53500000D03*
%TD*%
D12*
%TO.P,R8,1*%
%TO.N,/D4*%
X134850000Y-55210000D03*
%TO.P,R8,2*%
%TO.N,Net-(R17-Pad1)*%
X134850000Y-57750000D03*
%TD*%
%TO.P,R21,1*%
%TO.N,Net-(R12-Pad2)*%
X120050000Y-60710000D03*
%TO.P,R21,2*%
%TO.N,Net-(R11-Pad2)*%
X120050000Y-63250000D03*
%TD*%
D22*
%TO.P,R23,1*%
%TO.N,Net-(U1A--)*%
X123300000Y-68100000D03*
%TO.P,R23,2*%
%TO.N,Net-(R13-Pad2)*%
X115680000Y-68100000D03*
%TD*%
%TO.P,R25,1*%
%TO.N,/AUDIO_OUT*%
X137260000Y-69200000D03*
%TO.P,R25,2*%
%TO.N,Net-(C2-Pad2)*%
X129640000Y-69200000D03*
%TD*%
D10*
%TO.P,J9,1,Pin_1*%
%TO.N,GND*%
X141000000Y-80080000D03*
D23*
%TO.P,J9,2,Pin_2*%
%TO.N,Net-(J9-Pin_2)*%
X141000000Y-77540000D03*
%TO.P,J9,3,Pin_3*%
%TO.N,Net-(J9-Pin_3)*%
X141000000Y-75000000D03*
%TD*%
D21*
%TO.P,RV2,1,1*%
%TO.N,+5V*%
X143800000Y-92080000D03*
%TO.P,RV2,2,2*%
%TO.N,/A1*%
X146340000Y-89540000D03*
%TO.P,RV2,3,3*%
%TO.N,GND*%
X143800000Y-87000000D03*
%TD*%
D12*
%TO.P,R6,1*%
%TO.N,/D2*%
X142250000Y-55210000D03*
%TO.P,R6,2*%
%TO.N,Net-(R15-Pad1)*%
X142250000Y-57750000D03*
%TD*%
%TO.P,R22,1*%
%TO.N,Net-(R13-Pad2)*%
X116350000Y-60710000D03*
%TO.P,R22,2*%
%TO.N,Net-(R12-Pad2)*%
X116350000Y-63250000D03*
%TD*%
%TO.P,R4,1*%
%TO.N,/D0*%
X149650000Y-55200000D03*
%TO.P,R4,2*%
%TO.N,Net-(R14-Pad2)*%
X149650000Y-57740000D03*
%TD*%
%TO.P,R11,1*%
%TO.N,/D7*%
X123750000Y-55210000D03*
%TO.P,R11,2*%
%TO.N,Net-(R11-Pad2)*%
X123750000Y-57750000D03*
%TD*%
%TO.P,R3,1*%
%TO.N,Net-(R14-Pad2)*%
X149650000Y-60700000D03*
%TO.P,R3,2*%
%TO.N,GND*%
X149650000Y-63240000D03*
%TD*%
%TO.P,R18,1*%
%TO.N,Net-(R18-Pad1)*%
X131150000Y-60710000D03*
%TO.P,R18,2*%
%TO.N,Net-(R17-Pad1)*%
X131150000Y-63250000D03*
%TD*%
%TO.P,R19,1*%
%TO.N,Net-(R10-Pad2)*%
X127450000Y-60710000D03*
%TO.P,R19,2*%
%TO.N,Net-(R18-Pad1)*%
X127450000Y-63250000D03*
%TD*%
D10*
%TO.P,J11,1,Pin_1*%
%TO.N,/AUDIO_OUT*%
X151450000Y-72590000D03*
D23*
%TO.P,J11,2,Pin_2*%
X151450000Y-70050000D03*
%TO.P,J11,3,Pin_3*%
%TO.N,GND*%
X151450000Y-67510000D03*
%TD*%
D12*
%TO.P,R15,1*%
%TO.N,Net-(R15-Pad1)*%
X142250000Y-60700000D03*
%TO.P,R15,2*%
%TO.N,Net-(R14-Pad1)*%
X142250000Y-63240000D03*
%TD*%
D10*
%TO.P,J10,1,Pin_1*%
%TO.N,GND*%
X152400000Y-91980000D03*
D23*
%TO.P,J10,2,Pin_2*%
%TO.N,/IN_RIGHT*%
X152400000Y-89440000D03*
%TO.P,J10,3,Pin_3*%
%TO.N,/IN_LEFT*%
X152400000Y-86900000D03*
%TD*%
D22*
%TO.P,R24,1*%
%TO.N,Net-(C2-Pad2)*%
X123100000Y-71900000D03*
%TO.P,R24,2*%
%TO.N,Net-(U1A--)*%
X123100000Y-79520000D03*
%TD*%
D24*
%TO.N,+5V*%
X92300000Y-92550000D02*
X92300000Y-58870000D01*
X155850000Y-65450000D02*
X139376583Y-65450000D01*
X120100000Y-90725000D02*
X125530000Y-96155000D01*
X140230000Y-69200000D02*
X140230000Y-69270000D01*
X92300000Y-58870000D02*
X100870000Y-50300000D01*
X137210000Y-72290000D02*
X131865000Y-66945000D01*
X120100000Y-69666583D02*
X120100000Y-89300000D01*
X138420000Y-97460000D02*
X138100000Y-97460000D01*
X165430000Y-65620000D02*
X163975000Y-67075000D01*
X164000000Y-58000000D02*
X165430000Y-59430000D01*
X131865000Y-66945000D02*
X122821583Y-66945000D01*
X163975000Y-67075000D02*
X157475000Y-67075000D01*
X139376583Y-65450000D02*
X136105000Y-68721583D01*
X125300000Y-96155000D02*
X99255000Y-96155000D01*
X95800000Y-92700000D02*
X99255000Y-96155000D01*
X165430000Y-59430000D02*
X165430000Y-65620000D01*
X131915000Y-92140000D02*
X135930000Y-96155000D01*
X99255000Y-96155000D02*
X95905000Y-96155000D01*
X143800000Y-92080000D02*
X138420000Y-97460000D01*
X122821583Y-66945000D02*
X120100000Y-69666583D01*
X137210000Y-72290000D02*
X137210000Y-72220000D01*
X136105000Y-68721583D02*
X136105000Y-71185000D01*
X138100000Y-97460000D02*
X136795000Y-96155000D01*
X136795000Y-96155000D02*
X125530000Y-96155000D01*
X136105000Y-71185000D02*
X137210000Y-72290000D01*
X95905000Y-96155000D02*
X92300000Y-92550000D01*
X120100000Y-89300000D02*
X120100000Y-90725000D01*
X135930000Y-96155000D02*
X136795000Y-96155000D01*
X125530000Y-96155000D02*
X125300000Y-96155000D01*
X157475000Y-67075000D02*
X155850000Y-65450000D01*
X137210000Y-72220000D02*
X140230000Y-69200000D01*
X157500000Y-58000000D02*
X164000000Y-58000000D01*
%TO.N,/A0*%
X143910000Y-89600000D02*
X150800000Y-96490000D01*
X150800000Y-96490000D02*
X150800000Y-97460000D01*
X134455000Y-89600000D02*
X143910000Y-89600000D01*
%TO.N,/A1*%
X153340000Y-96540000D02*
X153340000Y-97460000D01*
X146340000Y-89540000D02*
X153340000Y-96540000D01*
%TO.N,/SCL*%
X118591000Y-48995000D02*
X104715000Y-48995000D01*
X118796000Y-49200000D02*
X118591000Y-48995000D01*
X104715000Y-48995000D02*
X103410000Y-50300000D01*
X103410000Y-50300000D02*
X100750000Y-52960000D01*
X100750000Y-52960000D02*
X100750000Y-91350000D01*
X100880000Y-91480000D02*
X100880000Y-92700000D01*
X100750000Y-91350000D02*
X100880000Y-91480000D01*
%TO.N,/SDA*%
X103290000Y-52960000D02*
X103290000Y-91350000D01*
X105950000Y-50300000D02*
X103290000Y-52960000D01*
X119386000Y-51150000D02*
X106800000Y-51150000D01*
X121336000Y-49200000D02*
X119386000Y-51150000D01*
X106800000Y-51150000D02*
X105950000Y-50300000D01*
X103290000Y-91350000D02*
X103420000Y-91480000D01*
X103420000Y-91480000D02*
X103420000Y-92700000D01*
%TO.N,/BT2*%
X153500000Y-60700000D02*
X155600000Y-60700000D01*
X152195000Y-59395000D02*
X153500000Y-60700000D01*
X155600000Y-60700000D02*
X157475000Y-62575000D01*
X157475000Y-62575000D02*
X163975000Y-62575000D01*
X155880000Y-49200000D02*
X152195000Y-52885000D01*
X152195000Y-52885000D02*
X152195000Y-59395000D01*
%TO.N,Net-(C2-Pad2)*%
X129590000Y-72290000D02*
X127410000Y-72290000D01*
X124600000Y-71900000D02*
X126200000Y-73500000D01*
X129640000Y-72240000D02*
X129590000Y-72290000D01*
X123100000Y-71900000D02*
X124600000Y-71900000D01*
X129640000Y-69200000D02*
X129640000Y-72240000D01*
X127410000Y-72290000D02*
X126200000Y-73500000D01*
%TO.N,Net-(U1A--)*%
X124396583Y-74830000D02*
X129590000Y-74830000D01*
X129590000Y-74830000D02*
X129590000Y-75110000D01*
X126200000Y-78500000D02*
X124120000Y-78500000D01*
X124120000Y-78500000D02*
X123100000Y-79520000D01*
X123300000Y-68100000D02*
X121945000Y-69455000D01*
X129590000Y-75110000D02*
X126200000Y-78500000D01*
X121945000Y-72378417D02*
X124396583Y-74830000D01*
X121945000Y-69455000D02*
X121945000Y-72378417D01*
%TO.N,/D7*%
X130195000Y-53041000D02*
X125919000Y-53041000D01*
X134036000Y-49200000D02*
X130195000Y-53041000D01*
X125919000Y-53041000D02*
X123750000Y-55210000D01*
%TO.N,/D8*%
X131496000Y-49200000D02*
X128364000Y-52332000D01*
X122928000Y-52332000D02*
X120050000Y-55210000D01*
X128364000Y-52332000D02*
X122928000Y-52332000D01*
%TO.N,/D9*%
X128956000Y-49200000D02*
X126533000Y-51623000D01*
X119937000Y-51623000D02*
X116350000Y-55210000D01*
X126533000Y-51623000D02*
X119937000Y-51623000D01*
%TO.N,/D6*%
X132026000Y-53750000D02*
X128910000Y-53750000D01*
X128910000Y-53750000D02*
X127450000Y-55210000D01*
X136576000Y-49200000D02*
X132026000Y-53750000D01*
%TO.N,/D4*%
X135646000Y-55210000D02*
X134850000Y-55210000D01*
X141656000Y-49200000D02*
X135646000Y-55210000D01*
%TO.N,/D5*%
X133075161Y-55210000D02*
X131150000Y-55210000D01*
X139085161Y-49200000D02*
X133075161Y-55210000D01*
X139116000Y-49200000D02*
X139085161Y-49200000D01*
%TO.N,/IN_RIGHT*%
X159100000Y-91750000D02*
X159100000Y-94250000D01*
X159100000Y-94250000D02*
X159090000Y-94250000D01*
X159090000Y-94250000D02*
X155880000Y-97460000D01*
X159100000Y-91750000D02*
X154710000Y-91750000D01*
X154710000Y-91750000D02*
X152400000Y-89440000D01*
%TO.N,/IN_LEFT*%
X159100000Y-86750000D02*
X160705000Y-88355000D01*
X158950000Y-86900000D02*
X159100000Y-86750000D01*
X159100000Y-84250000D02*
X159100000Y-86750000D01*
X160705000Y-88355000D02*
X160705000Y-95175000D01*
X160705000Y-95175000D02*
X158420000Y-97460000D01*
X152400000Y-86900000D02*
X158950000Y-86900000D01*
%TO.N,/BT1*%
X153450000Y-54170000D02*
X153450000Y-55150000D01*
X157500000Y-53500000D02*
X164000000Y-53500000D01*
X158420000Y-49200000D02*
X153450000Y-54170000D01*
X155850000Y-55150000D02*
X157500000Y-53500000D01*
X153450000Y-55150000D02*
X155850000Y-55150000D01*
%TO.N,/D3*%
X139710000Y-55210000D02*
X138550000Y-55210000D01*
X145720000Y-49200000D02*
X139710000Y-55210000D01*
%TO.N,/D2*%
X148260000Y-49200000D02*
X142250000Y-55210000D01*
X142650000Y-55210000D02*
X142250000Y-55210000D01*
%TO.N,/D0*%
X149650000Y-52890000D02*
X149650000Y-55200000D01*
X153340000Y-49200000D02*
X149650000Y-52890000D01*
%TO.N,/D1*%
X150800000Y-49200000D02*
X145950000Y-54050000D01*
X145950000Y-55200000D02*
X145950000Y-55350000D01*
X145950000Y-54050000D02*
X145950000Y-55200000D01*
%TO.N,/AUDIO_OUT*%
X157885000Y-72590000D02*
X159100000Y-71375000D01*
X159100000Y-78875000D02*
X159100000Y-81375000D01*
X137260000Y-69200000D02*
X138415000Y-68045000D01*
X151450000Y-72590000D02*
X157885000Y-72590000D01*
X159766995Y-70050000D02*
X160805000Y-71088005D01*
X160805000Y-71088005D02*
X160805000Y-77170000D01*
X160805000Y-77170000D02*
X159100000Y-78875000D01*
X159100000Y-71375000D02*
X159100000Y-73875000D01*
X151450000Y-70050000D02*
X159766995Y-70050000D01*
X151450000Y-70050000D02*
X151450000Y-72590000D01*
X149445000Y-68045000D02*
X151450000Y-70050000D01*
X158955000Y-71230000D02*
X159100000Y-71375000D01*
X138415000Y-68045000D02*
X149445000Y-68045000D01*
%TO.N,Net-(J9-Pin_3)*%
X141000000Y-75000000D02*
X149215000Y-83215000D01*
X149215000Y-83215000D02*
X150846701Y-83215000D01*
X150846701Y-83215000D02*
X152900000Y-81161701D01*
X152900000Y-81161701D02*
X152900000Y-79500000D01*
%TO.N,Net-(J9-Pin_2)*%
X129590000Y-77370000D02*
X130875000Y-78655000D01*
X130875000Y-78655000D02*
X139885000Y-78655000D01*
X139885000Y-78655000D02*
X141000000Y-77540000D01*
%TO.N,Net-(R14-Pad2)*%
X149650000Y-57740000D02*
X149650000Y-60700000D01*
X149650000Y-60700000D02*
X148490000Y-60700000D01*
X148490000Y-60700000D02*
X145950000Y-63240000D01*
%TO.N,Net-(R14-Pad1)*%
X145950000Y-57740000D02*
X145950000Y-60700000D01*
X144790000Y-60700000D02*
X142250000Y-63240000D01*
X145950000Y-60700000D02*
X144790000Y-60700000D01*
%TO.N,Net-(R15-Pad1)*%
X141100000Y-60700000D02*
X138550000Y-63250000D01*
X142250000Y-60700000D02*
X141100000Y-60700000D01*
X142250000Y-57750000D02*
X142250000Y-60700000D01*
%TO.N,Net-(R16-Pad1)*%
X138550000Y-57750000D02*
X138550000Y-60710000D01*
X138550000Y-60710000D02*
X137390000Y-60710000D01*
X137390000Y-60710000D02*
X134850000Y-63250000D01*
%TO.N,Net-(R17-Pad1)*%
X134850000Y-57750000D02*
X134850000Y-60710000D01*
X134850000Y-60710000D02*
X133690000Y-60710000D01*
X133690000Y-60710000D02*
X131150000Y-63250000D01*
%TO.N,Net-(R18-Pad1)*%
X131150000Y-60710000D02*
X129990000Y-60710000D01*
X131150000Y-57750000D02*
X131150000Y-60710000D01*
X129990000Y-60710000D02*
X127450000Y-63250000D01*
%TO.N,Net-(R10-Pad2)*%
X126290000Y-60710000D02*
X123750000Y-63250000D01*
X127450000Y-57750000D02*
X127450000Y-60710000D01*
X127450000Y-60710000D02*
X126290000Y-60710000D01*
%TO.N,Net-(R11-Pad2)*%
X123750000Y-60710000D02*
X122590000Y-60710000D01*
X122590000Y-60710000D02*
X120050000Y-63250000D01*
X123750000Y-57750000D02*
X123750000Y-60710000D01*
%TO.N,Net-(R12-Pad2)*%
X120050000Y-60710000D02*
X118890000Y-60710000D01*
X118890000Y-60710000D02*
X116350000Y-63250000D01*
X120050000Y-57750000D02*
X120050000Y-60710000D01*
%TO.N,Net-(R13-Pad2)*%
X114980000Y-67400000D02*
X115680000Y-68100000D01*
X114980000Y-62080000D02*
X114980000Y-67400000D01*
X116350000Y-57750000D02*
X116350000Y-60710000D01*
X116350000Y-60710000D02*
X114980000Y-62080000D01*
%TO.N,Net-(R26-Pad2)*%
X147850000Y-69200000D02*
X148975000Y-70325000D01*
X150360000Y-80270000D02*
X150360000Y-82040000D01*
X151535000Y-76473299D02*
X151535000Y-79095000D01*
X151535000Y-79095000D02*
X150360000Y-80270000D01*
X148975000Y-70325000D02*
X148975000Y-73913299D01*
X148975000Y-73913299D02*
X151535000Y-76473299D01*
%TO.N,Net-(R27-Pad1)*%
X150360000Y-76960000D02*
X147820000Y-74420000D01*
X147820000Y-74420000D02*
X147820000Y-71900000D01*
%TO.N,Net-(U1B--)*%
X137210000Y-74830000D02*
X137210000Y-77370000D01*
%TD*%
M02*
