%TF.GenerationSoftware,KiCad,Pcbnew,9.0.7*%
%TF.CreationDate,2026-02-03T14:42:13-07:00*%
%TF.ProjectId,Uno_Shield_DSP,556e6f5f-5368-4696-956c-645f4453502e,rev?*%
%TF.SameCoordinates,Original*%
%TF.FileFunction,Legend,Top*%
%TF.FilePolarity,Positive*%
%FSLAX46Y46*%
G04 Gerber Fmt 4.6, Leading zero omitted, Abs format (unit mm)*
G04 Created by KiCad (PCBNEW 9.0.7) date 2026-02-03 14:42:13*
%MOMM*%
%LPD*%
G01*
G04 APERTURE LIST*
%ADD10C,0.150000*%
%ADD11C,0.120000*%
%ADD12C,0.100000*%
G04 APERTURE END LIST*
D10*
G36*
X157897455Y-69384180D02*
G01*
X157923949Y-69410674D01*
X157958207Y-69479190D01*
X157958207Y-69586637D01*
X157923948Y-69655153D01*
X157893541Y-69685561D01*
X157825026Y-69719819D01*
X157536779Y-69719819D01*
X157536779Y-69346009D01*
X157782942Y-69346009D01*
X157897455Y-69384180D01*
G37*
G36*
X157845923Y-68904077D02*
G01*
X157876330Y-68934484D01*
X157910588Y-69003000D01*
X157910588Y-69062828D01*
X157876330Y-69131344D01*
X157845923Y-69161751D01*
X157777407Y-69196009D01*
X157536779Y-69196009D01*
X157536779Y-68869819D01*
X157777407Y-68869819D01*
X157845923Y-68904077D01*
G37*
G36*
X161464971Y-68904077D02*
G01*
X161536913Y-68976019D01*
X161577255Y-69137386D01*
X161577255Y-69452251D01*
X161536913Y-69613617D01*
X161464970Y-69685561D01*
X161396455Y-69719819D01*
X161241389Y-69719819D01*
X161172873Y-69685561D01*
X161100930Y-69613617D01*
X161060589Y-69452251D01*
X161060589Y-69137386D01*
X161100930Y-68976019D01*
X161172873Y-68904077D01*
X161241389Y-68869819D01*
X161396455Y-68869819D01*
X161464971Y-68904077D01*
G37*
G36*
X164600271Y-69980930D02*
G01*
X157275668Y-69980930D01*
X157275668Y-68794819D01*
X157386779Y-68794819D01*
X157386779Y-69794819D01*
X157388220Y-69809451D01*
X157399419Y-69836487D01*
X157420111Y-69857179D01*
X157447147Y-69868378D01*
X157461779Y-69869819D01*
X157842731Y-69869819D01*
X157857363Y-69868378D01*
X157859852Y-69867346D01*
X157862540Y-69867156D01*
X157876272Y-69861901D01*
X157971510Y-69814282D01*
X157977809Y-69810317D01*
X157979637Y-69809560D01*
X157981693Y-69807872D01*
X157983953Y-69806450D01*
X157985253Y-69804950D01*
X157991003Y-69800232D01*
X158038621Y-69752613D01*
X158043339Y-69746863D01*
X158044838Y-69745564D01*
X158046259Y-69743305D01*
X158047949Y-69741247D01*
X158048706Y-69739417D01*
X158052670Y-69733121D01*
X158100289Y-69637883D01*
X158105544Y-69624152D01*
X158105735Y-69621462D01*
X158106766Y-69618974D01*
X158108207Y-69604342D01*
X158108207Y-69461485D01*
X158106766Y-69446853D01*
X158105735Y-69444364D01*
X158105544Y-69441675D01*
X158100289Y-69427944D01*
X158052670Y-69332706D01*
X158048705Y-69326406D01*
X158047948Y-69324579D01*
X158046259Y-69322522D01*
X158044838Y-69320263D01*
X158043339Y-69318963D01*
X158038621Y-69313214D01*
X157991002Y-69265595D01*
X157979637Y-69256268D01*
X157977146Y-69255236D01*
X157975111Y-69253471D01*
X157969043Y-69250762D01*
X157991002Y-69228804D01*
X157995720Y-69223054D01*
X157997219Y-69221755D01*
X157998640Y-69219495D01*
X158000329Y-69217439D01*
X158001086Y-69215611D01*
X158005051Y-69209312D01*
X158052670Y-69114074D01*
X158057925Y-69100343D01*
X158058116Y-69097653D01*
X158059147Y-69095165D01*
X158060588Y-69080533D01*
X158060588Y-68985295D01*
X158059147Y-68970663D01*
X158058116Y-68968174D01*
X158057925Y-68965485D01*
X158052670Y-68951754D01*
X158005051Y-68856516D01*
X158001086Y-68850216D01*
X158000329Y-68848389D01*
X157998640Y-68846332D01*
X157997219Y-68844073D01*
X157995720Y-68842773D01*
X157991002Y-68837024D01*
X157948797Y-68794819D01*
X158386779Y-68794819D01*
X158386779Y-69604342D01*
X158388220Y-69618974D01*
X158389251Y-69621463D01*
X158389442Y-69624151D01*
X158394697Y-69637883D01*
X158442316Y-69733121D01*
X158446279Y-69739417D01*
X158447037Y-69741247D01*
X158448726Y-69743305D01*
X158450148Y-69745564D01*
X158451646Y-69746863D01*
X158456364Y-69752612D01*
X158503983Y-69800232D01*
X158509732Y-69804950D01*
X158511033Y-69806450D01*
X158513292Y-69807872D01*
X158515349Y-69809560D01*
X158517176Y-69810317D01*
X158523476Y-69814282D01*
X158618714Y-69861901D01*
X158632445Y-69867156D01*
X158635134Y-69867347D01*
X158637623Y-69868378D01*
X158652255Y-69869819D01*
X158842731Y-69869819D01*
X158857363Y-69868378D01*
X158859852Y-69867346D01*
X158862540Y-69867156D01*
X158876272Y-69861901D01*
X158971510Y-69814282D01*
X158977809Y-69810317D01*
X158979637Y-69809560D01*
X158981693Y-69807872D01*
X158983953Y-69806450D01*
X158985253Y-69804950D01*
X158991003Y-69800232D01*
X159038621Y-69752613D01*
X159043339Y-69746863D01*
X159044838Y-69745564D01*
X159046259Y-69743305D01*
X159047949Y-69741247D01*
X159048706Y-69739417D01*
X159052670Y-69733121D01*
X159100289Y-69637883D01*
X159105544Y-69624152D01*
X159105735Y-69621462D01*
X159106766Y-69618974D01*
X159108207Y-69604342D01*
X159108207Y-68794819D01*
X159106766Y-68780187D01*
X159292982Y-68780187D01*
X159292982Y-68809451D01*
X159304181Y-68836487D01*
X159324873Y-68857179D01*
X159351909Y-68868378D01*
X159366541Y-68869819D01*
X159577255Y-68869819D01*
X159577255Y-69794819D01*
X159578696Y-69809451D01*
X159589895Y-69836487D01*
X159610587Y-69857179D01*
X159637623Y-69868378D01*
X159666887Y-69868378D01*
X159693923Y-69857179D01*
X159714615Y-69836487D01*
X159725814Y-69809451D01*
X159727255Y-69794819D01*
X159727255Y-68869819D01*
X159937969Y-68869819D01*
X159952601Y-68868378D01*
X159979637Y-68857179D01*
X160000329Y-68836487D01*
X160011528Y-68809451D01*
X160011528Y-68780187D01*
X160054887Y-68780187D01*
X160054887Y-68809451D01*
X160066086Y-68836487D01*
X160086778Y-68857179D01*
X160113814Y-68868378D01*
X160128446Y-68869819D01*
X160339160Y-68869819D01*
X160339160Y-69794819D01*
X160340601Y-69809451D01*
X160351800Y-69836487D01*
X160372492Y-69857179D01*
X160399528Y-69868378D01*
X160428792Y-69868378D01*
X160455828Y-69857179D01*
X160476520Y-69836487D01*
X160487719Y-69809451D01*
X160489160Y-69794819D01*
X160489160Y-69128152D01*
X160910589Y-69128152D01*
X160910589Y-69461485D01*
X160910840Y-69464038D01*
X160910678Y-69465131D01*
X160911487Y-69470604D01*
X160912030Y-69476117D01*
X160912452Y-69477138D01*
X160912828Y-69479675D01*
X160960447Y-69670151D01*
X160965394Y-69683997D01*
X160968713Y-69688476D01*
X160970847Y-69693628D01*
X160980175Y-69704994D01*
X161075413Y-69800233D01*
X161081163Y-69804953D01*
X161082462Y-69806450D01*
X161084716Y-69807869D01*
X161086778Y-69809561D01*
X161088610Y-69810319D01*
X161094905Y-69814282D01*
X161190143Y-69861901D01*
X161203874Y-69867156D01*
X161206563Y-69867347D01*
X161209052Y-69868378D01*
X161223684Y-69869819D01*
X161414160Y-69869819D01*
X161428792Y-69868378D01*
X161431281Y-69867346D01*
X161433969Y-69867156D01*
X161447701Y-69861901D01*
X161542939Y-69814282D01*
X161549238Y-69810317D01*
X161551066Y-69809560D01*
X161553122Y-69807871D01*
X161555382Y-69806450D01*
X161556681Y-69804951D01*
X161562431Y-69800233D01*
X161657670Y-69704993D01*
X161666997Y-69693628D01*
X161669130Y-69688476D01*
X161672450Y-69683997D01*
X161677397Y-69670151D01*
X161725016Y-69479675D01*
X161725391Y-69477138D01*
X161725814Y-69476117D01*
X161726356Y-69470604D01*
X161727166Y-69465131D01*
X161727003Y-69464038D01*
X161727255Y-69461485D01*
X161727255Y-69128152D01*
X161727003Y-69125598D01*
X161727166Y-69124506D01*
X161726356Y-69119032D01*
X161725814Y-69113520D01*
X161725391Y-69112498D01*
X161725016Y-69109962D01*
X161677397Y-68919486D01*
X161672450Y-68905640D01*
X161669131Y-68901161D01*
X161666997Y-68896008D01*
X161657669Y-68884643D01*
X161567845Y-68794819D01*
X162005827Y-68794819D01*
X162005827Y-69794819D01*
X162007268Y-69809451D01*
X162018467Y-69836487D01*
X162039159Y-69857179D01*
X162066195Y-69868378D01*
X162095459Y-69868378D01*
X162122495Y-69857179D01*
X162143187Y-69836487D01*
X162154386Y-69809451D01*
X162155827Y-69794819D01*
X162155827Y-69077235D01*
X162587137Y-69832030D01*
X162589326Y-69835114D01*
X162589895Y-69836487D01*
X162591292Y-69837884D01*
X162595647Y-69844019D01*
X162603535Y-69850127D01*
X162610587Y-69857179D01*
X162615005Y-69859009D01*
X162618785Y-69861936D01*
X162628406Y-69864560D01*
X162637623Y-69868378D01*
X162642404Y-69868378D01*
X162647016Y-69869636D01*
X162656913Y-69868378D01*
X162666887Y-69868378D01*
X162671302Y-69866548D01*
X162676046Y-69865946D01*
X162684710Y-69860995D01*
X162693923Y-69857179D01*
X162697301Y-69853800D01*
X162701455Y-69851427D01*
X162707564Y-69843537D01*
X162714615Y-69836487D01*
X162716444Y-69832070D01*
X162719372Y-69828290D01*
X162721996Y-69818666D01*
X162725814Y-69809451D01*
X162726550Y-69801968D01*
X162727072Y-69800058D01*
X162726884Y-69798582D01*
X162727255Y-69794819D01*
X162727255Y-69780187D01*
X163721554Y-69780187D01*
X163721554Y-69809451D01*
X163732753Y-69836487D01*
X163753445Y-69857179D01*
X163780481Y-69868378D01*
X163795113Y-69869819D01*
X164414160Y-69869819D01*
X164428792Y-69868378D01*
X164455828Y-69857179D01*
X164476520Y-69836487D01*
X164487719Y-69809451D01*
X164487719Y-69780187D01*
X164476520Y-69753151D01*
X164455828Y-69732459D01*
X164428792Y-69721260D01*
X164414160Y-69719819D01*
X163976179Y-69719819D01*
X164419574Y-69276423D01*
X164428902Y-69265058D01*
X164429933Y-69262567D01*
X164431698Y-69260533D01*
X164437692Y-69247107D01*
X164485311Y-69104251D01*
X164486960Y-69096995D01*
X164487719Y-69095165D01*
X164487980Y-69092511D01*
X164488571Y-69089914D01*
X164488430Y-69087939D01*
X164489160Y-69080533D01*
X164489160Y-68985295D01*
X164487719Y-68970663D01*
X164486688Y-68968174D01*
X164486497Y-68965485D01*
X164481242Y-68951754D01*
X164433623Y-68856516D01*
X164429658Y-68850216D01*
X164428901Y-68848389D01*
X164427212Y-68846332D01*
X164425791Y-68844073D01*
X164424292Y-68842773D01*
X164419574Y-68837024D01*
X164371955Y-68789405D01*
X164366205Y-68784686D01*
X164364906Y-68783188D01*
X164362646Y-68781766D01*
X164360590Y-68780078D01*
X164358762Y-68779320D01*
X164352463Y-68775356D01*
X164257225Y-68727737D01*
X164243493Y-68722482D01*
X164240805Y-68722291D01*
X164238316Y-68721260D01*
X164223684Y-68719819D01*
X163985589Y-68719819D01*
X163970957Y-68721260D01*
X163968468Y-68722290D01*
X163965779Y-68722482D01*
X163952048Y-68727737D01*
X163856810Y-68775356D01*
X163850510Y-68779320D01*
X163848683Y-68780078D01*
X163846626Y-68781766D01*
X163844367Y-68783188D01*
X163843067Y-68784686D01*
X163837318Y-68789405D01*
X163789699Y-68837024D01*
X163780372Y-68848389D01*
X163769173Y-68875426D01*
X163769173Y-68904688D01*
X163780372Y-68931725D01*
X163801064Y-68952417D01*
X163828101Y-68963616D01*
X163857363Y-68963616D01*
X163884400Y-68952417D01*
X163895765Y-68943090D01*
X163934778Y-68904077D01*
X164003294Y-68869819D01*
X164205979Y-68869819D01*
X164274495Y-68904077D01*
X164304902Y-68934484D01*
X164339160Y-69003000D01*
X164339160Y-69068363D01*
X164300988Y-69182876D01*
X163742080Y-69741786D01*
X163732753Y-69753151D01*
X163721554Y-69780187D01*
X162727255Y-69780187D01*
X162727255Y-68794819D01*
X162725814Y-68780187D01*
X162714615Y-68753151D01*
X162693923Y-68732459D01*
X162666887Y-68721260D01*
X162637623Y-68721260D01*
X162610587Y-68732459D01*
X162589895Y-68753151D01*
X162578696Y-68780187D01*
X162577255Y-68794819D01*
X162577255Y-69512402D01*
X162145945Y-68757609D01*
X162143756Y-68754525D01*
X162143187Y-68753151D01*
X162141787Y-68751751D01*
X162137435Y-68745619D01*
X162129545Y-68739509D01*
X162122495Y-68732459D01*
X162118078Y-68730629D01*
X162114298Y-68727702D01*
X162104674Y-68725077D01*
X162095459Y-68721260D01*
X162090678Y-68721260D01*
X162086066Y-68720002D01*
X162076169Y-68721260D01*
X162066195Y-68721260D01*
X162061779Y-68723089D01*
X162057036Y-68723692D01*
X162048371Y-68728642D01*
X162039159Y-68732459D01*
X162035780Y-68735837D01*
X162031627Y-68738211D01*
X162025517Y-68746100D01*
X162018467Y-68753151D01*
X162016637Y-68757567D01*
X162013710Y-68761348D01*
X162011085Y-68770971D01*
X162007268Y-68780187D01*
X162006531Y-68787669D01*
X162006010Y-68789580D01*
X162006197Y-68791055D01*
X162005827Y-68794819D01*
X161567845Y-68794819D01*
X161562431Y-68789405D01*
X161556681Y-68784686D01*
X161555382Y-68783188D01*
X161553122Y-68781766D01*
X161551066Y-68780078D01*
X161549238Y-68779320D01*
X161542939Y-68775356D01*
X161447701Y-68727737D01*
X161433969Y-68722482D01*
X161431281Y-68722291D01*
X161428792Y-68721260D01*
X161414160Y-68719819D01*
X161223684Y-68719819D01*
X161209052Y-68721260D01*
X161206563Y-68722290D01*
X161203874Y-68722482D01*
X161190143Y-68727737D01*
X161094905Y-68775356D01*
X161088610Y-68779318D01*
X161086778Y-68780077D01*
X161084716Y-68781768D01*
X161082462Y-68783188D01*
X161081163Y-68784684D01*
X161075413Y-68789405D01*
X160980175Y-68884643D01*
X160970848Y-68896008D01*
X160968714Y-68901158D01*
X160965394Y-68905640D01*
X160960447Y-68919486D01*
X160912828Y-69109962D01*
X160912452Y-69112498D01*
X160912030Y-69113520D01*
X160911487Y-69119032D01*
X160910678Y-69124506D01*
X160910840Y-69125598D01*
X160910589Y-69128152D01*
X160489160Y-69128152D01*
X160489160Y-68869819D01*
X160699874Y-68869819D01*
X160714506Y-68868378D01*
X160741542Y-68857179D01*
X160762234Y-68836487D01*
X160773433Y-68809451D01*
X160773433Y-68780187D01*
X160762234Y-68753151D01*
X160741542Y-68732459D01*
X160714506Y-68721260D01*
X160699874Y-68719819D01*
X160128446Y-68719819D01*
X160113814Y-68721260D01*
X160086778Y-68732459D01*
X160066086Y-68753151D01*
X160054887Y-68780187D01*
X160011528Y-68780187D01*
X160000329Y-68753151D01*
X159979637Y-68732459D01*
X159952601Y-68721260D01*
X159937969Y-68719819D01*
X159366541Y-68719819D01*
X159351909Y-68721260D01*
X159324873Y-68732459D01*
X159304181Y-68753151D01*
X159292982Y-68780187D01*
X159106766Y-68780187D01*
X159095567Y-68753151D01*
X159074875Y-68732459D01*
X159047839Y-68721260D01*
X159018575Y-68721260D01*
X158991539Y-68732459D01*
X158970847Y-68753151D01*
X158959648Y-68780187D01*
X158958207Y-68794819D01*
X158958207Y-69586637D01*
X158923948Y-69655153D01*
X158893541Y-69685561D01*
X158825026Y-69719819D01*
X158669960Y-69719819D01*
X158601444Y-69685561D01*
X158571037Y-69655153D01*
X158536779Y-69586637D01*
X158536779Y-68794819D01*
X158535338Y-68780187D01*
X158524139Y-68753151D01*
X158503447Y-68732459D01*
X158476411Y-68721260D01*
X158447147Y-68721260D01*
X158420111Y-68732459D01*
X158399419Y-68753151D01*
X158388220Y-68780187D01*
X158386779Y-68794819D01*
X157948797Y-68794819D01*
X157943383Y-68789405D01*
X157937633Y-68784686D01*
X157936334Y-68783188D01*
X157934074Y-68781766D01*
X157932018Y-68780078D01*
X157930190Y-68779320D01*
X157923891Y-68775356D01*
X157828653Y-68727737D01*
X157814921Y-68722482D01*
X157812233Y-68722291D01*
X157809744Y-68721260D01*
X157795112Y-68719819D01*
X157461779Y-68719819D01*
X157447147Y-68721260D01*
X157420111Y-68732459D01*
X157399419Y-68753151D01*
X157388220Y-68780187D01*
X157386779Y-68794819D01*
X157275668Y-68794819D01*
X157275668Y-68608708D01*
X164600271Y-68608708D01*
X164600271Y-69980930D01*
G37*
G36*
X140693542Y-83379077D02*
G01*
X140765484Y-83451019D01*
X140805826Y-83612386D01*
X140805826Y-83927251D01*
X140765484Y-84088617D01*
X140693541Y-84160561D01*
X140625026Y-84194819D01*
X140469960Y-84194819D01*
X140401444Y-84160561D01*
X140329501Y-84088617D01*
X140289160Y-83927251D01*
X140289160Y-83612386D01*
X140329501Y-83451019D01*
X140401444Y-83379077D01*
X140469960Y-83344819D01*
X140625026Y-83344819D01*
X140693542Y-83379077D01*
G37*
G36*
X139693542Y-83379077D02*
G01*
X139723949Y-83409484D01*
X139758207Y-83478000D01*
X139758207Y-83585447D01*
X139723949Y-83653963D01*
X139693542Y-83684370D01*
X139625026Y-83718628D01*
X139336779Y-83718628D01*
X139336779Y-83344819D01*
X139625026Y-83344819D01*
X139693542Y-83379077D01*
G37*
G36*
X143541687Y-84455930D02*
G01*
X139075668Y-84455930D01*
X139075668Y-83269819D01*
X139186779Y-83269819D01*
X139186779Y-84269819D01*
X139188220Y-84284451D01*
X139199419Y-84311487D01*
X139220111Y-84332179D01*
X139247147Y-84343378D01*
X139276411Y-84343378D01*
X139303447Y-84332179D01*
X139324139Y-84311487D01*
X139335338Y-84284451D01*
X139336779Y-84269819D01*
X139336779Y-83868628D01*
X139642731Y-83868628D01*
X139657363Y-83867187D01*
X139659852Y-83866155D01*
X139662540Y-83865965D01*
X139676272Y-83860710D01*
X139771510Y-83813091D01*
X139777809Y-83809126D01*
X139779637Y-83808369D01*
X139781693Y-83806680D01*
X139783953Y-83805259D01*
X139785252Y-83803760D01*
X139791002Y-83799042D01*
X139838621Y-83751423D01*
X139843339Y-83745673D01*
X139844838Y-83744374D01*
X139846259Y-83742114D01*
X139847948Y-83740058D01*
X139848705Y-83738230D01*
X139852670Y-83731931D01*
X139900289Y-83636693D01*
X139905544Y-83622962D01*
X139905735Y-83620272D01*
X139906766Y-83617784D01*
X139908207Y-83603152D01*
X140139160Y-83603152D01*
X140139160Y-83936485D01*
X140139411Y-83939038D01*
X140139249Y-83940131D01*
X140140058Y-83945604D01*
X140140601Y-83951117D01*
X140141023Y-83952138D01*
X140141399Y-83954675D01*
X140189018Y-84145151D01*
X140193965Y-84158997D01*
X140197284Y-84163476D01*
X140199418Y-84168628D01*
X140208746Y-84179994D01*
X140303984Y-84275233D01*
X140309734Y-84279953D01*
X140311033Y-84281450D01*
X140313287Y-84282869D01*
X140315349Y-84284561D01*
X140317181Y-84285319D01*
X140323476Y-84289282D01*
X140418714Y-84336901D01*
X140432445Y-84342156D01*
X140435134Y-84342347D01*
X140437623Y-84343378D01*
X140452255Y-84344819D01*
X140642731Y-84344819D01*
X140657363Y-84343378D01*
X140659852Y-84342346D01*
X140662540Y-84342156D01*
X140676272Y-84336901D01*
X140771510Y-84289282D01*
X140777809Y-84285317D01*
X140779637Y-84284560D01*
X140781693Y-84282871D01*
X140783953Y-84281450D01*
X140785252Y-84279951D01*
X140791002Y-84275233D01*
X140886241Y-84179993D01*
X140895568Y-84168628D01*
X140897701Y-84163476D01*
X140901021Y-84158997D01*
X140905968Y-84145151D01*
X140953587Y-83954675D01*
X140953962Y-83952138D01*
X140954385Y-83951117D01*
X140954927Y-83945604D01*
X140955737Y-83940131D01*
X140955574Y-83939038D01*
X140955826Y-83936485D01*
X140955826Y-83603152D01*
X140955574Y-83600598D01*
X140955737Y-83599506D01*
X140954927Y-83594032D01*
X140954385Y-83588520D01*
X140953962Y-83587498D01*
X140953587Y-83584962D01*
X140905968Y-83394486D01*
X140901021Y-83380640D01*
X140897702Y-83376161D01*
X140895568Y-83371008D01*
X140886240Y-83359643D01*
X140791002Y-83264405D01*
X140785252Y-83259686D01*
X140783953Y-83258188D01*
X140781693Y-83256766D01*
X140779770Y-83255187D01*
X141092982Y-83255187D01*
X141092982Y-83284451D01*
X141104181Y-83311487D01*
X141124873Y-83332179D01*
X141151909Y-83343378D01*
X141166541Y-83344819D01*
X141377255Y-83344819D01*
X141377255Y-84269819D01*
X141378696Y-84284451D01*
X141389895Y-84311487D01*
X141410587Y-84332179D01*
X141437623Y-84343378D01*
X141466887Y-84343378D01*
X141493923Y-84332179D01*
X141514615Y-84311487D01*
X141525814Y-84284451D01*
X141527255Y-84269819D01*
X141527255Y-83546152D01*
X142711178Y-83546152D01*
X142713252Y-83575342D01*
X142726339Y-83601517D01*
X142748447Y-83620690D01*
X142776208Y-83629944D01*
X142805398Y-83627870D01*
X142819130Y-83622615D01*
X142914368Y-83574996D01*
X142920667Y-83571031D01*
X142922495Y-83570274D01*
X142924551Y-83568585D01*
X142926811Y-83567164D01*
X142928110Y-83565665D01*
X142933860Y-83560947D01*
X142996303Y-83498504D01*
X142996303Y-84194819D01*
X142785589Y-84194819D01*
X142770957Y-84196260D01*
X142743921Y-84207459D01*
X142723229Y-84228151D01*
X142712030Y-84255187D01*
X142712030Y-84284451D01*
X142723229Y-84311487D01*
X142743921Y-84332179D01*
X142770957Y-84343378D01*
X142785589Y-84344819D01*
X143357017Y-84344819D01*
X143371649Y-84343378D01*
X143398685Y-84332179D01*
X143419377Y-84311487D01*
X143430576Y-84284451D01*
X143430576Y-84255187D01*
X143419377Y-84228151D01*
X143398685Y-84207459D01*
X143371649Y-84196260D01*
X143357017Y-84194819D01*
X143146303Y-84194819D01*
X143146303Y-83269819D01*
X143146297Y-83269766D01*
X143146303Y-83269740D01*
X143146287Y-83269663D01*
X143144862Y-83255187D01*
X143142020Y-83248326D01*
X143140564Y-83241045D01*
X143136474Y-83234938D01*
X143133663Y-83228151D01*
X143128414Y-83222902D01*
X143124281Y-83216730D01*
X143118164Y-83212652D01*
X143112971Y-83207459D01*
X143106111Y-83204617D01*
X143099932Y-83200498D01*
X143092723Y-83199072D01*
X143085935Y-83196260D01*
X143078508Y-83196260D01*
X143071224Y-83194819D01*
X143064019Y-83196260D01*
X143056671Y-83196260D01*
X143049810Y-83199101D01*
X143042530Y-83200558D01*
X143036424Y-83204646D01*
X143029635Y-83207459D01*
X143024384Y-83212709D01*
X143018215Y-83216841D01*
X143008994Y-83228099D01*
X143008943Y-83228151D01*
X143008933Y-83228173D01*
X143008899Y-83228216D01*
X142917779Y-83364896D01*
X142836400Y-83446275D01*
X142752048Y-83488451D01*
X142739605Y-83496283D01*
X142720432Y-83518391D01*
X142711178Y-83546152D01*
X141527255Y-83546152D01*
X141527255Y-83344819D01*
X141737969Y-83344819D01*
X141752601Y-83343378D01*
X141779637Y-83332179D01*
X141800329Y-83311487D01*
X141811528Y-83284451D01*
X141811528Y-83255187D01*
X141800329Y-83228151D01*
X141779637Y-83207459D01*
X141752601Y-83196260D01*
X141737969Y-83194819D01*
X141166541Y-83194819D01*
X141151909Y-83196260D01*
X141124873Y-83207459D01*
X141104181Y-83228151D01*
X141092982Y-83255187D01*
X140779770Y-83255187D01*
X140779637Y-83255078D01*
X140777809Y-83254320D01*
X140771510Y-83250356D01*
X140676272Y-83202737D01*
X140662540Y-83197482D01*
X140659852Y-83197291D01*
X140657363Y-83196260D01*
X140642731Y-83194819D01*
X140452255Y-83194819D01*
X140437623Y-83196260D01*
X140435134Y-83197290D01*
X140432445Y-83197482D01*
X140418714Y-83202737D01*
X140323476Y-83250356D01*
X140317181Y-83254318D01*
X140315349Y-83255077D01*
X140313287Y-83256768D01*
X140311033Y-83258188D01*
X140309734Y-83259684D01*
X140303984Y-83264405D01*
X140208746Y-83359643D01*
X140199419Y-83371008D01*
X140197285Y-83376158D01*
X140193965Y-83380640D01*
X140189018Y-83394486D01*
X140141399Y-83584962D01*
X140141023Y-83587498D01*
X140140601Y-83588520D01*
X140140058Y-83594032D01*
X140139249Y-83599506D01*
X140139411Y-83600598D01*
X140139160Y-83603152D01*
X139908207Y-83603152D01*
X139908207Y-83460295D01*
X139906766Y-83445663D01*
X139905735Y-83443174D01*
X139905544Y-83440485D01*
X139900289Y-83426754D01*
X139852670Y-83331516D01*
X139848705Y-83325216D01*
X139847948Y-83323389D01*
X139846259Y-83321332D01*
X139844838Y-83319073D01*
X139843339Y-83317773D01*
X139838621Y-83312024D01*
X139791002Y-83264405D01*
X139785252Y-83259686D01*
X139783953Y-83258188D01*
X139781693Y-83256766D01*
X139779637Y-83255078D01*
X139777809Y-83254320D01*
X139771510Y-83250356D01*
X139676272Y-83202737D01*
X139662540Y-83197482D01*
X139659852Y-83197291D01*
X139657363Y-83196260D01*
X139642731Y-83194819D01*
X139261779Y-83194819D01*
X139247147Y-83196260D01*
X139220111Y-83207459D01*
X139199419Y-83228151D01*
X139188220Y-83255187D01*
X139186779Y-83269819D01*
X139075668Y-83269819D01*
X139075668Y-83083708D01*
X143541687Y-83083708D01*
X143541687Y-84455930D01*
G37*
X106422200Y-54410839D02*
X106469819Y-54267982D01*
X106469819Y-54267982D02*
X106469819Y-54029887D01*
X106469819Y-54029887D02*
X106422200Y-53934649D01*
X106422200Y-53934649D02*
X106374580Y-53887030D01*
X106374580Y-53887030D02*
X106279342Y-53839411D01*
X106279342Y-53839411D02*
X106184104Y-53839411D01*
X106184104Y-53839411D02*
X106088866Y-53887030D01*
X106088866Y-53887030D02*
X106041247Y-53934649D01*
X106041247Y-53934649D02*
X105993628Y-54029887D01*
X105993628Y-54029887D02*
X105946009Y-54220363D01*
X105946009Y-54220363D02*
X105898390Y-54315601D01*
X105898390Y-54315601D02*
X105850771Y-54363220D01*
X105850771Y-54363220D02*
X105755533Y-54410839D01*
X105755533Y-54410839D02*
X105660295Y-54410839D01*
X105660295Y-54410839D02*
X105565057Y-54363220D01*
X105565057Y-54363220D02*
X105517438Y-54315601D01*
X105517438Y-54315601D02*
X105469819Y-54220363D01*
X105469819Y-54220363D02*
X105469819Y-53982268D01*
X105469819Y-53982268D02*
X105517438Y-53839411D01*
X106469819Y-53410839D02*
X105469819Y-53410839D01*
X105469819Y-53410839D02*
X105469819Y-53172744D01*
X105469819Y-53172744D02*
X105517438Y-53029887D01*
X105517438Y-53029887D02*
X105612676Y-52934649D01*
X105612676Y-52934649D02*
X105707914Y-52887030D01*
X105707914Y-52887030D02*
X105898390Y-52839411D01*
X105898390Y-52839411D02*
X106041247Y-52839411D01*
X106041247Y-52839411D02*
X106231723Y-52887030D01*
X106231723Y-52887030D02*
X106326961Y-52934649D01*
X106326961Y-52934649D02*
X106422200Y-53029887D01*
X106422200Y-53029887D02*
X106469819Y-53172744D01*
X106469819Y-53172744D02*
X106469819Y-53410839D01*
X106184104Y-52458458D02*
X106184104Y-51982268D01*
X106469819Y-52553696D02*
X105469819Y-52220363D01*
X105469819Y-52220363D02*
X106469819Y-51887030D01*
X103822200Y-54310839D02*
X103869819Y-54167982D01*
X103869819Y-54167982D02*
X103869819Y-53929887D01*
X103869819Y-53929887D02*
X103822200Y-53834649D01*
X103822200Y-53834649D02*
X103774580Y-53787030D01*
X103774580Y-53787030D02*
X103679342Y-53739411D01*
X103679342Y-53739411D02*
X103584104Y-53739411D01*
X103584104Y-53739411D02*
X103488866Y-53787030D01*
X103488866Y-53787030D02*
X103441247Y-53834649D01*
X103441247Y-53834649D02*
X103393628Y-53929887D01*
X103393628Y-53929887D02*
X103346009Y-54120363D01*
X103346009Y-54120363D02*
X103298390Y-54215601D01*
X103298390Y-54215601D02*
X103250771Y-54263220D01*
X103250771Y-54263220D02*
X103155533Y-54310839D01*
X103155533Y-54310839D02*
X103060295Y-54310839D01*
X103060295Y-54310839D02*
X102965057Y-54263220D01*
X102965057Y-54263220D02*
X102917438Y-54215601D01*
X102917438Y-54215601D02*
X102869819Y-54120363D01*
X102869819Y-54120363D02*
X102869819Y-53882268D01*
X102869819Y-53882268D02*
X102917438Y-53739411D01*
X103774580Y-52739411D02*
X103822200Y-52787030D01*
X103822200Y-52787030D02*
X103869819Y-52929887D01*
X103869819Y-52929887D02*
X103869819Y-53025125D01*
X103869819Y-53025125D02*
X103822200Y-53167982D01*
X103822200Y-53167982D02*
X103726961Y-53263220D01*
X103726961Y-53263220D02*
X103631723Y-53310839D01*
X103631723Y-53310839D02*
X103441247Y-53358458D01*
X103441247Y-53358458D02*
X103298390Y-53358458D01*
X103298390Y-53358458D02*
X103107914Y-53310839D01*
X103107914Y-53310839D02*
X103012676Y-53263220D01*
X103012676Y-53263220D02*
X102917438Y-53167982D01*
X102917438Y-53167982D02*
X102869819Y-53025125D01*
X102869819Y-53025125D02*
X102869819Y-52929887D01*
X102869819Y-52929887D02*
X102917438Y-52787030D01*
X102917438Y-52787030D02*
X102965057Y-52739411D01*
X103869819Y-51834649D02*
X103869819Y-52310839D01*
X103869819Y-52310839D02*
X102869819Y-52310839D01*
G36*
X128543542Y-83554077D02*
G01*
X128615484Y-83626019D01*
X128655826Y-83787386D01*
X128655826Y-84102251D01*
X128615484Y-84263617D01*
X128543541Y-84335561D01*
X128475026Y-84369819D01*
X128319960Y-84369819D01*
X128251444Y-84335561D01*
X128179501Y-84263617D01*
X128139160Y-84102251D01*
X128139160Y-83787386D01*
X128179501Y-83626019D01*
X128251444Y-83554077D01*
X128319960Y-83519819D01*
X128475026Y-83519819D01*
X128543542Y-83554077D01*
G37*
G36*
X127543542Y-83554077D02*
G01*
X127573949Y-83584484D01*
X127608207Y-83653000D01*
X127608207Y-83760447D01*
X127573949Y-83828963D01*
X127543542Y-83859370D01*
X127475026Y-83893628D01*
X127186779Y-83893628D01*
X127186779Y-83519819D01*
X127475026Y-83519819D01*
X127543542Y-83554077D01*
G37*
G36*
X131393128Y-84630930D02*
G01*
X126925668Y-84630930D01*
X126925668Y-83444819D01*
X127036779Y-83444819D01*
X127036779Y-84444819D01*
X127038220Y-84459451D01*
X127049419Y-84486487D01*
X127070111Y-84507179D01*
X127097147Y-84518378D01*
X127126411Y-84518378D01*
X127153447Y-84507179D01*
X127174139Y-84486487D01*
X127185338Y-84459451D01*
X127186779Y-84444819D01*
X127186779Y-84043628D01*
X127492731Y-84043628D01*
X127507363Y-84042187D01*
X127509852Y-84041155D01*
X127512540Y-84040965D01*
X127526272Y-84035710D01*
X127621510Y-83988091D01*
X127627809Y-83984126D01*
X127629637Y-83983369D01*
X127631693Y-83981680D01*
X127633953Y-83980259D01*
X127635252Y-83978760D01*
X127641002Y-83974042D01*
X127688621Y-83926423D01*
X127693339Y-83920673D01*
X127694838Y-83919374D01*
X127696259Y-83917114D01*
X127697948Y-83915058D01*
X127698705Y-83913230D01*
X127702670Y-83906931D01*
X127750289Y-83811693D01*
X127755544Y-83797962D01*
X127755735Y-83795272D01*
X127756766Y-83792784D01*
X127758207Y-83778152D01*
X127989160Y-83778152D01*
X127989160Y-84111485D01*
X127989411Y-84114038D01*
X127989249Y-84115131D01*
X127990058Y-84120604D01*
X127990601Y-84126117D01*
X127991023Y-84127138D01*
X127991399Y-84129675D01*
X128039018Y-84320151D01*
X128043965Y-84333997D01*
X128047284Y-84338476D01*
X128049418Y-84343628D01*
X128058746Y-84354994D01*
X128153984Y-84450233D01*
X128159734Y-84454953D01*
X128161033Y-84456450D01*
X128163287Y-84457869D01*
X128165349Y-84459561D01*
X128167181Y-84460319D01*
X128173476Y-84464282D01*
X128268714Y-84511901D01*
X128282445Y-84517156D01*
X128285134Y-84517347D01*
X128287623Y-84518378D01*
X128302255Y-84519819D01*
X128492731Y-84519819D01*
X128507363Y-84518378D01*
X128509852Y-84517346D01*
X128512540Y-84517156D01*
X128526272Y-84511901D01*
X128621510Y-84464282D01*
X128627809Y-84460317D01*
X128629637Y-84459560D01*
X128631693Y-84457871D01*
X128633953Y-84456450D01*
X128635252Y-84454951D01*
X128641002Y-84450233D01*
X128736241Y-84354993D01*
X128745568Y-84343628D01*
X128747701Y-84338476D01*
X128751021Y-84333997D01*
X128755968Y-84320151D01*
X128803587Y-84129675D01*
X128803962Y-84127138D01*
X128804385Y-84126117D01*
X128804927Y-84120604D01*
X128805737Y-84115131D01*
X128805574Y-84114038D01*
X128805826Y-84111485D01*
X128805826Y-83778152D01*
X128805574Y-83775598D01*
X128805737Y-83774506D01*
X128804927Y-83769032D01*
X128804385Y-83763520D01*
X128803962Y-83762498D01*
X128803587Y-83759962D01*
X128755968Y-83569486D01*
X128751021Y-83555640D01*
X128747702Y-83551161D01*
X128745568Y-83546008D01*
X128736240Y-83534643D01*
X128641002Y-83439405D01*
X128635252Y-83434686D01*
X128633953Y-83433188D01*
X128631693Y-83431766D01*
X128629770Y-83430187D01*
X128942982Y-83430187D01*
X128942982Y-83459451D01*
X128954181Y-83486487D01*
X128974873Y-83507179D01*
X129001909Y-83518378D01*
X129016541Y-83519819D01*
X129227255Y-83519819D01*
X129227255Y-84444819D01*
X129228696Y-84459451D01*
X129239895Y-84486487D01*
X129260587Y-84507179D01*
X129287623Y-84518378D01*
X129316887Y-84518378D01*
X129343923Y-84507179D01*
X129364615Y-84486487D01*
X129375814Y-84459451D01*
X129377255Y-84444819D01*
X129377255Y-84430187D01*
X130514411Y-84430187D01*
X130514411Y-84459451D01*
X130525610Y-84486487D01*
X130546302Y-84507179D01*
X130573338Y-84518378D01*
X130587970Y-84519819D01*
X131207017Y-84519819D01*
X131221649Y-84518378D01*
X131248685Y-84507179D01*
X131269377Y-84486487D01*
X131280576Y-84459451D01*
X131280576Y-84430187D01*
X131269377Y-84403151D01*
X131248685Y-84382459D01*
X131221649Y-84371260D01*
X131207017Y-84369819D01*
X130769036Y-84369819D01*
X131212431Y-83926423D01*
X131221759Y-83915058D01*
X131222790Y-83912567D01*
X131224555Y-83910533D01*
X131230549Y-83897107D01*
X131278168Y-83754251D01*
X131279817Y-83746995D01*
X131280576Y-83745165D01*
X131280837Y-83742511D01*
X131281428Y-83739914D01*
X131281287Y-83737939D01*
X131282017Y-83730533D01*
X131282017Y-83635295D01*
X131280576Y-83620663D01*
X131279545Y-83618174D01*
X131279354Y-83615485D01*
X131274099Y-83601754D01*
X131226480Y-83506516D01*
X131222515Y-83500216D01*
X131221758Y-83498389D01*
X131220069Y-83496332D01*
X131218648Y-83494073D01*
X131217149Y-83492773D01*
X131212431Y-83487024D01*
X131164812Y-83439405D01*
X131159062Y-83434686D01*
X131157763Y-83433188D01*
X131155503Y-83431766D01*
X131153447Y-83430078D01*
X131151619Y-83429320D01*
X131145320Y-83425356D01*
X131050082Y-83377737D01*
X131036350Y-83372482D01*
X131033662Y-83372291D01*
X131031173Y-83371260D01*
X131016541Y-83369819D01*
X130778446Y-83369819D01*
X130763814Y-83371260D01*
X130761325Y-83372290D01*
X130758636Y-83372482D01*
X130744905Y-83377737D01*
X130649667Y-83425356D01*
X130643367Y-83429320D01*
X130641540Y-83430078D01*
X130639483Y-83431766D01*
X130637224Y-83433188D01*
X130635924Y-83434686D01*
X130630175Y-83439405D01*
X130582556Y-83487024D01*
X130573229Y-83498389D01*
X130562030Y-83525426D01*
X130562030Y-83554688D01*
X130573229Y-83581725D01*
X130593921Y-83602417D01*
X130620958Y-83613616D01*
X130650220Y-83613616D01*
X130677257Y-83602417D01*
X130688622Y-83593090D01*
X130727635Y-83554077D01*
X130796151Y-83519819D01*
X130998836Y-83519819D01*
X131067352Y-83554077D01*
X131097759Y-83584484D01*
X131132017Y-83653000D01*
X131132017Y-83718363D01*
X131093845Y-83832876D01*
X130534937Y-84391786D01*
X130525610Y-84403151D01*
X130514411Y-84430187D01*
X129377255Y-84430187D01*
X129377255Y-83519819D01*
X129587969Y-83519819D01*
X129602601Y-83518378D01*
X129629637Y-83507179D01*
X129650329Y-83486487D01*
X129661528Y-83459451D01*
X129661528Y-83430187D01*
X129650329Y-83403151D01*
X129629637Y-83382459D01*
X129602601Y-83371260D01*
X129587969Y-83369819D01*
X129016541Y-83369819D01*
X129001909Y-83371260D01*
X128974873Y-83382459D01*
X128954181Y-83403151D01*
X128942982Y-83430187D01*
X128629770Y-83430187D01*
X128629637Y-83430078D01*
X128627809Y-83429320D01*
X128621510Y-83425356D01*
X128526272Y-83377737D01*
X128512540Y-83372482D01*
X128509852Y-83372291D01*
X128507363Y-83371260D01*
X128492731Y-83369819D01*
X128302255Y-83369819D01*
X128287623Y-83371260D01*
X128285134Y-83372290D01*
X128282445Y-83372482D01*
X128268714Y-83377737D01*
X128173476Y-83425356D01*
X128167181Y-83429318D01*
X128165349Y-83430077D01*
X128163287Y-83431768D01*
X128161033Y-83433188D01*
X128159734Y-83434684D01*
X128153984Y-83439405D01*
X128058746Y-83534643D01*
X128049419Y-83546008D01*
X128047285Y-83551158D01*
X128043965Y-83555640D01*
X128039018Y-83569486D01*
X127991399Y-83759962D01*
X127991023Y-83762498D01*
X127990601Y-83763520D01*
X127990058Y-83769032D01*
X127989249Y-83774506D01*
X127989411Y-83775598D01*
X127989160Y-83778152D01*
X127758207Y-83778152D01*
X127758207Y-83635295D01*
X127756766Y-83620663D01*
X127755735Y-83618174D01*
X127755544Y-83615485D01*
X127750289Y-83601754D01*
X127702670Y-83506516D01*
X127698705Y-83500216D01*
X127697948Y-83498389D01*
X127696259Y-83496332D01*
X127694838Y-83494073D01*
X127693339Y-83492773D01*
X127688621Y-83487024D01*
X127641002Y-83439405D01*
X127635252Y-83434686D01*
X127633953Y-83433188D01*
X127631693Y-83431766D01*
X127629637Y-83430078D01*
X127627809Y-83429320D01*
X127621510Y-83425356D01*
X127526272Y-83377737D01*
X127512540Y-83372482D01*
X127509852Y-83372291D01*
X127507363Y-83371260D01*
X127492731Y-83369819D01*
X127111779Y-83369819D01*
X127097147Y-83371260D01*
X127070111Y-83382459D01*
X127049419Y-83403151D01*
X127038220Y-83430187D01*
X127036779Y-83444819D01*
X126925668Y-83444819D01*
X126925668Y-83258708D01*
X131393128Y-83258708D01*
X131393128Y-84630930D01*
G37*
X97527255Y-47079819D02*
X97717731Y-47079819D01*
X97717731Y-47079819D02*
X97812969Y-47127438D01*
X97812969Y-47127438D02*
X97908207Y-47222676D01*
X97908207Y-47222676D02*
X97955826Y-47413152D01*
X97955826Y-47413152D02*
X97955826Y-47746485D01*
X97955826Y-47746485D02*
X97908207Y-47936961D01*
X97908207Y-47936961D02*
X97812969Y-48032200D01*
X97812969Y-48032200D02*
X97717731Y-48079819D01*
X97717731Y-48079819D02*
X97527255Y-48079819D01*
X97527255Y-48079819D02*
X97432017Y-48032200D01*
X97432017Y-48032200D02*
X97336779Y-47936961D01*
X97336779Y-47936961D02*
X97289160Y-47746485D01*
X97289160Y-47746485D02*
X97289160Y-47413152D01*
X97289160Y-47413152D02*
X97336779Y-47222676D01*
X97336779Y-47222676D02*
X97432017Y-47127438D01*
X97432017Y-47127438D02*
X97527255Y-47079819D01*
X98860588Y-48079819D02*
X98384398Y-48079819D01*
X98384398Y-48079819D02*
X98384398Y-47079819D01*
X99193922Y-47556009D02*
X99527255Y-47556009D01*
X99670112Y-48079819D02*
X99193922Y-48079819D01*
X99193922Y-48079819D02*
X99193922Y-47079819D01*
X99193922Y-47079819D02*
X99670112Y-47079819D01*
X100098684Y-48079819D02*
X100098684Y-47079819D01*
X100098684Y-47079819D02*
X100336779Y-47079819D01*
X100336779Y-47079819D02*
X100479636Y-47127438D01*
X100479636Y-47127438D02*
X100574874Y-47222676D01*
X100574874Y-47222676D02*
X100622493Y-47317914D01*
X100622493Y-47317914D02*
X100670112Y-47508390D01*
X100670112Y-47508390D02*
X100670112Y-47651247D01*
X100670112Y-47651247D02*
X100622493Y-47841723D01*
X100622493Y-47841723D02*
X100574874Y-47936961D01*
X100574874Y-47936961D02*
X100479636Y-48032200D01*
X100479636Y-48032200D02*
X100336779Y-48079819D01*
X100336779Y-48079819D02*
X100098684Y-48079819D01*
X102384398Y-48079819D02*
X101812970Y-48079819D01*
X102098684Y-48079819D02*
X102098684Y-47079819D01*
X102098684Y-47079819D02*
X102003446Y-47222676D01*
X102003446Y-47222676D02*
X101908208Y-47317914D01*
X101908208Y-47317914D02*
X101812970Y-47365533D01*
X102765351Y-47175057D02*
X102812970Y-47127438D01*
X102812970Y-47127438D02*
X102908208Y-47079819D01*
X102908208Y-47079819D02*
X103146303Y-47079819D01*
X103146303Y-47079819D02*
X103241541Y-47127438D01*
X103241541Y-47127438D02*
X103289160Y-47175057D01*
X103289160Y-47175057D02*
X103336779Y-47270295D01*
X103336779Y-47270295D02*
X103336779Y-47365533D01*
X103336779Y-47365533D02*
X103289160Y-47508390D01*
X103289160Y-47508390D02*
X102717732Y-48079819D01*
X102717732Y-48079819D02*
X103336779Y-48079819D01*
X103908208Y-47508390D02*
X103812970Y-47460771D01*
X103812970Y-47460771D02*
X103765351Y-47413152D01*
X103765351Y-47413152D02*
X103717732Y-47317914D01*
X103717732Y-47317914D02*
X103717732Y-47270295D01*
X103717732Y-47270295D02*
X103765351Y-47175057D01*
X103765351Y-47175057D02*
X103812970Y-47127438D01*
X103812970Y-47127438D02*
X103908208Y-47079819D01*
X103908208Y-47079819D02*
X104098684Y-47079819D01*
X104098684Y-47079819D02*
X104193922Y-47127438D01*
X104193922Y-47127438D02*
X104241541Y-47175057D01*
X104241541Y-47175057D02*
X104289160Y-47270295D01*
X104289160Y-47270295D02*
X104289160Y-47317914D01*
X104289160Y-47317914D02*
X104241541Y-47413152D01*
X104241541Y-47413152D02*
X104193922Y-47460771D01*
X104193922Y-47460771D02*
X104098684Y-47508390D01*
X104098684Y-47508390D02*
X103908208Y-47508390D01*
X103908208Y-47508390D02*
X103812970Y-47556009D01*
X103812970Y-47556009D02*
X103765351Y-47603628D01*
X103765351Y-47603628D02*
X103717732Y-47698866D01*
X103717732Y-47698866D02*
X103717732Y-47889342D01*
X103717732Y-47889342D02*
X103765351Y-47984580D01*
X103765351Y-47984580D02*
X103812970Y-48032200D01*
X103812970Y-48032200D02*
X103908208Y-48079819D01*
X103908208Y-48079819D02*
X104098684Y-48079819D01*
X104098684Y-48079819D02*
X104193922Y-48032200D01*
X104193922Y-48032200D02*
X104241541Y-47984580D01*
X104241541Y-47984580D02*
X104289160Y-47889342D01*
X104289160Y-47889342D02*
X104289160Y-47698866D01*
X104289160Y-47698866D02*
X104241541Y-47603628D01*
X104241541Y-47603628D02*
X104193922Y-47556009D01*
X104193922Y-47556009D02*
X104098684Y-47508390D01*
X104622494Y-48079819D02*
X105146303Y-47413152D01*
X104622494Y-47413152D02*
X105146303Y-48079819D01*
X105432018Y-47079819D02*
X106051065Y-47079819D01*
X106051065Y-47079819D02*
X105717732Y-47460771D01*
X105717732Y-47460771D02*
X105860589Y-47460771D01*
X105860589Y-47460771D02*
X105955827Y-47508390D01*
X105955827Y-47508390D02*
X106003446Y-47556009D01*
X106003446Y-47556009D02*
X106051065Y-47651247D01*
X106051065Y-47651247D02*
X106051065Y-47889342D01*
X106051065Y-47889342D02*
X106003446Y-47984580D01*
X106003446Y-47984580D02*
X105955827Y-48032200D01*
X105955827Y-48032200D02*
X105860589Y-48079819D01*
X105860589Y-48079819D02*
X105574875Y-48079819D01*
X105574875Y-48079819D02*
X105479637Y-48032200D01*
X105479637Y-48032200D02*
X105432018Y-47984580D01*
X106432018Y-47175057D02*
X106479637Y-47127438D01*
X106479637Y-47127438D02*
X106574875Y-47079819D01*
X106574875Y-47079819D02*
X106812970Y-47079819D01*
X106812970Y-47079819D02*
X106908208Y-47127438D01*
X106908208Y-47127438D02*
X106955827Y-47175057D01*
X106955827Y-47175057D02*
X107003446Y-47270295D01*
X107003446Y-47270295D02*
X107003446Y-47365533D01*
X107003446Y-47365533D02*
X106955827Y-47508390D01*
X106955827Y-47508390D02*
X106384399Y-48079819D01*
X106384399Y-48079819D02*
X107003446Y-48079819D01*
X95249819Y-90287030D02*
X95249819Y-90763220D01*
X95249819Y-90763220D02*
X95726009Y-90810839D01*
X95726009Y-90810839D02*
X95678390Y-90763220D01*
X95678390Y-90763220D02*
X95630771Y-90667982D01*
X95630771Y-90667982D02*
X95630771Y-90429887D01*
X95630771Y-90429887D02*
X95678390Y-90334649D01*
X95678390Y-90334649D02*
X95726009Y-90287030D01*
X95726009Y-90287030D02*
X95821247Y-90239411D01*
X95821247Y-90239411D02*
X96059342Y-90239411D01*
X96059342Y-90239411D02*
X96154580Y-90287030D01*
X96154580Y-90287030D02*
X96202200Y-90334649D01*
X96202200Y-90334649D02*
X96249819Y-90429887D01*
X96249819Y-90429887D02*
X96249819Y-90667982D01*
X96249819Y-90667982D02*
X96202200Y-90763220D01*
X96202200Y-90763220D02*
X96154580Y-90810839D01*
X95249819Y-89953696D02*
X96249819Y-89620363D01*
X96249819Y-89620363D02*
X95249819Y-89287030D01*
X97897438Y-90189411D02*
X97849819Y-90284649D01*
X97849819Y-90284649D02*
X97849819Y-90427506D01*
X97849819Y-90427506D02*
X97897438Y-90570363D01*
X97897438Y-90570363D02*
X97992676Y-90665601D01*
X97992676Y-90665601D02*
X98087914Y-90713220D01*
X98087914Y-90713220D02*
X98278390Y-90760839D01*
X98278390Y-90760839D02*
X98421247Y-90760839D01*
X98421247Y-90760839D02*
X98611723Y-90713220D01*
X98611723Y-90713220D02*
X98706961Y-90665601D01*
X98706961Y-90665601D02*
X98802200Y-90570363D01*
X98802200Y-90570363D02*
X98849819Y-90427506D01*
X98849819Y-90427506D02*
X98849819Y-90332268D01*
X98849819Y-90332268D02*
X98802200Y-90189411D01*
X98802200Y-90189411D02*
X98754580Y-90141792D01*
X98754580Y-90141792D02*
X98421247Y-90141792D01*
X98421247Y-90141792D02*
X98421247Y-90332268D01*
X98849819Y-89713220D02*
X97849819Y-89713220D01*
X97849819Y-89713220D02*
X98849819Y-89141792D01*
X98849819Y-89141792D02*
X97849819Y-89141792D01*
X98849819Y-88665601D02*
X97849819Y-88665601D01*
X97849819Y-88665601D02*
X97849819Y-88427506D01*
X97849819Y-88427506D02*
X97897438Y-88284649D01*
X97897438Y-88284649D02*
X97992676Y-88189411D01*
X97992676Y-88189411D02*
X98087914Y-88141792D01*
X98087914Y-88141792D02*
X98278390Y-88094173D01*
X98278390Y-88094173D02*
X98421247Y-88094173D01*
X98421247Y-88094173D02*
X98611723Y-88141792D01*
X98611723Y-88141792D02*
X98706961Y-88189411D01*
X98706961Y-88189411D02*
X98802200Y-88284649D01*
X98802200Y-88284649D02*
X98849819Y-88427506D01*
X98849819Y-88427506D02*
X98849819Y-88665601D01*
X98506779Y-95919819D02*
X98506779Y-94919819D01*
X98982969Y-95919819D02*
X98982969Y-94919819D01*
X98982969Y-94919819D02*
X99316302Y-95634104D01*
X99316302Y-95634104D02*
X99649635Y-94919819D01*
X99649635Y-94919819D02*
X99649635Y-95919819D01*
X100125826Y-94919819D02*
X100125826Y-95729342D01*
X100125826Y-95729342D02*
X100173445Y-95824580D01*
X100173445Y-95824580D02*
X100221064Y-95872200D01*
X100221064Y-95872200D02*
X100316302Y-95919819D01*
X100316302Y-95919819D02*
X100506778Y-95919819D01*
X100506778Y-95919819D02*
X100602016Y-95872200D01*
X100602016Y-95872200D02*
X100649635Y-95824580D01*
X100649635Y-95824580D02*
X100697254Y-95729342D01*
X100697254Y-95729342D02*
X100697254Y-94919819D01*
X101935350Y-95919819D02*
X101935350Y-94919819D01*
X101935350Y-94919819D02*
X102268683Y-95634104D01*
X102268683Y-95634104D02*
X102602016Y-94919819D01*
X102602016Y-94919819D02*
X102602016Y-95919819D01*
X103078207Y-95919819D02*
X103078207Y-94919819D01*
X103078207Y-94919819D02*
X103459159Y-94919819D01*
X103459159Y-94919819D02*
X103554397Y-94967438D01*
X103554397Y-94967438D02*
X103602016Y-95015057D01*
X103602016Y-95015057D02*
X103649635Y-95110295D01*
X103649635Y-95110295D02*
X103649635Y-95253152D01*
X103649635Y-95253152D02*
X103602016Y-95348390D01*
X103602016Y-95348390D02*
X103554397Y-95396009D01*
X103554397Y-95396009D02*
X103459159Y-95443628D01*
X103459159Y-95443628D02*
X103078207Y-95443628D01*
X104078207Y-94919819D02*
X104078207Y-95729342D01*
X104078207Y-95729342D02*
X104125826Y-95824580D01*
X104125826Y-95824580D02*
X104173445Y-95872200D01*
X104173445Y-95872200D02*
X104268683Y-95919819D01*
X104268683Y-95919819D02*
X104459159Y-95919819D01*
X104459159Y-95919819D02*
X104554397Y-95872200D01*
X104554397Y-95872200D02*
X104602016Y-95824580D01*
X104602016Y-95824580D02*
X104649635Y-95729342D01*
X104649635Y-95729342D02*
X104649635Y-94919819D01*
X106316302Y-94919819D02*
X106125826Y-94919819D01*
X106125826Y-94919819D02*
X106030588Y-94967438D01*
X106030588Y-94967438D02*
X105982969Y-95015057D01*
X105982969Y-95015057D02*
X105887731Y-95157914D01*
X105887731Y-95157914D02*
X105840112Y-95348390D01*
X105840112Y-95348390D02*
X105840112Y-95729342D01*
X105840112Y-95729342D02*
X105887731Y-95824580D01*
X105887731Y-95824580D02*
X105935350Y-95872200D01*
X105935350Y-95872200D02*
X106030588Y-95919819D01*
X106030588Y-95919819D02*
X106221064Y-95919819D01*
X106221064Y-95919819D02*
X106316302Y-95872200D01*
X106316302Y-95872200D02*
X106363921Y-95824580D01*
X106363921Y-95824580D02*
X106411540Y-95729342D01*
X106411540Y-95729342D02*
X106411540Y-95491247D01*
X106411540Y-95491247D02*
X106363921Y-95396009D01*
X106363921Y-95396009D02*
X106316302Y-95348390D01*
X106316302Y-95348390D02*
X106221064Y-95300771D01*
X106221064Y-95300771D02*
X106030588Y-95300771D01*
X106030588Y-95300771D02*
X105935350Y-95348390D01*
X105935350Y-95348390D02*
X105887731Y-95396009D01*
X105887731Y-95396009D02*
X105840112Y-95491247D01*
X107030588Y-94919819D02*
X107125826Y-94919819D01*
X107125826Y-94919819D02*
X107221064Y-94967438D01*
X107221064Y-94967438D02*
X107268683Y-95015057D01*
X107268683Y-95015057D02*
X107316302Y-95110295D01*
X107316302Y-95110295D02*
X107363921Y-95300771D01*
X107363921Y-95300771D02*
X107363921Y-95538866D01*
X107363921Y-95538866D02*
X107316302Y-95729342D01*
X107316302Y-95729342D02*
X107268683Y-95824580D01*
X107268683Y-95824580D02*
X107221064Y-95872200D01*
X107221064Y-95872200D02*
X107125826Y-95919819D01*
X107125826Y-95919819D02*
X107030588Y-95919819D01*
X107030588Y-95919819D02*
X106935350Y-95872200D01*
X106935350Y-95872200D02*
X106887731Y-95824580D01*
X106887731Y-95824580D02*
X106840112Y-95729342D01*
X106840112Y-95729342D02*
X106792493Y-95538866D01*
X106792493Y-95538866D02*
X106792493Y-95300771D01*
X106792493Y-95300771D02*
X106840112Y-95110295D01*
X106840112Y-95110295D02*
X106887731Y-95015057D01*
X106887731Y-95015057D02*
X106935350Y-94967438D01*
X106935350Y-94967438D02*
X107030588Y-94919819D01*
X108268683Y-94919819D02*
X107792493Y-94919819D01*
X107792493Y-94919819D02*
X107744874Y-95396009D01*
X107744874Y-95396009D02*
X107792493Y-95348390D01*
X107792493Y-95348390D02*
X107887731Y-95300771D01*
X107887731Y-95300771D02*
X108125826Y-95300771D01*
X108125826Y-95300771D02*
X108221064Y-95348390D01*
X108221064Y-95348390D02*
X108268683Y-95396009D01*
X108268683Y-95396009D02*
X108316302Y-95491247D01*
X108316302Y-95491247D02*
X108316302Y-95729342D01*
X108316302Y-95729342D02*
X108268683Y-95824580D01*
X108268683Y-95824580D02*
X108221064Y-95872200D01*
X108221064Y-95872200D02*
X108125826Y-95919819D01*
X108125826Y-95919819D02*
X107887731Y-95919819D01*
X107887731Y-95919819D02*
X107792493Y-95872200D01*
X107792493Y-95872200D02*
X107744874Y-95824580D01*
X108935350Y-94919819D02*
X109030588Y-94919819D01*
X109030588Y-94919819D02*
X109125826Y-94967438D01*
X109125826Y-94967438D02*
X109173445Y-95015057D01*
X109173445Y-95015057D02*
X109221064Y-95110295D01*
X109221064Y-95110295D02*
X109268683Y-95300771D01*
X109268683Y-95300771D02*
X109268683Y-95538866D01*
X109268683Y-95538866D02*
X109221064Y-95729342D01*
X109221064Y-95729342D02*
X109173445Y-95824580D01*
X109173445Y-95824580D02*
X109125826Y-95872200D01*
X109125826Y-95872200D02*
X109030588Y-95919819D01*
X109030588Y-95919819D02*
X108935350Y-95919819D01*
X108935350Y-95919819D02*
X108840112Y-95872200D01*
X108840112Y-95872200D02*
X108792493Y-95824580D01*
X108792493Y-95824580D02*
X108744874Y-95729342D01*
X108744874Y-95729342D02*
X108697255Y-95538866D01*
X108697255Y-95538866D02*
X108697255Y-95300771D01*
X108697255Y-95300771D02*
X108744874Y-95110295D01*
X108744874Y-95110295D02*
X108792493Y-95015057D01*
X108792493Y-95015057D02*
X108840112Y-94967438D01*
X108840112Y-94967438D02*
X108935350Y-94919819D01*
G36*
X157997455Y-60359180D02*
G01*
X158023949Y-60385674D01*
X158058207Y-60454190D01*
X158058207Y-60561637D01*
X158023948Y-60630153D01*
X157993541Y-60660561D01*
X157925026Y-60694819D01*
X157636779Y-60694819D01*
X157636779Y-60321009D01*
X157882942Y-60321009D01*
X157997455Y-60359180D01*
G37*
G36*
X157945923Y-59879077D02*
G01*
X157976330Y-59909484D01*
X158010588Y-59978000D01*
X158010588Y-60037828D01*
X157976330Y-60106344D01*
X157945923Y-60136751D01*
X157877407Y-60171009D01*
X157636779Y-60171009D01*
X157636779Y-59844819D01*
X157877407Y-59844819D01*
X157945923Y-59879077D01*
G37*
G36*
X161564971Y-59879077D02*
G01*
X161636913Y-59951019D01*
X161677255Y-60112386D01*
X161677255Y-60427251D01*
X161636913Y-60588617D01*
X161564970Y-60660561D01*
X161496455Y-60694819D01*
X161341389Y-60694819D01*
X161272873Y-60660561D01*
X161200930Y-60588617D01*
X161160589Y-60427251D01*
X161160589Y-60112386D01*
X161200930Y-59951019D01*
X161272873Y-59879077D01*
X161341389Y-59844819D01*
X161496455Y-59844819D01*
X161564971Y-59879077D01*
G37*
G36*
X164698830Y-60955930D02*
G01*
X157375668Y-60955930D01*
X157375668Y-59769819D01*
X157486779Y-59769819D01*
X157486779Y-60769819D01*
X157488220Y-60784451D01*
X157499419Y-60811487D01*
X157520111Y-60832179D01*
X157547147Y-60843378D01*
X157561779Y-60844819D01*
X157942731Y-60844819D01*
X157957363Y-60843378D01*
X157959852Y-60842346D01*
X157962540Y-60842156D01*
X157976272Y-60836901D01*
X158071510Y-60789282D01*
X158077809Y-60785317D01*
X158079637Y-60784560D01*
X158081693Y-60782872D01*
X158083953Y-60781450D01*
X158085253Y-60779950D01*
X158091003Y-60775232D01*
X158138621Y-60727613D01*
X158143339Y-60721863D01*
X158144838Y-60720564D01*
X158146259Y-60718305D01*
X158147949Y-60716247D01*
X158148706Y-60714417D01*
X158152670Y-60708121D01*
X158200289Y-60612883D01*
X158205544Y-60599152D01*
X158205735Y-60596462D01*
X158206766Y-60593974D01*
X158208207Y-60579342D01*
X158208207Y-60436485D01*
X158206766Y-60421853D01*
X158205735Y-60419364D01*
X158205544Y-60416675D01*
X158200289Y-60402944D01*
X158152670Y-60307706D01*
X158148705Y-60301406D01*
X158147948Y-60299579D01*
X158146259Y-60297522D01*
X158144838Y-60295263D01*
X158143339Y-60293963D01*
X158138621Y-60288214D01*
X158091002Y-60240595D01*
X158079637Y-60231268D01*
X158077146Y-60230236D01*
X158075111Y-60228471D01*
X158069043Y-60225762D01*
X158091002Y-60203804D01*
X158095720Y-60198054D01*
X158097219Y-60196755D01*
X158098640Y-60194495D01*
X158100329Y-60192439D01*
X158101086Y-60190611D01*
X158105051Y-60184312D01*
X158152670Y-60089074D01*
X158157925Y-60075343D01*
X158158116Y-60072653D01*
X158159147Y-60070165D01*
X158160588Y-60055533D01*
X158160588Y-59960295D01*
X158159147Y-59945663D01*
X158158116Y-59943174D01*
X158157925Y-59940485D01*
X158152670Y-59926754D01*
X158105051Y-59831516D01*
X158101086Y-59825216D01*
X158100329Y-59823389D01*
X158098640Y-59821332D01*
X158097219Y-59819073D01*
X158095720Y-59817773D01*
X158091002Y-59812024D01*
X158048797Y-59769819D01*
X158486779Y-59769819D01*
X158486779Y-60579342D01*
X158488220Y-60593974D01*
X158489251Y-60596463D01*
X158489442Y-60599151D01*
X158494697Y-60612883D01*
X158542316Y-60708121D01*
X158546279Y-60714417D01*
X158547037Y-60716247D01*
X158548726Y-60718305D01*
X158550148Y-60720564D01*
X158551646Y-60721863D01*
X158556364Y-60727612D01*
X158603983Y-60775232D01*
X158609732Y-60779950D01*
X158611033Y-60781450D01*
X158613292Y-60782872D01*
X158615349Y-60784560D01*
X158617176Y-60785317D01*
X158623476Y-60789282D01*
X158718714Y-60836901D01*
X158732445Y-60842156D01*
X158735134Y-60842347D01*
X158737623Y-60843378D01*
X158752255Y-60844819D01*
X158942731Y-60844819D01*
X158957363Y-60843378D01*
X158959852Y-60842346D01*
X158962540Y-60842156D01*
X158976272Y-60836901D01*
X159071510Y-60789282D01*
X159077809Y-60785317D01*
X159079637Y-60784560D01*
X159081693Y-60782872D01*
X159083953Y-60781450D01*
X159085253Y-60779950D01*
X159091003Y-60775232D01*
X159138621Y-60727613D01*
X159143339Y-60721863D01*
X159144838Y-60720564D01*
X159146259Y-60718305D01*
X159147949Y-60716247D01*
X159148706Y-60714417D01*
X159152670Y-60708121D01*
X159200289Y-60612883D01*
X159205544Y-60599152D01*
X159205735Y-60596462D01*
X159206766Y-60593974D01*
X159208207Y-60579342D01*
X159208207Y-59769819D01*
X159206766Y-59755187D01*
X159392982Y-59755187D01*
X159392982Y-59784451D01*
X159404181Y-59811487D01*
X159424873Y-59832179D01*
X159451909Y-59843378D01*
X159466541Y-59844819D01*
X159677255Y-59844819D01*
X159677255Y-60769819D01*
X159678696Y-60784451D01*
X159689895Y-60811487D01*
X159710587Y-60832179D01*
X159737623Y-60843378D01*
X159766887Y-60843378D01*
X159793923Y-60832179D01*
X159814615Y-60811487D01*
X159825814Y-60784451D01*
X159827255Y-60769819D01*
X159827255Y-59844819D01*
X160037969Y-59844819D01*
X160052601Y-59843378D01*
X160079637Y-59832179D01*
X160100329Y-59811487D01*
X160111528Y-59784451D01*
X160111528Y-59755187D01*
X160154887Y-59755187D01*
X160154887Y-59784451D01*
X160166086Y-59811487D01*
X160186778Y-59832179D01*
X160213814Y-59843378D01*
X160228446Y-59844819D01*
X160439160Y-59844819D01*
X160439160Y-60769819D01*
X160440601Y-60784451D01*
X160451800Y-60811487D01*
X160472492Y-60832179D01*
X160499528Y-60843378D01*
X160528792Y-60843378D01*
X160555828Y-60832179D01*
X160576520Y-60811487D01*
X160587719Y-60784451D01*
X160589160Y-60769819D01*
X160589160Y-60103152D01*
X161010589Y-60103152D01*
X161010589Y-60436485D01*
X161010840Y-60439038D01*
X161010678Y-60440131D01*
X161011487Y-60445604D01*
X161012030Y-60451117D01*
X161012452Y-60452138D01*
X161012828Y-60454675D01*
X161060447Y-60645151D01*
X161065394Y-60658997D01*
X161068713Y-60663476D01*
X161070847Y-60668628D01*
X161080175Y-60679994D01*
X161175413Y-60775233D01*
X161181163Y-60779953D01*
X161182462Y-60781450D01*
X161184716Y-60782869D01*
X161186778Y-60784561D01*
X161188610Y-60785319D01*
X161194905Y-60789282D01*
X161290143Y-60836901D01*
X161303874Y-60842156D01*
X161306563Y-60842347D01*
X161309052Y-60843378D01*
X161323684Y-60844819D01*
X161514160Y-60844819D01*
X161528792Y-60843378D01*
X161531281Y-60842346D01*
X161533969Y-60842156D01*
X161547701Y-60836901D01*
X161642939Y-60789282D01*
X161649238Y-60785317D01*
X161651066Y-60784560D01*
X161653122Y-60782871D01*
X161655382Y-60781450D01*
X161656681Y-60779951D01*
X161662431Y-60775233D01*
X161757670Y-60679993D01*
X161766997Y-60668628D01*
X161769130Y-60663476D01*
X161772450Y-60658997D01*
X161777397Y-60645151D01*
X161825016Y-60454675D01*
X161825391Y-60452138D01*
X161825814Y-60451117D01*
X161826356Y-60445604D01*
X161827166Y-60440131D01*
X161827003Y-60439038D01*
X161827255Y-60436485D01*
X161827255Y-60103152D01*
X161827003Y-60100598D01*
X161827166Y-60099506D01*
X161826356Y-60094032D01*
X161825814Y-60088520D01*
X161825391Y-60087498D01*
X161825016Y-60084962D01*
X161777397Y-59894486D01*
X161772450Y-59880640D01*
X161769131Y-59876161D01*
X161766997Y-59871008D01*
X161757669Y-59859643D01*
X161667845Y-59769819D01*
X162105827Y-59769819D01*
X162105827Y-60769819D01*
X162107268Y-60784451D01*
X162118467Y-60811487D01*
X162139159Y-60832179D01*
X162166195Y-60843378D01*
X162195459Y-60843378D01*
X162222495Y-60832179D01*
X162243187Y-60811487D01*
X162254386Y-60784451D01*
X162255827Y-60769819D01*
X162255827Y-60052235D01*
X162687137Y-60807030D01*
X162689326Y-60810114D01*
X162689895Y-60811487D01*
X162691292Y-60812884D01*
X162695647Y-60819019D01*
X162703535Y-60825127D01*
X162710587Y-60832179D01*
X162715005Y-60834009D01*
X162718785Y-60836936D01*
X162728406Y-60839560D01*
X162737623Y-60843378D01*
X162742404Y-60843378D01*
X162747016Y-60844636D01*
X162756913Y-60843378D01*
X162766887Y-60843378D01*
X162771302Y-60841548D01*
X162776046Y-60840946D01*
X162784710Y-60835995D01*
X162793923Y-60832179D01*
X162797301Y-60828800D01*
X162801455Y-60826427D01*
X162807564Y-60818537D01*
X162814615Y-60811487D01*
X162816444Y-60807070D01*
X162819372Y-60803290D01*
X162821996Y-60793666D01*
X162825814Y-60784451D01*
X162826550Y-60776968D01*
X162827072Y-60775058D01*
X162826884Y-60773582D01*
X162827255Y-60769819D01*
X162827255Y-60046152D01*
X163868321Y-60046152D01*
X163870395Y-60075342D01*
X163883482Y-60101517D01*
X163905590Y-60120690D01*
X163933351Y-60129944D01*
X163962541Y-60127870D01*
X163976273Y-60122615D01*
X164071511Y-60074996D01*
X164077810Y-60071031D01*
X164079638Y-60070274D01*
X164081694Y-60068585D01*
X164083954Y-60067164D01*
X164085253Y-60065665D01*
X164091003Y-60060947D01*
X164153446Y-59998504D01*
X164153446Y-60694819D01*
X163942732Y-60694819D01*
X163928100Y-60696260D01*
X163901064Y-60707459D01*
X163880372Y-60728151D01*
X163869173Y-60755187D01*
X163869173Y-60784451D01*
X163880372Y-60811487D01*
X163901064Y-60832179D01*
X163928100Y-60843378D01*
X163942732Y-60844819D01*
X164514160Y-60844819D01*
X164528792Y-60843378D01*
X164555828Y-60832179D01*
X164576520Y-60811487D01*
X164587719Y-60784451D01*
X164587719Y-60755187D01*
X164576520Y-60728151D01*
X164555828Y-60707459D01*
X164528792Y-60696260D01*
X164514160Y-60694819D01*
X164303446Y-60694819D01*
X164303446Y-59769819D01*
X164303440Y-59769766D01*
X164303446Y-59769740D01*
X164303430Y-59769663D01*
X164302005Y-59755187D01*
X164299163Y-59748326D01*
X164297707Y-59741045D01*
X164293617Y-59734938D01*
X164290806Y-59728151D01*
X164285557Y-59722902D01*
X164281424Y-59716730D01*
X164275307Y-59712652D01*
X164270114Y-59707459D01*
X164263254Y-59704617D01*
X164257075Y-59700498D01*
X164249866Y-59699072D01*
X164243078Y-59696260D01*
X164235651Y-59696260D01*
X164228367Y-59694819D01*
X164221162Y-59696260D01*
X164213814Y-59696260D01*
X164206953Y-59699101D01*
X164199673Y-59700558D01*
X164193567Y-59704646D01*
X164186778Y-59707459D01*
X164181527Y-59712709D01*
X164175358Y-59716841D01*
X164166137Y-59728099D01*
X164166086Y-59728151D01*
X164166076Y-59728173D01*
X164166042Y-59728216D01*
X164074922Y-59864896D01*
X163993543Y-59946275D01*
X163909191Y-59988451D01*
X163896748Y-59996283D01*
X163877575Y-60018391D01*
X163868321Y-60046152D01*
X162827255Y-60046152D01*
X162827255Y-59769819D01*
X162825814Y-59755187D01*
X162814615Y-59728151D01*
X162793923Y-59707459D01*
X162766887Y-59696260D01*
X162737623Y-59696260D01*
X162710587Y-59707459D01*
X162689895Y-59728151D01*
X162678696Y-59755187D01*
X162677255Y-59769819D01*
X162677255Y-60487402D01*
X162245945Y-59732609D01*
X162243756Y-59729525D01*
X162243187Y-59728151D01*
X162241787Y-59726751D01*
X162237435Y-59720619D01*
X162229545Y-59714509D01*
X162222495Y-59707459D01*
X162218078Y-59705629D01*
X162214298Y-59702702D01*
X162204674Y-59700077D01*
X162195459Y-59696260D01*
X162190678Y-59696260D01*
X162186066Y-59695002D01*
X162176169Y-59696260D01*
X162166195Y-59696260D01*
X162161779Y-59698089D01*
X162157036Y-59698692D01*
X162148371Y-59703642D01*
X162139159Y-59707459D01*
X162135780Y-59710837D01*
X162131627Y-59713211D01*
X162125517Y-59721100D01*
X162118467Y-59728151D01*
X162116637Y-59732567D01*
X162113710Y-59736348D01*
X162111085Y-59745971D01*
X162107268Y-59755187D01*
X162106531Y-59762669D01*
X162106010Y-59764580D01*
X162106197Y-59766055D01*
X162105827Y-59769819D01*
X161667845Y-59769819D01*
X161662431Y-59764405D01*
X161656681Y-59759686D01*
X161655382Y-59758188D01*
X161653122Y-59756766D01*
X161651066Y-59755078D01*
X161649238Y-59754320D01*
X161642939Y-59750356D01*
X161547701Y-59702737D01*
X161533969Y-59697482D01*
X161531281Y-59697291D01*
X161528792Y-59696260D01*
X161514160Y-59694819D01*
X161323684Y-59694819D01*
X161309052Y-59696260D01*
X161306563Y-59697290D01*
X161303874Y-59697482D01*
X161290143Y-59702737D01*
X161194905Y-59750356D01*
X161188610Y-59754318D01*
X161186778Y-59755077D01*
X161184716Y-59756768D01*
X161182462Y-59758188D01*
X161181163Y-59759684D01*
X161175413Y-59764405D01*
X161080175Y-59859643D01*
X161070848Y-59871008D01*
X161068714Y-59876158D01*
X161065394Y-59880640D01*
X161060447Y-59894486D01*
X161012828Y-60084962D01*
X161012452Y-60087498D01*
X161012030Y-60088520D01*
X161011487Y-60094032D01*
X161010678Y-60099506D01*
X161010840Y-60100598D01*
X161010589Y-60103152D01*
X160589160Y-60103152D01*
X160589160Y-59844819D01*
X160799874Y-59844819D01*
X160814506Y-59843378D01*
X160841542Y-59832179D01*
X160862234Y-59811487D01*
X160873433Y-59784451D01*
X160873433Y-59755187D01*
X160862234Y-59728151D01*
X160841542Y-59707459D01*
X160814506Y-59696260D01*
X160799874Y-59694819D01*
X160228446Y-59694819D01*
X160213814Y-59696260D01*
X160186778Y-59707459D01*
X160166086Y-59728151D01*
X160154887Y-59755187D01*
X160111528Y-59755187D01*
X160100329Y-59728151D01*
X160079637Y-59707459D01*
X160052601Y-59696260D01*
X160037969Y-59694819D01*
X159466541Y-59694819D01*
X159451909Y-59696260D01*
X159424873Y-59707459D01*
X159404181Y-59728151D01*
X159392982Y-59755187D01*
X159206766Y-59755187D01*
X159195567Y-59728151D01*
X159174875Y-59707459D01*
X159147839Y-59696260D01*
X159118575Y-59696260D01*
X159091539Y-59707459D01*
X159070847Y-59728151D01*
X159059648Y-59755187D01*
X159058207Y-59769819D01*
X159058207Y-60561637D01*
X159023948Y-60630153D01*
X158993541Y-60660561D01*
X158925026Y-60694819D01*
X158769960Y-60694819D01*
X158701444Y-60660561D01*
X158671037Y-60630153D01*
X158636779Y-60561637D01*
X158636779Y-59769819D01*
X158635338Y-59755187D01*
X158624139Y-59728151D01*
X158603447Y-59707459D01*
X158576411Y-59696260D01*
X158547147Y-59696260D01*
X158520111Y-59707459D01*
X158499419Y-59728151D01*
X158488220Y-59755187D01*
X158486779Y-59769819D01*
X158048797Y-59769819D01*
X158043383Y-59764405D01*
X158037633Y-59759686D01*
X158036334Y-59758188D01*
X158034074Y-59756766D01*
X158032018Y-59755078D01*
X158030190Y-59754320D01*
X158023891Y-59750356D01*
X157928653Y-59702737D01*
X157914921Y-59697482D01*
X157912233Y-59697291D01*
X157909744Y-59696260D01*
X157895112Y-59694819D01*
X157561779Y-59694819D01*
X157547147Y-59696260D01*
X157520111Y-59707459D01*
X157499419Y-59728151D01*
X157488220Y-59755187D01*
X157486779Y-59769819D01*
X157375668Y-59769819D01*
X157375668Y-59583708D01*
X164698830Y-59583708D01*
X164698830Y-60955930D01*
G37*
G36*
X144788617Y-81259514D02*
G01*
X144860561Y-81331457D01*
X144894819Y-81399973D01*
X144894819Y-81555039D01*
X144860561Y-81623554D01*
X144788617Y-81695497D01*
X144627251Y-81735839D01*
X144312386Y-81735839D01*
X144151019Y-81695497D01*
X144079077Y-81623555D01*
X144044819Y-81555039D01*
X144044819Y-81399973D01*
X144079077Y-81331457D01*
X144151019Y-81259514D01*
X144312386Y-81219173D01*
X144627251Y-81219173D01*
X144788617Y-81259514D01*
G37*
G36*
X145155930Y-81996950D02*
G01*
X143783708Y-81996950D01*
X143783708Y-81382268D01*
X143894819Y-81382268D01*
X143894819Y-81572744D01*
X143896260Y-81587376D01*
X143897291Y-81589865D01*
X143897482Y-81592553D01*
X143902737Y-81606285D01*
X143950356Y-81701523D01*
X143954320Y-81707822D01*
X143955078Y-81709650D01*
X143956766Y-81711706D01*
X143958188Y-81713966D01*
X143959686Y-81715265D01*
X143964405Y-81721015D01*
X144059643Y-81816253D01*
X144071008Y-81825581D01*
X144076161Y-81827715D01*
X144080640Y-81831034D01*
X144094486Y-81835981D01*
X144284962Y-81883600D01*
X144287498Y-81883975D01*
X144288520Y-81884398D01*
X144294032Y-81884940D01*
X144299506Y-81885750D01*
X144300598Y-81885587D01*
X144303152Y-81885839D01*
X144636485Y-81885839D01*
X144639038Y-81885587D01*
X144640131Y-81885750D01*
X144645604Y-81884940D01*
X144651117Y-81884398D01*
X144652138Y-81883975D01*
X144654675Y-81883600D01*
X144845151Y-81835981D01*
X144858997Y-81831034D01*
X144863476Y-81827714D01*
X144868628Y-81825581D01*
X144879994Y-81816253D01*
X144975233Y-81721015D01*
X144979953Y-81715264D01*
X144981450Y-81713966D01*
X144982869Y-81711711D01*
X144984561Y-81709650D01*
X144985319Y-81707817D01*
X144989282Y-81701523D01*
X145036901Y-81606285D01*
X145042156Y-81592554D01*
X145042347Y-81589864D01*
X145043378Y-81587376D01*
X145044819Y-81572744D01*
X145044819Y-81382268D01*
X145043378Y-81367636D01*
X145042347Y-81365147D01*
X145042156Y-81362458D01*
X145036901Y-81348727D01*
X144989282Y-81253489D01*
X144985319Y-81247194D01*
X144984561Y-81245362D01*
X144982869Y-81243300D01*
X144981450Y-81241046D01*
X144979953Y-81239747D01*
X144975233Y-81233997D01*
X144879994Y-81138759D01*
X144868628Y-81129431D01*
X144863476Y-81127297D01*
X144858997Y-81123978D01*
X144845151Y-81119031D01*
X144654675Y-81071412D01*
X144652138Y-81071036D01*
X144651117Y-81070614D01*
X144645604Y-81070071D01*
X144640131Y-81069262D01*
X144639038Y-81069424D01*
X144636485Y-81069173D01*
X144303152Y-81069173D01*
X144300598Y-81069424D01*
X144299506Y-81069262D01*
X144294032Y-81070071D01*
X144288520Y-81070614D01*
X144287498Y-81071036D01*
X144284962Y-81071412D01*
X144094486Y-81119031D01*
X144080640Y-81123978D01*
X144076161Y-81127296D01*
X144071008Y-81129431D01*
X144059643Y-81138759D01*
X143964405Y-81233997D01*
X143959686Y-81239746D01*
X143958188Y-81241046D01*
X143956766Y-81243305D01*
X143955078Y-81245362D01*
X143954320Y-81247189D01*
X143950356Y-81253489D01*
X143902737Y-81348727D01*
X143897482Y-81362459D01*
X143897291Y-81365146D01*
X143896260Y-81367636D01*
X143894819Y-81382268D01*
X143783708Y-81382268D01*
X143783708Y-80239411D01*
X143894819Y-80239411D01*
X143894819Y-80715601D01*
X143896260Y-80730233D01*
X143907459Y-80757269D01*
X143928151Y-80777961D01*
X143955187Y-80789160D01*
X143969819Y-80790601D01*
X144969819Y-80790601D01*
X144984451Y-80789160D01*
X145011487Y-80777961D01*
X145032179Y-80757269D01*
X145043378Y-80730233D01*
X145043378Y-80700969D01*
X145032179Y-80673933D01*
X145011487Y-80653241D01*
X144984451Y-80642042D01*
X144969819Y-80640601D01*
X144521009Y-80640601D01*
X144521009Y-80382268D01*
X144519568Y-80367636D01*
X144508369Y-80340600D01*
X144487677Y-80319908D01*
X144460641Y-80308709D01*
X144431377Y-80308709D01*
X144404341Y-80319908D01*
X144383649Y-80340600D01*
X144372450Y-80367636D01*
X144371009Y-80382268D01*
X144371009Y-80640601D01*
X144044819Y-80640601D01*
X144044819Y-80239411D01*
X144043378Y-80224779D01*
X144032179Y-80197743D01*
X144011487Y-80177051D01*
X143984451Y-80165852D01*
X143955187Y-80165852D01*
X143928151Y-80177051D01*
X143907459Y-80197743D01*
X143896260Y-80224779D01*
X143894819Y-80239411D01*
X143783708Y-80239411D01*
X143783708Y-79382268D01*
X143894819Y-79382268D01*
X143894819Y-79858458D01*
X143896260Y-79873090D01*
X143907459Y-79900126D01*
X143928151Y-79920818D01*
X143955187Y-79932017D01*
X143969819Y-79933458D01*
X144969819Y-79933458D01*
X144984451Y-79932017D01*
X145011487Y-79920818D01*
X145032179Y-79900126D01*
X145043378Y-79873090D01*
X145043378Y-79843826D01*
X145032179Y-79816790D01*
X145011487Y-79796098D01*
X144984451Y-79784899D01*
X144969819Y-79783458D01*
X144521009Y-79783458D01*
X144521009Y-79525125D01*
X144519568Y-79510493D01*
X144508369Y-79483457D01*
X144487677Y-79462765D01*
X144460641Y-79451566D01*
X144431377Y-79451566D01*
X144404341Y-79462765D01*
X144383649Y-79483457D01*
X144372450Y-79510493D01*
X144371009Y-79525125D01*
X144371009Y-79783458D01*
X144044819Y-79783458D01*
X144044819Y-79382268D01*
X144043378Y-79367636D01*
X144032179Y-79340600D01*
X144011487Y-79319908D01*
X143984451Y-79308709D01*
X143955187Y-79308709D01*
X143928151Y-79319908D01*
X143907459Y-79340600D01*
X143896260Y-79367636D01*
X143894819Y-79382268D01*
X143783708Y-79382268D01*
X143783708Y-78620363D01*
X143894819Y-78620363D01*
X143894819Y-78858458D01*
X143896260Y-78873090D01*
X143897291Y-78875579D01*
X143897482Y-78878267D01*
X143902737Y-78891999D01*
X143950356Y-78987237D01*
X143954320Y-78993536D01*
X143955078Y-78995364D01*
X143956766Y-78997420D01*
X143958188Y-78999680D01*
X143959686Y-79000979D01*
X143964405Y-79006729D01*
X144012024Y-79054348D01*
X144017773Y-79059066D01*
X144019073Y-79060565D01*
X144021332Y-79061986D01*
X144023389Y-79063675D01*
X144025216Y-79064432D01*
X144031516Y-79068397D01*
X144126754Y-79116016D01*
X144140485Y-79121271D01*
X144143174Y-79121462D01*
X144145663Y-79122493D01*
X144160295Y-79123934D01*
X144255533Y-79123934D01*
X144270165Y-79122493D01*
X144272654Y-79121461D01*
X144275342Y-79121271D01*
X144289074Y-79116016D01*
X144384312Y-79068397D01*
X144390611Y-79064432D01*
X144392439Y-79063675D01*
X144394495Y-79061986D01*
X144396755Y-79060565D01*
X144398054Y-79059066D01*
X144403804Y-79054348D01*
X144451423Y-79006729D01*
X144456141Y-79000979D01*
X144457640Y-78999680D01*
X144459061Y-78997420D01*
X144460750Y-78995364D01*
X144461507Y-78993536D01*
X144465472Y-78987237D01*
X144513091Y-78891999D01*
X144513500Y-78890929D01*
X144513823Y-78890494D01*
X144516015Y-78884357D01*
X144518346Y-78878268D01*
X144518384Y-78877727D01*
X144518770Y-78876648D01*
X144564392Y-78694158D01*
X144602886Y-78617171D01*
X144633293Y-78586764D01*
X144701809Y-78552506D01*
X144761637Y-78552506D01*
X144830153Y-78586764D01*
X144860561Y-78617171D01*
X144894819Y-78685687D01*
X144894819Y-78893907D01*
X144851049Y-79025217D01*
X144847789Y-79039554D01*
X144849864Y-79068744D01*
X144862950Y-79094917D01*
X144885057Y-79114091D01*
X144912820Y-79123345D01*
X144942010Y-79121270D01*
X144968183Y-79108184D01*
X144987357Y-79086077D01*
X144993351Y-79072651D01*
X145040970Y-78929795D01*
X145042619Y-78922539D01*
X145043378Y-78920709D01*
X145043639Y-78918055D01*
X145044230Y-78915458D01*
X145044089Y-78913483D01*
X145044819Y-78906077D01*
X145044819Y-78667982D01*
X145043378Y-78653350D01*
X145042347Y-78650861D01*
X145042156Y-78648172D01*
X145036901Y-78634441D01*
X144989282Y-78539203D01*
X144985317Y-78532903D01*
X144984560Y-78531076D01*
X144982872Y-78529019D01*
X144981450Y-78526760D01*
X144979950Y-78525459D01*
X144975232Y-78519710D01*
X144927612Y-78472091D01*
X144921863Y-78467373D01*
X144920564Y-78465875D01*
X144918305Y-78464453D01*
X144916247Y-78462764D01*
X144914417Y-78462006D01*
X144908121Y-78458043D01*
X144812883Y-78410424D01*
X144799151Y-78405169D01*
X144796463Y-78404978D01*
X144793974Y-78403947D01*
X144779342Y-78402506D01*
X144684104Y-78402506D01*
X144669472Y-78403947D01*
X144666983Y-78404977D01*
X144664294Y-78405169D01*
X144650563Y-78410424D01*
X144555325Y-78458043D01*
X144549025Y-78462007D01*
X144547198Y-78462765D01*
X144545141Y-78464453D01*
X144542882Y-78465875D01*
X144541582Y-78467373D01*
X144535833Y-78472092D01*
X144488214Y-78519711D01*
X144483495Y-78525460D01*
X144481997Y-78526760D01*
X144480575Y-78529019D01*
X144478887Y-78531076D01*
X144478129Y-78532903D01*
X144474165Y-78539203D01*
X144426546Y-78634441D01*
X144426136Y-78635510D01*
X144425814Y-78635946D01*
X144423618Y-78642091D01*
X144421291Y-78648173D01*
X144421252Y-78648712D01*
X144420867Y-78649792D01*
X144375244Y-78832282D01*
X144336751Y-78909269D01*
X144306344Y-78939676D01*
X144237828Y-78973934D01*
X144178000Y-78973934D01*
X144109484Y-78939676D01*
X144079077Y-78909269D01*
X144044819Y-78840753D01*
X144044819Y-78632533D01*
X144088589Y-78501224D01*
X144091849Y-78486887D01*
X144089774Y-78457697D01*
X144076688Y-78431523D01*
X144054580Y-78412349D01*
X144026818Y-78403095D01*
X143997628Y-78405170D01*
X143971455Y-78418257D01*
X143952281Y-78440364D01*
X143946287Y-78453789D01*
X143898668Y-78596646D01*
X143897018Y-78603899D01*
X143896260Y-78605731D01*
X143895998Y-78608385D01*
X143895408Y-78610983D01*
X143895548Y-78612957D01*
X143894819Y-78620363D01*
X143783708Y-78620363D01*
X143783708Y-77572744D01*
X143894819Y-77572744D01*
X143894819Y-78048934D01*
X143896260Y-78063566D01*
X143907459Y-78090602D01*
X143928151Y-78111294D01*
X143955187Y-78122493D01*
X143969819Y-78123934D01*
X144969819Y-78123934D01*
X144984451Y-78122493D01*
X145011487Y-78111294D01*
X145032179Y-78090602D01*
X145043378Y-78063566D01*
X145044819Y-78048934D01*
X145044819Y-77572744D01*
X145043378Y-77558112D01*
X145032179Y-77531076D01*
X145011487Y-77510384D01*
X144984451Y-77499185D01*
X144955187Y-77499185D01*
X144928151Y-77510384D01*
X144907459Y-77531076D01*
X144896260Y-77558112D01*
X144894819Y-77572744D01*
X144894819Y-77973934D01*
X144521009Y-77973934D01*
X144521009Y-77715601D01*
X144519568Y-77700969D01*
X144508369Y-77673933D01*
X144487677Y-77653241D01*
X144460641Y-77642042D01*
X144431377Y-77642042D01*
X144404341Y-77653241D01*
X144383649Y-77673933D01*
X144372450Y-77700969D01*
X144371009Y-77715601D01*
X144371009Y-77973934D01*
X144044819Y-77973934D01*
X144044819Y-77572744D01*
X144043378Y-77558112D01*
X144032179Y-77531076D01*
X144011487Y-77510384D01*
X143984451Y-77499185D01*
X143955187Y-77499185D01*
X143928151Y-77510384D01*
X143907459Y-77531076D01*
X143896260Y-77558112D01*
X143894819Y-77572744D01*
X143783708Y-77572744D01*
X143783708Y-76715601D01*
X143894819Y-76715601D01*
X143894819Y-77287029D01*
X143896260Y-77301661D01*
X143907459Y-77328697D01*
X143928151Y-77349389D01*
X143955187Y-77360588D01*
X143984451Y-77360588D01*
X144011487Y-77349389D01*
X144032179Y-77328697D01*
X144043378Y-77301661D01*
X144044819Y-77287029D01*
X144044819Y-77076315D01*
X144969819Y-77076315D01*
X144984451Y-77074874D01*
X145011487Y-77063675D01*
X145032179Y-77042983D01*
X145043378Y-77015947D01*
X145043378Y-76986683D01*
X145032179Y-76959647D01*
X145011487Y-76938955D01*
X144984451Y-76927756D01*
X144969819Y-76926315D01*
X144044819Y-76926315D01*
X144044819Y-76715601D01*
X144043378Y-76700969D01*
X144032179Y-76673933D01*
X144011487Y-76653241D01*
X143984451Y-76642042D01*
X143955187Y-76642042D01*
X143928151Y-76653241D01*
X143907459Y-76673933D01*
X143896260Y-76700969D01*
X143894819Y-76715601D01*
X143783708Y-76715601D01*
X143783708Y-76530931D01*
X145155930Y-76530931D01*
X145155930Y-81996950D01*
G37*
X103852200Y-90710839D02*
X103899819Y-90567982D01*
X103899819Y-90567982D02*
X103899819Y-90329887D01*
X103899819Y-90329887D02*
X103852200Y-90234649D01*
X103852200Y-90234649D02*
X103804580Y-90187030D01*
X103804580Y-90187030D02*
X103709342Y-90139411D01*
X103709342Y-90139411D02*
X103614104Y-90139411D01*
X103614104Y-90139411D02*
X103518866Y-90187030D01*
X103518866Y-90187030D02*
X103471247Y-90234649D01*
X103471247Y-90234649D02*
X103423628Y-90329887D01*
X103423628Y-90329887D02*
X103376009Y-90520363D01*
X103376009Y-90520363D02*
X103328390Y-90615601D01*
X103328390Y-90615601D02*
X103280771Y-90663220D01*
X103280771Y-90663220D02*
X103185533Y-90710839D01*
X103185533Y-90710839D02*
X103090295Y-90710839D01*
X103090295Y-90710839D02*
X102995057Y-90663220D01*
X102995057Y-90663220D02*
X102947438Y-90615601D01*
X102947438Y-90615601D02*
X102899819Y-90520363D01*
X102899819Y-90520363D02*
X102899819Y-90282268D01*
X102899819Y-90282268D02*
X102947438Y-90139411D01*
X103899819Y-89710839D02*
X102899819Y-89710839D01*
X102899819Y-89710839D02*
X102899819Y-89472744D01*
X102899819Y-89472744D02*
X102947438Y-89329887D01*
X102947438Y-89329887D02*
X103042676Y-89234649D01*
X103042676Y-89234649D02*
X103137914Y-89187030D01*
X103137914Y-89187030D02*
X103328390Y-89139411D01*
X103328390Y-89139411D02*
X103471247Y-89139411D01*
X103471247Y-89139411D02*
X103661723Y-89187030D01*
X103661723Y-89187030D02*
X103756961Y-89234649D01*
X103756961Y-89234649D02*
X103852200Y-89329887D01*
X103852200Y-89329887D02*
X103899819Y-89472744D01*
X103899819Y-89472744D02*
X103899819Y-89710839D01*
X103614104Y-88758458D02*
X103614104Y-88282268D01*
X103899819Y-88853696D02*
X102899819Y-88520363D01*
X102899819Y-88520363D02*
X103899819Y-88187030D01*
G36*
X149633963Y-89487241D02*
G01*
X149664370Y-89517648D01*
X149698628Y-89586164D01*
X149698628Y-89874411D01*
X149324819Y-89874411D01*
X149324819Y-89586164D01*
X149359077Y-89517648D01*
X149389484Y-89487241D01*
X149458000Y-89452983D01*
X149565447Y-89452983D01*
X149633963Y-89487241D01*
G37*
G36*
X150435930Y-91659331D02*
G01*
X149063708Y-91659331D01*
X149063708Y-91458588D01*
X149176260Y-91458588D01*
X149176260Y-91487852D01*
X149187459Y-91514888D01*
X149208151Y-91535580D01*
X149235187Y-91546779D01*
X149249819Y-91548220D01*
X150249819Y-91548220D01*
X150264451Y-91546779D01*
X150291487Y-91535580D01*
X150312179Y-91514888D01*
X150323378Y-91487852D01*
X150323378Y-91458588D01*
X150312179Y-91431552D01*
X150291487Y-91410860D01*
X150264451Y-91399661D01*
X150249819Y-91398220D01*
X149249819Y-91398220D01*
X149235187Y-91399661D01*
X149208151Y-91410860D01*
X149187459Y-91431552D01*
X149176260Y-91458588D01*
X149063708Y-91458588D01*
X149063708Y-90991791D01*
X149175002Y-90991791D01*
X149176260Y-91001687D01*
X149176260Y-91011662D01*
X149178089Y-91016077D01*
X149178692Y-91020821D01*
X149183642Y-91029485D01*
X149187459Y-91038698D01*
X149190837Y-91042076D01*
X149193211Y-91046230D01*
X149201100Y-91052339D01*
X149208151Y-91059390D01*
X149212567Y-91061219D01*
X149216348Y-91064147D01*
X149225971Y-91066771D01*
X149235187Y-91070589D01*
X149242669Y-91071325D01*
X149244580Y-91071847D01*
X149246055Y-91071659D01*
X149249819Y-91072030D01*
X150249819Y-91072030D01*
X150264451Y-91070589D01*
X150291487Y-91059390D01*
X150312179Y-91038698D01*
X150323378Y-91011662D01*
X150323378Y-90982398D01*
X150312179Y-90955362D01*
X150291487Y-90934670D01*
X150264451Y-90923471D01*
X150249819Y-90922030D01*
X149532236Y-90922030D01*
X150287030Y-90490720D01*
X150290114Y-90488530D01*
X150291487Y-90487962D01*
X150292884Y-90486564D01*
X150299019Y-90482210D01*
X150305127Y-90474321D01*
X150312179Y-90467270D01*
X150314009Y-90462851D01*
X150316936Y-90459072D01*
X150319560Y-90449450D01*
X150323378Y-90440234D01*
X150323378Y-90435453D01*
X150324636Y-90430841D01*
X150323378Y-90420944D01*
X150323378Y-90410970D01*
X150321548Y-90406554D01*
X150320946Y-90401811D01*
X150315995Y-90393146D01*
X150312179Y-90383934D01*
X150308800Y-90380555D01*
X150306427Y-90376402D01*
X150298537Y-90370292D01*
X150291487Y-90363242D01*
X150287070Y-90361412D01*
X150283290Y-90358485D01*
X150273666Y-90355860D01*
X150264451Y-90352043D01*
X150256968Y-90351306D01*
X150255058Y-90350785D01*
X150253582Y-90350972D01*
X150249819Y-90350602D01*
X149249819Y-90350602D01*
X149235187Y-90352043D01*
X149208151Y-90363242D01*
X149187459Y-90383934D01*
X149176260Y-90410970D01*
X149176260Y-90440234D01*
X149187459Y-90467270D01*
X149208151Y-90487962D01*
X149235187Y-90499161D01*
X149249819Y-90500602D01*
X149967402Y-90500602D01*
X149212609Y-90931912D01*
X149209525Y-90934100D01*
X149208151Y-90934670D01*
X149206751Y-90936069D01*
X149200619Y-90940422D01*
X149194509Y-90948311D01*
X149187459Y-90955362D01*
X149185629Y-90959778D01*
X149182702Y-90963559D01*
X149180077Y-90973182D01*
X149176260Y-90982398D01*
X149176260Y-90987178D01*
X149175002Y-90991791D01*
X149063708Y-90991791D01*
X149063708Y-89568459D01*
X149174819Y-89568459D01*
X149174819Y-89949411D01*
X149176260Y-89964043D01*
X149187459Y-89991079D01*
X149208151Y-90011771D01*
X149235187Y-90022970D01*
X149249819Y-90024411D01*
X150249819Y-90024411D01*
X150264451Y-90022970D01*
X150291487Y-90011771D01*
X150312179Y-89991079D01*
X150323378Y-89964043D01*
X150323378Y-89934779D01*
X150312179Y-89907743D01*
X150291487Y-89887051D01*
X150264451Y-89875852D01*
X150249819Y-89874411D01*
X149848628Y-89874411D01*
X149848628Y-89568459D01*
X149847187Y-89553827D01*
X149846156Y-89551338D01*
X149845965Y-89548649D01*
X149840710Y-89534918D01*
X149793091Y-89439680D01*
X149789126Y-89433380D01*
X149788369Y-89431553D01*
X149786680Y-89429496D01*
X149785259Y-89427237D01*
X149783760Y-89425937D01*
X149779042Y-89420188D01*
X149731423Y-89372569D01*
X149725673Y-89367850D01*
X149724374Y-89366352D01*
X149722114Y-89364930D01*
X149720058Y-89363242D01*
X149718230Y-89362484D01*
X149711931Y-89358520D01*
X149616693Y-89310901D01*
X149602961Y-89305646D01*
X149600273Y-89305455D01*
X149597784Y-89304424D01*
X149583152Y-89302983D01*
X149440295Y-89302983D01*
X149425663Y-89304424D01*
X149423174Y-89305454D01*
X149420485Y-89305646D01*
X149406754Y-89310901D01*
X149311516Y-89358520D01*
X149305216Y-89362484D01*
X149303389Y-89363242D01*
X149301332Y-89364930D01*
X149299073Y-89366352D01*
X149297773Y-89367850D01*
X149292024Y-89372569D01*
X149244405Y-89420188D01*
X149239686Y-89425937D01*
X149238188Y-89427237D01*
X149236766Y-89429496D01*
X149235078Y-89431553D01*
X149234320Y-89433380D01*
X149230356Y-89439680D01*
X149182737Y-89534918D01*
X149177482Y-89548650D01*
X149177291Y-89551337D01*
X149176260Y-89553827D01*
X149174819Y-89568459D01*
X149063708Y-89568459D01*
X149063708Y-88363351D01*
X149176260Y-88363351D01*
X149176260Y-88392615D01*
X149187459Y-88419651D01*
X149208151Y-88440343D01*
X149235187Y-88451542D01*
X149249819Y-88452983D01*
X150041637Y-88452983D01*
X150110153Y-88487241D01*
X150140561Y-88517648D01*
X150174819Y-88586164D01*
X150174819Y-88741230D01*
X150140561Y-88809745D01*
X150110153Y-88840152D01*
X150041637Y-88874411D01*
X149249819Y-88874411D01*
X149235187Y-88875852D01*
X149208151Y-88887051D01*
X149187459Y-88907743D01*
X149176260Y-88934779D01*
X149176260Y-88964043D01*
X149187459Y-88991079D01*
X149208151Y-89011771D01*
X149235187Y-89022970D01*
X149249819Y-89024411D01*
X150059342Y-89024411D01*
X150073974Y-89022970D01*
X150076463Y-89021938D01*
X150079151Y-89021748D01*
X150092883Y-89016493D01*
X150188121Y-88968874D01*
X150194417Y-88964910D01*
X150196247Y-88964153D01*
X150198305Y-88962463D01*
X150200564Y-88961042D01*
X150201863Y-88959543D01*
X150207612Y-88954826D01*
X150255232Y-88907207D01*
X150259950Y-88901457D01*
X150261450Y-88900157D01*
X150262872Y-88897897D01*
X150264560Y-88895841D01*
X150265317Y-88894013D01*
X150269282Y-88887714D01*
X150316901Y-88792476D01*
X150322156Y-88778745D01*
X150322347Y-88776055D01*
X150323378Y-88773567D01*
X150324819Y-88758935D01*
X150324819Y-88568459D01*
X150323378Y-88553827D01*
X150322347Y-88551338D01*
X150322156Y-88548649D01*
X150316901Y-88534918D01*
X150269282Y-88439680D01*
X150265317Y-88433380D01*
X150264560Y-88431553D01*
X150262872Y-88429496D01*
X150261450Y-88427237D01*
X150259950Y-88425936D01*
X150255232Y-88420187D01*
X150207612Y-88372568D01*
X150201863Y-88367850D01*
X150200564Y-88366352D01*
X150198305Y-88364930D01*
X150196247Y-88363241D01*
X150194417Y-88362483D01*
X150188121Y-88358520D01*
X150092883Y-88310901D01*
X150079151Y-88305646D01*
X150076463Y-88305455D01*
X150073974Y-88304424D01*
X150059342Y-88302983D01*
X149249819Y-88302983D01*
X149235187Y-88304424D01*
X149208151Y-88315623D01*
X149187459Y-88336315D01*
X149176260Y-88363351D01*
X149063708Y-88363351D01*
X149063708Y-87473221D01*
X149174819Y-87473221D01*
X149174819Y-88044649D01*
X149176260Y-88059281D01*
X149187459Y-88086317D01*
X149208151Y-88107009D01*
X149235187Y-88118208D01*
X149264451Y-88118208D01*
X149291487Y-88107009D01*
X149312179Y-88086317D01*
X149323378Y-88059281D01*
X149324819Y-88044649D01*
X149324819Y-87833935D01*
X150249819Y-87833935D01*
X150264451Y-87832494D01*
X150291487Y-87821295D01*
X150312179Y-87800603D01*
X150323378Y-87773567D01*
X150323378Y-87744303D01*
X150312179Y-87717267D01*
X150291487Y-87696575D01*
X150264451Y-87685376D01*
X150249819Y-87683935D01*
X149324819Y-87683935D01*
X149324819Y-87473221D01*
X149323378Y-87458589D01*
X149312179Y-87431553D01*
X149291487Y-87410861D01*
X149264451Y-87399662D01*
X149235187Y-87399662D01*
X149208151Y-87410861D01*
X149187459Y-87431553D01*
X149176260Y-87458589D01*
X149174819Y-87473221D01*
X149063708Y-87473221D01*
X149063708Y-87288551D01*
X150435930Y-87288551D01*
X150435930Y-91659331D01*
G37*
G36*
X154318617Y-71439514D02*
G01*
X154390561Y-71511457D01*
X154424819Y-71579973D01*
X154424819Y-71735039D01*
X154390561Y-71803554D01*
X154318617Y-71875497D01*
X154157251Y-71915839D01*
X153842386Y-71915839D01*
X153681019Y-71875497D01*
X153609077Y-71803555D01*
X153574819Y-71735039D01*
X153574819Y-71579973D01*
X153609077Y-71511457D01*
X153681019Y-71439514D01*
X153842386Y-71399173D01*
X154157251Y-71399173D01*
X154318617Y-71439514D01*
G37*
G36*
X153883963Y-68623907D02*
G01*
X153914370Y-68654314D01*
X153948628Y-68722830D01*
X153948628Y-69011077D01*
X153574819Y-69011077D01*
X153574819Y-68722830D01*
X153609077Y-68654314D01*
X153639484Y-68623907D01*
X153708000Y-68589649D01*
X153815447Y-68589649D01*
X153883963Y-68623907D01*
G37*
G36*
X154685930Y-72176950D02*
G01*
X153313708Y-72176950D01*
X153313708Y-71562268D01*
X153424819Y-71562268D01*
X153424819Y-71752744D01*
X153426260Y-71767376D01*
X153427291Y-71769865D01*
X153427482Y-71772553D01*
X153432737Y-71786285D01*
X153480356Y-71881523D01*
X153484320Y-71887822D01*
X153485078Y-71889650D01*
X153486766Y-71891706D01*
X153488188Y-71893966D01*
X153489686Y-71895265D01*
X153494405Y-71901015D01*
X153589643Y-71996253D01*
X153601008Y-72005581D01*
X153606161Y-72007715D01*
X153610640Y-72011034D01*
X153624486Y-72015981D01*
X153814962Y-72063600D01*
X153817498Y-72063975D01*
X153818520Y-72064398D01*
X153824032Y-72064940D01*
X153829506Y-72065750D01*
X153830598Y-72065587D01*
X153833152Y-72065839D01*
X154166485Y-72065839D01*
X154169038Y-72065587D01*
X154170131Y-72065750D01*
X154175604Y-72064940D01*
X154181117Y-72064398D01*
X154182138Y-72063975D01*
X154184675Y-72063600D01*
X154375151Y-72015981D01*
X154388997Y-72011034D01*
X154393476Y-72007714D01*
X154398628Y-72005581D01*
X154409994Y-71996253D01*
X154505233Y-71901015D01*
X154509953Y-71895264D01*
X154511450Y-71893966D01*
X154512869Y-71891711D01*
X154514561Y-71889650D01*
X154515319Y-71887817D01*
X154519282Y-71881523D01*
X154566901Y-71786285D01*
X154572156Y-71772554D01*
X154572347Y-71769864D01*
X154573378Y-71767376D01*
X154574819Y-71752744D01*
X154574819Y-71562268D01*
X154573378Y-71547636D01*
X154572347Y-71545147D01*
X154572156Y-71542458D01*
X154566901Y-71528727D01*
X154519282Y-71433489D01*
X154515319Y-71427194D01*
X154514561Y-71425362D01*
X154512869Y-71423300D01*
X154511450Y-71421046D01*
X154509953Y-71419747D01*
X154505233Y-71413997D01*
X154409994Y-71318759D01*
X154398628Y-71309431D01*
X154393476Y-71307297D01*
X154388997Y-71303978D01*
X154375151Y-71299031D01*
X154184675Y-71251412D01*
X154182138Y-71251036D01*
X154181117Y-71250614D01*
X154175604Y-71250071D01*
X154170131Y-71249262D01*
X154169038Y-71249424D01*
X154166485Y-71249173D01*
X153833152Y-71249173D01*
X153830598Y-71249424D01*
X153829506Y-71249262D01*
X153824032Y-71250071D01*
X153818520Y-71250614D01*
X153817498Y-71251036D01*
X153814962Y-71251412D01*
X153624486Y-71299031D01*
X153610640Y-71303978D01*
X153606161Y-71307296D01*
X153601008Y-71309431D01*
X153589643Y-71318759D01*
X153494405Y-71413997D01*
X153489686Y-71419746D01*
X153488188Y-71421046D01*
X153486766Y-71423305D01*
X153485078Y-71425362D01*
X153484320Y-71427189D01*
X153480356Y-71433489D01*
X153432737Y-71528727D01*
X153427482Y-71542459D01*
X153427291Y-71545146D01*
X153426260Y-71547636D01*
X153424819Y-71562268D01*
X153313708Y-71562268D01*
X153313708Y-70309541D01*
X153426260Y-70309541D01*
X153426260Y-70338805D01*
X153437459Y-70365841D01*
X153458151Y-70386533D01*
X153485187Y-70397732D01*
X153499819Y-70399173D01*
X154291637Y-70399173D01*
X154360153Y-70433431D01*
X154390561Y-70463838D01*
X154424819Y-70532354D01*
X154424819Y-70687420D01*
X154390561Y-70755935D01*
X154360153Y-70786342D01*
X154291637Y-70820601D01*
X153499819Y-70820601D01*
X153485187Y-70822042D01*
X153458151Y-70833241D01*
X153437459Y-70853933D01*
X153426260Y-70880969D01*
X153426260Y-70910233D01*
X153437459Y-70937269D01*
X153458151Y-70957961D01*
X153485187Y-70969160D01*
X153499819Y-70970601D01*
X154309342Y-70970601D01*
X154323974Y-70969160D01*
X154326463Y-70968128D01*
X154329151Y-70967938D01*
X154342883Y-70962683D01*
X154438121Y-70915064D01*
X154444417Y-70911100D01*
X154446247Y-70910343D01*
X154448305Y-70908653D01*
X154450564Y-70907232D01*
X154451863Y-70905733D01*
X154457612Y-70901016D01*
X154505232Y-70853397D01*
X154509950Y-70847647D01*
X154511450Y-70846347D01*
X154512872Y-70844087D01*
X154514560Y-70842031D01*
X154515317Y-70840203D01*
X154519282Y-70833904D01*
X154566901Y-70738666D01*
X154572156Y-70724935D01*
X154572347Y-70722245D01*
X154573378Y-70719757D01*
X154574819Y-70705125D01*
X154574819Y-70514649D01*
X154573378Y-70500017D01*
X154572347Y-70497528D01*
X154572156Y-70494839D01*
X154566901Y-70481108D01*
X154519282Y-70385870D01*
X154515317Y-70379570D01*
X154514560Y-70377743D01*
X154512872Y-70375686D01*
X154511450Y-70373427D01*
X154509950Y-70372126D01*
X154505232Y-70366377D01*
X154457612Y-70318758D01*
X154451863Y-70314040D01*
X154450564Y-70312542D01*
X154448305Y-70311120D01*
X154446247Y-70309431D01*
X154444417Y-70308673D01*
X154438121Y-70304710D01*
X154342883Y-70257091D01*
X154329151Y-70251836D01*
X154326463Y-70251645D01*
X154323974Y-70250614D01*
X154309342Y-70249173D01*
X153499819Y-70249173D01*
X153485187Y-70250614D01*
X153458151Y-70261813D01*
X153437459Y-70282505D01*
X153426260Y-70309541D01*
X153313708Y-70309541D01*
X153313708Y-69419411D01*
X153424819Y-69419411D01*
X153424819Y-69990839D01*
X153426260Y-70005471D01*
X153437459Y-70032507D01*
X153458151Y-70053199D01*
X153485187Y-70064398D01*
X153514451Y-70064398D01*
X153541487Y-70053199D01*
X153562179Y-70032507D01*
X153573378Y-70005471D01*
X153574819Y-69990839D01*
X153574819Y-69780125D01*
X154499819Y-69780125D01*
X154514451Y-69778684D01*
X154541487Y-69767485D01*
X154562179Y-69746793D01*
X154573378Y-69719757D01*
X154573378Y-69690493D01*
X154562179Y-69663457D01*
X154541487Y-69642765D01*
X154514451Y-69631566D01*
X154499819Y-69630125D01*
X153574819Y-69630125D01*
X153574819Y-69419411D01*
X153573378Y-69404779D01*
X153562179Y-69377743D01*
X153541487Y-69357051D01*
X153514451Y-69345852D01*
X153485187Y-69345852D01*
X153458151Y-69357051D01*
X153437459Y-69377743D01*
X153426260Y-69404779D01*
X153424819Y-69419411D01*
X153313708Y-69419411D01*
X153313708Y-68705125D01*
X153424819Y-68705125D01*
X153424819Y-69086077D01*
X153426260Y-69100709D01*
X153437459Y-69127745D01*
X153458151Y-69148437D01*
X153485187Y-69159636D01*
X153499819Y-69161077D01*
X154499819Y-69161077D01*
X154514451Y-69159636D01*
X154541487Y-69148437D01*
X154562179Y-69127745D01*
X154573378Y-69100709D01*
X154573378Y-69071445D01*
X154562179Y-69044409D01*
X154541487Y-69023717D01*
X154514451Y-69012518D01*
X154499819Y-69011077D01*
X154098628Y-69011077D01*
X154098628Y-68705125D01*
X154097187Y-68690493D01*
X154096156Y-68688004D01*
X154095965Y-68685315D01*
X154090710Y-68671584D01*
X154043091Y-68576346D01*
X154039126Y-68570046D01*
X154038369Y-68568219D01*
X154036680Y-68566162D01*
X154035259Y-68563903D01*
X154033760Y-68562603D01*
X154029042Y-68556854D01*
X153981423Y-68509235D01*
X153975673Y-68504516D01*
X153974374Y-68503018D01*
X153972114Y-68501596D01*
X153970058Y-68499908D01*
X153968230Y-68499150D01*
X153961931Y-68495186D01*
X153866693Y-68447567D01*
X153852961Y-68442312D01*
X153850273Y-68442121D01*
X153847784Y-68441090D01*
X153833152Y-68439649D01*
X153690295Y-68439649D01*
X153675663Y-68441090D01*
X153673174Y-68442120D01*
X153670485Y-68442312D01*
X153656754Y-68447567D01*
X153561516Y-68495186D01*
X153555216Y-68499150D01*
X153553389Y-68499908D01*
X153551332Y-68501596D01*
X153549073Y-68503018D01*
X153547773Y-68504516D01*
X153542024Y-68509235D01*
X153494405Y-68556854D01*
X153489686Y-68562603D01*
X153488188Y-68563903D01*
X153486766Y-68566162D01*
X153485078Y-68568219D01*
X153484320Y-68570046D01*
X153480356Y-68576346D01*
X153432737Y-68671584D01*
X153427482Y-68685316D01*
X153427291Y-68688003D01*
X153426260Y-68690493D01*
X153424819Y-68705125D01*
X153313708Y-68705125D01*
X153313708Y-67500017D01*
X153426260Y-67500017D01*
X153426260Y-67529281D01*
X153437459Y-67556317D01*
X153458151Y-67577009D01*
X153485187Y-67588208D01*
X153499819Y-67589649D01*
X154291637Y-67589649D01*
X154360153Y-67623907D01*
X154390561Y-67654314D01*
X154424819Y-67722830D01*
X154424819Y-67877896D01*
X154390561Y-67946411D01*
X154360153Y-67976818D01*
X154291637Y-68011077D01*
X153499819Y-68011077D01*
X153485187Y-68012518D01*
X153458151Y-68023717D01*
X153437459Y-68044409D01*
X153426260Y-68071445D01*
X153426260Y-68100709D01*
X153437459Y-68127745D01*
X153458151Y-68148437D01*
X153485187Y-68159636D01*
X153499819Y-68161077D01*
X154309342Y-68161077D01*
X154323974Y-68159636D01*
X154326463Y-68158604D01*
X154329151Y-68158414D01*
X154342883Y-68153159D01*
X154438121Y-68105540D01*
X154444417Y-68101576D01*
X154446247Y-68100819D01*
X154448305Y-68099129D01*
X154450564Y-68097708D01*
X154451863Y-68096209D01*
X154457612Y-68091492D01*
X154505232Y-68043873D01*
X154509950Y-68038123D01*
X154511450Y-68036823D01*
X154512872Y-68034563D01*
X154514560Y-68032507D01*
X154515317Y-68030679D01*
X154519282Y-68024380D01*
X154566901Y-67929142D01*
X154572156Y-67915411D01*
X154572347Y-67912721D01*
X154573378Y-67910233D01*
X154574819Y-67895601D01*
X154574819Y-67705125D01*
X154573378Y-67690493D01*
X154572347Y-67688004D01*
X154572156Y-67685315D01*
X154566901Y-67671584D01*
X154519282Y-67576346D01*
X154515317Y-67570046D01*
X154514560Y-67568219D01*
X154512872Y-67566162D01*
X154511450Y-67563903D01*
X154509950Y-67562602D01*
X154505232Y-67556853D01*
X154457612Y-67509234D01*
X154451863Y-67504516D01*
X154450564Y-67503018D01*
X154448305Y-67501596D01*
X154446247Y-67499907D01*
X154444417Y-67499149D01*
X154438121Y-67495186D01*
X154342883Y-67447567D01*
X154329151Y-67442312D01*
X154326463Y-67442121D01*
X154323974Y-67441090D01*
X154309342Y-67439649D01*
X153499819Y-67439649D01*
X153485187Y-67441090D01*
X153458151Y-67452289D01*
X153437459Y-67472981D01*
X153426260Y-67500017D01*
X153313708Y-67500017D01*
X153313708Y-66609887D01*
X153424819Y-66609887D01*
X153424819Y-67181315D01*
X153426260Y-67195947D01*
X153437459Y-67222983D01*
X153458151Y-67243675D01*
X153485187Y-67254874D01*
X153514451Y-67254874D01*
X153541487Y-67243675D01*
X153562179Y-67222983D01*
X153573378Y-67195947D01*
X153574819Y-67181315D01*
X153574819Y-66970601D01*
X154499819Y-66970601D01*
X154514451Y-66969160D01*
X154541487Y-66957961D01*
X154562179Y-66937269D01*
X154573378Y-66910233D01*
X154573378Y-66880969D01*
X154562179Y-66853933D01*
X154541487Y-66833241D01*
X154514451Y-66822042D01*
X154499819Y-66820601D01*
X153574819Y-66820601D01*
X153574819Y-66609887D01*
X153573378Y-66595255D01*
X153562179Y-66568219D01*
X153541487Y-66547527D01*
X153514451Y-66536328D01*
X153485187Y-66536328D01*
X153458151Y-66547527D01*
X153437459Y-66568219D01*
X153426260Y-66595255D01*
X153424819Y-66609887D01*
X153313708Y-66609887D01*
X153313708Y-66425217D01*
X154685930Y-66425217D01*
X154685930Y-72176950D01*
G37*
X101302200Y-90760839D02*
X101349819Y-90617982D01*
X101349819Y-90617982D02*
X101349819Y-90379887D01*
X101349819Y-90379887D02*
X101302200Y-90284649D01*
X101302200Y-90284649D02*
X101254580Y-90237030D01*
X101254580Y-90237030D02*
X101159342Y-90189411D01*
X101159342Y-90189411D02*
X101064104Y-90189411D01*
X101064104Y-90189411D02*
X100968866Y-90237030D01*
X100968866Y-90237030D02*
X100921247Y-90284649D01*
X100921247Y-90284649D02*
X100873628Y-90379887D01*
X100873628Y-90379887D02*
X100826009Y-90570363D01*
X100826009Y-90570363D02*
X100778390Y-90665601D01*
X100778390Y-90665601D02*
X100730771Y-90713220D01*
X100730771Y-90713220D02*
X100635533Y-90760839D01*
X100635533Y-90760839D02*
X100540295Y-90760839D01*
X100540295Y-90760839D02*
X100445057Y-90713220D01*
X100445057Y-90713220D02*
X100397438Y-90665601D01*
X100397438Y-90665601D02*
X100349819Y-90570363D01*
X100349819Y-90570363D02*
X100349819Y-90332268D01*
X100349819Y-90332268D02*
X100397438Y-90189411D01*
X101254580Y-89189411D02*
X101302200Y-89237030D01*
X101302200Y-89237030D02*
X101349819Y-89379887D01*
X101349819Y-89379887D02*
X101349819Y-89475125D01*
X101349819Y-89475125D02*
X101302200Y-89617982D01*
X101302200Y-89617982D02*
X101206961Y-89713220D01*
X101206961Y-89713220D02*
X101111723Y-89760839D01*
X101111723Y-89760839D02*
X100921247Y-89808458D01*
X100921247Y-89808458D02*
X100778390Y-89808458D01*
X100778390Y-89808458D02*
X100587914Y-89760839D01*
X100587914Y-89760839D02*
X100492676Y-89713220D01*
X100492676Y-89713220D02*
X100397438Y-89617982D01*
X100397438Y-89617982D02*
X100349819Y-89475125D01*
X100349819Y-89475125D02*
X100349819Y-89379887D01*
X100349819Y-89379887D02*
X100397438Y-89237030D01*
X100397438Y-89237030D02*
X100445057Y-89189411D01*
X101349819Y-88284649D02*
X101349819Y-88760839D01*
X101349819Y-88760839D02*
X100349819Y-88760839D01*
X100469819Y-52887030D02*
X100469819Y-53363220D01*
X100469819Y-53363220D02*
X100946009Y-53410839D01*
X100946009Y-53410839D02*
X100898390Y-53363220D01*
X100898390Y-53363220D02*
X100850771Y-53267982D01*
X100850771Y-53267982D02*
X100850771Y-53029887D01*
X100850771Y-53029887D02*
X100898390Y-52934649D01*
X100898390Y-52934649D02*
X100946009Y-52887030D01*
X100946009Y-52887030D02*
X101041247Y-52839411D01*
X101041247Y-52839411D02*
X101279342Y-52839411D01*
X101279342Y-52839411D02*
X101374580Y-52887030D01*
X101374580Y-52887030D02*
X101422200Y-52934649D01*
X101422200Y-52934649D02*
X101469819Y-53029887D01*
X101469819Y-53029887D02*
X101469819Y-53267982D01*
X101469819Y-53267982D02*
X101422200Y-53363220D01*
X101422200Y-53363220D02*
X101374580Y-53410839D01*
X100469819Y-52553696D02*
X101469819Y-52220363D01*
X101469819Y-52220363D02*
X100469819Y-51887030D01*
X131083333Y-53154819D02*
X130750000Y-52678628D01*
X130511905Y-53154819D02*
X130511905Y-52154819D01*
X130511905Y-52154819D02*
X130892857Y-52154819D01*
X130892857Y-52154819D02*
X130988095Y-52202438D01*
X130988095Y-52202438D02*
X131035714Y-52250057D01*
X131035714Y-52250057D02*
X131083333Y-52345295D01*
X131083333Y-52345295D02*
X131083333Y-52488152D01*
X131083333Y-52488152D02*
X131035714Y-52583390D01*
X131035714Y-52583390D02*
X130988095Y-52631009D01*
X130988095Y-52631009D02*
X130892857Y-52678628D01*
X130892857Y-52678628D02*
X130511905Y-52678628D01*
X131559524Y-53154819D02*
X131750000Y-53154819D01*
X131750000Y-53154819D02*
X131845238Y-53107200D01*
X131845238Y-53107200D02*
X131892857Y-53059580D01*
X131892857Y-53059580D02*
X131988095Y-52916723D01*
X131988095Y-52916723D02*
X132035714Y-52726247D01*
X132035714Y-52726247D02*
X132035714Y-52345295D01*
X132035714Y-52345295D02*
X131988095Y-52250057D01*
X131988095Y-52250057D02*
X131940476Y-52202438D01*
X131940476Y-52202438D02*
X131845238Y-52154819D01*
X131845238Y-52154819D02*
X131654762Y-52154819D01*
X131654762Y-52154819D02*
X131559524Y-52202438D01*
X131559524Y-52202438D02*
X131511905Y-52250057D01*
X131511905Y-52250057D02*
X131464286Y-52345295D01*
X131464286Y-52345295D02*
X131464286Y-52583390D01*
X131464286Y-52583390D02*
X131511905Y-52678628D01*
X131511905Y-52678628D02*
X131559524Y-52726247D01*
X131559524Y-52726247D02*
X131654762Y-52773866D01*
X131654762Y-52773866D02*
X131845238Y-52773866D01*
X131845238Y-52773866D02*
X131940476Y-52726247D01*
X131940476Y-52726247D02*
X131988095Y-52678628D01*
X131988095Y-52678628D02*
X132035714Y-52583390D01*
X159391667Y-65232200D02*
X159534524Y-65279819D01*
X159534524Y-65279819D02*
X159772619Y-65279819D01*
X159772619Y-65279819D02*
X159867857Y-65232200D01*
X159867857Y-65232200D02*
X159915476Y-65184580D01*
X159915476Y-65184580D02*
X159963095Y-65089342D01*
X159963095Y-65089342D02*
X159963095Y-64994104D01*
X159963095Y-64994104D02*
X159915476Y-64898866D01*
X159915476Y-64898866D02*
X159867857Y-64851247D01*
X159867857Y-64851247D02*
X159772619Y-64803628D01*
X159772619Y-64803628D02*
X159582143Y-64756009D01*
X159582143Y-64756009D02*
X159486905Y-64708390D01*
X159486905Y-64708390D02*
X159439286Y-64660771D01*
X159439286Y-64660771D02*
X159391667Y-64565533D01*
X159391667Y-64565533D02*
X159391667Y-64470295D01*
X159391667Y-64470295D02*
X159439286Y-64375057D01*
X159439286Y-64375057D02*
X159486905Y-64327438D01*
X159486905Y-64327438D02*
X159582143Y-64279819D01*
X159582143Y-64279819D02*
X159820238Y-64279819D01*
X159820238Y-64279819D02*
X159963095Y-64327438D01*
X160296429Y-64279819D02*
X160534524Y-65279819D01*
X160534524Y-65279819D02*
X160725000Y-64565533D01*
X160725000Y-64565533D02*
X160915476Y-65279819D01*
X160915476Y-65279819D02*
X161153572Y-64279819D01*
X162058333Y-65279819D02*
X161486905Y-65279819D01*
X161772619Y-65279819D02*
X161772619Y-64279819D01*
X161772619Y-64279819D02*
X161677381Y-64422676D01*
X161677381Y-64422676D02*
X161582143Y-64517914D01*
X161582143Y-64517914D02*
X161486905Y-64565533D01*
X134207142Y-65534819D02*
X133873809Y-65058628D01*
X133635714Y-65534819D02*
X133635714Y-64534819D01*
X133635714Y-64534819D02*
X134016666Y-64534819D01*
X134016666Y-64534819D02*
X134111904Y-64582438D01*
X134111904Y-64582438D02*
X134159523Y-64630057D01*
X134159523Y-64630057D02*
X134207142Y-64725295D01*
X134207142Y-64725295D02*
X134207142Y-64868152D01*
X134207142Y-64868152D02*
X134159523Y-64963390D01*
X134159523Y-64963390D02*
X134111904Y-65011009D01*
X134111904Y-65011009D02*
X134016666Y-65058628D01*
X134016666Y-65058628D02*
X133635714Y-65058628D01*
X135159523Y-65534819D02*
X134588095Y-65534819D01*
X134873809Y-65534819D02*
X134873809Y-64534819D01*
X134873809Y-64534819D02*
X134778571Y-64677676D01*
X134778571Y-64677676D02*
X134683333Y-64772914D01*
X134683333Y-64772914D02*
X134588095Y-64820533D01*
X135492857Y-64534819D02*
X136159523Y-64534819D01*
X136159523Y-64534819D02*
X135730952Y-65534819D01*
X126659580Y-76341666D02*
X126707200Y-76389285D01*
X126707200Y-76389285D02*
X126754819Y-76532142D01*
X126754819Y-76532142D02*
X126754819Y-76627380D01*
X126754819Y-76627380D02*
X126707200Y-76770237D01*
X126707200Y-76770237D02*
X126611961Y-76865475D01*
X126611961Y-76865475D02*
X126516723Y-76913094D01*
X126516723Y-76913094D02*
X126326247Y-76960713D01*
X126326247Y-76960713D02*
X126183390Y-76960713D01*
X126183390Y-76960713D02*
X125992914Y-76913094D01*
X125992914Y-76913094D02*
X125897676Y-76865475D01*
X125897676Y-76865475D02*
X125802438Y-76770237D01*
X125802438Y-76770237D02*
X125754819Y-76627380D01*
X125754819Y-76627380D02*
X125754819Y-76532142D01*
X125754819Y-76532142D02*
X125802438Y-76389285D01*
X125802438Y-76389285D02*
X125850057Y-76341666D01*
X125850057Y-75960713D02*
X125802438Y-75913094D01*
X125802438Y-75913094D02*
X125754819Y-75817856D01*
X125754819Y-75817856D02*
X125754819Y-75579761D01*
X125754819Y-75579761D02*
X125802438Y-75484523D01*
X125802438Y-75484523D02*
X125850057Y-75436904D01*
X125850057Y-75436904D02*
X125945295Y-75389285D01*
X125945295Y-75389285D02*
X126040533Y-75389285D01*
X126040533Y-75389285D02*
X126183390Y-75436904D01*
X126183390Y-75436904D02*
X126754819Y-76008332D01*
X126754819Y-76008332D02*
X126754819Y-75389285D01*
X132638095Y-75554819D02*
X132638095Y-76364342D01*
X132638095Y-76364342D02*
X132685714Y-76459580D01*
X132685714Y-76459580D02*
X132733333Y-76507200D01*
X132733333Y-76507200D02*
X132828571Y-76554819D01*
X132828571Y-76554819D02*
X133019047Y-76554819D01*
X133019047Y-76554819D02*
X133114285Y-76507200D01*
X133114285Y-76507200D02*
X133161904Y-76459580D01*
X133161904Y-76459580D02*
X133209523Y-76364342D01*
X133209523Y-76364342D02*
X133209523Y-75554819D01*
X134209523Y-76554819D02*
X133638095Y-76554819D01*
X133923809Y-76554819D02*
X133923809Y-75554819D01*
X133923809Y-75554819D02*
X133828571Y-75697676D01*
X133828571Y-75697676D02*
X133733333Y-75792914D01*
X133733333Y-75792914D02*
X133638095Y-75840533D01*
X165800476Y-68954819D02*
X165800476Y-69669104D01*
X165800476Y-69669104D02*
X165752857Y-69811961D01*
X165752857Y-69811961D02*
X165657619Y-69907200D01*
X165657619Y-69907200D02*
X165514762Y-69954819D01*
X165514762Y-69954819D02*
X165419524Y-69954819D01*
X166800476Y-69954819D02*
X166229048Y-69954819D01*
X166514762Y-69954819D02*
X166514762Y-68954819D01*
X166514762Y-68954819D02*
X166419524Y-69097676D01*
X166419524Y-69097676D02*
X166324286Y-69192914D01*
X166324286Y-69192914D02*
X166229048Y-69240533D01*
X167133810Y-68954819D02*
X167752857Y-68954819D01*
X167752857Y-68954819D02*
X167419524Y-69335771D01*
X167419524Y-69335771D02*
X167562381Y-69335771D01*
X167562381Y-69335771D02*
X167657619Y-69383390D01*
X167657619Y-69383390D02*
X167705238Y-69431009D01*
X167705238Y-69431009D02*
X167752857Y-69526247D01*
X167752857Y-69526247D02*
X167752857Y-69764342D01*
X167752857Y-69764342D02*
X167705238Y-69859580D01*
X167705238Y-69859580D02*
X167657619Y-69907200D01*
X167657619Y-69907200D02*
X167562381Y-69954819D01*
X167562381Y-69954819D02*
X167276667Y-69954819D01*
X167276667Y-69954819D02*
X167181429Y-69907200D01*
X167181429Y-69907200D02*
X167133810Y-69859580D01*
X121183333Y-84409580D02*
X121135714Y-84457200D01*
X121135714Y-84457200D02*
X120992857Y-84504819D01*
X120992857Y-84504819D02*
X120897619Y-84504819D01*
X120897619Y-84504819D02*
X120754762Y-84457200D01*
X120754762Y-84457200D02*
X120659524Y-84361961D01*
X120659524Y-84361961D02*
X120611905Y-84266723D01*
X120611905Y-84266723D02*
X120564286Y-84076247D01*
X120564286Y-84076247D02*
X120564286Y-83933390D01*
X120564286Y-83933390D02*
X120611905Y-83742914D01*
X120611905Y-83742914D02*
X120659524Y-83647676D01*
X120659524Y-83647676D02*
X120754762Y-83552438D01*
X120754762Y-83552438D02*
X120897619Y-83504819D01*
X120897619Y-83504819D02*
X120992857Y-83504819D01*
X120992857Y-83504819D02*
X121135714Y-83552438D01*
X121135714Y-83552438D02*
X121183333Y-83600057D01*
X122135714Y-84504819D02*
X121564286Y-84504819D01*
X121850000Y-84504819D02*
X121850000Y-83504819D01*
X121850000Y-83504819D02*
X121754762Y-83647676D01*
X121754762Y-83647676D02*
X121659524Y-83742914D01*
X121659524Y-83742914D02*
X121564286Y-83790533D01*
X146604761Y-80029819D02*
X146271428Y-79553628D01*
X146033333Y-80029819D02*
X146033333Y-79029819D01*
X146033333Y-79029819D02*
X146414285Y-79029819D01*
X146414285Y-79029819D02*
X146509523Y-79077438D01*
X146509523Y-79077438D02*
X146557142Y-79125057D01*
X146557142Y-79125057D02*
X146604761Y-79220295D01*
X146604761Y-79220295D02*
X146604761Y-79363152D01*
X146604761Y-79363152D02*
X146557142Y-79458390D01*
X146557142Y-79458390D02*
X146509523Y-79506009D01*
X146509523Y-79506009D02*
X146414285Y-79553628D01*
X146414285Y-79553628D02*
X146033333Y-79553628D01*
X146890476Y-79029819D02*
X147223809Y-80029819D01*
X147223809Y-80029819D02*
X147557142Y-79029819D01*
X147795238Y-79029819D02*
X148414285Y-79029819D01*
X148414285Y-79029819D02*
X148080952Y-79410771D01*
X148080952Y-79410771D02*
X148223809Y-79410771D01*
X148223809Y-79410771D02*
X148319047Y-79458390D01*
X148319047Y-79458390D02*
X148366666Y-79506009D01*
X148366666Y-79506009D02*
X148414285Y-79601247D01*
X148414285Y-79601247D02*
X148414285Y-79839342D01*
X148414285Y-79839342D02*
X148366666Y-79934580D01*
X148366666Y-79934580D02*
X148319047Y-79982200D01*
X148319047Y-79982200D02*
X148223809Y-80029819D01*
X148223809Y-80029819D02*
X147938095Y-80029819D01*
X147938095Y-80029819D02*
X147842857Y-79982200D01*
X147842857Y-79982200D02*
X147795238Y-79934580D01*
X126807142Y-53164819D02*
X126473809Y-52688628D01*
X126235714Y-53164819D02*
X126235714Y-52164819D01*
X126235714Y-52164819D02*
X126616666Y-52164819D01*
X126616666Y-52164819D02*
X126711904Y-52212438D01*
X126711904Y-52212438D02*
X126759523Y-52260057D01*
X126759523Y-52260057D02*
X126807142Y-52355295D01*
X126807142Y-52355295D02*
X126807142Y-52498152D01*
X126807142Y-52498152D02*
X126759523Y-52593390D01*
X126759523Y-52593390D02*
X126711904Y-52641009D01*
X126711904Y-52641009D02*
X126616666Y-52688628D01*
X126616666Y-52688628D02*
X126235714Y-52688628D01*
X127759523Y-53164819D02*
X127188095Y-53164819D01*
X127473809Y-53164819D02*
X127473809Y-52164819D01*
X127473809Y-52164819D02*
X127378571Y-52307676D01*
X127378571Y-52307676D02*
X127283333Y-52402914D01*
X127283333Y-52402914D02*
X127188095Y-52450533D01*
X128378571Y-52164819D02*
X128473809Y-52164819D01*
X128473809Y-52164819D02*
X128569047Y-52212438D01*
X128569047Y-52212438D02*
X128616666Y-52260057D01*
X128616666Y-52260057D02*
X128664285Y-52355295D01*
X128664285Y-52355295D02*
X128711904Y-52545771D01*
X128711904Y-52545771D02*
X128711904Y-52783866D01*
X128711904Y-52783866D02*
X128664285Y-52974342D01*
X128664285Y-52974342D02*
X128616666Y-53069580D01*
X128616666Y-53069580D02*
X128569047Y-53117200D01*
X128569047Y-53117200D02*
X128473809Y-53164819D01*
X128473809Y-53164819D02*
X128378571Y-53164819D01*
X128378571Y-53164819D02*
X128283333Y-53117200D01*
X128283333Y-53117200D02*
X128235714Y-53069580D01*
X128235714Y-53069580D02*
X128188095Y-52974342D01*
X128188095Y-52974342D02*
X128140476Y-52783866D01*
X128140476Y-52783866D02*
X128140476Y-52545771D01*
X128140476Y-52545771D02*
X128188095Y-52355295D01*
X128188095Y-52355295D02*
X128235714Y-52260057D01*
X128235714Y-52260057D02*
X128283333Y-52212438D01*
X128283333Y-52212438D02*
X128378571Y-52164819D01*
X138483333Y-53164819D02*
X138150000Y-52688628D01*
X137911905Y-53164819D02*
X137911905Y-52164819D01*
X137911905Y-52164819D02*
X138292857Y-52164819D01*
X138292857Y-52164819D02*
X138388095Y-52212438D01*
X138388095Y-52212438D02*
X138435714Y-52260057D01*
X138435714Y-52260057D02*
X138483333Y-52355295D01*
X138483333Y-52355295D02*
X138483333Y-52498152D01*
X138483333Y-52498152D02*
X138435714Y-52593390D01*
X138435714Y-52593390D02*
X138388095Y-52641009D01*
X138388095Y-52641009D02*
X138292857Y-52688628D01*
X138292857Y-52688628D02*
X137911905Y-52688628D01*
X138816667Y-52164819D02*
X139483333Y-52164819D01*
X139483333Y-52164819D02*
X139054762Y-53164819D01*
X143397142Y-69654819D02*
X143063809Y-69178628D01*
X142825714Y-69654819D02*
X142825714Y-68654819D01*
X142825714Y-68654819D02*
X143206666Y-68654819D01*
X143206666Y-68654819D02*
X143301904Y-68702438D01*
X143301904Y-68702438D02*
X143349523Y-68750057D01*
X143349523Y-68750057D02*
X143397142Y-68845295D01*
X143397142Y-68845295D02*
X143397142Y-68988152D01*
X143397142Y-68988152D02*
X143349523Y-69083390D01*
X143349523Y-69083390D02*
X143301904Y-69131009D01*
X143301904Y-69131009D02*
X143206666Y-69178628D01*
X143206666Y-69178628D02*
X142825714Y-69178628D01*
X143778095Y-68750057D02*
X143825714Y-68702438D01*
X143825714Y-68702438D02*
X143920952Y-68654819D01*
X143920952Y-68654819D02*
X144159047Y-68654819D01*
X144159047Y-68654819D02*
X144254285Y-68702438D01*
X144254285Y-68702438D02*
X144301904Y-68750057D01*
X144301904Y-68750057D02*
X144349523Y-68845295D01*
X144349523Y-68845295D02*
X144349523Y-68940533D01*
X144349523Y-68940533D02*
X144301904Y-69083390D01*
X144301904Y-69083390D02*
X143730476Y-69654819D01*
X143730476Y-69654819D02*
X144349523Y-69654819D01*
X145206666Y-68654819D02*
X145016190Y-68654819D01*
X145016190Y-68654819D02*
X144920952Y-68702438D01*
X144920952Y-68702438D02*
X144873333Y-68750057D01*
X144873333Y-68750057D02*
X144778095Y-68892914D01*
X144778095Y-68892914D02*
X144730476Y-69083390D01*
X144730476Y-69083390D02*
X144730476Y-69464342D01*
X144730476Y-69464342D02*
X144778095Y-69559580D01*
X144778095Y-69559580D02*
X144825714Y-69607200D01*
X144825714Y-69607200D02*
X144920952Y-69654819D01*
X144920952Y-69654819D02*
X145111428Y-69654819D01*
X145111428Y-69654819D02*
X145206666Y-69607200D01*
X145206666Y-69607200D02*
X145254285Y-69559580D01*
X145254285Y-69559580D02*
X145301904Y-69464342D01*
X145301904Y-69464342D02*
X145301904Y-69226247D01*
X145301904Y-69226247D02*
X145254285Y-69131009D01*
X145254285Y-69131009D02*
X145206666Y-69083390D01*
X145206666Y-69083390D02*
X145111428Y-69035771D01*
X145111428Y-69035771D02*
X144920952Y-69035771D01*
X144920952Y-69035771D02*
X144825714Y-69083390D01*
X144825714Y-69083390D02*
X144778095Y-69131009D01*
X144778095Y-69131009D02*
X144730476Y-69226247D01*
X92414819Y-93033333D02*
X93129104Y-93033333D01*
X93129104Y-93033333D02*
X93271961Y-93080952D01*
X93271961Y-93080952D02*
X93367200Y-93176190D01*
X93367200Y-93176190D02*
X93414819Y-93319047D01*
X93414819Y-93319047D02*
X93414819Y-93414285D01*
X92414819Y-92080952D02*
X92414819Y-92557142D01*
X92414819Y-92557142D02*
X92891009Y-92604761D01*
X92891009Y-92604761D02*
X92843390Y-92557142D01*
X92843390Y-92557142D02*
X92795771Y-92461904D01*
X92795771Y-92461904D02*
X92795771Y-92223809D01*
X92795771Y-92223809D02*
X92843390Y-92128571D01*
X92843390Y-92128571D02*
X92891009Y-92080952D01*
X92891009Y-92080952D02*
X92986247Y-92033333D01*
X92986247Y-92033333D02*
X93224342Y-92033333D01*
X93224342Y-92033333D02*
X93319580Y-92080952D01*
X93319580Y-92080952D02*
X93367200Y-92128571D01*
X93367200Y-92128571D02*
X93414819Y-92223809D01*
X93414819Y-92223809D02*
X93414819Y-92461904D01*
X93414819Y-92461904D02*
X93367200Y-92557142D01*
X93367200Y-92557142D02*
X93319580Y-92604761D01*
X127954761Y-90154819D02*
X127621428Y-89678628D01*
X127383333Y-90154819D02*
X127383333Y-89154819D01*
X127383333Y-89154819D02*
X127764285Y-89154819D01*
X127764285Y-89154819D02*
X127859523Y-89202438D01*
X127859523Y-89202438D02*
X127907142Y-89250057D01*
X127907142Y-89250057D02*
X127954761Y-89345295D01*
X127954761Y-89345295D02*
X127954761Y-89488152D01*
X127954761Y-89488152D02*
X127907142Y-89583390D01*
X127907142Y-89583390D02*
X127859523Y-89631009D01*
X127859523Y-89631009D02*
X127764285Y-89678628D01*
X127764285Y-89678628D02*
X127383333Y-89678628D01*
X128240476Y-89154819D02*
X128573809Y-90154819D01*
X128573809Y-90154819D02*
X128907142Y-89154819D01*
X129764285Y-90154819D02*
X129192857Y-90154819D01*
X129478571Y-90154819D02*
X129478571Y-89154819D01*
X129478571Y-89154819D02*
X129383333Y-89297676D01*
X129383333Y-89297676D02*
X129288095Y-89392914D01*
X129288095Y-89392914D02*
X129192857Y-89440533D01*
X153383333Y-65454819D02*
X153050000Y-64978628D01*
X152811905Y-65454819D02*
X152811905Y-64454819D01*
X152811905Y-64454819D02*
X153192857Y-64454819D01*
X153192857Y-64454819D02*
X153288095Y-64502438D01*
X153288095Y-64502438D02*
X153335714Y-64550057D01*
X153335714Y-64550057D02*
X153383333Y-64645295D01*
X153383333Y-64645295D02*
X153383333Y-64788152D01*
X153383333Y-64788152D02*
X153335714Y-64883390D01*
X153335714Y-64883390D02*
X153288095Y-64931009D01*
X153288095Y-64931009D02*
X153192857Y-64978628D01*
X153192857Y-64978628D02*
X152811905Y-64978628D01*
X154335714Y-65454819D02*
X153764286Y-65454819D01*
X154050000Y-65454819D02*
X154050000Y-64454819D01*
X154050000Y-64454819D02*
X153954762Y-64597676D01*
X153954762Y-64597676D02*
X153859524Y-64692914D01*
X153859524Y-64692914D02*
X153764286Y-64740533D01*
X95016666Y-49754819D02*
X95016666Y-50469104D01*
X95016666Y-50469104D02*
X94969047Y-50611961D01*
X94969047Y-50611961D02*
X94873809Y-50707200D01*
X94873809Y-50707200D02*
X94730952Y-50754819D01*
X94730952Y-50754819D02*
X94635714Y-50754819D01*
X95921428Y-49754819D02*
X95730952Y-49754819D01*
X95730952Y-49754819D02*
X95635714Y-49802438D01*
X95635714Y-49802438D02*
X95588095Y-49850057D01*
X95588095Y-49850057D02*
X95492857Y-49992914D01*
X95492857Y-49992914D02*
X95445238Y-50183390D01*
X95445238Y-50183390D02*
X95445238Y-50564342D01*
X95445238Y-50564342D02*
X95492857Y-50659580D01*
X95492857Y-50659580D02*
X95540476Y-50707200D01*
X95540476Y-50707200D02*
X95635714Y-50754819D01*
X95635714Y-50754819D02*
X95826190Y-50754819D01*
X95826190Y-50754819D02*
X95921428Y-50707200D01*
X95921428Y-50707200D02*
X95969047Y-50659580D01*
X95969047Y-50659580D02*
X96016666Y-50564342D01*
X96016666Y-50564342D02*
X96016666Y-50326247D01*
X96016666Y-50326247D02*
X95969047Y-50231009D01*
X95969047Y-50231009D02*
X95921428Y-50183390D01*
X95921428Y-50183390D02*
X95826190Y-50135771D01*
X95826190Y-50135771D02*
X95635714Y-50135771D01*
X95635714Y-50135771D02*
X95540476Y-50183390D01*
X95540476Y-50183390D02*
X95492857Y-50231009D01*
X95492857Y-50231009D02*
X95445238Y-50326247D01*
X153233333Y-53154819D02*
X152900000Y-52678628D01*
X152661905Y-53154819D02*
X152661905Y-52154819D01*
X152661905Y-52154819D02*
X153042857Y-52154819D01*
X153042857Y-52154819D02*
X153138095Y-52202438D01*
X153138095Y-52202438D02*
X153185714Y-52250057D01*
X153185714Y-52250057D02*
X153233333Y-52345295D01*
X153233333Y-52345295D02*
X153233333Y-52488152D01*
X153233333Y-52488152D02*
X153185714Y-52583390D01*
X153185714Y-52583390D02*
X153138095Y-52631009D01*
X153138095Y-52631009D02*
X153042857Y-52678628D01*
X153042857Y-52678628D02*
X152661905Y-52678628D01*
X153614286Y-52250057D02*
X153661905Y-52202438D01*
X153661905Y-52202438D02*
X153757143Y-52154819D01*
X153757143Y-52154819D02*
X153995238Y-52154819D01*
X153995238Y-52154819D02*
X154090476Y-52202438D01*
X154090476Y-52202438D02*
X154138095Y-52250057D01*
X154138095Y-52250057D02*
X154185714Y-52345295D01*
X154185714Y-52345295D02*
X154185714Y-52440533D01*
X154185714Y-52440533D02*
X154138095Y-52583390D01*
X154138095Y-52583390D02*
X153566667Y-53154819D01*
X153566667Y-53154819D02*
X154185714Y-53154819D01*
X145357142Y-65554819D02*
X145023809Y-65078628D01*
X144785714Y-65554819D02*
X144785714Y-64554819D01*
X144785714Y-64554819D02*
X145166666Y-64554819D01*
X145166666Y-64554819D02*
X145261904Y-64602438D01*
X145261904Y-64602438D02*
X145309523Y-64650057D01*
X145309523Y-64650057D02*
X145357142Y-64745295D01*
X145357142Y-64745295D02*
X145357142Y-64888152D01*
X145357142Y-64888152D02*
X145309523Y-64983390D01*
X145309523Y-64983390D02*
X145261904Y-65031009D01*
X145261904Y-65031009D02*
X145166666Y-65078628D01*
X145166666Y-65078628D02*
X144785714Y-65078628D01*
X146309523Y-65554819D02*
X145738095Y-65554819D01*
X146023809Y-65554819D02*
X146023809Y-64554819D01*
X146023809Y-64554819D02*
X145928571Y-64697676D01*
X145928571Y-64697676D02*
X145833333Y-64792914D01*
X145833333Y-64792914D02*
X145738095Y-64840533D01*
X147166666Y-64888152D02*
X147166666Y-65554819D01*
X146928571Y-64507200D02*
X146690476Y-65221485D01*
X146690476Y-65221485D02*
X147309523Y-65221485D01*
X145883333Y-53224819D02*
X145550000Y-52748628D01*
X145311905Y-53224819D02*
X145311905Y-52224819D01*
X145311905Y-52224819D02*
X145692857Y-52224819D01*
X145692857Y-52224819D02*
X145788095Y-52272438D01*
X145788095Y-52272438D02*
X145835714Y-52320057D01*
X145835714Y-52320057D02*
X145883333Y-52415295D01*
X145883333Y-52415295D02*
X145883333Y-52558152D01*
X145883333Y-52558152D02*
X145835714Y-52653390D01*
X145835714Y-52653390D02*
X145788095Y-52701009D01*
X145788095Y-52701009D02*
X145692857Y-52748628D01*
X145692857Y-52748628D02*
X145311905Y-52748628D01*
X146788095Y-52224819D02*
X146311905Y-52224819D01*
X146311905Y-52224819D02*
X146264286Y-52701009D01*
X146264286Y-52701009D02*
X146311905Y-52653390D01*
X146311905Y-52653390D02*
X146407143Y-52605771D01*
X146407143Y-52605771D02*
X146645238Y-52605771D01*
X146645238Y-52605771D02*
X146740476Y-52653390D01*
X146740476Y-52653390D02*
X146788095Y-52701009D01*
X146788095Y-52701009D02*
X146835714Y-52796247D01*
X146835714Y-52796247D02*
X146835714Y-53034342D01*
X146835714Y-53034342D02*
X146788095Y-53129580D01*
X146788095Y-53129580D02*
X146740476Y-53177200D01*
X146740476Y-53177200D02*
X146645238Y-53224819D01*
X146645238Y-53224819D02*
X146407143Y-53224819D01*
X146407143Y-53224819D02*
X146311905Y-53177200D01*
X146311905Y-53177200D02*
X146264286Y-53129580D01*
X115807142Y-53114819D02*
X115473809Y-52638628D01*
X115235714Y-53114819D02*
X115235714Y-52114819D01*
X115235714Y-52114819D02*
X115616666Y-52114819D01*
X115616666Y-52114819D02*
X115711904Y-52162438D01*
X115711904Y-52162438D02*
X115759523Y-52210057D01*
X115759523Y-52210057D02*
X115807142Y-52305295D01*
X115807142Y-52305295D02*
X115807142Y-52448152D01*
X115807142Y-52448152D02*
X115759523Y-52543390D01*
X115759523Y-52543390D02*
X115711904Y-52591009D01*
X115711904Y-52591009D02*
X115616666Y-52638628D01*
X115616666Y-52638628D02*
X115235714Y-52638628D01*
X116759523Y-53114819D02*
X116188095Y-53114819D01*
X116473809Y-53114819D02*
X116473809Y-52114819D01*
X116473809Y-52114819D02*
X116378571Y-52257676D01*
X116378571Y-52257676D02*
X116283333Y-52352914D01*
X116283333Y-52352914D02*
X116188095Y-52400533D01*
X117092857Y-52114819D02*
X117711904Y-52114819D01*
X117711904Y-52114819D02*
X117378571Y-52495771D01*
X117378571Y-52495771D02*
X117521428Y-52495771D01*
X117521428Y-52495771D02*
X117616666Y-52543390D01*
X117616666Y-52543390D02*
X117664285Y-52591009D01*
X117664285Y-52591009D02*
X117711904Y-52686247D01*
X117711904Y-52686247D02*
X117711904Y-52924342D01*
X117711904Y-52924342D02*
X117664285Y-53019580D01*
X117664285Y-53019580D02*
X117616666Y-53067200D01*
X117616666Y-53067200D02*
X117521428Y-53114819D01*
X117521428Y-53114819D02*
X117235714Y-53114819D01*
X117235714Y-53114819D02*
X117140476Y-53067200D01*
X117140476Y-53067200D02*
X117092857Y-53019580D01*
X123107142Y-65614819D02*
X122773809Y-65138628D01*
X122535714Y-65614819D02*
X122535714Y-64614819D01*
X122535714Y-64614819D02*
X122916666Y-64614819D01*
X122916666Y-64614819D02*
X123011904Y-64662438D01*
X123011904Y-64662438D02*
X123059523Y-64710057D01*
X123059523Y-64710057D02*
X123107142Y-64805295D01*
X123107142Y-64805295D02*
X123107142Y-64948152D01*
X123107142Y-64948152D02*
X123059523Y-65043390D01*
X123059523Y-65043390D02*
X123011904Y-65091009D01*
X123011904Y-65091009D02*
X122916666Y-65138628D01*
X122916666Y-65138628D02*
X122535714Y-65138628D01*
X123488095Y-64710057D02*
X123535714Y-64662438D01*
X123535714Y-64662438D02*
X123630952Y-64614819D01*
X123630952Y-64614819D02*
X123869047Y-64614819D01*
X123869047Y-64614819D02*
X123964285Y-64662438D01*
X123964285Y-64662438D02*
X124011904Y-64710057D01*
X124011904Y-64710057D02*
X124059523Y-64805295D01*
X124059523Y-64805295D02*
X124059523Y-64900533D01*
X124059523Y-64900533D02*
X124011904Y-65043390D01*
X124011904Y-65043390D02*
X123440476Y-65614819D01*
X123440476Y-65614819D02*
X124059523Y-65614819D01*
X124678571Y-64614819D02*
X124773809Y-64614819D01*
X124773809Y-64614819D02*
X124869047Y-64662438D01*
X124869047Y-64662438D02*
X124916666Y-64710057D01*
X124916666Y-64710057D02*
X124964285Y-64805295D01*
X124964285Y-64805295D02*
X125011904Y-64995771D01*
X125011904Y-64995771D02*
X125011904Y-65233866D01*
X125011904Y-65233866D02*
X124964285Y-65424342D01*
X124964285Y-65424342D02*
X124916666Y-65519580D01*
X124916666Y-65519580D02*
X124869047Y-65567200D01*
X124869047Y-65567200D02*
X124773809Y-65614819D01*
X124773809Y-65614819D02*
X124678571Y-65614819D01*
X124678571Y-65614819D02*
X124583333Y-65567200D01*
X124583333Y-65567200D02*
X124535714Y-65519580D01*
X124535714Y-65519580D02*
X124488095Y-65424342D01*
X124488095Y-65424342D02*
X124440476Y-65233866D01*
X124440476Y-65233866D02*
X124440476Y-64995771D01*
X124440476Y-64995771D02*
X124488095Y-64805295D01*
X124488095Y-64805295D02*
X124535714Y-64710057D01*
X124535714Y-64710057D02*
X124583333Y-64662438D01*
X124583333Y-64662438D02*
X124678571Y-64614819D01*
X154754819Y-90059523D02*
X155469104Y-90059523D01*
X155469104Y-90059523D02*
X155611961Y-90107142D01*
X155611961Y-90107142D02*
X155707200Y-90202380D01*
X155707200Y-90202380D02*
X155754819Y-90345237D01*
X155754819Y-90345237D02*
X155754819Y-90440475D01*
X155754819Y-89059523D02*
X155754819Y-89630951D01*
X155754819Y-89345237D02*
X154754819Y-89345237D01*
X154754819Y-89345237D02*
X154897676Y-89440475D01*
X154897676Y-89440475D02*
X154992914Y-89535713D01*
X154992914Y-89535713D02*
X155040533Y-89630951D01*
X154850057Y-88678570D02*
X154802438Y-88630951D01*
X154802438Y-88630951D02*
X154754819Y-88535713D01*
X154754819Y-88535713D02*
X154754819Y-88297618D01*
X154754819Y-88297618D02*
X154802438Y-88202380D01*
X154802438Y-88202380D02*
X154850057Y-88154761D01*
X154850057Y-88154761D02*
X154945295Y-88107142D01*
X154945295Y-88107142D02*
X155040533Y-88107142D01*
X155040533Y-88107142D02*
X155183390Y-88154761D01*
X155183390Y-88154761D02*
X155754819Y-88726189D01*
X155754819Y-88726189D02*
X155754819Y-88107142D01*
X119407142Y-53114819D02*
X119073809Y-52638628D01*
X118835714Y-53114819D02*
X118835714Y-52114819D01*
X118835714Y-52114819D02*
X119216666Y-52114819D01*
X119216666Y-52114819D02*
X119311904Y-52162438D01*
X119311904Y-52162438D02*
X119359523Y-52210057D01*
X119359523Y-52210057D02*
X119407142Y-52305295D01*
X119407142Y-52305295D02*
X119407142Y-52448152D01*
X119407142Y-52448152D02*
X119359523Y-52543390D01*
X119359523Y-52543390D02*
X119311904Y-52591009D01*
X119311904Y-52591009D02*
X119216666Y-52638628D01*
X119216666Y-52638628D02*
X118835714Y-52638628D01*
X120359523Y-53114819D02*
X119788095Y-53114819D01*
X120073809Y-53114819D02*
X120073809Y-52114819D01*
X120073809Y-52114819D02*
X119978571Y-52257676D01*
X119978571Y-52257676D02*
X119883333Y-52352914D01*
X119883333Y-52352914D02*
X119788095Y-52400533D01*
X120740476Y-52210057D02*
X120788095Y-52162438D01*
X120788095Y-52162438D02*
X120883333Y-52114819D01*
X120883333Y-52114819D02*
X121121428Y-52114819D01*
X121121428Y-52114819D02*
X121216666Y-52162438D01*
X121216666Y-52162438D02*
X121264285Y-52210057D01*
X121264285Y-52210057D02*
X121311904Y-52305295D01*
X121311904Y-52305295D02*
X121311904Y-52400533D01*
X121311904Y-52400533D02*
X121264285Y-52543390D01*
X121264285Y-52543390D02*
X120692857Y-53114819D01*
X120692857Y-53114819D02*
X121311904Y-53114819D01*
X137907142Y-65434819D02*
X137573809Y-64958628D01*
X137335714Y-65434819D02*
X137335714Y-64434819D01*
X137335714Y-64434819D02*
X137716666Y-64434819D01*
X137716666Y-64434819D02*
X137811904Y-64482438D01*
X137811904Y-64482438D02*
X137859523Y-64530057D01*
X137859523Y-64530057D02*
X137907142Y-64625295D01*
X137907142Y-64625295D02*
X137907142Y-64768152D01*
X137907142Y-64768152D02*
X137859523Y-64863390D01*
X137859523Y-64863390D02*
X137811904Y-64911009D01*
X137811904Y-64911009D02*
X137716666Y-64958628D01*
X137716666Y-64958628D02*
X137335714Y-64958628D01*
X138859523Y-65434819D02*
X138288095Y-65434819D01*
X138573809Y-65434819D02*
X138573809Y-64434819D01*
X138573809Y-64434819D02*
X138478571Y-64577676D01*
X138478571Y-64577676D02*
X138383333Y-64672914D01*
X138383333Y-64672914D02*
X138288095Y-64720533D01*
X139716666Y-64434819D02*
X139526190Y-64434819D01*
X139526190Y-64434819D02*
X139430952Y-64482438D01*
X139430952Y-64482438D02*
X139383333Y-64530057D01*
X139383333Y-64530057D02*
X139288095Y-64672914D01*
X139288095Y-64672914D02*
X139240476Y-64863390D01*
X139240476Y-64863390D02*
X139240476Y-65244342D01*
X139240476Y-65244342D02*
X139288095Y-65339580D01*
X139288095Y-65339580D02*
X139335714Y-65387200D01*
X139335714Y-65387200D02*
X139430952Y-65434819D01*
X139430952Y-65434819D02*
X139621428Y-65434819D01*
X139621428Y-65434819D02*
X139716666Y-65387200D01*
X139716666Y-65387200D02*
X139764285Y-65339580D01*
X139764285Y-65339580D02*
X139811904Y-65244342D01*
X139811904Y-65244342D02*
X139811904Y-65006247D01*
X139811904Y-65006247D02*
X139764285Y-64911009D01*
X139764285Y-64911009D02*
X139716666Y-64863390D01*
X139716666Y-64863390D02*
X139621428Y-64815771D01*
X139621428Y-64815771D02*
X139430952Y-64815771D01*
X139430952Y-64815771D02*
X139335714Y-64863390D01*
X139335714Y-64863390D02*
X139288095Y-64911009D01*
X139288095Y-64911009D02*
X139240476Y-65006247D01*
X143367142Y-72354819D02*
X143033809Y-71878628D01*
X142795714Y-72354819D02*
X142795714Y-71354819D01*
X142795714Y-71354819D02*
X143176666Y-71354819D01*
X143176666Y-71354819D02*
X143271904Y-71402438D01*
X143271904Y-71402438D02*
X143319523Y-71450057D01*
X143319523Y-71450057D02*
X143367142Y-71545295D01*
X143367142Y-71545295D02*
X143367142Y-71688152D01*
X143367142Y-71688152D02*
X143319523Y-71783390D01*
X143319523Y-71783390D02*
X143271904Y-71831009D01*
X143271904Y-71831009D02*
X143176666Y-71878628D01*
X143176666Y-71878628D02*
X142795714Y-71878628D01*
X143748095Y-71450057D02*
X143795714Y-71402438D01*
X143795714Y-71402438D02*
X143890952Y-71354819D01*
X143890952Y-71354819D02*
X144129047Y-71354819D01*
X144129047Y-71354819D02*
X144224285Y-71402438D01*
X144224285Y-71402438D02*
X144271904Y-71450057D01*
X144271904Y-71450057D02*
X144319523Y-71545295D01*
X144319523Y-71545295D02*
X144319523Y-71640533D01*
X144319523Y-71640533D02*
X144271904Y-71783390D01*
X144271904Y-71783390D02*
X143700476Y-72354819D01*
X143700476Y-72354819D02*
X144319523Y-72354819D01*
X144652857Y-71354819D02*
X145319523Y-71354819D01*
X145319523Y-71354819D02*
X144890952Y-72354819D01*
X159256667Y-56137200D02*
X159399524Y-56184819D01*
X159399524Y-56184819D02*
X159637619Y-56184819D01*
X159637619Y-56184819D02*
X159732857Y-56137200D01*
X159732857Y-56137200D02*
X159780476Y-56089580D01*
X159780476Y-56089580D02*
X159828095Y-55994342D01*
X159828095Y-55994342D02*
X159828095Y-55899104D01*
X159828095Y-55899104D02*
X159780476Y-55803866D01*
X159780476Y-55803866D02*
X159732857Y-55756247D01*
X159732857Y-55756247D02*
X159637619Y-55708628D01*
X159637619Y-55708628D02*
X159447143Y-55661009D01*
X159447143Y-55661009D02*
X159351905Y-55613390D01*
X159351905Y-55613390D02*
X159304286Y-55565771D01*
X159304286Y-55565771D02*
X159256667Y-55470533D01*
X159256667Y-55470533D02*
X159256667Y-55375295D01*
X159256667Y-55375295D02*
X159304286Y-55280057D01*
X159304286Y-55280057D02*
X159351905Y-55232438D01*
X159351905Y-55232438D02*
X159447143Y-55184819D01*
X159447143Y-55184819D02*
X159685238Y-55184819D01*
X159685238Y-55184819D02*
X159828095Y-55232438D01*
X160161429Y-55184819D02*
X160399524Y-56184819D01*
X160399524Y-56184819D02*
X160590000Y-55470533D01*
X160590000Y-55470533D02*
X160780476Y-56184819D01*
X160780476Y-56184819D02*
X161018572Y-55184819D01*
X161351905Y-55280057D02*
X161399524Y-55232438D01*
X161399524Y-55232438D02*
X161494762Y-55184819D01*
X161494762Y-55184819D02*
X161732857Y-55184819D01*
X161732857Y-55184819D02*
X161828095Y-55232438D01*
X161828095Y-55232438D02*
X161875714Y-55280057D01*
X161875714Y-55280057D02*
X161923333Y-55375295D01*
X161923333Y-55375295D02*
X161923333Y-55470533D01*
X161923333Y-55470533D02*
X161875714Y-55613390D01*
X161875714Y-55613390D02*
X161304286Y-56184819D01*
X161304286Y-56184819D02*
X161923333Y-56184819D01*
X134683333Y-53154819D02*
X134350000Y-52678628D01*
X134111905Y-53154819D02*
X134111905Y-52154819D01*
X134111905Y-52154819D02*
X134492857Y-52154819D01*
X134492857Y-52154819D02*
X134588095Y-52202438D01*
X134588095Y-52202438D02*
X134635714Y-52250057D01*
X134635714Y-52250057D02*
X134683333Y-52345295D01*
X134683333Y-52345295D02*
X134683333Y-52488152D01*
X134683333Y-52488152D02*
X134635714Y-52583390D01*
X134635714Y-52583390D02*
X134588095Y-52631009D01*
X134588095Y-52631009D02*
X134492857Y-52678628D01*
X134492857Y-52678628D02*
X134111905Y-52678628D01*
X135254762Y-52583390D02*
X135159524Y-52535771D01*
X135159524Y-52535771D02*
X135111905Y-52488152D01*
X135111905Y-52488152D02*
X135064286Y-52392914D01*
X135064286Y-52392914D02*
X135064286Y-52345295D01*
X135064286Y-52345295D02*
X135111905Y-52250057D01*
X135111905Y-52250057D02*
X135159524Y-52202438D01*
X135159524Y-52202438D02*
X135254762Y-52154819D01*
X135254762Y-52154819D02*
X135445238Y-52154819D01*
X135445238Y-52154819D02*
X135540476Y-52202438D01*
X135540476Y-52202438D02*
X135588095Y-52250057D01*
X135588095Y-52250057D02*
X135635714Y-52345295D01*
X135635714Y-52345295D02*
X135635714Y-52392914D01*
X135635714Y-52392914D02*
X135588095Y-52488152D01*
X135588095Y-52488152D02*
X135540476Y-52535771D01*
X135540476Y-52535771D02*
X135445238Y-52583390D01*
X135445238Y-52583390D02*
X135254762Y-52583390D01*
X135254762Y-52583390D02*
X135159524Y-52631009D01*
X135159524Y-52631009D02*
X135111905Y-52678628D01*
X135111905Y-52678628D02*
X135064286Y-52773866D01*
X135064286Y-52773866D02*
X135064286Y-52964342D01*
X135064286Y-52964342D02*
X135111905Y-53059580D01*
X135111905Y-53059580D02*
X135159524Y-53107200D01*
X135159524Y-53107200D02*
X135254762Y-53154819D01*
X135254762Y-53154819D02*
X135445238Y-53154819D01*
X135445238Y-53154819D02*
X135540476Y-53107200D01*
X135540476Y-53107200D02*
X135588095Y-53059580D01*
X135588095Y-53059580D02*
X135635714Y-52964342D01*
X135635714Y-52964342D02*
X135635714Y-52773866D01*
X135635714Y-52773866D02*
X135588095Y-52678628D01*
X135588095Y-52678628D02*
X135540476Y-52631009D01*
X135540476Y-52631009D02*
X135445238Y-52583390D01*
X119557142Y-65514819D02*
X119223809Y-65038628D01*
X118985714Y-65514819D02*
X118985714Y-64514819D01*
X118985714Y-64514819D02*
X119366666Y-64514819D01*
X119366666Y-64514819D02*
X119461904Y-64562438D01*
X119461904Y-64562438D02*
X119509523Y-64610057D01*
X119509523Y-64610057D02*
X119557142Y-64705295D01*
X119557142Y-64705295D02*
X119557142Y-64848152D01*
X119557142Y-64848152D02*
X119509523Y-64943390D01*
X119509523Y-64943390D02*
X119461904Y-64991009D01*
X119461904Y-64991009D02*
X119366666Y-65038628D01*
X119366666Y-65038628D02*
X118985714Y-65038628D01*
X119938095Y-64610057D02*
X119985714Y-64562438D01*
X119985714Y-64562438D02*
X120080952Y-64514819D01*
X120080952Y-64514819D02*
X120319047Y-64514819D01*
X120319047Y-64514819D02*
X120414285Y-64562438D01*
X120414285Y-64562438D02*
X120461904Y-64610057D01*
X120461904Y-64610057D02*
X120509523Y-64705295D01*
X120509523Y-64705295D02*
X120509523Y-64800533D01*
X120509523Y-64800533D02*
X120461904Y-64943390D01*
X120461904Y-64943390D02*
X119890476Y-65514819D01*
X119890476Y-65514819D02*
X120509523Y-65514819D01*
X121461904Y-65514819D02*
X120890476Y-65514819D01*
X121176190Y-65514819D02*
X121176190Y-64514819D01*
X121176190Y-64514819D02*
X121080952Y-64657676D01*
X121080952Y-64657676D02*
X120985714Y-64752914D01*
X120985714Y-64752914D02*
X120890476Y-64800533D01*
X118847142Y-68554819D02*
X118513809Y-68078628D01*
X118275714Y-68554819D02*
X118275714Y-67554819D01*
X118275714Y-67554819D02*
X118656666Y-67554819D01*
X118656666Y-67554819D02*
X118751904Y-67602438D01*
X118751904Y-67602438D02*
X118799523Y-67650057D01*
X118799523Y-67650057D02*
X118847142Y-67745295D01*
X118847142Y-67745295D02*
X118847142Y-67888152D01*
X118847142Y-67888152D02*
X118799523Y-67983390D01*
X118799523Y-67983390D02*
X118751904Y-68031009D01*
X118751904Y-68031009D02*
X118656666Y-68078628D01*
X118656666Y-68078628D02*
X118275714Y-68078628D01*
X119228095Y-67650057D02*
X119275714Y-67602438D01*
X119275714Y-67602438D02*
X119370952Y-67554819D01*
X119370952Y-67554819D02*
X119609047Y-67554819D01*
X119609047Y-67554819D02*
X119704285Y-67602438D01*
X119704285Y-67602438D02*
X119751904Y-67650057D01*
X119751904Y-67650057D02*
X119799523Y-67745295D01*
X119799523Y-67745295D02*
X119799523Y-67840533D01*
X119799523Y-67840533D02*
X119751904Y-67983390D01*
X119751904Y-67983390D02*
X119180476Y-68554819D01*
X119180476Y-68554819D02*
X119799523Y-68554819D01*
X120132857Y-67554819D02*
X120751904Y-67554819D01*
X120751904Y-67554819D02*
X120418571Y-67935771D01*
X120418571Y-67935771D02*
X120561428Y-67935771D01*
X120561428Y-67935771D02*
X120656666Y-67983390D01*
X120656666Y-67983390D02*
X120704285Y-68031009D01*
X120704285Y-68031009D02*
X120751904Y-68126247D01*
X120751904Y-68126247D02*
X120751904Y-68364342D01*
X120751904Y-68364342D02*
X120704285Y-68459580D01*
X120704285Y-68459580D02*
X120656666Y-68507200D01*
X120656666Y-68507200D02*
X120561428Y-68554819D01*
X120561428Y-68554819D02*
X120275714Y-68554819D01*
X120275714Y-68554819D02*
X120180476Y-68507200D01*
X120180476Y-68507200D02*
X120132857Y-68459580D01*
X132807142Y-69654819D02*
X132473809Y-69178628D01*
X132235714Y-69654819D02*
X132235714Y-68654819D01*
X132235714Y-68654819D02*
X132616666Y-68654819D01*
X132616666Y-68654819D02*
X132711904Y-68702438D01*
X132711904Y-68702438D02*
X132759523Y-68750057D01*
X132759523Y-68750057D02*
X132807142Y-68845295D01*
X132807142Y-68845295D02*
X132807142Y-68988152D01*
X132807142Y-68988152D02*
X132759523Y-69083390D01*
X132759523Y-69083390D02*
X132711904Y-69131009D01*
X132711904Y-69131009D02*
X132616666Y-69178628D01*
X132616666Y-69178628D02*
X132235714Y-69178628D01*
X133188095Y-68750057D02*
X133235714Y-68702438D01*
X133235714Y-68702438D02*
X133330952Y-68654819D01*
X133330952Y-68654819D02*
X133569047Y-68654819D01*
X133569047Y-68654819D02*
X133664285Y-68702438D01*
X133664285Y-68702438D02*
X133711904Y-68750057D01*
X133711904Y-68750057D02*
X133759523Y-68845295D01*
X133759523Y-68845295D02*
X133759523Y-68940533D01*
X133759523Y-68940533D02*
X133711904Y-69083390D01*
X133711904Y-69083390D02*
X133140476Y-69654819D01*
X133140476Y-69654819D02*
X133759523Y-69654819D01*
X134664285Y-68654819D02*
X134188095Y-68654819D01*
X134188095Y-68654819D02*
X134140476Y-69131009D01*
X134140476Y-69131009D02*
X134188095Y-69083390D01*
X134188095Y-69083390D02*
X134283333Y-69035771D01*
X134283333Y-69035771D02*
X134521428Y-69035771D01*
X134521428Y-69035771D02*
X134616666Y-69083390D01*
X134616666Y-69083390D02*
X134664285Y-69131009D01*
X134664285Y-69131009D02*
X134711904Y-69226247D01*
X134711904Y-69226247D02*
X134711904Y-69464342D01*
X134711904Y-69464342D02*
X134664285Y-69559580D01*
X134664285Y-69559580D02*
X134616666Y-69607200D01*
X134616666Y-69607200D02*
X134521428Y-69654819D01*
X134521428Y-69654819D02*
X134283333Y-69654819D01*
X134283333Y-69654819D02*
X134188095Y-69607200D01*
X134188095Y-69607200D02*
X134140476Y-69559580D01*
X140656666Y-81734819D02*
X140656666Y-82449104D01*
X140656666Y-82449104D02*
X140609047Y-82591961D01*
X140609047Y-82591961D02*
X140513809Y-82687200D01*
X140513809Y-82687200D02*
X140370952Y-82734819D01*
X140370952Y-82734819D02*
X140275714Y-82734819D01*
X141180476Y-82734819D02*
X141370952Y-82734819D01*
X141370952Y-82734819D02*
X141466190Y-82687200D01*
X141466190Y-82687200D02*
X141513809Y-82639580D01*
X141513809Y-82639580D02*
X141609047Y-82496723D01*
X141609047Y-82496723D02*
X141656666Y-82306247D01*
X141656666Y-82306247D02*
X141656666Y-81925295D01*
X141656666Y-81925295D02*
X141609047Y-81830057D01*
X141609047Y-81830057D02*
X141561428Y-81782438D01*
X141561428Y-81782438D02*
X141466190Y-81734819D01*
X141466190Y-81734819D02*
X141275714Y-81734819D01*
X141275714Y-81734819D02*
X141180476Y-81782438D01*
X141180476Y-81782438D02*
X141132857Y-81830057D01*
X141132857Y-81830057D02*
X141085238Y-81925295D01*
X141085238Y-81925295D02*
X141085238Y-82163390D01*
X141085238Y-82163390D02*
X141132857Y-82258628D01*
X141132857Y-82258628D02*
X141180476Y-82306247D01*
X141180476Y-82306247D02*
X141275714Y-82353866D01*
X141275714Y-82353866D02*
X141466190Y-82353866D01*
X141466190Y-82353866D02*
X141561428Y-82306247D01*
X141561428Y-82306247D02*
X141609047Y-82258628D01*
X141609047Y-82258628D02*
X141656666Y-82163390D01*
X140079761Y-90404819D02*
X139746428Y-89928628D01*
X139508333Y-90404819D02*
X139508333Y-89404819D01*
X139508333Y-89404819D02*
X139889285Y-89404819D01*
X139889285Y-89404819D02*
X139984523Y-89452438D01*
X139984523Y-89452438D02*
X140032142Y-89500057D01*
X140032142Y-89500057D02*
X140079761Y-89595295D01*
X140079761Y-89595295D02*
X140079761Y-89738152D01*
X140079761Y-89738152D02*
X140032142Y-89833390D01*
X140032142Y-89833390D02*
X139984523Y-89881009D01*
X139984523Y-89881009D02*
X139889285Y-89928628D01*
X139889285Y-89928628D02*
X139508333Y-89928628D01*
X140365476Y-89404819D02*
X140698809Y-90404819D01*
X140698809Y-90404819D02*
X141032142Y-89404819D01*
X141317857Y-89500057D02*
X141365476Y-89452438D01*
X141365476Y-89452438D02*
X141460714Y-89404819D01*
X141460714Y-89404819D02*
X141698809Y-89404819D01*
X141698809Y-89404819D02*
X141794047Y-89452438D01*
X141794047Y-89452438D02*
X141841666Y-89500057D01*
X141841666Y-89500057D02*
X141889285Y-89595295D01*
X141889285Y-89595295D02*
X141889285Y-89690533D01*
X141889285Y-89690533D02*
X141841666Y-89833390D01*
X141841666Y-89833390D02*
X141270238Y-90404819D01*
X141270238Y-90404819D02*
X141889285Y-90404819D01*
X142233333Y-53214819D02*
X141900000Y-52738628D01*
X141661905Y-53214819D02*
X141661905Y-52214819D01*
X141661905Y-52214819D02*
X142042857Y-52214819D01*
X142042857Y-52214819D02*
X142138095Y-52262438D01*
X142138095Y-52262438D02*
X142185714Y-52310057D01*
X142185714Y-52310057D02*
X142233333Y-52405295D01*
X142233333Y-52405295D02*
X142233333Y-52548152D01*
X142233333Y-52548152D02*
X142185714Y-52643390D01*
X142185714Y-52643390D02*
X142138095Y-52691009D01*
X142138095Y-52691009D02*
X142042857Y-52738628D01*
X142042857Y-52738628D02*
X141661905Y-52738628D01*
X143090476Y-52214819D02*
X142900000Y-52214819D01*
X142900000Y-52214819D02*
X142804762Y-52262438D01*
X142804762Y-52262438D02*
X142757143Y-52310057D01*
X142757143Y-52310057D02*
X142661905Y-52452914D01*
X142661905Y-52452914D02*
X142614286Y-52643390D01*
X142614286Y-52643390D02*
X142614286Y-53024342D01*
X142614286Y-53024342D02*
X142661905Y-53119580D01*
X142661905Y-53119580D02*
X142709524Y-53167200D01*
X142709524Y-53167200D02*
X142804762Y-53214819D01*
X142804762Y-53214819D02*
X142995238Y-53214819D01*
X142995238Y-53214819D02*
X143090476Y-53167200D01*
X143090476Y-53167200D02*
X143138095Y-53119580D01*
X143138095Y-53119580D02*
X143185714Y-53024342D01*
X143185714Y-53024342D02*
X143185714Y-52786247D01*
X143185714Y-52786247D02*
X143138095Y-52691009D01*
X143138095Y-52691009D02*
X143090476Y-52643390D01*
X143090476Y-52643390D02*
X142995238Y-52595771D01*
X142995238Y-52595771D02*
X142804762Y-52595771D01*
X142804762Y-52595771D02*
X142709524Y-52643390D01*
X142709524Y-52643390D02*
X142661905Y-52691009D01*
X142661905Y-52691009D02*
X142614286Y-52786247D01*
X115707142Y-65584819D02*
X115373809Y-65108628D01*
X115135714Y-65584819D02*
X115135714Y-64584819D01*
X115135714Y-64584819D02*
X115516666Y-64584819D01*
X115516666Y-64584819D02*
X115611904Y-64632438D01*
X115611904Y-64632438D02*
X115659523Y-64680057D01*
X115659523Y-64680057D02*
X115707142Y-64775295D01*
X115707142Y-64775295D02*
X115707142Y-64918152D01*
X115707142Y-64918152D02*
X115659523Y-65013390D01*
X115659523Y-65013390D02*
X115611904Y-65061009D01*
X115611904Y-65061009D02*
X115516666Y-65108628D01*
X115516666Y-65108628D02*
X115135714Y-65108628D01*
X116088095Y-64680057D02*
X116135714Y-64632438D01*
X116135714Y-64632438D02*
X116230952Y-64584819D01*
X116230952Y-64584819D02*
X116469047Y-64584819D01*
X116469047Y-64584819D02*
X116564285Y-64632438D01*
X116564285Y-64632438D02*
X116611904Y-64680057D01*
X116611904Y-64680057D02*
X116659523Y-64775295D01*
X116659523Y-64775295D02*
X116659523Y-64870533D01*
X116659523Y-64870533D02*
X116611904Y-65013390D01*
X116611904Y-65013390D02*
X116040476Y-65584819D01*
X116040476Y-65584819D02*
X116659523Y-65584819D01*
X117040476Y-64680057D02*
X117088095Y-64632438D01*
X117088095Y-64632438D02*
X117183333Y-64584819D01*
X117183333Y-64584819D02*
X117421428Y-64584819D01*
X117421428Y-64584819D02*
X117516666Y-64632438D01*
X117516666Y-64632438D02*
X117564285Y-64680057D01*
X117564285Y-64680057D02*
X117611904Y-64775295D01*
X117611904Y-64775295D02*
X117611904Y-64870533D01*
X117611904Y-64870533D02*
X117564285Y-65013390D01*
X117564285Y-65013390D02*
X116992857Y-65584819D01*
X116992857Y-65584819D02*
X117611904Y-65584819D01*
X149483333Y-53124819D02*
X149150000Y-52648628D01*
X148911905Y-53124819D02*
X148911905Y-52124819D01*
X148911905Y-52124819D02*
X149292857Y-52124819D01*
X149292857Y-52124819D02*
X149388095Y-52172438D01*
X149388095Y-52172438D02*
X149435714Y-52220057D01*
X149435714Y-52220057D02*
X149483333Y-52315295D01*
X149483333Y-52315295D02*
X149483333Y-52458152D01*
X149483333Y-52458152D02*
X149435714Y-52553390D01*
X149435714Y-52553390D02*
X149388095Y-52601009D01*
X149388095Y-52601009D02*
X149292857Y-52648628D01*
X149292857Y-52648628D02*
X148911905Y-52648628D01*
X150340476Y-52458152D02*
X150340476Y-53124819D01*
X150102381Y-52077200D02*
X149864286Y-52791485D01*
X149864286Y-52791485D02*
X150483333Y-52791485D01*
X123107142Y-53164819D02*
X122773809Y-52688628D01*
X122535714Y-53164819D02*
X122535714Y-52164819D01*
X122535714Y-52164819D02*
X122916666Y-52164819D01*
X122916666Y-52164819D02*
X123011904Y-52212438D01*
X123011904Y-52212438D02*
X123059523Y-52260057D01*
X123059523Y-52260057D02*
X123107142Y-52355295D01*
X123107142Y-52355295D02*
X123107142Y-52498152D01*
X123107142Y-52498152D02*
X123059523Y-52593390D01*
X123059523Y-52593390D02*
X123011904Y-52641009D01*
X123011904Y-52641009D02*
X122916666Y-52688628D01*
X122916666Y-52688628D02*
X122535714Y-52688628D01*
X124059523Y-53164819D02*
X123488095Y-53164819D01*
X123773809Y-53164819D02*
X123773809Y-52164819D01*
X123773809Y-52164819D02*
X123678571Y-52307676D01*
X123678571Y-52307676D02*
X123583333Y-52402914D01*
X123583333Y-52402914D02*
X123488095Y-52450533D01*
X125011904Y-53164819D02*
X124440476Y-53164819D01*
X124726190Y-53164819D02*
X124726190Y-52164819D01*
X124726190Y-52164819D02*
X124630952Y-52307676D01*
X124630952Y-52307676D02*
X124535714Y-52402914D01*
X124535714Y-52402914D02*
X124440476Y-52450533D01*
X149483333Y-65554819D02*
X149150000Y-65078628D01*
X148911905Y-65554819D02*
X148911905Y-64554819D01*
X148911905Y-64554819D02*
X149292857Y-64554819D01*
X149292857Y-64554819D02*
X149388095Y-64602438D01*
X149388095Y-64602438D02*
X149435714Y-64650057D01*
X149435714Y-64650057D02*
X149483333Y-64745295D01*
X149483333Y-64745295D02*
X149483333Y-64888152D01*
X149483333Y-64888152D02*
X149435714Y-64983390D01*
X149435714Y-64983390D02*
X149388095Y-65031009D01*
X149388095Y-65031009D02*
X149292857Y-65078628D01*
X149292857Y-65078628D02*
X148911905Y-65078628D01*
X149816667Y-64554819D02*
X150435714Y-64554819D01*
X150435714Y-64554819D02*
X150102381Y-64935771D01*
X150102381Y-64935771D02*
X150245238Y-64935771D01*
X150245238Y-64935771D02*
X150340476Y-64983390D01*
X150340476Y-64983390D02*
X150388095Y-65031009D01*
X150388095Y-65031009D02*
X150435714Y-65126247D01*
X150435714Y-65126247D02*
X150435714Y-65364342D01*
X150435714Y-65364342D02*
X150388095Y-65459580D01*
X150388095Y-65459580D02*
X150340476Y-65507200D01*
X150340476Y-65507200D02*
X150245238Y-65554819D01*
X150245238Y-65554819D02*
X149959524Y-65554819D01*
X149959524Y-65554819D02*
X149864286Y-65507200D01*
X149864286Y-65507200D02*
X149816667Y-65459580D01*
X130457142Y-65534819D02*
X130123809Y-65058628D01*
X129885714Y-65534819D02*
X129885714Y-64534819D01*
X129885714Y-64534819D02*
X130266666Y-64534819D01*
X130266666Y-64534819D02*
X130361904Y-64582438D01*
X130361904Y-64582438D02*
X130409523Y-64630057D01*
X130409523Y-64630057D02*
X130457142Y-64725295D01*
X130457142Y-64725295D02*
X130457142Y-64868152D01*
X130457142Y-64868152D02*
X130409523Y-64963390D01*
X130409523Y-64963390D02*
X130361904Y-65011009D01*
X130361904Y-65011009D02*
X130266666Y-65058628D01*
X130266666Y-65058628D02*
X129885714Y-65058628D01*
X131409523Y-65534819D02*
X130838095Y-65534819D01*
X131123809Y-65534819D02*
X131123809Y-64534819D01*
X131123809Y-64534819D02*
X131028571Y-64677676D01*
X131028571Y-64677676D02*
X130933333Y-64772914D01*
X130933333Y-64772914D02*
X130838095Y-64820533D01*
X131980952Y-64963390D02*
X131885714Y-64915771D01*
X131885714Y-64915771D02*
X131838095Y-64868152D01*
X131838095Y-64868152D02*
X131790476Y-64772914D01*
X131790476Y-64772914D02*
X131790476Y-64725295D01*
X131790476Y-64725295D02*
X131838095Y-64630057D01*
X131838095Y-64630057D02*
X131885714Y-64582438D01*
X131885714Y-64582438D02*
X131980952Y-64534819D01*
X131980952Y-64534819D02*
X132171428Y-64534819D01*
X132171428Y-64534819D02*
X132266666Y-64582438D01*
X132266666Y-64582438D02*
X132314285Y-64630057D01*
X132314285Y-64630057D02*
X132361904Y-64725295D01*
X132361904Y-64725295D02*
X132361904Y-64772914D01*
X132361904Y-64772914D02*
X132314285Y-64868152D01*
X132314285Y-64868152D02*
X132266666Y-64915771D01*
X132266666Y-64915771D02*
X132171428Y-64963390D01*
X132171428Y-64963390D02*
X131980952Y-64963390D01*
X131980952Y-64963390D02*
X131885714Y-65011009D01*
X131885714Y-65011009D02*
X131838095Y-65058628D01*
X131838095Y-65058628D02*
X131790476Y-65153866D01*
X131790476Y-65153866D02*
X131790476Y-65344342D01*
X131790476Y-65344342D02*
X131838095Y-65439580D01*
X131838095Y-65439580D02*
X131885714Y-65487200D01*
X131885714Y-65487200D02*
X131980952Y-65534819D01*
X131980952Y-65534819D02*
X132171428Y-65534819D01*
X132171428Y-65534819D02*
X132266666Y-65487200D01*
X132266666Y-65487200D02*
X132314285Y-65439580D01*
X132314285Y-65439580D02*
X132361904Y-65344342D01*
X132361904Y-65344342D02*
X132361904Y-65153866D01*
X132361904Y-65153866D02*
X132314285Y-65058628D01*
X132314285Y-65058628D02*
X132266666Y-65011009D01*
X132266666Y-65011009D02*
X132171428Y-64963390D01*
X126857142Y-65554819D02*
X126523809Y-65078628D01*
X126285714Y-65554819D02*
X126285714Y-64554819D01*
X126285714Y-64554819D02*
X126666666Y-64554819D01*
X126666666Y-64554819D02*
X126761904Y-64602438D01*
X126761904Y-64602438D02*
X126809523Y-64650057D01*
X126809523Y-64650057D02*
X126857142Y-64745295D01*
X126857142Y-64745295D02*
X126857142Y-64888152D01*
X126857142Y-64888152D02*
X126809523Y-64983390D01*
X126809523Y-64983390D02*
X126761904Y-65031009D01*
X126761904Y-65031009D02*
X126666666Y-65078628D01*
X126666666Y-65078628D02*
X126285714Y-65078628D01*
X127809523Y-65554819D02*
X127238095Y-65554819D01*
X127523809Y-65554819D02*
X127523809Y-64554819D01*
X127523809Y-64554819D02*
X127428571Y-64697676D01*
X127428571Y-64697676D02*
X127333333Y-64792914D01*
X127333333Y-64792914D02*
X127238095Y-64840533D01*
X128285714Y-65554819D02*
X128476190Y-65554819D01*
X128476190Y-65554819D02*
X128571428Y-65507200D01*
X128571428Y-65507200D02*
X128619047Y-65459580D01*
X128619047Y-65459580D02*
X128714285Y-65316723D01*
X128714285Y-65316723D02*
X128761904Y-65126247D01*
X128761904Y-65126247D02*
X128761904Y-64745295D01*
X128761904Y-64745295D02*
X128714285Y-64650057D01*
X128714285Y-64650057D02*
X128666666Y-64602438D01*
X128666666Y-64602438D02*
X128571428Y-64554819D01*
X128571428Y-64554819D02*
X128380952Y-64554819D01*
X128380952Y-64554819D02*
X128285714Y-64602438D01*
X128285714Y-64602438D02*
X128238095Y-64650057D01*
X128238095Y-64650057D02*
X128190476Y-64745295D01*
X128190476Y-64745295D02*
X128190476Y-64983390D01*
X128190476Y-64983390D02*
X128238095Y-65078628D01*
X128238095Y-65078628D02*
X128285714Y-65126247D01*
X128285714Y-65126247D02*
X128380952Y-65173866D01*
X128380952Y-65173866D02*
X128571428Y-65173866D01*
X128571428Y-65173866D02*
X128666666Y-65126247D01*
X128666666Y-65126247D02*
X128714285Y-65078628D01*
X128714285Y-65078628D02*
X128761904Y-64983390D01*
X147790476Y-66529819D02*
X147790476Y-67244104D01*
X147790476Y-67244104D02*
X147742857Y-67386961D01*
X147742857Y-67386961D02*
X147647619Y-67482200D01*
X147647619Y-67482200D02*
X147504762Y-67529819D01*
X147504762Y-67529819D02*
X147409524Y-67529819D01*
X148790476Y-67529819D02*
X148219048Y-67529819D01*
X148504762Y-67529819D02*
X148504762Y-66529819D01*
X148504762Y-66529819D02*
X148409524Y-66672676D01*
X148409524Y-66672676D02*
X148314286Y-66767914D01*
X148314286Y-66767914D02*
X148219048Y-66815533D01*
X149742857Y-67529819D02*
X149171429Y-67529819D01*
X149457143Y-67529819D02*
X149457143Y-66529819D01*
X149457143Y-66529819D02*
X149361905Y-66672676D01*
X149361905Y-66672676D02*
X149266667Y-66767914D01*
X149266667Y-66767914D02*
X149171429Y-66815533D01*
X141657142Y-65504819D02*
X141323809Y-65028628D01*
X141085714Y-65504819D02*
X141085714Y-64504819D01*
X141085714Y-64504819D02*
X141466666Y-64504819D01*
X141466666Y-64504819D02*
X141561904Y-64552438D01*
X141561904Y-64552438D02*
X141609523Y-64600057D01*
X141609523Y-64600057D02*
X141657142Y-64695295D01*
X141657142Y-64695295D02*
X141657142Y-64838152D01*
X141657142Y-64838152D02*
X141609523Y-64933390D01*
X141609523Y-64933390D02*
X141561904Y-64981009D01*
X141561904Y-64981009D02*
X141466666Y-65028628D01*
X141466666Y-65028628D02*
X141085714Y-65028628D01*
X142609523Y-65504819D02*
X142038095Y-65504819D01*
X142323809Y-65504819D02*
X142323809Y-64504819D01*
X142323809Y-64504819D02*
X142228571Y-64647676D01*
X142228571Y-64647676D02*
X142133333Y-64742914D01*
X142133333Y-64742914D02*
X142038095Y-64790533D01*
X143514285Y-64504819D02*
X143038095Y-64504819D01*
X143038095Y-64504819D02*
X142990476Y-64981009D01*
X142990476Y-64981009D02*
X143038095Y-64933390D01*
X143038095Y-64933390D02*
X143133333Y-64885771D01*
X143133333Y-64885771D02*
X143371428Y-64885771D01*
X143371428Y-64885771D02*
X143466666Y-64933390D01*
X143466666Y-64933390D02*
X143514285Y-64981009D01*
X143514285Y-64981009D02*
X143561904Y-65076247D01*
X143561904Y-65076247D02*
X143561904Y-65314342D01*
X143561904Y-65314342D02*
X143514285Y-65409580D01*
X143514285Y-65409580D02*
X143466666Y-65457200D01*
X143466666Y-65457200D02*
X143371428Y-65504819D01*
X143371428Y-65504819D02*
X143133333Y-65504819D01*
X143133333Y-65504819D02*
X143038095Y-65457200D01*
X143038095Y-65457200D02*
X142990476Y-65409580D01*
X151540476Y-93884819D02*
X151540476Y-94599104D01*
X151540476Y-94599104D02*
X151492857Y-94741961D01*
X151492857Y-94741961D02*
X151397619Y-94837200D01*
X151397619Y-94837200D02*
X151254762Y-94884819D01*
X151254762Y-94884819D02*
X151159524Y-94884819D01*
X152540476Y-94884819D02*
X151969048Y-94884819D01*
X152254762Y-94884819D02*
X152254762Y-93884819D01*
X152254762Y-93884819D02*
X152159524Y-94027676D01*
X152159524Y-94027676D02*
X152064286Y-94122914D01*
X152064286Y-94122914D02*
X151969048Y-94170533D01*
X153159524Y-93884819D02*
X153254762Y-93884819D01*
X153254762Y-93884819D02*
X153350000Y-93932438D01*
X153350000Y-93932438D02*
X153397619Y-93980057D01*
X153397619Y-93980057D02*
X153445238Y-94075295D01*
X153445238Y-94075295D02*
X153492857Y-94265771D01*
X153492857Y-94265771D02*
X153492857Y-94503866D01*
X153492857Y-94503866D02*
X153445238Y-94694342D01*
X153445238Y-94694342D02*
X153397619Y-94789580D01*
X153397619Y-94789580D02*
X153350000Y-94837200D01*
X153350000Y-94837200D02*
X153254762Y-94884819D01*
X153254762Y-94884819D02*
X153159524Y-94884819D01*
X153159524Y-94884819D02*
X153064286Y-94837200D01*
X153064286Y-94837200D02*
X153016667Y-94789580D01*
X153016667Y-94789580D02*
X152969048Y-94694342D01*
X152969048Y-94694342D02*
X152921429Y-94503866D01*
X152921429Y-94503866D02*
X152921429Y-94265771D01*
X152921429Y-94265771D02*
X152969048Y-94075295D01*
X152969048Y-94075295D02*
X153016667Y-93980057D01*
X153016667Y-93980057D02*
X153064286Y-93932438D01*
X153064286Y-93932438D02*
X153159524Y-93884819D01*
X123554819Y-76352857D02*
X123078628Y-76686190D01*
X123554819Y-76924285D02*
X122554819Y-76924285D01*
X122554819Y-76924285D02*
X122554819Y-76543333D01*
X122554819Y-76543333D02*
X122602438Y-76448095D01*
X122602438Y-76448095D02*
X122650057Y-76400476D01*
X122650057Y-76400476D02*
X122745295Y-76352857D01*
X122745295Y-76352857D02*
X122888152Y-76352857D01*
X122888152Y-76352857D02*
X122983390Y-76400476D01*
X122983390Y-76400476D02*
X123031009Y-76448095D01*
X123031009Y-76448095D02*
X123078628Y-76543333D01*
X123078628Y-76543333D02*
X123078628Y-76924285D01*
X122650057Y-75971904D02*
X122602438Y-75924285D01*
X122602438Y-75924285D02*
X122554819Y-75829047D01*
X122554819Y-75829047D02*
X122554819Y-75590952D01*
X122554819Y-75590952D02*
X122602438Y-75495714D01*
X122602438Y-75495714D02*
X122650057Y-75448095D01*
X122650057Y-75448095D02*
X122745295Y-75400476D01*
X122745295Y-75400476D02*
X122840533Y-75400476D01*
X122840533Y-75400476D02*
X122983390Y-75448095D01*
X122983390Y-75448095D02*
X123554819Y-76019523D01*
X123554819Y-76019523D02*
X123554819Y-75400476D01*
X122888152Y-74543333D02*
X123554819Y-74543333D01*
X122507200Y-74781428D02*
X123221485Y-75019523D01*
X123221485Y-75019523D02*
X123221485Y-74400476D01*
D11*
%TO.C,J1*%
X126610000Y-96130000D02*
X127940000Y-96130000D01*
X126610000Y-97460000D02*
X126610000Y-96130000D01*
X129210000Y-96130000D02*
X147050000Y-96130000D01*
X129210000Y-98790000D02*
X129210000Y-96130000D01*
X129210000Y-98790000D02*
X147050000Y-98790000D01*
X147050000Y-98790000D02*
X147050000Y-96130000D01*
%TO.C,J3*%
X149470000Y-96130000D02*
X150800000Y-96130000D01*
X149470000Y-97460000D02*
X149470000Y-96130000D01*
X152070000Y-96130000D02*
X164830000Y-96130000D01*
X152070000Y-98790000D02*
X152070000Y-96130000D01*
X152070000Y-98790000D02*
X164830000Y-98790000D01*
X164830000Y-98790000D02*
X164830000Y-96130000D01*
%TO.C,J2*%
X117466000Y-47870000D02*
X118796000Y-47870000D01*
X117466000Y-49200000D02*
X117466000Y-47870000D01*
X120066000Y-47870000D02*
X142986000Y-47870000D01*
X120066000Y-50530000D02*
X120066000Y-47870000D01*
X120066000Y-50530000D02*
X142986000Y-50530000D01*
X142986000Y-50530000D02*
X142986000Y-47870000D01*
%TO.C,J4*%
X144390000Y-47870000D02*
X145720000Y-47870000D01*
X144390000Y-49200000D02*
X144390000Y-47870000D01*
X146990000Y-47870000D02*
X164830000Y-47870000D01*
X146990000Y-50530000D02*
X146990000Y-47870000D01*
X146990000Y-50530000D02*
X164830000Y-50530000D01*
X164830000Y-50530000D02*
X164830000Y-47870000D01*
%TO.C,R9*%
X130230000Y-56663272D02*
G75*
G02*
X132070000Y-56663272I920000J1453272D01*
G01*
%TO.C,SW1*%
X157225000Y-64075000D02*
X157225000Y-65575000D01*
X158475000Y-68075000D02*
X162975000Y-68075000D01*
X162975000Y-61575000D02*
X158475000Y-61575000D01*
X164225000Y-65575000D02*
X164225000Y-64075000D01*
%TO.C,R17*%
X133930000Y-62163272D02*
G75*
G02*
X135770000Y-62163272I920000J1453272D01*
G01*
%TO.C,C2*%
X124830000Y-73530000D02*
X125160000Y-73530000D01*
X124830000Y-78470000D02*
X124830000Y-73530000D01*
X125160000Y-78470000D02*
X124830000Y-78470000D01*
X127240000Y-73530000D02*
X127570000Y-73530000D01*
X127570000Y-73530000D02*
X127570000Y-78470000D01*
X127570000Y-78470000D02*
X127240000Y-78470000D01*
%TO.C,U1*%
X131150000Y-70960000D02*
X131150000Y-81240000D01*
X131150000Y-81240000D02*
X135650000Y-81240000D01*
X132400000Y-70960000D02*
X131150000Y-70960000D01*
X135650000Y-70960000D02*
X134400000Y-70960000D01*
X135650000Y-81240000D02*
X135650000Y-70960000D01*
X128150000Y-70900000D02*
X138650000Y-70900000D01*
X138650000Y-81300000D01*
X128150000Y-81300000D01*
X128150000Y-70900000D01*
X134400000Y-70960000D02*
G75*
G02*
X132400000Y-70960000I-1000000J0D01*
G01*
%TO.C,J13*%
X156400000Y-70375000D02*
X167400000Y-70375000D01*
X156400000Y-82375000D02*
X156400000Y-70375000D01*
X167400000Y-70375000D02*
X167400000Y-71875000D01*
X167400000Y-71875000D02*
X168600000Y-71875000D01*
X167400000Y-74375000D02*
X167400000Y-78375000D01*
X167400000Y-78375000D02*
X170400000Y-78375000D01*
X167400000Y-80875000D02*
X167400000Y-82375000D01*
X167400000Y-82375000D02*
X156400000Y-82375000D01*
X168600000Y-71875000D02*
X168600000Y-73375000D01*
X168600000Y-73375000D02*
X170400000Y-73375000D01*
X168600000Y-79375000D02*
X168600000Y-80875000D01*
X168600000Y-80875000D02*
X167400000Y-80875000D01*
X170400000Y-73375000D02*
X170400000Y-79375000D01*
X170400000Y-74375000D02*
X167400000Y-74375000D01*
X170400000Y-79375000D02*
X168600000Y-79375000D01*
%TO.C,C1*%
X116940302Y-86985000D02*
X117740302Y-86985000D01*
X117340302Y-86585000D02*
X117340302Y-87385000D01*
X121350000Y-85220000D02*
X121350000Y-93380000D01*
X121390000Y-85220000D02*
X121390000Y-93380000D01*
X121430000Y-85221000D02*
X121430000Y-93379000D01*
X121470000Y-85222000D02*
X121470000Y-93378000D01*
X121510000Y-85223000D02*
X121510000Y-93377000D01*
X121550000Y-85225000D02*
X121550000Y-93375000D01*
X121590000Y-85227000D02*
X121590000Y-88260000D01*
X121590000Y-90340000D02*
X121590000Y-93373000D01*
X121630000Y-85230000D02*
X121630000Y-88260000D01*
X121630000Y-90340000D02*
X121630000Y-93370000D01*
X121670000Y-85232000D02*
X121670000Y-88260000D01*
X121670000Y-90340000D02*
X121670000Y-93368000D01*
X121710000Y-85236000D02*
X121710000Y-88260000D01*
X121710000Y-90340000D02*
X121710000Y-93364000D01*
X121750000Y-85239000D02*
X121750000Y-88260000D01*
X121750000Y-90340000D02*
X121750000Y-93361000D01*
X121790000Y-85244000D02*
X121790000Y-88260000D01*
X121790000Y-90340000D02*
X121790000Y-93356000D01*
X121830000Y-85248000D02*
X121830000Y-88260000D01*
X121830000Y-90340000D02*
X121830000Y-93352000D01*
X121870000Y-85253000D02*
X121870000Y-88260000D01*
X121870000Y-90340000D02*
X121870000Y-93347000D01*
X121910000Y-85258000D02*
X121910000Y-88260000D01*
X121910000Y-90340000D02*
X121910000Y-93342000D01*
X121950000Y-85264000D02*
X121950000Y-88260000D01*
X121950000Y-90340000D02*
X121950000Y-93336000D01*
X121990000Y-85270000D02*
X121990000Y-88260000D01*
X121990000Y-90340000D02*
X121990000Y-93330000D01*
X122030000Y-85277000D02*
X122030000Y-88260000D01*
X122030000Y-90340000D02*
X122030000Y-93323000D01*
X122070000Y-85283000D02*
X122070000Y-88260000D01*
X122070000Y-90340000D02*
X122070000Y-93317000D01*
X122110000Y-85291000D02*
X122110000Y-88260000D01*
X122110000Y-90340000D02*
X122110000Y-93309000D01*
X122150000Y-85298000D02*
X122150000Y-88260000D01*
X122150000Y-90340000D02*
X122150000Y-93302000D01*
X122190000Y-85307000D02*
X122190000Y-88260000D01*
X122190000Y-90340000D02*
X122190000Y-93293000D01*
X122230000Y-85315000D02*
X122230000Y-88260000D01*
X122230000Y-90340000D02*
X122230000Y-93285000D01*
X122270000Y-85324000D02*
X122270000Y-88260000D01*
X122270000Y-90340000D02*
X122270000Y-93276000D01*
X122310000Y-85333000D02*
X122310000Y-88260000D01*
X122310000Y-90340000D02*
X122310000Y-93267000D01*
X122350000Y-85343000D02*
X122350000Y-88260000D01*
X122350000Y-90340000D02*
X122350000Y-93257000D01*
X122390000Y-85353000D02*
X122390000Y-88260000D01*
X122390000Y-90340000D02*
X122390000Y-93247000D01*
X122430000Y-85364000D02*
X122430000Y-88260000D01*
X122430000Y-90340000D02*
X122430000Y-93236000D01*
X122470000Y-85375000D02*
X122470000Y-88260000D01*
X122470000Y-90340000D02*
X122470000Y-93225000D01*
X122510000Y-85387000D02*
X122510000Y-88260000D01*
X122510000Y-90340000D02*
X122510000Y-93213000D01*
X122550000Y-85399000D02*
X122550000Y-88260000D01*
X122550000Y-90340000D02*
X122550000Y-93201000D01*
X122590000Y-85411000D02*
X122590000Y-88260000D01*
X122590000Y-90340000D02*
X122590000Y-93189000D01*
X122630000Y-85424000D02*
X122630000Y-88260000D01*
X122630000Y-90340000D02*
X122630000Y-93176000D01*
X122670000Y-85437000D02*
X122670000Y-88260000D01*
X122670000Y-90340000D02*
X122670000Y-93163000D01*
X122710000Y-85451000D02*
X122710000Y-88260000D01*
X122710000Y-90340000D02*
X122710000Y-93149000D01*
X122750000Y-85465000D02*
X122750000Y-88260000D01*
X122750000Y-90340000D02*
X122750000Y-93135000D01*
X122790000Y-85480000D02*
X122790000Y-88260000D01*
X122790000Y-90340000D02*
X122790000Y-93120000D01*
X122830000Y-85495000D02*
X122830000Y-88260000D01*
X122830000Y-90340000D02*
X122830000Y-93105000D01*
X122870000Y-85511000D02*
X122870000Y-88260000D01*
X122870000Y-90340000D02*
X122870000Y-93089000D01*
X122910000Y-85527000D02*
X122910000Y-88260000D01*
X122910000Y-90340000D02*
X122910000Y-93073000D01*
X122950000Y-85543000D02*
X122950000Y-88260000D01*
X122950000Y-90340000D02*
X122950000Y-93057000D01*
X122990000Y-85560000D02*
X122990000Y-88260000D01*
X122990000Y-90340000D02*
X122990000Y-93040000D01*
X123030000Y-85578000D02*
X123030000Y-88260000D01*
X123030000Y-90340000D02*
X123030000Y-93022000D01*
X123070000Y-85596000D02*
X123070000Y-88260000D01*
X123070000Y-90340000D02*
X123070000Y-93004000D01*
X123110000Y-85615000D02*
X123110000Y-88260000D01*
X123110000Y-90340000D02*
X123110000Y-92985000D01*
X123150000Y-85634000D02*
X123150000Y-88260000D01*
X123150000Y-90340000D02*
X123150000Y-92966000D01*
X123190000Y-85654000D02*
X123190000Y-88260000D01*
X123190000Y-90340000D02*
X123190000Y-92946000D01*
X123230000Y-85674000D02*
X123230000Y-88260000D01*
X123230000Y-90340000D02*
X123230000Y-92926000D01*
X123270000Y-85695000D02*
X123270000Y-88260000D01*
X123270000Y-90340000D02*
X123270000Y-92905000D01*
X123310000Y-85716000D02*
X123310000Y-88260000D01*
X123310000Y-90340000D02*
X123310000Y-92884000D01*
X123350000Y-85738000D02*
X123350000Y-88260000D01*
X123350000Y-90340000D02*
X123350000Y-92862000D01*
X123390000Y-85761000D02*
X123390000Y-88260000D01*
X123390000Y-90340000D02*
X123390000Y-92839000D01*
X123430000Y-85784000D02*
X123430000Y-88260000D01*
X123430000Y-90340000D02*
X123430000Y-92816000D01*
X123470000Y-85807000D02*
X123470000Y-88260000D01*
X123470000Y-90340000D02*
X123470000Y-92793000D01*
X123510000Y-85832000D02*
X123510000Y-88260000D01*
X123510000Y-90340000D02*
X123510000Y-92768000D01*
X123550000Y-85857000D02*
X123550000Y-88260000D01*
X123550000Y-90340000D02*
X123550000Y-92743000D01*
X123590000Y-85882000D02*
X123590000Y-88260000D01*
X123590000Y-90340000D02*
X123590000Y-92718000D01*
X123630000Y-85908000D02*
X123630000Y-88260000D01*
X123630000Y-90340000D02*
X123630000Y-92692000D01*
X123670000Y-85935000D02*
X123670000Y-92665000D01*
X123710000Y-85963000D02*
X123710000Y-92637000D01*
X123750000Y-85991000D02*
X123750000Y-92609000D01*
X123790000Y-86020000D02*
X123790000Y-92580000D01*
X123830000Y-86050000D02*
X123830000Y-92550000D01*
X123870000Y-86081000D02*
X123870000Y-92519000D01*
X123910000Y-86112000D02*
X123910000Y-92488000D01*
X123950000Y-86144000D02*
X123950000Y-92456000D01*
X123990000Y-86177000D02*
X123990000Y-92423000D01*
X124030000Y-86211000D02*
X124030000Y-92389000D01*
X124070000Y-86245000D02*
X124070000Y-92355000D01*
X124110000Y-86281000D02*
X124110000Y-92319000D01*
X124150000Y-86318000D02*
X124150000Y-92282000D01*
X124190000Y-86355000D02*
X124190000Y-92245000D01*
X124230000Y-86394000D02*
X124230000Y-92206000D01*
X124270000Y-86433000D02*
X124270000Y-92167000D01*
X124310000Y-86474000D02*
X124310000Y-92126000D01*
X124350000Y-86516000D02*
X124350000Y-92084000D01*
X124390000Y-86559000D02*
X124390000Y-92041000D01*
X124430000Y-86604000D02*
X124430000Y-91996000D01*
X124470000Y-86649000D02*
X124470000Y-91951000D01*
X124510000Y-86696000D02*
X124510000Y-91904000D01*
X124550000Y-86745000D02*
X124550000Y-91855000D01*
X124590000Y-86795000D02*
X124590000Y-91805000D01*
X124630000Y-86847000D02*
X124630000Y-91753000D01*
X124670000Y-86900000D02*
X124670000Y-91700000D01*
X124710000Y-86956000D02*
X124710000Y-91644000D01*
X124750000Y-87013000D02*
X124750000Y-91587000D01*
X124790000Y-87073000D02*
X124790000Y-91527000D01*
X124830000Y-87135000D02*
X124830000Y-91465000D01*
X124870000Y-87199000D02*
X124870000Y-91401000D01*
X124910000Y-87266000D02*
X124910000Y-91334000D01*
X124950000Y-87336000D02*
X124950000Y-91264000D01*
X124990000Y-87410000D02*
X124990000Y-91190000D01*
X125030000Y-87487000D02*
X125030000Y-91113000D01*
X125070000Y-87569000D02*
X125070000Y-91031000D01*
X125110000Y-87656000D02*
X125110000Y-90944000D01*
X125150000Y-87748000D02*
X125150000Y-90852000D01*
X125190000Y-87847000D02*
X125190000Y-90753000D01*
X125230000Y-87954000D02*
X125230000Y-90646000D01*
X125270000Y-88072000D02*
X125270000Y-90528000D01*
X125310000Y-88203000D02*
X125310000Y-90397000D01*
X125350000Y-88353000D02*
X125350000Y-90247000D01*
X125390000Y-88532000D02*
X125390000Y-90068000D01*
X125430000Y-88767000D02*
X125430000Y-89833000D01*
X125470000Y-89300000D02*
G75*
G02*
X117230000Y-89300000I-4120000J0D01*
G01*
X117230000Y-89300000D02*
G75*
G02*
X125470000Y-89300000I4120000J0D01*
G01*
%TO.C,RV3*%
X145470000Y-74625000D02*
X155220000Y-74625000D01*
X145470000Y-84375000D02*
X145470000Y-74625000D01*
X155220000Y-74625000D02*
X155220000Y-84375000D01*
X155220000Y-84375000D02*
X145470000Y-84375000D01*
%TO.C,R10*%
X126530000Y-56663272D02*
G75*
G02*
X128370000Y-56663272I920000J1453272D01*
G01*
%TO.C,R7*%
X137630000Y-56663272D02*
G75*
G02*
X139470000Y-56663272I920000J1453272D01*
G01*
%TO.C,R26*%
X141170000Y-69200000D02*
X142120000Y-69200000D01*
X146910000Y-69200000D02*
X145960000Y-69200000D01*
X142120000Y-68280000D02*
X145960000Y-68280000D01*
X145960000Y-70120000D01*
X142120000Y-70120000D01*
X142120000Y-68280000D01*
%TO.C,J5*%
X94470000Y-91370000D02*
X94470000Y-94030000D01*
X112310000Y-91370000D02*
X94470000Y-91370000D01*
X112310000Y-91370000D02*
X112310000Y-94030000D01*
X112310000Y-94030000D02*
X94470000Y-94030000D01*
X114910000Y-92700000D02*
X114910000Y-94030000D01*
X114910000Y-94030000D02*
X113580000Y-94030000D01*
%TO.C,RV1*%
X127025000Y-84725000D02*
X136775000Y-84725000D01*
X127025000Y-94475000D02*
X127025000Y-84725000D01*
X136775000Y-84725000D02*
X136775000Y-94475000D01*
X136775000Y-94475000D02*
X127025000Y-94475000D01*
%TO.C,R1*%
X152580000Y-62153272D02*
G75*
G02*
X154420000Y-62153272I920000J1453272D01*
G01*
%TO.C,J6*%
X97000000Y-48970000D02*
X98330000Y-48970000D01*
X97000000Y-50300000D02*
X97000000Y-48970000D01*
X99600000Y-48970000D02*
X107280000Y-48970000D01*
X99600000Y-51630000D02*
X99600000Y-48970000D01*
X99600000Y-51630000D02*
X107280000Y-51630000D01*
X107280000Y-51630000D02*
X107280000Y-48970000D01*
%TO.C,R2*%
X152530000Y-56603272D02*
G75*
G02*
X154370000Y-56603272I920000J1453272D01*
G01*
%TO.C,R14*%
X145030000Y-62153272D02*
G75*
G02*
X146870000Y-62153272I920000J1453272D01*
G01*
%TO.C,R5*%
X145030000Y-56653272D02*
G75*
G02*
X146870000Y-56653272I920000J1453272D01*
G01*
%TO.C,R13*%
X115430000Y-56663272D02*
G75*
G02*
X117270000Y-56663272I920000J1453272D01*
G01*
%TO.C,R20*%
X122830000Y-62163272D02*
G75*
G02*
X124670000Y-62163272I920000J1453272D01*
G01*
%TO.C,J12*%
X156400000Y-83250000D02*
X167400000Y-83250000D01*
X156400000Y-95250000D02*
X156400000Y-83250000D01*
D12*
X167400000Y-84750000D02*
X167400000Y-83250000D01*
D11*
X167400000Y-84750000D02*
X168600000Y-84750000D01*
X167400000Y-87250000D02*
X167400000Y-91250000D01*
X167400000Y-91250000D02*
X170400000Y-91250000D01*
D12*
X167400000Y-93750000D02*
X167400000Y-95250000D01*
D11*
X167400000Y-95250000D02*
X156400000Y-95250000D01*
D12*
X168600000Y-84750000D02*
X168600000Y-86250000D01*
D11*
X168600000Y-86250000D02*
X170400000Y-86250000D01*
D12*
X168600000Y-93750000D02*
X167400000Y-93750000D01*
X168600000Y-93750000D02*
X168600000Y-92250000D01*
D11*
X170400000Y-87250000D02*
X167400000Y-87250000D01*
X170400000Y-92250000D02*
X168600000Y-92250000D01*
D12*
X170400000Y-92250000D02*
X170400000Y-86250000D01*
D11*
%TO.C,R12*%
X119130000Y-56663272D02*
G75*
G02*
X120970000Y-56663272I920000J1453272D01*
G01*
%TO.C,R16*%
X137630000Y-62163272D02*
G75*
G02*
X139470000Y-62163272I920000J1453272D01*
G01*
%TO.C,R27*%
X141140000Y-71900000D02*
X142090000Y-71900000D01*
X146880000Y-71900000D02*
X145930000Y-71900000D01*
X145930000Y-72820000D02*
X142090000Y-72820000D01*
X142090000Y-70980000D01*
X145930000Y-70980000D01*
X145930000Y-72820000D01*
%TO.C,SW2*%
X157250000Y-55000000D02*
X157250000Y-56500000D01*
X158500000Y-59000000D02*
X163000000Y-59000000D01*
X163000000Y-52500000D02*
X158500000Y-52500000D01*
X164250000Y-56500000D02*
X164250000Y-55000000D01*
%TO.C,R8*%
X133930000Y-56663272D02*
G75*
G02*
X135770000Y-56663272I920000J1453272D01*
G01*
%TO.C,R21*%
X119130000Y-62163272D02*
G75*
G02*
X120970000Y-62163272I920000J1453272D01*
G01*
%TO.C,R23*%
X116620000Y-68100000D02*
X117570000Y-68100000D01*
X122360000Y-68100000D02*
X121410000Y-68100000D01*
X121410000Y-69020000D02*
X117570000Y-69020000D01*
X117570000Y-67180000D01*
X121410000Y-67180000D01*
X121410000Y-69020000D01*
%TO.C,R25*%
X130580000Y-69200000D02*
X131530000Y-69200000D01*
X136320000Y-69200000D02*
X135370000Y-69200000D01*
X135370000Y-70120000D02*
X131530000Y-70120000D01*
X131530000Y-68280000D01*
X135370000Y-68280000D01*
X135370000Y-70120000D01*
%TO.C,J9*%
X139620000Y-78810000D02*
X139620000Y-73620000D01*
X142380000Y-73620000D02*
X139620000Y-73620000D01*
X142380000Y-78810000D02*
X139620000Y-78810000D01*
X142380000Y-78810000D02*
X142380000Y-73620000D01*
X142380000Y-80080000D02*
X142380000Y-81460000D01*
X142380000Y-81460000D02*
X141000000Y-81460000D01*
%TO.C,RV2*%
X138910000Y-84665000D02*
X148660000Y-84665000D01*
X138910000Y-94415000D02*
X138910000Y-84665000D01*
X148660000Y-84665000D02*
X148660000Y-94415000D01*
X148660000Y-94415000D02*
X138910000Y-94415000D01*
%TO.C,R6*%
X141330000Y-56663272D02*
G75*
G02*
X143170000Y-56663272I920000J1453272D01*
G01*
%TO.C,R22*%
X115430000Y-62163272D02*
G75*
G02*
X117270000Y-62163272I920000J1453272D01*
G01*
%TO.C,R4*%
X148730000Y-56653272D02*
G75*
G02*
X150570000Y-56653272I920000J1453272D01*
G01*
%TO.C,R11*%
X122830000Y-56663272D02*
G75*
G02*
X124670000Y-56663272I920000J1453272D01*
G01*
%TO.C,R3*%
X148730000Y-62153272D02*
G75*
G02*
X150570000Y-62153272I920000J1453272D01*
G01*
%TO.C,R18*%
X130230000Y-62163272D02*
G75*
G02*
X132070000Y-62163272I920000J1453272D01*
G01*
%TO.C,R19*%
X126530000Y-62163272D02*
G75*
G02*
X128370000Y-62163272I920000J1453272D01*
G01*
%TO.C,J11*%
X150070000Y-71320000D02*
X150070000Y-66130000D01*
X152830000Y-66130000D02*
X150070000Y-66130000D01*
X152830000Y-71320000D02*
X150070000Y-71320000D01*
X152830000Y-71320000D02*
X152830000Y-66130000D01*
X152830000Y-72590000D02*
X152830000Y-73970000D01*
X152830000Y-73970000D02*
X151450000Y-73970000D01*
%TO.C,R15*%
X141330000Y-62153272D02*
G75*
G02*
X143170000Y-62153272I920000J1453272D01*
G01*
%TO.C,J10*%
X151020000Y-90710000D02*
X151020000Y-85520000D01*
X153780000Y-85520000D02*
X151020000Y-85520000D01*
X153780000Y-90710000D02*
X151020000Y-90710000D01*
X153780000Y-90710000D02*
X153780000Y-85520000D01*
X153780000Y-91980000D02*
X153780000Y-93360000D01*
X153780000Y-93360000D02*
X152400000Y-93360000D01*
%TO.C,R24*%
X123100000Y-72840000D02*
X123100000Y-73790000D01*
X123100000Y-78580000D02*
X123100000Y-77630000D01*
X124020000Y-73790000D02*
X122180000Y-73790000D01*
X122180000Y-77630000D01*
X124020000Y-77630000D01*
X124020000Y-73790000D01*
%TD*%
M02*
