M48
; DRILL file {KiCad 9.0.7} date 2026-02-03T14:42:55-0700
; FORMAT={-:-/ absolute / metric / decimal}
; #@! TF.CreationDate,2026-02-03T14:42:55-07:00
; #@! TF.GenerationSoftware,Kicad,Pcbnew,9.0.7
; #@! TF.FileFunction,Plated,1,2,PTH
FMAT,2
METRIC
; #@! TA.AperFunction,Plated,PTH,ComponentDrill
T1C0.400
; #@! TA.AperFunction,Plated,PTH,ComponentDrill
T2C0.700
; #@! TA.AperFunction,Plated,PTH,ComponentDrill
T3C0.800
; #@! TA.AperFunction,Plated,PTH,ComponentDrill
T4C1.000
; #@! TA.AperFunction,Plated,PTH,ComponentDrill
T5C1.100
%
G90
G05
T2
X115.68Y-68.1
X123.1Y-71.9
X123.1Y-79.52
X123.3Y-68.1
X129.64Y-69.2
X137.26Y-69.2
X140.2Y-71.9
X140.23Y-69.2
X147.82Y-71.9
X147.85Y-69.2
T3
X116.35Y-55.21
X116.35Y-57.75
X116.35Y-60.71
X116.35Y-63.25
X120.05Y-55.21
X120.05Y-57.75
X120.05Y-60.71
X120.05Y-63.25
X120.1Y-89.3
X122.6Y-89.3
X123.75Y-55.21
X123.75Y-57.75
X123.75Y-60.71
X123.75Y-63.25
X126.2Y-73.5
X126.2Y-78.5
X127.45Y-55.21
X127.45Y-57.75
X127.45Y-60.71
X127.45Y-63.25
X129.59Y-72.29
X129.59Y-74.83
X129.59Y-77.37
X129.59Y-79.91
X131.15Y-55.21
X131.15Y-57.75
X131.15Y-60.71
X131.15Y-63.25
X131.915Y-87.06
X131.915Y-92.14
X134.455Y-89.6
X134.85Y-55.21
X134.85Y-57.75
X134.85Y-60.71
X134.85Y-63.25
X137.21Y-72.29
X137.21Y-74.83
X137.21Y-77.37
X137.21Y-79.91
X138.55Y-55.21
X138.55Y-57.75
X138.55Y-60.71
X138.55Y-63.25
X142.25Y-55.21
X142.25Y-57.75
X142.25Y-60.7
X142.25Y-63.24
X143.8Y-87.0
X143.8Y-92.08
X145.95Y-55.2
X145.95Y-57.74
X145.95Y-60.7
X145.95Y-63.24
X146.34Y-89.54
X149.65Y-55.2
X149.65Y-57.74
X149.65Y-60.7
X149.65Y-63.24
X150.36Y-76.96
X150.36Y-82.04
X152.9Y-79.5
X153.45Y-55.15
X153.45Y-57.69
X153.5Y-60.7
X153.5Y-63.24
T4
X95.8Y-92.7
X98.33Y-50.3
X98.34Y-92.7
X100.87Y-50.3
X100.88Y-92.7
X103.41Y-50.3
X103.42Y-92.7
X105.95Y-50.3
X105.96Y-92.7
X108.5Y-92.7
X111.04Y-92.7
X113.58Y-92.7
X118.796Y-49.2
X121.336Y-49.2
X123.876Y-49.2
X126.416Y-49.2
X127.94Y-97.46
X128.956Y-49.2
X130.48Y-97.46
X131.496Y-49.2
X133.02Y-97.46
X134.036Y-49.2
X135.56Y-97.46
X136.576Y-49.2
X138.1Y-97.46
X139.116Y-49.2
X140.64Y-97.46
X141.0Y-75.0
X141.0Y-77.54
X141.0Y-80.08
X141.656Y-49.2
X143.18Y-97.46
X145.72Y-49.2
X145.72Y-97.46
X148.26Y-49.2
X150.8Y-49.2
X150.8Y-97.46
X151.45Y-67.51
X151.45Y-70.05
X151.45Y-72.59
X152.4Y-86.9
X152.4Y-89.44
X152.4Y-91.98
X153.34Y-49.2
X153.34Y-97.46
X155.88Y-49.2
X155.88Y-97.46
X158.42Y-49.2
X158.42Y-97.46
X160.96Y-49.2
X160.96Y-97.46
X163.5Y-49.2
X163.5Y-97.46
T5
X157.475Y-62.575
X157.475Y-67.075
X157.5Y-53.5
X157.5Y-58.0
X163.975Y-62.575
X163.975Y-67.075
X164.0Y-53.5
X164.0Y-58.0
T1
G00X159.6Y-71.375
M15
G01X158.6Y-71.375
M16
G05
G00X158.6Y-81.375
M15
G01X159.6Y-81.375
M16
G05
G00X159.6Y-84.25
M15
G01X158.6Y-84.25
M16
G05
G00X158.6Y-94.25
M15
G01X159.6Y-94.25
M16
G05
G00X164.1Y-76.875
M15
G01X164.1Y-75.875
M16
G05
G00X164.1Y-89.75
M15
G01X164.1Y-88.75
M16
G05
T3
G00X159.45Y-73.875
M15
G01X158.75Y-73.875
M16
G05
G00X158.75Y-78.875
M15
G01X159.45Y-78.875
M16
G05
G00X159.45Y-86.75
M15
G01X158.75Y-86.75
M16
G05
G00X158.75Y-91.75
M15
G01X159.45Y-91.75
M16
G05
M30
