%TF.GenerationSoftware,KiCad,Pcbnew,9.0.7*%
%TF.CreationDate,2026-02-03T14:42:13-07:00*%
%TF.ProjectId,Uno_Shield_DSP,556e6f5f-5368-4696-956c-645f4453502e,rev?*%
%TF.SameCoordinates,Original*%
%TF.FileFunction,Legend,Bot*%
%TF.FilePolarity,Positive*%
%FSLAX46Y46*%
G04 Gerber Fmt 4.6, Leading zero omitted, Abs format (unit mm)*
G04 Created by KiCad (PCBNEW 9.0.7) date 2026-02-03 14:42:13*
%MOMM*%
%LPD*%
G01*
G04 APERTURE LIST*
%ADD10C,0.150000*%
%ADD11C,0.000000*%
G04 APERTURE END LIST*
D10*
G36*
X107350732Y-81605000D02*
G01*
X108137683Y-81605000D01*
X108137683Y-80157128D01*
X107969613Y-80157128D01*
X107969613Y-81458454D01*
X107350732Y-81458454D01*
X107350732Y-81605000D01*
G37*
G36*
X106585528Y-80526021D02*
G01*
X106719878Y-80561858D01*
X106868597Y-80626074D01*
X106826557Y-80743311D01*
X106755971Y-80710935D01*
X106667280Y-80681487D01*
X106577895Y-80661130D01*
X106514048Y-80655383D01*
X106432108Y-80663733D01*
X106370049Y-80686477D01*
X106323159Y-80722012D01*
X106288667Y-80771353D01*
X106266202Y-80837944D01*
X106257868Y-80927134D01*
X106257868Y-80977784D01*
X106437203Y-80991980D01*
X106553831Y-81005450D01*
X106646305Y-81025045D01*
X106729758Y-81054062D01*
X106795874Y-81089983D01*
X106850406Y-81136268D01*
X106889113Y-81190916D01*
X106912665Y-81254170D01*
X106920895Y-81329036D01*
X106910459Y-81412993D01*
X106880392Y-81483854D01*
X106830220Y-81544733D01*
X106765868Y-81591667D01*
X106696694Y-81619168D01*
X106620660Y-81628447D01*
X106529582Y-81620260D01*
X106448628Y-81596540D01*
X106375822Y-81557604D01*
X106309759Y-81502514D01*
X106249716Y-81429145D01*
X106244216Y-81533469D01*
X106230207Y-81605000D01*
X106071388Y-81605000D01*
X106090992Y-81492528D01*
X106098041Y-81357704D01*
X106098041Y-81282599D01*
X106257868Y-81282599D01*
X106327607Y-81364339D01*
X106405512Y-81424565D01*
X106463157Y-81453784D01*
X106519176Y-81470567D01*
X106574498Y-81476039D01*
X106624829Y-81470872D01*
X106666966Y-81456189D01*
X106702634Y-81432350D01*
X106730411Y-81400341D01*
X106747040Y-81362653D01*
X106752826Y-81317495D01*
X106746066Y-81268228D01*
X106726636Y-81227632D01*
X106693933Y-81193572D01*
X106630413Y-81155474D01*
X106554531Y-81131107D01*
X106457023Y-81115804D01*
X106257868Y-81095020D01*
X106257868Y-81282599D01*
X106098041Y-81282599D01*
X106098041Y-80899931D01*
X106106851Y-80789504D01*
X106130881Y-80703445D01*
X106167804Y-80636676D01*
X106217164Y-80585455D01*
X106280434Y-80547752D01*
X106360810Y-80523518D01*
X106462848Y-80514699D01*
X106585528Y-80526021D01*
G37*
G36*
X104841229Y-81605000D02*
G01*
X105001147Y-81605000D01*
X105001147Y-81446730D01*
X105094027Y-81530557D01*
X105184394Y-81586224D01*
X105273686Y-81618041D01*
X105363847Y-81628447D01*
X105445221Y-81620692D01*
X105510199Y-81599169D01*
X105562300Y-81565133D01*
X105603803Y-81517934D01*
X105635453Y-81455121D01*
X105656353Y-81372735D01*
X105664083Y-81265655D01*
X105664083Y-80538147D01*
X105504256Y-80538147D01*
X105504256Y-81218485D01*
X105498490Y-81308565D01*
X105483335Y-81374184D01*
X105461209Y-81420993D01*
X105427429Y-81456999D01*
X105380485Y-81479493D01*
X105315762Y-81487763D01*
X105248289Y-81478445D01*
X105174972Y-81448553D01*
X105093325Y-81393357D01*
X105001147Y-81306046D01*
X105001147Y-80538147D01*
X104841229Y-80538147D01*
X104841229Y-81605000D01*
G37*
G36*
X103563991Y-80567456D02*
G01*
X103628563Y-80719863D01*
X103731557Y-80688065D01*
X103810921Y-80678831D01*
X103879991Y-80688450D01*
X103949315Y-80718306D01*
X104012895Y-80764982D01*
X104073787Y-80831055D01*
X104123113Y-80898225D01*
X104130665Y-80913304D01*
X104130665Y-81605000D01*
X104289484Y-81605000D01*
X104289484Y-80538147D01*
X104130665Y-80538147D01*
X104130665Y-80755034D01*
X104071293Y-80661793D01*
X104009058Y-80595016D01*
X103943743Y-80549972D01*
X103874242Y-80523583D01*
X103798647Y-80514699D01*
X103719176Y-80520512D01*
X103641212Y-80537969D01*
X103563991Y-80567456D01*
G37*
G36*
X102822704Y-80524450D02*
G01*
X102910958Y-80552635D01*
X102989455Y-80598967D01*
X103059874Y-80664909D01*
X103115153Y-80743057D01*
X103155785Y-80834441D01*
X103181411Y-80941553D01*
X103190483Y-81067543D01*
X103180485Y-81195313D01*
X103152174Y-81304017D01*
X103107021Y-81396989D01*
X103045036Y-81476772D01*
X102967646Y-81542356D01*
X102879505Y-81589303D01*
X102778507Y-81618309D01*
X102661728Y-81628447D01*
X102537375Y-81620786D01*
X102428125Y-81598905D01*
X102331816Y-81563967D01*
X102359477Y-81435006D01*
X102463618Y-81464784D01*
X102563457Y-81482111D01*
X102659713Y-81487763D01*
X102733517Y-81480425D01*
X102800076Y-81458959D01*
X102861024Y-81423222D01*
X102917450Y-81371809D01*
X102962712Y-81311025D01*
X102995278Y-81242722D01*
X103015403Y-81165481D01*
X103022413Y-81077435D01*
X102289776Y-81077435D01*
X102289776Y-81027426D01*
X102295604Y-80948475D01*
X102463982Y-80948475D01*
X103012155Y-80948475D01*
X102997359Y-80864731D01*
X102967068Y-80795004D01*
X102921480Y-80736533D01*
X102862929Y-80691713D01*
X102795356Y-80664741D01*
X102716041Y-80655383D01*
X102655330Y-80664343D01*
X102597890Y-80691642D01*
X102541835Y-80740105D01*
X102498838Y-80800392D01*
X102472940Y-80869028D01*
X102463982Y-80948475D01*
X102295604Y-80948475D01*
X102298335Y-80911472D01*
X102322569Y-80812490D01*
X102361126Y-80727628D01*
X102413790Y-80654651D01*
X102480503Y-80592694D01*
X102553116Y-80549566D01*
X102632990Y-80523600D01*
X102722178Y-80514699D01*
X102822704Y-80524450D01*
G37*
G36*
X101062731Y-81605000D02*
G01*
X101222557Y-81605000D01*
X101222557Y-80924386D01*
X101228795Y-80830319D01*
X101244942Y-80764243D01*
X101268169Y-80719131D01*
X101303068Y-80684570D01*
X101349429Y-80663154D01*
X101411051Y-80655383D01*
X101478525Y-80664701D01*
X101551842Y-80694593D01*
X101633488Y-80749790D01*
X101725667Y-80837100D01*
X101725667Y-81605000D01*
X101885585Y-81605000D01*
X101885585Y-80538147D01*
X101725667Y-80538147D01*
X101725667Y-80696416D01*
X101632786Y-80612590D01*
X101542419Y-80556922D01*
X101453128Y-80525105D01*
X101362966Y-80514699D01*
X101281533Y-80522443D01*
X101216529Y-80543929D01*
X101164428Y-80577895D01*
X101122945Y-80624974D01*
X101091324Y-80687599D01*
X101070449Y-80769705D01*
X101062731Y-80876393D01*
X101062731Y-81605000D01*
G37*
G36*
X99056381Y-80141849D02*
G01*
X99139034Y-80165237D01*
X99211362Y-80203099D01*
X99275053Y-80255959D01*
X99331018Y-80325564D01*
X99382488Y-80422327D01*
X99422314Y-80543716D01*
X99448506Y-80694844D01*
X99458055Y-80881613D01*
X99448463Y-81068369D01*
X99422156Y-81219395D01*
X99382160Y-81340629D01*
X99330469Y-81437205D01*
X99274312Y-81506614D01*
X99210562Y-81559310D01*
X99138317Y-81597035D01*
X99055918Y-81620320D01*
X98961082Y-81628447D01*
X98865327Y-81620267D01*
X98782365Y-81596861D01*
X98709853Y-81558995D01*
X98646087Y-81506168D01*
X98590138Y-81436655D01*
X98538635Y-81339833D01*
X98498811Y-81218552D01*
X98472638Y-81067758D01*
X98463101Y-80881613D01*
X98641429Y-80881613D01*
X98651391Y-81074822D01*
X98677690Y-81217840D01*
X98715923Y-81321251D01*
X98763253Y-81393963D01*
X98818772Y-81442788D01*
X98883694Y-81471826D01*
X98961174Y-81481901D01*
X99034683Y-81472333D01*
X99097250Y-81444590D01*
X99151600Y-81397824D01*
X99198852Y-81328303D01*
X99231190Y-81252087D01*
X99256664Y-81155152D01*
X99273606Y-81033250D01*
X99279819Y-80881613D01*
X99273622Y-80731833D01*
X99256662Y-80610517D01*
X99231053Y-80513209D01*
X99198394Y-80435931D01*
X99150761Y-80365227D01*
X99096324Y-80317849D01*
X99034021Y-80289854D01*
X98961174Y-80280226D01*
X98883732Y-80290309D01*
X98818829Y-80319374D01*
X98763310Y-80368260D01*
X98715966Y-80441084D01*
X98677714Y-80544681D01*
X98651398Y-80687987D01*
X98641429Y-80881613D01*
X98463101Y-80881613D01*
X98472706Y-80694233D01*
X98499032Y-80542873D01*
X98539030Y-80421531D01*
X98590688Y-80325014D01*
X98646837Y-80255621D01*
X98710669Y-80202907D01*
X98783098Y-80165147D01*
X98865801Y-80141824D01*
X98961082Y-80133681D01*
X99056381Y-80141849D01*
G37*
G36*
X97807753Y-80524802D02*
G01*
X97900174Y-80553714D01*
X97980474Y-80600712D01*
X98050667Y-80666924D01*
X98105882Y-80746040D01*
X98146370Y-80837846D01*
X98171830Y-80944695D01*
X98180818Y-81069558D01*
X98171853Y-81195476D01*
X98146471Y-81303167D01*
X98106143Y-81395620D01*
X98051216Y-81475215D01*
X97981228Y-81541840D01*
X97900934Y-81589143D01*
X97808284Y-81618262D01*
X97700239Y-81628447D01*
X97592819Y-81618265D01*
X97500431Y-81589113D01*
X97420097Y-81541676D01*
X97349812Y-81474757D01*
X97294576Y-81394851D01*
X97254084Y-81302333D01*
X97228637Y-81194877D01*
X97219845Y-81072123D01*
X97386632Y-81072123D01*
X97396542Y-81184782D01*
X97424871Y-81281904D01*
X97470712Y-81366405D01*
X97517441Y-81420308D01*
X97570304Y-81457537D01*
X97630521Y-81479991D01*
X97700239Y-81487763D01*
X97770592Y-81480032D01*
X97830980Y-81457768D01*
X97883615Y-81420998D01*
X97929767Y-81367962D01*
X97974817Y-81284412D01*
X98002868Y-81186869D01*
X98012748Y-81072123D01*
X98002722Y-80951130D01*
X97974772Y-80852264D01*
X97930774Y-80771246D01*
X97885349Y-80720313D01*
X97832859Y-80684705D01*
X97771925Y-80662973D01*
X97700239Y-80655383D01*
X97629140Y-80663014D01*
X97568342Y-80684929D01*
X97515607Y-80720971D01*
X97469613Y-80772711D01*
X97424878Y-80854736D01*
X97396679Y-80953245D01*
X97386632Y-81072123D01*
X97219845Y-81072123D01*
X97219661Y-81069558D01*
X97228626Y-80945310D01*
X97254050Y-80838713D01*
X97294535Y-80746868D01*
X97349812Y-80667473D01*
X97420039Y-80600996D01*
X97500352Y-80553834D01*
X97592761Y-80524832D01*
X97700239Y-80514699D01*
X97807753Y-80524802D01*
G37*
G36*
X96567028Y-80521078D02*
G01*
X96633891Y-80539504D01*
X96693757Y-80569575D01*
X96747784Y-80611786D01*
X96792528Y-80663512D01*
X96824205Y-80721171D01*
X96843566Y-80785971D01*
X96850274Y-80859631D01*
X96838837Y-80949428D01*
X96804204Y-81035211D01*
X96769273Y-81086891D01*
X96725484Y-81131922D01*
X96671946Y-81170766D01*
X96763666Y-81228596D01*
X96819585Y-81282417D01*
X96849179Y-81333244D01*
X96858426Y-81383258D01*
X96850760Y-81427440D01*
X96827038Y-81469247D01*
X96783618Y-81510344D01*
X96713987Y-81551144D01*
X96797334Y-81602478D01*
X96849821Y-81654487D01*
X96878777Y-81707768D01*
X96888193Y-81764368D01*
X96881338Y-81819054D01*
X96861136Y-81867905D01*
X96826732Y-81912545D01*
X96775536Y-81953778D01*
X96697132Y-81993032D01*
X96601737Y-82018066D01*
X96485467Y-82027051D01*
X96378160Y-82020013D01*
X96280264Y-81999554D01*
X96190389Y-81966222D01*
X96107379Y-81919981D01*
X96034695Y-81859989D01*
X95985134Y-81793218D01*
X95955590Y-81718288D01*
X95949077Y-81663251D01*
X96105273Y-81663251D01*
X96111761Y-81710671D01*
X96131203Y-81754217D01*
X96165033Y-81795316D01*
X96216464Y-81834618D01*
X96293383Y-81872259D01*
X96382207Y-81895714D01*
X96485467Y-81903953D01*
X96560221Y-81898500D01*
X96620425Y-81883458D01*
X96668832Y-81860172D01*
X96709493Y-81826920D01*
X96731449Y-81792367D01*
X96738533Y-81755026D01*
X96732453Y-81716967D01*
X96713437Y-81679005D01*
X96684114Y-81643811D01*
X96640714Y-81606007D01*
X96594834Y-81576675D01*
X96570464Y-81569829D01*
X96443427Y-81565157D01*
X96263084Y-81558105D01*
X96185863Y-81566668D01*
X96139660Y-81587998D01*
X96114152Y-81619284D01*
X96105273Y-81663251D01*
X95949077Y-81663251D01*
X95945446Y-81632568D01*
X95954010Y-81559633D01*
X95977949Y-81502023D01*
X96016704Y-81456164D01*
X96067613Y-81422954D01*
X96132724Y-81401706D01*
X96216006Y-81393974D01*
X96575684Y-81405697D01*
X96631177Y-81399977D01*
X96669382Y-81384998D01*
X96695809Y-81360859D01*
X96703729Y-81334073D01*
X96692892Y-81302626D01*
X96650746Y-81261112D01*
X96554069Y-81204289D01*
X96491604Y-81206395D01*
X96415124Y-81199881D01*
X96347810Y-81181116D01*
X96287984Y-81150568D01*
X96234416Y-81107752D01*
X96189703Y-81055170D01*
X96158363Y-80998122D01*
X96139426Y-80935592D01*
X96132933Y-80866134D01*
X96133137Y-80863478D01*
X96291752Y-80863478D01*
X96298400Y-80926772D01*
X96317195Y-80978978D01*
X96347622Y-81022480D01*
X96388239Y-81056138D01*
X96435536Y-81076299D01*
X96491604Y-81083297D01*
X96545665Y-81076330D01*
X96592721Y-81055969D01*
X96634577Y-81021473D01*
X96666318Y-80977189D01*
X96685683Y-80925241D01*
X96692463Y-80863478D01*
X96685609Y-80800330D01*
X96666181Y-80748126D01*
X96634577Y-80704476D01*
X96592793Y-80670586D01*
X96545734Y-80650531D01*
X96491604Y-80643660D01*
X96433326Y-80650534D01*
X96385620Y-80670034D01*
X96346065Y-80702003D01*
X96316856Y-80743909D01*
X96298410Y-80796711D01*
X96291752Y-80863478D01*
X96133137Y-80863478D01*
X96138365Y-80795503D01*
X96153944Y-80733556D01*
X96179095Y-80678831D01*
X95975213Y-80678831D01*
X95975213Y-80514699D01*
X96291752Y-80563151D01*
X96352785Y-80536496D01*
X96419033Y-80520264D01*
X96491604Y-80514699D01*
X96567028Y-80521078D01*
G37*
G36*
X94768592Y-81605000D02*
G01*
X94928419Y-81605000D01*
X94928419Y-80924386D01*
X94934656Y-80830319D01*
X94950804Y-80764243D01*
X94974031Y-80719131D01*
X95008930Y-80684570D01*
X95055291Y-80663154D01*
X95116913Y-80655383D01*
X95184387Y-80664701D01*
X95257704Y-80694593D01*
X95339350Y-80749790D01*
X95431529Y-80837100D01*
X95431529Y-81605000D01*
X95591447Y-81605000D01*
X95591447Y-80157128D01*
X95431529Y-80157128D01*
X95431529Y-80696416D01*
X95338648Y-80612590D01*
X95248281Y-80556922D01*
X95158989Y-80525105D01*
X95068828Y-80514699D01*
X94987395Y-80522443D01*
X94922390Y-80543929D01*
X94870290Y-80577895D01*
X94828807Y-80624974D01*
X94797186Y-80687599D01*
X94776311Y-80769705D01*
X94768592Y-80876393D01*
X94768592Y-81605000D01*
G37*
G36*
X94010911Y-80524450D02*
G01*
X94099165Y-80552635D01*
X94177662Y-80598967D01*
X94248080Y-80664909D01*
X94303359Y-80743057D01*
X94343992Y-80834441D01*
X94369617Y-80941553D01*
X94378689Y-81067543D01*
X94368692Y-81195313D01*
X94340380Y-81304017D01*
X94295228Y-81396989D01*
X94233243Y-81476772D01*
X94155853Y-81542356D01*
X94067712Y-81589303D01*
X93966714Y-81618309D01*
X93849934Y-81628447D01*
X93725581Y-81620786D01*
X93616332Y-81598905D01*
X93520023Y-81563967D01*
X93547684Y-81435006D01*
X93651825Y-81464784D01*
X93751664Y-81482111D01*
X93847919Y-81487763D01*
X93921723Y-81480425D01*
X93988283Y-81458959D01*
X94049230Y-81423222D01*
X94105656Y-81371809D01*
X94150919Y-81311025D01*
X94183484Y-81242722D01*
X94203610Y-81165481D01*
X94210620Y-81077435D01*
X93477983Y-81077435D01*
X93477983Y-81027426D01*
X93483810Y-80948475D01*
X93652189Y-80948475D01*
X94200362Y-80948475D01*
X94185566Y-80864731D01*
X94155274Y-80795004D01*
X94109686Y-80736533D01*
X94051135Y-80691713D01*
X93983563Y-80664741D01*
X93904248Y-80655383D01*
X93843537Y-80664343D01*
X93786097Y-80691642D01*
X93730041Y-80740105D01*
X93687045Y-80800392D01*
X93661147Y-80869028D01*
X93652189Y-80948475D01*
X93483810Y-80948475D01*
X93486541Y-80911472D01*
X93510776Y-80812490D01*
X93549332Y-80727628D01*
X93601997Y-80654651D01*
X93668710Y-80592694D01*
X93741323Y-80549566D01*
X93821196Y-80523600D01*
X93910384Y-80514699D01*
X94010911Y-80524450D01*
G37*
G36*
X108185860Y-84125000D02*
G01*
X107893776Y-84125000D01*
X107786559Y-84117040D01*
X107689999Y-84093971D01*
X107602346Y-84056377D01*
X107522210Y-84003985D01*
X107448643Y-83935681D01*
X107388865Y-83858088D01*
X107341102Y-83768009D01*
X107305484Y-83663553D01*
X107282887Y-83542345D01*
X107274895Y-83401613D01*
X107453223Y-83401613D01*
X107461833Y-83538347D01*
X107485851Y-83652179D01*
X107523269Y-83746860D01*
X107573115Y-83825497D01*
X107638560Y-83892515D01*
X107713263Y-83939627D01*
X107799076Y-83968420D01*
X107898905Y-83978454D01*
X108017790Y-83978454D01*
X108017790Y-82823674D01*
X107898905Y-82823674D01*
X107799715Y-82833762D01*
X107714178Y-82862766D01*
X107639429Y-82910338D01*
X107573665Y-82978188D01*
X107523455Y-83057594D01*
X107485873Y-83152556D01*
X107461822Y-83266036D01*
X107453223Y-83401613D01*
X107274895Y-83401613D01*
X107282677Y-83264204D01*
X107304774Y-83144682D01*
X107339771Y-83040578D01*
X107386900Y-82949772D01*
X107446079Y-82870568D01*
X107518635Y-82801242D01*
X107599061Y-82747808D01*
X107688453Y-82709233D01*
X107788425Y-82685402D01*
X107901011Y-82677128D01*
X108185860Y-82677128D01*
X108185860Y-84125000D01*
G37*
G36*
X106203554Y-82847121D02*
G01*
X106331985Y-82811451D01*
X106448469Y-82800226D01*
X106534140Y-82807419D01*
X106604371Y-82827507D01*
X106662151Y-82859211D01*
X106707797Y-82903815D01*
X106735028Y-82958610D01*
X106744583Y-83026914D01*
X106733831Y-83082961D01*
X106699626Y-83138367D01*
X106634967Y-83195535D01*
X106528428Y-83255159D01*
X106316852Y-83357558D01*
X106266156Y-83390485D01*
X106211797Y-83436235D01*
X106163901Y-83490512D01*
X106126251Y-83554112D01*
X106102245Y-83624990D01*
X106093920Y-83706612D01*
X106103509Y-83809502D01*
X106130713Y-83896184D01*
X106174546Y-83969854D01*
X106235886Y-84032676D01*
X106309817Y-84083226D01*
X106389376Y-84119132D01*
X106475728Y-84140966D01*
X106570376Y-84148447D01*
X106692770Y-84139499D01*
X106800969Y-84113781D01*
X106897265Y-84072243D01*
X106862460Y-83925697D01*
X106750033Y-83970380D01*
X106655052Y-83994526D01*
X106574498Y-84001901D01*
X106481479Y-83993000D01*
X106406041Y-83968125D01*
X106344513Y-83928537D01*
X106296943Y-83874386D01*
X106268060Y-83808293D01*
X106257868Y-83726578D01*
X106264383Y-83665284D01*
X106283202Y-83612078D01*
X106314288Y-83565195D01*
X106355922Y-83525710D01*
X106422570Y-83480684D01*
X106522291Y-83429365D01*
X106723608Y-83331729D01*
X106767901Y-83301682D01*
X106814283Y-83259830D01*
X106854383Y-83210847D01*
X106883984Y-83156699D01*
X106902275Y-83097605D01*
X106908531Y-83032226D01*
X106899958Y-82945424D01*
X106875498Y-82871690D01*
X106835730Y-82808354D01*
X106779479Y-82753698D01*
X106712777Y-82711054D01*
X106637163Y-82679920D01*
X106551076Y-82660485D01*
X106452590Y-82653681D01*
X106309222Y-82665300D01*
X106165635Y-82700575D01*
X106203554Y-82847121D01*
G37*
G36*
X105620027Y-84125000D02*
G01*
X105451958Y-84125000D01*
X105451958Y-83474337D01*
X105245969Y-83474337D01*
X105145710Y-83466812D01*
X105059370Y-83445415D01*
X104984617Y-83411203D01*
X104919631Y-83364244D01*
X104865591Y-83305083D01*
X104827131Y-83237495D01*
X104803438Y-83159807D01*
X104796100Y-83079854D01*
X104973486Y-83079854D01*
X104982061Y-83157056D01*
X105005678Y-83216399D01*
X105043265Y-83262143D01*
X105096592Y-83296505D01*
X105169957Y-83319264D01*
X105269600Y-83327791D01*
X105451958Y-83327791D01*
X105451958Y-82823674D01*
X105261357Y-82823674D01*
X105179318Y-82832075D01*
X105111141Y-82855869D01*
X105053903Y-82894382D01*
X105009415Y-82946117D01*
X104982761Y-83006984D01*
X104973486Y-83079854D01*
X104796100Y-83079854D01*
X104795158Y-83069596D01*
X104803536Y-82979904D01*
X104827399Y-82903629D01*
X104866002Y-82838134D01*
X104920180Y-82781633D01*
X104985022Y-82737462D01*
X105060715Y-82704929D01*
X105149272Y-82684395D01*
X105253205Y-82677128D01*
X105620027Y-82677128D01*
X105620027Y-84125000D01*
G37*
G36*
X102319543Y-83666495D02*
G01*
X102327330Y-83794748D01*
X102348446Y-83895181D01*
X102380300Y-83973093D01*
X102421484Y-84032859D01*
X102476038Y-84081347D01*
X102543799Y-84117198D01*
X102627642Y-84140160D01*
X102731428Y-84148447D01*
X102833618Y-84140320D01*
X102917086Y-84117703D01*
X102985397Y-84082226D01*
X103041213Y-84034073D01*
X103086058Y-83971964D01*
X103120162Y-83893295D01*
X103142431Y-83794366D01*
X103150549Y-83670616D01*
X103150549Y-82677128D01*
X102982479Y-82677128D01*
X102982479Y-83655870D01*
X102973270Y-83775728D01*
X102948958Y-83862552D01*
X102912947Y-83924247D01*
X102866187Y-83966601D01*
X102807006Y-83992598D01*
X102731428Y-84001901D01*
X102651529Y-83991898D01*
X102591543Y-83964364D01*
X102546506Y-83920019D01*
X102516519Y-83861932D01*
X102495614Y-83776325D01*
X102487521Y-83653855D01*
X102487521Y-82677128D01*
X102319543Y-82677128D01*
X102319543Y-83666495D01*
G37*
G36*
X101040199Y-84125000D02*
G01*
X101226679Y-84125000D01*
X101745176Y-82981851D01*
X101745176Y-84125000D01*
X101913245Y-84125000D01*
X101913245Y-82677128D01*
X101725667Y-82677128D01*
X101205155Y-83810018D01*
X101205155Y-82677128D01*
X101040199Y-82677128D01*
X101040199Y-84125000D01*
G37*
G36*
X100315209Y-82661849D02*
G01*
X100397862Y-82685237D01*
X100470190Y-82723099D01*
X100533880Y-82775959D01*
X100589846Y-82845564D01*
X100641315Y-82942327D01*
X100681142Y-83063716D01*
X100707334Y-83214844D01*
X100716883Y-83401613D01*
X100707290Y-83588369D01*
X100680984Y-83739395D01*
X100640988Y-83860629D01*
X100589296Y-83957205D01*
X100533140Y-84026614D01*
X100469389Y-84079310D01*
X100397144Y-84117035D01*
X100314745Y-84140320D01*
X100219910Y-84148447D01*
X100124154Y-84140267D01*
X100041192Y-84116861D01*
X99968681Y-84078995D01*
X99904915Y-84026168D01*
X99848966Y-83956655D01*
X99797463Y-83859833D01*
X99757639Y-83738552D01*
X99731466Y-83587758D01*
X99721929Y-83401613D01*
X99900257Y-83401613D01*
X99910218Y-83594822D01*
X99936518Y-83737840D01*
X99974750Y-83841251D01*
X100022081Y-83913963D01*
X100077600Y-83962788D01*
X100142522Y-83991826D01*
X100220001Y-84001901D01*
X100293511Y-83992333D01*
X100356077Y-83964590D01*
X100410427Y-83917824D01*
X100457680Y-83848303D01*
X100490017Y-83772087D01*
X100515491Y-83675152D01*
X100532434Y-83553250D01*
X100538647Y-83401613D01*
X100532449Y-83251833D01*
X100515490Y-83130517D01*
X100489881Y-83033209D01*
X100457222Y-82955931D01*
X100409588Y-82885227D01*
X100355151Y-82837849D01*
X100292849Y-82809854D01*
X100220001Y-82800226D01*
X100142560Y-82810309D01*
X100077656Y-82839374D01*
X100022137Y-82888260D01*
X99974794Y-82961084D01*
X99936542Y-83064681D01*
X99910226Y-83207987D01*
X99900257Y-83401613D01*
X99721929Y-83401613D01*
X99731534Y-83214233D01*
X99757860Y-83062873D01*
X99797858Y-82941531D01*
X99849515Y-82845014D01*
X99905665Y-82775621D01*
X99969497Y-82722907D01*
X100041926Y-82685147D01*
X100124629Y-82661824D01*
X100219910Y-82653681D01*
X100315209Y-82661849D01*
G37*
G36*
X98664968Y-83626744D02*
G01*
X99273591Y-83626744D01*
X99273591Y-83468475D01*
X98664968Y-83468475D01*
X98664968Y-83626744D01*
G37*
G36*
X97391761Y-82847121D02*
G01*
X97520192Y-82811451D01*
X97636675Y-82800226D01*
X97722346Y-82807419D01*
X97792578Y-82827507D01*
X97850357Y-82859211D01*
X97896004Y-82903815D01*
X97923234Y-82958610D01*
X97932789Y-83026914D01*
X97922038Y-83082961D01*
X97887833Y-83138367D01*
X97823174Y-83195535D01*
X97716634Y-83255159D01*
X97505059Y-83357558D01*
X97454362Y-83390485D01*
X97400004Y-83436235D01*
X97352107Y-83490512D01*
X97314458Y-83554112D01*
X97290452Y-83624990D01*
X97282126Y-83706612D01*
X97291716Y-83809502D01*
X97318920Y-83896184D01*
X97362753Y-83969854D01*
X97424092Y-84032676D01*
X97498024Y-84083226D01*
X97577582Y-84119132D01*
X97663935Y-84140966D01*
X97758583Y-84148447D01*
X97880976Y-84139499D01*
X97989176Y-84113781D01*
X98085471Y-84072243D01*
X98050667Y-83925697D01*
X97938239Y-83970380D01*
X97843259Y-83994526D01*
X97762704Y-84001901D01*
X97669685Y-83993000D01*
X97594247Y-83968125D01*
X97532719Y-83928537D01*
X97485150Y-83874386D01*
X97456267Y-83808293D01*
X97446074Y-83726578D01*
X97452590Y-83665284D01*
X97471408Y-83612078D01*
X97502494Y-83565195D01*
X97544128Y-83525710D01*
X97610777Y-83480684D01*
X97710498Y-83429365D01*
X97911815Y-83331729D01*
X97956108Y-83301682D01*
X98002490Y-83259830D01*
X98042589Y-83210847D01*
X98072191Y-83156699D01*
X98090481Y-83097605D01*
X98096737Y-83032226D01*
X98088165Y-82945424D01*
X98063704Y-82871690D01*
X98023936Y-82808354D01*
X97967685Y-82753698D01*
X97900984Y-82711054D01*
X97825369Y-82679920D01*
X97739283Y-82660485D01*
X97640797Y-82653681D01*
X97497429Y-82665300D01*
X97353842Y-82700575D01*
X97391761Y-82847121D01*
G37*
G36*
X96025405Y-84125000D02*
G01*
X96193383Y-84125000D01*
X96193383Y-83403995D01*
X96688341Y-83403995D01*
X96688341Y-84125000D01*
X96856411Y-84125000D01*
X96856411Y-82677128D01*
X96688341Y-82677128D01*
X96688341Y-83257449D01*
X96193383Y-83257449D01*
X96193383Y-82677128D01*
X96025405Y-82677128D01*
X96025405Y-84125000D01*
G37*
G36*
X94860825Y-84125000D02*
G01*
X95517624Y-84125000D01*
X95517624Y-83978454D01*
X95268680Y-83978454D01*
X95268680Y-82823674D01*
X95517624Y-82823674D01*
X95517624Y-82677128D01*
X94860825Y-82677128D01*
X94860825Y-82823674D01*
X95100610Y-82823674D01*
X95100610Y-83978454D01*
X94860825Y-83978454D01*
X94860825Y-84125000D01*
G37*
G36*
X93535410Y-84125000D02*
G01*
X94290579Y-84125000D01*
X94290579Y-82677128D01*
X93541547Y-82677128D01*
X93541547Y-82823674D01*
X94122509Y-82823674D01*
X94122509Y-83275034D01*
X93564078Y-83275034D01*
X93564078Y-83421580D01*
X94122509Y-83421580D01*
X94122509Y-83978454D01*
X93535410Y-83978454D01*
X93535410Y-84125000D01*
G37*
G36*
X92244801Y-84125000D02*
G01*
X93031751Y-84125000D01*
X93031751Y-82677128D01*
X92863681Y-82677128D01*
X92863681Y-83978454D01*
X92244801Y-83978454D01*
X92244801Y-84125000D01*
G37*
G36*
X91821100Y-84125000D02*
G01*
X91529016Y-84125000D01*
X91421799Y-84117040D01*
X91325240Y-84093971D01*
X91237587Y-84056377D01*
X91157450Y-84003985D01*
X91083884Y-83935681D01*
X91024106Y-83858088D01*
X90976343Y-83768009D01*
X90940724Y-83663553D01*
X90918128Y-83542345D01*
X90910136Y-83401613D01*
X91088463Y-83401613D01*
X91097073Y-83538347D01*
X91121091Y-83652179D01*
X91158510Y-83746860D01*
X91208356Y-83825497D01*
X91273801Y-83892515D01*
X91348503Y-83939627D01*
X91434317Y-83968420D01*
X91534146Y-83978454D01*
X91653031Y-83978454D01*
X91653031Y-82823674D01*
X91534146Y-82823674D01*
X91434956Y-82833762D01*
X91349418Y-82862766D01*
X91274670Y-82910338D01*
X91208906Y-82978188D01*
X91158695Y-83057594D01*
X91121114Y-83152556D01*
X91097063Y-83266036D01*
X91088463Y-83401613D01*
X90910136Y-83401613D01*
X90917917Y-83264204D01*
X90940015Y-83144682D01*
X90975012Y-83040578D01*
X91022140Y-82949772D01*
X91081319Y-82870568D01*
X91153875Y-82801242D01*
X91234301Y-82747808D01*
X91323694Y-82709233D01*
X91423666Y-82685402D01*
X91536252Y-82677128D01*
X91821100Y-82677128D01*
X91821100Y-84125000D01*
G37*
G36*
X107200065Y-85197128D02*
G01*
X107671484Y-86645000D01*
X107873351Y-86645000D01*
X108345686Y-85197128D01*
X108169465Y-85197128D01*
X107772875Y-86440660D01*
X107374271Y-85197128D01*
X107200065Y-85197128D01*
G37*
G36*
X106599187Y-85564450D02*
G01*
X106687441Y-85592635D01*
X106765938Y-85638967D01*
X106836357Y-85704909D01*
X106891636Y-85783057D01*
X106932268Y-85874441D01*
X106957894Y-85981553D01*
X106966966Y-86107543D01*
X106956968Y-86235313D01*
X106928657Y-86344017D01*
X106883504Y-86436989D01*
X106821519Y-86516772D01*
X106744129Y-86582356D01*
X106655988Y-86629303D01*
X106554990Y-86658309D01*
X106438210Y-86668447D01*
X106313858Y-86660786D01*
X106204608Y-86638905D01*
X106108299Y-86603967D01*
X106135960Y-86475006D01*
X106240101Y-86504784D01*
X106339940Y-86522111D01*
X106436195Y-86527763D01*
X106510000Y-86520425D01*
X106576559Y-86498959D01*
X106637506Y-86463222D01*
X106693933Y-86411809D01*
X106739195Y-86351025D01*
X106771760Y-86282722D01*
X106791886Y-86205481D01*
X106798896Y-86117435D01*
X106066259Y-86117435D01*
X106066259Y-86067426D01*
X106072087Y-85988475D01*
X106240465Y-85988475D01*
X106788638Y-85988475D01*
X106773842Y-85904731D01*
X106743551Y-85835004D01*
X106697963Y-85776533D01*
X106639412Y-85731713D01*
X106571839Y-85704741D01*
X106492524Y-85695383D01*
X106431813Y-85704343D01*
X106374373Y-85731642D01*
X106318318Y-85780105D01*
X106275321Y-85840392D01*
X106249423Y-85909028D01*
X106240465Y-85988475D01*
X106072087Y-85988475D01*
X106074818Y-85951472D01*
X106099052Y-85852490D01*
X106137608Y-85767628D01*
X106190273Y-85694651D01*
X106256986Y-85632694D01*
X106329599Y-85589566D01*
X106409473Y-85563600D01*
X106498661Y-85554699D01*
X106599187Y-85564450D01*
G37*
G36*
X104822819Y-85607456D02*
G01*
X104887390Y-85759863D01*
X104990385Y-85728065D01*
X105069748Y-85718831D01*
X105138819Y-85728450D01*
X105208142Y-85758306D01*
X105271723Y-85804982D01*
X105332615Y-85871055D01*
X105381941Y-85938225D01*
X105389493Y-85953304D01*
X105389493Y-86645000D01*
X105548312Y-86645000D01*
X105548312Y-85578147D01*
X105389493Y-85578147D01*
X105389493Y-85795034D01*
X105330120Y-85701793D01*
X105267886Y-85635016D01*
X105202571Y-85589972D01*
X105133069Y-85563583D01*
X105057475Y-85554699D01*
X104978003Y-85560512D01*
X104900040Y-85577969D01*
X104822819Y-85607456D01*
G37*
G36*
X103692127Y-85742278D02*
G01*
X103825331Y-85706585D01*
X103945193Y-85695383D01*
X104031380Y-85700691D01*
X104098807Y-85715077D01*
X104151090Y-85736782D01*
X104194970Y-85769185D01*
X104218997Y-85805389D01*
X104226927Y-85847150D01*
X104218419Y-85887711D01*
X104192123Y-85923537D01*
X104147250Y-85952257D01*
X104052813Y-85987009D01*
X103900039Y-86032896D01*
X103800412Y-86067974D01*
X103727939Y-86104979D01*
X103668747Y-86151466D01*
X103628105Y-86204721D01*
X103603392Y-86266789D01*
X103594766Y-86340642D01*
X103602938Y-86413196D01*
X103626585Y-86476023D01*
X103665878Y-86531352D01*
X103722902Y-86580428D01*
X103812229Y-86627843D01*
X103919444Y-86657777D01*
X104048691Y-86668447D01*
X104178776Y-86660445D01*
X104285736Y-86638266D01*
X104373473Y-86603967D01*
X104342698Y-86463283D01*
X104251394Y-86499008D01*
X104155804Y-86520498D01*
X104054828Y-86527763D01*
X103966963Y-86521784D01*
X103895735Y-86505277D01*
X103838123Y-86479769D01*
X103790006Y-86442480D01*
X103763415Y-86400746D01*
X103754592Y-86352549D01*
X103764696Y-86302613D01*
X103796083Y-86257111D01*
X103827587Y-86233417D01*
X103888087Y-86203884D01*
X103991263Y-86167535D01*
X104173713Y-86110382D01*
X104229941Y-86086906D01*
X104282248Y-86054603D01*
X104326824Y-86013955D01*
X104358635Y-85967042D01*
X104378054Y-85913760D01*
X104384739Y-85853012D01*
X104377111Y-85787549D01*
X104354959Y-85730605D01*
X104317935Y-85680155D01*
X104263838Y-85635116D01*
X104179521Y-85592314D01*
X104074283Y-85564710D01*
X103943087Y-85554699D01*
X103811376Y-85565693D01*
X103656223Y-85601594D01*
X103692127Y-85742278D01*
G37*
G36*
X102665849Y-85173681D02*
G01*
X102624094Y-85181631D01*
X102589004Y-85205463D01*
X102565139Y-85240450D01*
X102557222Y-85281575D01*
X102565149Y-85324470D01*
X102588546Y-85359336D01*
X102623278Y-85382675D01*
X102665849Y-85390568D01*
X102705023Y-85382563D01*
X102740221Y-85357779D01*
X102764520Y-85322050D01*
X102772461Y-85281575D01*
X102764507Y-85241272D01*
X102740221Y-85206012D01*
X102705058Y-85181589D01*
X102665849Y-85173681D01*
G37*
G36*
X102587997Y-86645000D02*
G01*
X102747823Y-86645000D01*
X102747823Y-85718831D01*
X103062438Y-85718831D01*
X103062438Y-85578147D01*
X102587997Y-85578147D01*
X102587997Y-86645000D01*
G37*
G36*
X101584236Y-85564802D02*
G01*
X101676657Y-85593714D01*
X101756957Y-85640712D01*
X101827150Y-85706924D01*
X101882365Y-85786040D01*
X101922853Y-85877846D01*
X101948313Y-85984695D01*
X101957301Y-86109558D01*
X101948336Y-86235476D01*
X101922954Y-86343167D01*
X101882626Y-86435620D01*
X101827699Y-86515215D01*
X101757711Y-86581840D01*
X101677417Y-86629143D01*
X101584767Y-86658262D01*
X101476722Y-86668447D01*
X101369301Y-86658265D01*
X101276914Y-86629113D01*
X101196580Y-86581676D01*
X101126295Y-86514757D01*
X101071059Y-86434851D01*
X101030567Y-86342333D01*
X101005120Y-86234877D01*
X100996328Y-86112123D01*
X101163114Y-86112123D01*
X101173025Y-86224782D01*
X101201354Y-86321904D01*
X101247195Y-86406405D01*
X101293923Y-86460308D01*
X101346787Y-86497537D01*
X101407004Y-86519991D01*
X101476722Y-86527763D01*
X101547075Y-86520032D01*
X101607463Y-86497768D01*
X101660097Y-86460998D01*
X101706250Y-86407962D01*
X101751300Y-86324412D01*
X101779351Y-86226869D01*
X101789231Y-86112123D01*
X101779205Y-85991130D01*
X101751255Y-85892264D01*
X101707257Y-85811246D01*
X101661832Y-85760313D01*
X101609342Y-85724705D01*
X101548408Y-85702973D01*
X101476722Y-85695383D01*
X101405623Y-85703014D01*
X101344825Y-85724929D01*
X101292090Y-85760971D01*
X101246096Y-85812711D01*
X101201361Y-85894736D01*
X101173162Y-85993245D01*
X101163114Y-86112123D01*
X100996328Y-86112123D01*
X100996144Y-86109558D01*
X101005109Y-85985310D01*
X101030533Y-85878713D01*
X101071018Y-85786868D01*
X101126295Y-85707473D01*
X101196522Y-85640996D01*
X101276835Y-85593834D01*
X101369244Y-85564832D01*
X101476722Y-85554699D01*
X101584236Y-85564802D01*
G37*
G36*
X99803903Y-86645000D02*
G01*
X99963729Y-86645000D01*
X99963729Y-85964386D01*
X99969967Y-85870319D01*
X99986115Y-85804243D01*
X100009342Y-85759131D01*
X100044240Y-85724570D01*
X100090601Y-85703154D01*
X100152224Y-85695383D01*
X100219697Y-85704701D01*
X100293014Y-85734593D01*
X100374661Y-85789790D01*
X100466839Y-85877100D01*
X100466839Y-86645000D01*
X100626757Y-86645000D01*
X100626757Y-85578147D01*
X100466839Y-85578147D01*
X100466839Y-85736416D01*
X100373959Y-85652590D01*
X100283592Y-85596922D01*
X100194300Y-85565105D01*
X100104139Y-85554699D01*
X100022705Y-85562443D01*
X99957701Y-85583929D01*
X99905601Y-85617895D01*
X99864118Y-85664974D01*
X99832497Y-85727599D01*
X99811621Y-85809705D01*
X99803903Y-85916393D01*
X99803903Y-86645000D01*
G37*
G36*
X97286248Y-86645000D02*
G01*
X98046545Y-86645000D01*
X98046545Y-86498454D01*
X97740173Y-86498454D01*
X97740173Y-85376188D01*
X98029143Y-85519528D01*
X98029143Y-85346330D01*
X97716634Y-85191266D01*
X97572103Y-85191266D01*
X97572103Y-86498454D01*
X97286248Y-86498454D01*
X97286248Y-86645000D01*
G37*
G36*
X96447548Y-86410526D02*
G01*
X96397317Y-86419710D01*
X96356415Y-86446796D01*
X96328807Y-86487167D01*
X96319504Y-86536464D01*
X96328889Y-86587026D01*
X96356965Y-86629704D01*
X96398363Y-86658790D01*
X96447548Y-86668447D01*
X96495867Y-86658819D01*
X96536758Y-86629704D01*
X96564334Y-86587075D01*
X96573578Y-86536464D01*
X96564333Y-86486350D01*
X96537216Y-86446338D01*
X96496869Y-86419580D01*
X96447548Y-86410526D01*
G37*
G36*
X95229919Y-85770765D02*
G01*
X95265522Y-85785403D01*
X95296890Y-85809964D01*
X95320972Y-85841642D01*
X95335408Y-85877817D01*
X95340396Y-85919873D01*
X95335361Y-85962639D01*
X95320641Y-86000420D01*
X95295882Y-86034453D01*
X95263680Y-86061310D01*
X95228380Y-86076966D01*
X95188721Y-86082264D01*
X95148441Y-86076949D01*
X95112688Y-86061273D01*
X95080185Y-86034453D01*
X95055045Y-86000375D01*
X95040128Y-85962598D01*
X95035031Y-85919873D01*
X95040087Y-85878543D01*
X95054827Y-85842496D01*
X95079636Y-85810422D01*
X95111600Y-85785555D01*
X95147524Y-85770789D01*
X95188721Y-85765725D01*
X95229919Y-85770765D01*
G37*
G36*
X95276212Y-85182116D02*
G01*
X95355640Y-85206324D01*
X95425254Y-85245741D01*
X95486691Y-85301267D01*
X95540705Y-85375181D01*
X95590139Y-85476573D01*
X95627856Y-85598847D01*
X95652278Y-85745763D01*
X95661056Y-85921613D01*
X95651866Y-86103170D01*
X95626497Y-86252196D01*
X95587652Y-86373827D01*
X95537133Y-86472534D01*
X95481947Y-86544570D01*
X95420183Y-86598637D01*
X95351132Y-86636917D01*
X95273312Y-86660327D01*
X95184599Y-86668447D01*
X95092531Y-86659990D01*
X95012860Y-86635744D01*
X94943180Y-86596302D01*
X94881827Y-86540791D01*
X94828035Y-86466946D01*
X94778770Y-86365564D01*
X94741197Y-86243446D01*
X94716879Y-86096876D01*
X94708142Y-85921613D01*
X94708197Y-85920514D01*
X94886470Y-85920514D01*
X94892381Y-86085133D01*
X94908176Y-86211852D01*
X94931299Y-86307513D01*
X94959743Y-86378195D01*
X95002804Y-86442820D01*
X95053585Y-86486590D01*
X95113272Y-86512788D01*
X95184691Y-86521901D01*
X95255458Y-86512770D01*
X95314774Y-86486471D01*
X95365422Y-86442415D01*
X95408539Y-86377187D01*
X95437049Y-86306000D01*
X95460169Y-86210206D01*
X95475926Y-86083918D01*
X95481812Y-85920514D01*
X95475935Y-85759576D01*
X95460152Y-85634301D01*
X95436897Y-85538458D01*
X95408081Y-85466497D01*
X95364618Y-85400376D01*
X95313895Y-85355867D01*
X95254828Y-85329393D01*
X95184691Y-85320226D01*
X95113203Y-85329294D01*
X95053496Y-85355346D01*
X95002745Y-85398821D01*
X94959743Y-85462925D01*
X94931350Y-85533068D01*
X94908225Y-85628434D01*
X94892401Y-85755246D01*
X94886470Y-85920514D01*
X94708197Y-85920514D01*
X94717297Y-85739998D01*
X94742571Y-85590845D01*
X94781274Y-85469044D01*
X94831607Y-85370143D01*
X94886597Y-85297945D01*
X94948294Y-85243738D01*
X95017414Y-85205339D01*
X95095463Y-85181838D01*
X95184599Y-85173681D01*
X95276212Y-85182116D01*
G37*
G36*
X107413912Y-65740000D02*
G01*
X107521807Y-65740000D01*
X107521807Y-64911528D01*
X107667314Y-65310132D01*
X107773194Y-65310132D01*
X107918701Y-64911528D01*
X107918701Y-65740000D01*
X108026657Y-65740000D01*
X108026657Y-64774752D01*
X107881149Y-64774752D01*
X107719949Y-65215793D01*
X107559359Y-64774752D01*
X107413912Y-64774752D01*
X107413912Y-65740000D01*
G37*
G36*
X106839026Y-64759120D02*
G01*
X106811189Y-64764421D01*
X106787796Y-64780308D01*
X106771886Y-64803633D01*
X106766608Y-64831050D01*
X106771892Y-64859646D01*
X106787491Y-64882890D01*
X106810645Y-64898450D01*
X106839026Y-64903712D01*
X106865142Y-64898375D01*
X106888607Y-64881852D01*
X106904807Y-64858033D01*
X106910101Y-64831050D01*
X106904798Y-64804181D01*
X106888607Y-64780675D01*
X106865165Y-64764392D01*
X106839026Y-64759120D01*
G37*
G36*
X106787124Y-65740000D02*
G01*
X106893675Y-65740000D01*
X106893675Y-65122554D01*
X107103419Y-65122554D01*
X107103419Y-65028764D01*
X106787124Y-65028764D01*
X106787124Y-65740000D01*
G37*
G36*
X105773028Y-65712644D02*
G01*
X105836200Y-65736294D01*
X105903994Y-65750705D01*
X105977276Y-65755631D01*
X106060207Y-65748750D01*
X106131194Y-65729176D01*
X106192392Y-65697742D01*
X106245394Y-65654209D01*
X106288328Y-65600621D01*
X106319360Y-65538918D01*
X106338683Y-65467537D01*
X106345472Y-65384382D01*
X106338644Y-65301267D01*
X106319204Y-65229913D01*
X106287969Y-65168217D01*
X106244722Y-65114616D01*
X106191361Y-65070849D01*
X106130514Y-65039411D01*
X106060729Y-65019944D01*
X105980024Y-65013133D01*
X105909052Y-65016669D01*
X105841106Y-65027129D01*
X105775776Y-65044396D01*
X105803803Y-65138185D01*
X105899047Y-65114200D01*
X105978619Y-65106922D01*
X106036369Y-65111975D01*
X106085668Y-65126355D01*
X106128099Y-65149520D01*
X106164793Y-65181782D01*
X106193880Y-65220922D01*
X106215213Y-65266863D01*
X106228661Y-65320913D01*
X106233426Y-65384748D01*
X106228754Y-65442458D01*
X106215249Y-65493870D01*
X106193230Y-65540094D01*
X106162412Y-65581974D01*
X106124242Y-65616877D01*
X106081373Y-65641536D01*
X106032851Y-65656609D01*
X105977276Y-65661842D01*
X105917706Y-65658080D01*
X105855938Y-65646540D01*
X105791468Y-65626671D01*
X105773028Y-65712644D01*
G37*
G36*
X104920132Y-65048304D02*
G01*
X104963180Y-65149909D01*
X105031843Y-65128710D01*
X105084752Y-65122554D01*
X105130799Y-65128966D01*
X105177014Y-65148871D01*
X105219401Y-65179988D01*
X105259996Y-65224036D01*
X105292880Y-65268817D01*
X105297915Y-65278869D01*
X105297915Y-65740000D01*
X105403794Y-65740000D01*
X105403794Y-65028764D01*
X105297915Y-65028764D01*
X105297915Y-65173356D01*
X105258333Y-65111195D01*
X105216843Y-65066677D01*
X105173300Y-65036648D01*
X105126966Y-65019055D01*
X105076569Y-65013133D01*
X105023588Y-65017008D01*
X104971612Y-65028646D01*
X104920132Y-65048304D01*
G37*
G36*
X104439513Y-65019868D02*
G01*
X104501127Y-65039143D01*
X104554661Y-65070474D01*
X104601456Y-65114616D01*
X104638266Y-65167360D01*
X104665258Y-65228564D01*
X104682232Y-65299797D01*
X104688223Y-65383039D01*
X104682247Y-65466984D01*
X104665325Y-65538778D01*
X104638440Y-65600413D01*
X104601822Y-65653476D01*
X104555163Y-65697893D01*
X104501634Y-65729428D01*
X104439868Y-65748841D01*
X104367838Y-65755631D01*
X104296224Y-65748843D01*
X104234632Y-65729408D01*
X104181076Y-65697784D01*
X104134219Y-65653171D01*
X104097395Y-65599900D01*
X104070401Y-65538222D01*
X104053436Y-65466585D01*
X104047574Y-65384748D01*
X104158766Y-65384748D01*
X104165373Y-65459855D01*
X104184259Y-65524603D01*
X104214820Y-65580936D01*
X104245972Y-65616872D01*
X104281214Y-65641691D01*
X104321359Y-65656661D01*
X104367838Y-65661842D01*
X104414740Y-65656688D01*
X104454998Y-65641845D01*
X104490088Y-65617332D01*
X104520856Y-65581974D01*
X104550890Y-65526274D01*
X104569591Y-65461246D01*
X104576177Y-65384748D01*
X104569493Y-65304086D01*
X104550860Y-65238176D01*
X104521528Y-65184164D01*
X104491244Y-65150209D01*
X104456251Y-65126470D01*
X104415628Y-65111982D01*
X104367838Y-65106922D01*
X104320438Y-65112009D01*
X104279906Y-65126619D01*
X104244750Y-65150647D01*
X104214087Y-65185141D01*
X104184264Y-65239824D01*
X104165464Y-65305496D01*
X104158766Y-65384748D01*
X104047574Y-65384748D01*
X104047452Y-65383039D01*
X104053429Y-65300206D01*
X104070378Y-65229142D01*
X104097368Y-65167912D01*
X104134219Y-65114982D01*
X104181038Y-65070664D01*
X104234580Y-65039222D01*
X104296185Y-65019888D01*
X104367838Y-65013133D01*
X104439513Y-65019868D01*
G37*
G36*
X103536456Y-65020642D02*
G01*
X103598595Y-65043236D01*
X103653448Y-65078640D01*
X103694582Y-65122554D01*
X103694582Y-65028764D01*
X103801194Y-65028764D01*
X103801194Y-66021367D01*
X103694582Y-66021367D01*
X103694582Y-65634487D01*
X103669685Y-65668487D01*
X103639466Y-65697713D01*
X103603419Y-65722475D01*
X103563833Y-65740944D01*
X103522695Y-65751935D01*
X103479404Y-65755631D01*
X103420137Y-65748794D01*
X103368494Y-65728935D01*
X103322672Y-65695767D01*
X103281690Y-65647370D01*
X103250550Y-65592017D01*
X103227636Y-65529232D01*
X103213270Y-65457796D01*
X103208671Y-65383344D01*
X103319547Y-65383344D01*
X103325678Y-65460985D01*
X103342975Y-65526448D01*
X103370472Y-65581913D01*
X103399174Y-65617946D01*
X103431037Y-65642377D01*
X103466698Y-65656875D01*
X103507431Y-65661842D01*
X103542505Y-65657491D01*
X103577516Y-65644101D01*
X103613311Y-65620443D01*
X103659034Y-65574211D01*
X103694582Y-65517250D01*
X103694582Y-65228066D01*
X103650253Y-65172080D01*
X103604215Y-65135192D01*
X103555734Y-65113988D01*
X103503279Y-65106922D01*
X103462068Y-65111812D01*
X103426594Y-65125968D01*
X103395500Y-65149598D01*
X103368091Y-65184164D01*
X103342141Y-65237767D01*
X103325526Y-65303264D01*
X103319547Y-65383344D01*
X103208671Y-65383344D01*
X103208234Y-65376261D01*
X103213142Y-65294982D01*
X103227005Y-65225271D01*
X103248871Y-65165408D01*
X103278270Y-65113944D01*
X103317178Y-65069290D01*
X103361469Y-65038350D01*
X103412202Y-65019629D01*
X103471222Y-65013133D01*
X103536456Y-65020642D01*
G37*
G36*
X102402477Y-65048304D02*
G01*
X102445524Y-65149909D01*
X102514188Y-65128710D01*
X102567096Y-65122554D01*
X102613143Y-65128966D01*
X102659359Y-65148871D01*
X102701746Y-65179988D01*
X102742341Y-65224036D01*
X102775225Y-65268817D01*
X102780259Y-65278869D01*
X102780259Y-65740000D01*
X102886139Y-65740000D01*
X102886139Y-65028764D01*
X102780259Y-65028764D01*
X102780259Y-65173356D01*
X102740678Y-65111195D01*
X102699188Y-65066677D01*
X102655645Y-65036648D01*
X102609310Y-65019055D01*
X102558914Y-65013133D01*
X102505933Y-65017008D01*
X102453957Y-65028646D01*
X102402477Y-65048304D01*
G37*
G36*
X101921858Y-65019868D02*
G01*
X101983472Y-65039143D01*
X102037005Y-65070474D01*
X102083801Y-65114616D01*
X102120611Y-65167360D01*
X102147603Y-65228564D01*
X102164576Y-65299797D01*
X102170568Y-65383039D01*
X102164591Y-65466984D01*
X102147670Y-65538778D01*
X102120785Y-65600413D01*
X102084167Y-65653476D01*
X102037508Y-65697893D01*
X101983979Y-65729428D01*
X101922212Y-65748841D01*
X101850183Y-65755631D01*
X101778569Y-65748843D01*
X101716977Y-65729408D01*
X101663421Y-65697784D01*
X101616564Y-65653171D01*
X101579740Y-65599900D01*
X101552746Y-65538222D01*
X101535781Y-65466585D01*
X101529919Y-65384748D01*
X101641111Y-65384748D01*
X101647718Y-65459855D01*
X101666603Y-65524603D01*
X101697164Y-65580936D01*
X101728317Y-65616872D01*
X101763559Y-65641691D01*
X101803704Y-65656661D01*
X101850183Y-65661842D01*
X101897084Y-65656688D01*
X101937343Y-65641845D01*
X101972433Y-65617332D01*
X102003201Y-65581974D01*
X102033235Y-65526274D01*
X102051935Y-65461246D01*
X102058522Y-65384748D01*
X102051837Y-65304086D01*
X102033205Y-65238176D01*
X102003872Y-65184164D01*
X101973589Y-65150209D01*
X101938596Y-65126470D01*
X101897973Y-65111982D01*
X101850183Y-65106922D01*
X101802783Y-65112009D01*
X101762251Y-65126619D01*
X101727094Y-65150647D01*
X101696432Y-65185141D01*
X101666608Y-65239824D01*
X101647809Y-65305496D01*
X101641111Y-65384748D01*
X101529919Y-65384748D01*
X101529797Y-65383039D01*
X101535773Y-65300206D01*
X101552723Y-65229142D01*
X101579713Y-65167912D01*
X101616564Y-65114982D01*
X101663383Y-65070664D01*
X101716924Y-65039222D01*
X101778530Y-65019888D01*
X101850183Y-65013133D01*
X101921858Y-65019868D01*
G37*
G36*
X100737717Y-65712644D02*
G01*
X100800889Y-65736294D01*
X100868683Y-65750705D01*
X100941965Y-65755631D01*
X101024896Y-65748750D01*
X101095883Y-65729176D01*
X101157082Y-65697742D01*
X101210083Y-65654209D01*
X101253017Y-65600621D01*
X101284049Y-65538918D01*
X101303373Y-65467537D01*
X101310162Y-65384382D01*
X101303334Y-65301267D01*
X101283894Y-65229913D01*
X101252659Y-65168217D01*
X101209411Y-65114616D01*
X101156051Y-65070849D01*
X101095204Y-65039411D01*
X101025418Y-65019944D01*
X100944713Y-65013133D01*
X100873741Y-65016669D01*
X100805795Y-65027129D01*
X100740465Y-65044396D01*
X100768492Y-65138185D01*
X100863736Y-65114200D01*
X100943309Y-65106922D01*
X101001059Y-65111975D01*
X101050357Y-65126355D01*
X101092789Y-65149520D01*
X101129483Y-65181782D01*
X101158570Y-65220922D01*
X101179902Y-65266863D01*
X101193350Y-65320913D01*
X101198115Y-65384748D01*
X101193444Y-65442458D01*
X101179939Y-65493870D01*
X101157919Y-65540094D01*
X101127102Y-65581974D01*
X101088932Y-65616877D01*
X101046063Y-65641536D01*
X100997541Y-65656609D01*
X100941965Y-65661842D01*
X100882396Y-65658080D01*
X100820627Y-65646540D01*
X100756158Y-65626671D01*
X100737717Y-65712644D01*
G37*
G36*
X100229849Y-65019633D02*
G01*
X100288684Y-65038423D01*
X100341016Y-65069311D01*
X100387962Y-65113272D01*
X100424814Y-65165371D01*
X100451902Y-65226294D01*
X100468986Y-65297702D01*
X100475034Y-65381695D01*
X100468369Y-65466875D01*
X100449495Y-65539344D01*
X100419393Y-65601326D01*
X100378070Y-65654515D01*
X100326477Y-65698237D01*
X100267716Y-65729535D01*
X100200384Y-65748872D01*
X100122531Y-65755631D01*
X100039629Y-65750524D01*
X99966796Y-65735937D01*
X99902590Y-65712644D01*
X99921030Y-65626671D01*
X99990458Y-65646522D01*
X100057017Y-65658074D01*
X100121187Y-65661842D01*
X100170390Y-65656950D01*
X100214763Y-65642639D01*
X100255395Y-65618814D01*
X100293012Y-65584539D01*
X100323187Y-65544016D01*
X100344897Y-65498481D01*
X100358314Y-65446987D01*
X100362988Y-65388290D01*
X99874563Y-65388290D01*
X99874563Y-65354951D01*
X99878448Y-65302316D01*
X99990701Y-65302316D01*
X100356149Y-65302316D01*
X100346285Y-65246487D01*
X100326091Y-65200002D01*
X100295699Y-65161022D01*
X100256665Y-65131142D01*
X100211616Y-65113161D01*
X100158740Y-65106922D01*
X100118266Y-65112895D01*
X100079973Y-65131094D01*
X100042602Y-65163403D01*
X100013938Y-65203595D01*
X99996673Y-65249352D01*
X99990701Y-65302316D01*
X99878448Y-65302316D01*
X99880269Y-65277648D01*
X99896425Y-65211660D01*
X99922129Y-65155085D01*
X99957239Y-65106434D01*
X100001715Y-65065129D01*
X100050123Y-65036377D01*
X100103372Y-65019066D01*
X100162831Y-65013133D01*
X100229849Y-65019633D01*
G37*
G36*
X99131027Y-65138185D02*
G01*
X99219830Y-65114390D01*
X99299738Y-65106922D01*
X99357195Y-65110461D01*
X99402147Y-65120051D01*
X99437002Y-65134521D01*
X99466256Y-65156123D01*
X99482274Y-65180259D01*
X99487560Y-65208100D01*
X99481888Y-65235141D01*
X99464357Y-65259024D01*
X99434442Y-65278171D01*
X99371484Y-65301339D01*
X99269635Y-65331931D01*
X99203217Y-65355316D01*
X99154902Y-65379986D01*
X99115440Y-65410977D01*
X99088345Y-65446481D01*
X99071870Y-65487859D01*
X99066119Y-65537095D01*
X99071567Y-65585464D01*
X99087332Y-65627349D01*
X99113528Y-65664234D01*
X99151543Y-65696952D01*
X99211095Y-65728562D01*
X99282571Y-65748518D01*
X99368736Y-65755631D01*
X99455459Y-65750297D01*
X99526767Y-65735510D01*
X99585258Y-65712644D01*
X99564741Y-65618855D01*
X99503871Y-65642672D01*
X99440145Y-65656999D01*
X99372827Y-65661842D01*
X99314251Y-65657856D01*
X99266766Y-65646851D01*
X99228358Y-65629846D01*
X99196280Y-65604987D01*
X99178552Y-65577164D01*
X99172670Y-65545033D01*
X99179406Y-65511742D01*
X99200331Y-65481407D01*
X99221334Y-65465611D01*
X99261667Y-65445923D01*
X99330451Y-65421690D01*
X99452084Y-65383588D01*
X99489569Y-65367937D01*
X99524441Y-65346402D01*
X99554158Y-65319303D01*
X99575366Y-65288028D01*
X99588312Y-65252506D01*
X99592768Y-65212008D01*
X99587683Y-65168366D01*
X99572915Y-65130403D01*
X99548232Y-65096770D01*
X99512168Y-65066744D01*
X99455956Y-65038209D01*
X99385798Y-65019807D01*
X99298333Y-65013133D01*
X99210526Y-65020462D01*
X99107091Y-65044396D01*
X99131027Y-65138185D01*
G37*
G36*
X98291808Y-65138185D02*
G01*
X98380611Y-65114390D01*
X98460519Y-65106922D01*
X98517977Y-65110461D01*
X98562928Y-65120051D01*
X98597784Y-65134521D01*
X98627037Y-65156123D01*
X98643055Y-65180259D01*
X98648342Y-65208100D01*
X98642670Y-65235141D01*
X98625139Y-65259024D01*
X98595224Y-65278171D01*
X98532266Y-65301339D01*
X98430416Y-65331931D01*
X98363998Y-65355316D01*
X98315683Y-65379986D01*
X98276222Y-65410977D01*
X98249127Y-65446481D01*
X98232652Y-65487859D01*
X98226901Y-65537095D01*
X98232349Y-65585464D01*
X98248114Y-65627349D01*
X98274309Y-65664234D01*
X98312325Y-65696952D01*
X98371876Y-65728562D01*
X98443353Y-65748518D01*
X98529518Y-65755631D01*
X98616241Y-65750297D01*
X98687548Y-65735510D01*
X98746039Y-65712644D01*
X98725523Y-65618855D01*
X98664653Y-65642672D01*
X98600927Y-65656999D01*
X98533609Y-65661842D01*
X98475032Y-65657856D01*
X98427547Y-65646851D01*
X98389139Y-65629846D01*
X98357061Y-65604987D01*
X98339333Y-65577164D01*
X98333452Y-65545033D01*
X98340188Y-65511742D01*
X98361112Y-65481407D01*
X98382115Y-65465611D01*
X98422448Y-65445923D01*
X98491233Y-65421690D01*
X98612866Y-65383588D01*
X98650351Y-65367937D01*
X98685223Y-65346402D01*
X98714940Y-65319303D01*
X98736147Y-65288028D01*
X98749093Y-65252506D01*
X98753550Y-65212008D01*
X98748465Y-65168366D01*
X98733696Y-65130403D01*
X98709014Y-65096770D01*
X98672949Y-65066744D01*
X98616738Y-65038209D01*
X98546579Y-65019807D01*
X98459115Y-65013133D01*
X98371308Y-65020462D01*
X98267873Y-65044396D01*
X98291808Y-65138185D01*
G37*
G36*
X97725766Y-65019868D02*
G01*
X97787380Y-65039143D01*
X97840913Y-65070474D01*
X97887709Y-65114616D01*
X97924519Y-65167360D01*
X97951511Y-65228564D01*
X97968484Y-65299797D01*
X97974476Y-65383039D01*
X97968499Y-65466984D01*
X97951578Y-65538778D01*
X97924693Y-65600413D01*
X97888075Y-65653476D01*
X97841416Y-65697893D01*
X97787887Y-65729428D01*
X97726120Y-65748841D01*
X97654090Y-65755631D01*
X97582477Y-65748843D01*
X97520885Y-65729408D01*
X97467329Y-65697784D01*
X97420472Y-65653171D01*
X97383648Y-65599900D01*
X97356653Y-65538222D01*
X97339689Y-65466585D01*
X97333827Y-65384748D01*
X97445019Y-65384748D01*
X97451626Y-65459855D01*
X97470511Y-65524603D01*
X97501072Y-65580936D01*
X97532225Y-65616872D01*
X97567467Y-65641691D01*
X97607611Y-65656661D01*
X97654090Y-65661842D01*
X97700992Y-65656688D01*
X97741251Y-65641845D01*
X97776341Y-65617332D01*
X97807109Y-65581974D01*
X97837142Y-65526274D01*
X97855843Y-65461246D01*
X97862430Y-65384748D01*
X97855745Y-65304086D01*
X97837112Y-65238176D01*
X97807780Y-65184164D01*
X97777497Y-65150209D01*
X97742504Y-65126470D01*
X97701881Y-65111982D01*
X97654090Y-65106922D01*
X97606691Y-65112009D01*
X97566159Y-65126619D01*
X97531002Y-65150647D01*
X97500340Y-65185141D01*
X97470516Y-65239824D01*
X97451717Y-65305496D01*
X97445019Y-65384748D01*
X97333827Y-65384748D01*
X97333705Y-65383039D01*
X97339681Y-65300206D01*
X97356631Y-65229142D01*
X97383621Y-65167912D01*
X97420472Y-65114982D01*
X97467290Y-65070664D01*
X97520832Y-65039222D01*
X97582438Y-65019888D01*
X97654090Y-65013133D01*
X97725766Y-65019868D01*
G37*
G36*
X96527948Y-65048304D02*
G01*
X96570995Y-65149909D01*
X96639659Y-65128710D01*
X96692567Y-65122554D01*
X96738614Y-65128966D01*
X96784830Y-65148871D01*
X96827217Y-65179988D01*
X96867812Y-65224036D01*
X96900696Y-65268817D01*
X96905730Y-65278869D01*
X96905730Y-65740000D01*
X97011610Y-65740000D01*
X97011610Y-65028764D01*
X96905730Y-65028764D01*
X96905730Y-65173356D01*
X96866149Y-65111195D01*
X96824659Y-65066677D01*
X96781116Y-65036648D01*
X96734781Y-65019055D01*
X96684385Y-65013133D01*
X96631404Y-65017008D01*
X96579428Y-65028646D01*
X96527948Y-65048304D01*
G37*
G36*
X95774153Y-65138185D02*
G01*
X95862956Y-65114390D01*
X95942864Y-65106922D01*
X96000322Y-65110461D01*
X96045273Y-65120051D01*
X96080128Y-65134521D01*
X96109382Y-65156123D01*
X96125400Y-65180259D01*
X96130687Y-65208100D01*
X96125014Y-65235141D01*
X96107484Y-65259024D01*
X96077569Y-65278171D01*
X96014610Y-65301339D01*
X95912761Y-65331931D01*
X95846343Y-65355316D01*
X95798028Y-65379986D01*
X95758567Y-65410977D01*
X95731472Y-65446481D01*
X95714996Y-65487859D01*
X95709246Y-65537095D01*
X95714694Y-65585464D01*
X95730458Y-65627349D01*
X95756654Y-65664234D01*
X95794670Y-65696952D01*
X95854221Y-65728562D01*
X95925698Y-65748518D01*
X96011863Y-65755631D01*
X96098586Y-65750297D01*
X96169893Y-65735510D01*
X96228384Y-65712644D01*
X96207867Y-65618855D01*
X96146998Y-65642672D01*
X96083271Y-65656999D01*
X96015954Y-65661842D01*
X95957377Y-65657856D01*
X95909892Y-65646851D01*
X95871484Y-65629846D01*
X95839406Y-65604987D01*
X95821678Y-65577164D01*
X95815797Y-65545033D01*
X95822533Y-65511742D01*
X95843457Y-65481407D01*
X95864460Y-65465611D01*
X95904793Y-65445923D01*
X95973577Y-65421690D01*
X96095210Y-65383588D01*
X96132696Y-65367937D01*
X96167567Y-65346402D01*
X96197284Y-65319303D01*
X96218492Y-65288028D01*
X96231438Y-65252506D01*
X96235894Y-65212008D01*
X96230809Y-65168366D01*
X96216041Y-65130403D01*
X96191359Y-65096770D01*
X96155294Y-65066744D01*
X96099083Y-65038209D01*
X96028924Y-65019807D01*
X95941460Y-65013133D01*
X95853652Y-65020462D01*
X95750217Y-65044396D01*
X95774153Y-65138185D01*
G37*
G36*
X104521039Y-66552449D02*
G01*
X104919948Y-66552449D01*
X104919948Y-66868988D01*
X104556515Y-66868988D01*
X104556515Y-66966685D01*
X104919948Y-66966685D01*
X104919948Y-67420000D01*
X105031995Y-67420000D01*
X105031995Y-66454752D01*
X104521039Y-66454752D01*
X104521039Y-66552449D01*
G37*
G36*
X104006331Y-66699633D02*
G01*
X104065167Y-66718423D01*
X104117498Y-66749311D01*
X104164444Y-66793272D01*
X104201297Y-66845371D01*
X104228385Y-66906294D01*
X104245469Y-66977702D01*
X104251517Y-67061695D01*
X104244852Y-67146875D01*
X104225977Y-67219344D01*
X104195875Y-67281326D01*
X104154552Y-67334515D01*
X104102959Y-67378237D01*
X104044198Y-67409535D01*
X103976866Y-67428872D01*
X103899013Y-67435631D01*
X103816111Y-67430524D01*
X103743278Y-67415937D01*
X103679072Y-67392644D01*
X103697513Y-67306671D01*
X103766940Y-67326522D01*
X103833500Y-67338074D01*
X103897670Y-67341842D01*
X103946873Y-67336950D01*
X103991246Y-67322639D01*
X104031877Y-67298814D01*
X104069495Y-67264539D01*
X104099670Y-67224016D01*
X104121380Y-67178481D01*
X104134797Y-67126987D01*
X104139470Y-67068290D01*
X103651046Y-67068290D01*
X103651046Y-67034951D01*
X103654930Y-66982316D01*
X103767183Y-66982316D01*
X104132631Y-66982316D01*
X104122768Y-66926487D01*
X104102573Y-66880002D01*
X104072181Y-66841022D01*
X104033147Y-66811142D01*
X103988099Y-66793161D01*
X103935222Y-66786922D01*
X103894748Y-66792895D01*
X103856455Y-66811094D01*
X103819085Y-66843403D01*
X103790420Y-66883595D01*
X103773155Y-66929352D01*
X103767183Y-66982316D01*
X103654930Y-66982316D01*
X103656751Y-66957648D01*
X103672908Y-66891660D01*
X103698612Y-66835085D01*
X103733722Y-66786434D01*
X103778197Y-66745129D01*
X103826606Y-66716377D01*
X103879855Y-66699066D01*
X103939313Y-66693133D01*
X104006331Y-66699633D01*
G37*
G36*
X103381585Y-67420000D02*
G01*
X103274973Y-67420000D01*
X103274973Y-67314487D01*
X103250075Y-67348487D01*
X103219856Y-67377713D01*
X103183809Y-67402475D01*
X103144223Y-67420944D01*
X103103086Y-67431935D01*
X103059795Y-67435631D01*
X103000965Y-67428750D01*
X102949502Y-67408718D01*
X102903627Y-67375156D01*
X102862385Y-67326027D01*
X102831089Y-67270002D01*
X102808080Y-67206631D01*
X102793670Y-67134718D01*
X102789106Y-67060657D01*
X102899938Y-67060657D01*
X102906042Y-67138304D01*
X102923319Y-67204253D01*
X102950862Y-67260570D01*
X102979646Y-67297290D01*
X103011541Y-67322116D01*
X103047172Y-67336814D01*
X103087822Y-67341842D01*
X103122895Y-67337491D01*
X103157906Y-67324101D01*
X103193701Y-67300443D01*
X103239424Y-67254211D01*
X103274973Y-67197250D01*
X103274973Y-66908066D01*
X103230643Y-66852080D01*
X103184606Y-66815192D01*
X103136124Y-66793988D01*
X103083669Y-66786922D01*
X103042371Y-66791748D01*
X103006868Y-66805701D01*
X102975808Y-66828935D01*
X102948481Y-66862821D01*
X102922580Y-66915574D01*
X102905943Y-66980575D01*
X102899938Y-67060657D01*
X102789106Y-67060657D01*
X102788624Y-67052841D01*
X102793512Y-66971496D01*
X102807283Y-66902097D01*
X102828944Y-66842848D01*
X102857989Y-66792234D01*
X102896468Y-66748530D01*
X102940687Y-66718093D01*
X102991766Y-66699582D01*
X103051613Y-66693133D01*
X103116847Y-66700642D01*
X103178985Y-66723236D01*
X103233838Y-66758640D01*
X103274973Y-66802554D01*
X103274973Y-66454752D01*
X103381585Y-66454752D01*
X103381585Y-67420000D01*
G37*
G36*
X101179857Y-67420000D02*
G01*
X101709987Y-67420000D01*
X101709987Y-67338728D01*
X101526690Y-67131403D01*
X101448341Y-67037698D01*
X101393511Y-66958839D01*
X101350644Y-66877353D01*
X101329485Y-66820459D01*
X101317143Y-66764893D01*
X101313092Y-66710108D01*
X101318930Y-66658538D01*
X101335341Y-66617000D01*
X101361941Y-66583224D01*
X101397179Y-66558299D01*
X101441925Y-66542526D01*
X101498900Y-66536817D01*
X101543502Y-66540664D01*
X101602850Y-66553967D01*
X101680616Y-66579804D01*
X101696309Y-66482107D01*
X101626491Y-66458226D01*
X101554745Y-66443923D01*
X101480459Y-66439120D01*
X101416437Y-66444075D01*
X101361390Y-66458168D01*
X101313780Y-66480731D01*
X101272426Y-66511782D01*
X101238302Y-66550570D01*
X101213900Y-66595002D01*
X101198816Y-66646192D01*
X101193535Y-66705711D01*
X101197943Y-66762612D01*
X101211323Y-66819706D01*
X101234202Y-66877597D01*
X101280125Y-66960465D01*
X101338371Y-67041240D01*
X101417513Y-67134271D01*
X101585606Y-67322302D01*
X101179857Y-67322302D01*
X101179857Y-67420000D01*
G37*
G36*
X100622911Y-66837176D02*
G01*
X100646646Y-66846935D01*
X100667558Y-66863309D01*
X100683613Y-66884428D01*
X100693237Y-66908545D01*
X100696562Y-66936582D01*
X100693206Y-66965093D01*
X100683392Y-66990280D01*
X100666886Y-67012969D01*
X100645419Y-67030873D01*
X100621885Y-67041310D01*
X100595445Y-67044842D01*
X100568592Y-67041299D01*
X100544757Y-67030848D01*
X100523088Y-67012969D01*
X100506328Y-66990250D01*
X100496383Y-66965065D01*
X100492986Y-66936582D01*
X100496356Y-66909029D01*
X100506183Y-66884997D01*
X100522722Y-66863614D01*
X100544032Y-66847037D01*
X100567981Y-66837193D01*
X100595445Y-66833817D01*
X100622911Y-66837176D01*
G37*
G36*
X100653773Y-66444744D02*
G01*
X100706725Y-66460883D01*
X100753134Y-66487161D01*
X100794093Y-66524178D01*
X100830102Y-66573454D01*
X100863058Y-66641049D01*
X100888202Y-66722565D01*
X100904483Y-66820508D01*
X100910336Y-66937742D01*
X100904209Y-67058780D01*
X100887296Y-67158130D01*
X100861400Y-67239218D01*
X100827720Y-67305022D01*
X100790929Y-67353046D01*
X100749753Y-67389091D01*
X100703719Y-67414611D01*
X100651840Y-67430218D01*
X100592698Y-67435631D01*
X100531319Y-67429993D01*
X100478205Y-67413829D01*
X100431751Y-67387534D01*
X100390850Y-67350527D01*
X100354988Y-67301297D01*
X100322145Y-67233709D01*
X100297096Y-67152297D01*
X100280884Y-67054584D01*
X100275060Y-66937742D01*
X100275097Y-66937009D01*
X100393945Y-66937009D01*
X100397886Y-67046755D01*
X100408416Y-67131234D01*
X100423831Y-67195009D01*
X100442794Y-67242130D01*
X100471501Y-67285213D01*
X100505355Y-67314393D01*
X100545147Y-67331859D01*
X100592759Y-67337934D01*
X100639937Y-67331847D01*
X100679481Y-67314314D01*
X100713246Y-67284943D01*
X100741991Y-67241458D01*
X100760998Y-67194000D01*
X100776411Y-67130137D01*
X100786915Y-67045945D01*
X100790840Y-66937009D01*
X100786922Y-66829717D01*
X100776399Y-66746201D01*
X100760896Y-66682305D01*
X100741686Y-66634331D01*
X100712710Y-66590251D01*
X100678895Y-66560578D01*
X100639517Y-66542928D01*
X100592759Y-66536817D01*
X100545101Y-66542863D01*
X100505296Y-66560230D01*
X100471461Y-66589214D01*
X100442794Y-66631950D01*
X100423865Y-66678712D01*
X100408448Y-66742289D01*
X100397899Y-66826830D01*
X100393945Y-66937009D01*
X100275097Y-66937009D01*
X100281163Y-66816665D01*
X100298012Y-66717230D01*
X100323814Y-66636029D01*
X100357370Y-66570095D01*
X100394030Y-66521963D01*
X100435161Y-66485825D01*
X100481241Y-66460226D01*
X100533274Y-66444558D01*
X100592698Y-66439120D01*
X100653773Y-66444744D01*
G37*
G36*
X99501421Y-67420000D02*
G01*
X100031550Y-67420000D01*
X100031550Y-67338728D01*
X99848253Y-67131403D01*
X99769905Y-67037698D01*
X99715074Y-66958839D01*
X99672207Y-66877353D01*
X99651048Y-66820459D01*
X99638706Y-66764893D01*
X99634655Y-66710108D01*
X99640493Y-66658538D01*
X99656904Y-66617000D01*
X99683504Y-66583224D01*
X99718742Y-66558299D01*
X99763488Y-66542526D01*
X99820463Y-66536817D01*
X99865065Y-66540664D01*
X99924413Y-66553967D01*
X100002180Y-66579804D01*
X100017872Y-66482107D01*
X99948055Y-66458226D01*
X99876308Y-66443923D01*
X99802023Y-66439120D01*
X99738000Y-66444075D01*
X99682953Y-66458168D01*
X99635343Y-66480731D01*
X99593989Y-66511782D01*
X99559865Y-66550570D01*
X99535463Y-66595002D01*
X99520379Y-66646192D01*
X99515098Y-66705711D01*
X99519506Y-66762612D01*
X99532886Y-66819706D01*
X99555765Y-66877597D01*
X99601688Y-66960465D01*
X99659934Y-67041240D01*
X99739077Y-67134271D01*
X99907169Y-67322302D01*
X99501421Y-67322302D01*
X99501421Y-67420000D01*
G37*
G36*
X98915783Y-66445055D02*
G01*
X98971782Y-66462284D01*
X99022255Y-66490686D01*
X99068185Y-66531121D01*
X99110021Y-66585361D01*
X99149775Y-66659867D01*
X99179090Y-66744263D01*
X99197486Y-66840118D01*
X99203933Y-66949282D01*
X99197807Y-67051375D01*
X99180246Y-67141926D01*
X99152108Y-67222525D01*
X99113746Y-67294520D01*
X99073523Y-67347040D01*
X99029608Y-67386078D01*
X98981593Y-67413414D01*
X98928568Y-67429948D01*
X98869198Y-67435631D01*
X98810490Y-67429852D01*
X98759686Y-67413237D01*
X98715168Y-67386038D01*
X98675880Y-67347398D01*
X98644869Y-67301556D01*
X98622354Y-67249794D01*
X98608353Y-67191049D01*
X98604152Y-67133442D01*
X98722347Y-67133442D01*
X98727420Y-67196205D01*
X98741283Y-67245304D01*
X98762647Y-67283590D01*
X98793010Y-67313572D01*
X98830492Y-67331587D01*
X98877380Y-67337934D01*
X98918070Y-67332171D01*
X98955265Y-67314888D01*
X98990252Y-67284697D01*
X99023560Y-67238527D01*
X99055656Y-67170212D01*
X99075028Y-67096948D01*
X99081628Y-67017487D01*
X99036710Y-66984365D01*
X98990515Y-66961428D01*
X98942448Y-66947813D01*
X98891729Y-66943237D01*
X98840301Y-66949338D01*
X98799460Y-66966442D01*
X98766738Y-66994223D01*
X98742901Y-67030585D01*
X98727797Y-67076154D01*
X98722347Y-67133442D01*
X98604152Y-67133442D01*
X98603462Y-67123977D01*
X98608844Y-67063834D01*
X98624333Y-67011232D01*
X98649579Y-66964737D01*
X98685100Y-66923332D01*
X98728164Y-66889484D01*
X98775833Y-66865394D01*
X98829023Y-66850644D01*
X98888982Y-66845540D01*
X98940367Y-66850077D01*
X98989713Y-66863642D01*
X99037748Y-66886584D01*
X99085048Y-66919790D01*
X99080639Y-66834088D01*
X99068220Y-66760598D01*
X99048763Y-66697638D01*
X99022888Y-66643735D01*
X98987267Y-66595396D01*
X98947171Y-66562782D01*
X98901793Y-66543453D01*
X98849353Y-66536817D01*
X98797550Y-66540401D01*
X98740031Y-66551754D01*
X98675880Y-66571988D01*
X98658111Y-66474291D01*
X98713857Y-66455353D01*
X98778286Y-66443357D01*
X98852834Y-66439120D01*
X98915783Y-66445055D01*
G37*
D11*
%TO.C,G\u002A\u002A\u002A*%
G36*
X104758667Y-56569702D02*
G01*
X104732492Y-56714839D01*
X104631667Y-56878666D01*
X104626402Y-56883286D01*
X104582533Y-56952082D01*
X104550232Y-57080101D01*
X104527895Y-57289357D01*
X104513923Y-57601866D01*
X104506714Y-58039642D01*
X104504667Y-58624700D01*
X104504667Y-60265333D01*
X103360078Y-60265333D01*
X102215488Y-60265333D01*
X102238244Y-58339166D01*
X102261000Y-56413000D01*
X103509834Y-56389569D01*
X104758667Y-56366139D01*
X104758667Y-56569702D01*
G37*
G36*
X97371500Y-56389569D02*
G01*
X98620334Y-56413000D01*
X98662667Y-58572000D01*
X98705000Y-60731000D01*
X98940084Y-61130916D01*
X99157236Y-61425280D01*
X99575084Y-61765916D01*
X99975000Y-62001000D01*
X102091667Y-62043333D01*
X104208334Y-62085666D01*
X103844024Y-62439936D01*
X103682456Y-62581129D01*
X103389259Y-62786595D01*
X103124357Y-62920085D01*
X103015042Y-62951440D01*
X102825258Y-62984293D01*
X102562676Y-63009454D01*
X102207994Y-63027854D01*
X101741911Y-63040427D01*
X101145124Y-63048105D01*
X100398334Y-63051822D01*
X99738632Y-63053086D01*
X99181077Y-63052288D01*
X98750294Y-63047795D01*
X98424351Y-63038092D01*
X98181317Y-63021663D01*
X97999259Y-62996991D01*
X97856246Y-62962560D01*
X97730345Y-62916855D01*
X97599626Y-62858360D01*
X97376394Y-62734636D01*
X96984450Y-62417983D01*
X96668955Y-62034070D01*
X96474928Y-61631985D01*
X96443283Y-61451470D01*
X96414604Y-61094909D01*
X96393735Y-60584050D01*
X96380986Y-59926789D01*
X96376667Y-59131019D01*
X96376528Y-58872946D01*
X96374321Y-58254182D01*
X96368592Y-57779367D01*
X96358271Y-57429779D01*
X96342288Y-57186697D01*
X96319573Y-57031401D01*
X96289056Y-56945170D01*
X96249667Y-56909284D01*
X96163162Y-56813530D01*
X96122667Y-56613344D01*
X96122667Y-56366139D01*
X97371500Y-56389569D01*
G37*
G36*
X107298667Y-58322988D02*
G01*
X107298688Y-58546117D01*
X107299405Y-59236809D01*
X107301993Y-59781611D01*
X107307588Y-60198815D01*
X107317327Y-60506716D01*
X107332349Y-60723609D01*
X107353790Y-60867788D01*
X107382787Y-60957546D01*
X107420478Y-61011180D01*
X107468000Y-61046982D01*
X107571716Y-61152793D01*
X107637334Y-61386366D01*
X107637334Y-61620000D01*
X104035628Y-61620000D01*
X103453056Y-61619872D01*
X102674430Y-61618852D01*
X102038226Y-61616225D01*
X101528058Y-61611299D01*
X101127538Y-61603383D01*
X100820276Y-61591785D01*
X100589886Y-61575815D01*
X100419979Y-61554780D01*
X100294167Y-61527990D01*
X100196063Y-61494753D01*
X100109278Y-61454379D01*
X99973026Y-61380623D01*
X99732188Y-61215831D01*
X99542606Y-61018625D01*
X99398961Y-60769528D01*
X99295937Y-60449064D01*
X99228216Y-60037755D01*
X99190482Y-59516126D01*
X99177418Y-58864700D01*
X99181711Y-58318000D01*
X101541334Y-58318000D01*
X101541752Y-58806698D01*
X101544542Y-59314994D01*
X101551606Y-59694514D01*
X101564822Y-59968260D01*
X101586072Y-60159238D01*
X101617233Y-60290448D01*
X101660187Y-60384895D01*
X101716812Y-60465581D01*
X101892291Y-60688666D01*
X103494812Y-60688666D01*
X105097334Y-60688666D01*
X105097334Y-58318000D01*
X105097334Y-55947333D01*
X103494812Y-55947333D01*
X101892291Y-55947333D01*
X101716812Y-56170418D01*
X101672301Y-56231596D01*
X101626277Y-56320702D01*
X101592490Y-56441120D01*
X101569062Y-56615853D01*
X101554111Y-56867905D01*
X101545760Y-57220277D01*
X101542127Y-57695975D01*
X101541334Y-58318000D01*
X99181711Y-58318000D01*
X99183705Y-58064000D01*
X99187230Y-57852529D01*
X99200993Y-57239315D01*
X99222558Y-56763385D01*
X99258374Y-56400010D01*
X99314889Y-56124463D01*
X99398554Y-55912015D01*
X99515819Y-55737937D01*
X99673131Y-55577500D01*
X99876941Y-55405976D01*
X100202216Y-55143000D01*
X103919775Y-55119273D01*
X107637334Y-55095546D01*
X107637334Y-55346400D01*
X107602415Y-55541045D01*
X107468000Y-55651000D01*
X107450121Y-55657116D01*
X107406211Y-55682498D01*
X107371724Y-55733741D01*
X107345522Y-55828777D01*
X107326470Y-55985542D01*
X107313430Y-56221970D01*
X107305266Y-56555994D01*
X107300842Y-57005549D01*
X107299022Y-57588569D01*
X107298669Y-58318000D01*
X107298667Y-58322988D01*
G37*
%TD*%
M02*
