%TF.GenerationSoftware,KiCad,Pcbnew,9.0.7*%
%TF.CreationDate,2026-02-03T14:42:13-07:00*%
%TF.ProjectId,Uno_Shield_DSP,556e6f5f-5368-4696-956c-645f4453502e,rev?*%
%TF.SameCoordinates,Original*%
%TF.FileFunction,Profile,NP*%
%FSLAX46Y46*%
G04 Gerber Fmt 4.6, Leading zero omitted, Abs format (unit mm)*
G04 Created by KiCad (PCBNEW 9.0.7) date 2026-02-03 14:42:13*
%MOMM*%
%LPD*%
G01*
G04 APERTURE LIST*
%TA.AperFunction,Profile*%
%ADD10C,0.150000*%
%TD*%
G04 APERTURE END LIST*
D10*
X167180000Y-74600001D02*
G75*
G02*
X167580000Y-74200000I400000J1D01*
G01*
X88400000Y-99989106D02*
X88400000Y-47410893D01*
X168580000Y-78600000D02*
X168580000Y-87020000D01*
X167580000Y-91420000D02*
X168580000Y-91420000D01*
X168580000Y-87020000D02*
X167580000Y-87020000D01*
X165278000Y-100000000D02*
X88400000Y-99989106D01*
X168580000Y-74200000D02*
X167580000Y-74200000D01*
X166040000Y-59360000D02*
X168580000Y-61900000D01*
X168580000Y-96190000D02*
X166040000Y-98730000D01*
X163500000Y-46660000D02*
X166040000Y-49200000D01*
X167180000Y-87420000D02*
X167180000Y-91020000D01*
X167580000Y-91420000D02*
G75*
G02*
X167180000Y-91020000I0J400000D01*
G01*
X166040000Y-99238000D02*
G75*
G02*
X165278000Y-100000000I-762000J0D01*
G01*
X167180000Y-74600000D02*
X167180002Y-78199998D01*
X163500000Y-46660000D02*
X89162000Y-46648900D01*
X168580000Y-91420000D02*
X168580000Y-96190000D01*
X167180000Y-87420000D02*
G75*
G02*
X167580000Y-87020000I400000J0D01*
G01*
X167580000Y-78600000D02*
X168580000Y-78600000D01*
X166040000Y-49200000D02*
X166040000Y-59360000D01*
X166040000Y-98730000D02*
X166040000Y-99238000D01*
X168580000Y-61900000D02*
X168580000Y-74200000D01*
X88400000Y-47410893D02*
G75*
G02*
X89162000Y-46648900I762000J-7D01*
G01*
X167580000Y-78600000D02*
G75*
G02*
X167180000Y-78200000I0J400000D01*
G01*
M02*
